<?xml version="1.0" standalone="no"?>
<!DOCTYPE svg PUBLIC "-//W3C//DTD SVG 20010904//EN"
 "http://www.w3.org/TR/2001/REC-SVG-20010904/DTD/svg10.dtd">
<svg version="1.0" xmlns="http://www.w3.org/2000/svg"
 width="16.000000pt" height="16.000000pt" viewBox="0 0 16.000000 16.000000"
 preserveAspectRatio="xMidYMid meet">
<metadata>
Created by potrace 1.11, written by Peter Selinger 2001-2013
</metadata>
<g transform="translate(0.000000,16.000000) scale(0.006154,-0.006154)"
fill="#000000" stroke="none">
<path d="M0 1300 l0 -1300 1300 0 1300 0 0 1300 0 1300 -1300 0 -1300 0 0
-1300z m698 704 c106 -22 116 -28 109 -71 -10 -57 -23 -66 -87 -59 -30 4 -95
9 -145 12 -79 5 -94 3 -122 -15 -54 -34 -57 -108 -5 -135 15 -8 77 -28 137
-46 125 -36 184 -66 219 -113 31 -42 38 -67 37 -134 -1 -110 -69 -188 -186
-214 -68 -15 -228 -7 -317 16 -66 17 -68 18 -68 49 0 17 7 42 16 55 15 21 21
23 78 17 169 -18 252 -18 284 -2 37 19 52 44 52 86 0 50 -33 72 -159 109 -138
39 -178 59 -219 105 -53 61 -65 163 -26 237 52 102 210 143 402 103z m1517 -4
c22 -6 57 -18 78 -27 36 -16 39 -19 33 -51 -10 -67 -41 -76 -158 -46 -148 38
-274 -9 -334 -126 -28 -56 -31 -173 -4 -242 26 -71 98 -139 164 -158 54 -15
136 -9 189 13 l37 16 0 85 0 86 -88 0 c-55 0 -92 4 -100 12 -7 7 -12 34 -12
60 l0 48 149 0 c192 0 181 13 181 -207 l0 -163 -32 -20 c-69 -42 -160 -62
-271 -58 -92 3 -109 6 -169 36 -283 139 -287 579 -7 715 30 15 75 32 99 37 52
11 186 5 245 -10z m-825 -6 c90 -27 150 -105 150 -194 -1 -45 -37 -108 -81
-139 -23 -17 -35 -31 -27 -31 27 0 94 -57 112 -95 22 -45 23 -130 3 -177 -18
-42 -61 -82 -112 -105 -32 -14 -76 -18 -231 -21 -191 -4 -192 -4 -208 19 -14
21 -16 67 -16 369 0 297 2 349 16 368 15 21 21 22 178 22 120 0 176 -4 216
-16z m960 -999 c0 -13 -123 -15 -1045 -15 -922 0 -1045 2 -1045 15 0 13 123
15 1045 15 922 0 1045 -2 1045 -15z m-1967 -210 c1 -5 -17 -11 -40 -13 -40 -3
-43 -5 -43 -33 0 -27 2 -29 40 -29 29 0 40 -4 40 -15 0 -11 -11 -15 -40 -15
-38 0 -40 -2 -40 -30 0 -29 2 -30 46 -30 32 0 44 -4 42 -12 -3 -9 -25 -13 -64
-13 l-59 0 -3 89 c-2 49 0 96 2 103 7 16 115 14 119 -2z m151 -58 l41 -68 5
68 c4 52 9 68 20 68 12 0 15 -18 15 -100 0 -92 -1 -100 -19 -100 -14 0 -33 21
-60 68 l-41 68 -5 -68 c-4 -54 -9 -68 -22 -71 -16 -3 -18 7 -18 96 0 54 3 102
7 106 17 16 39 -3 77 -67z m305 59 c17 -20 -1 -28 -33 -16 -67 25 -122 -53
-85 -121 25 -48 99 -43 99 6 0 21 -5 25 -30 25 -20 0 -30 5 -30 15 0 11 12 15
45 15 l45 0 0 -50 c0 -38 -4 -52 -19 -60 -26 -13 -74 -13 -105 1 -25 12 -56
63 -56 94 0 29 30 82 53 93 32 16 103 14 116 -2z m111 -91 c0 -87 -3 -105 -15
-105 -12 0 -15 18 -15 98 0 54 3 102 7 105 18 19 23 -2 23 -98z m121 88 c8 -9
31 -43 51 -77 l38 -61 0 78 c0 62 3 77 15 77 12 0 15 -18 15 -105 0 -94 -2
-105 -18 -105 -11 0 -34 27 -65 77 l-47 78 0 -78 c0 -62 -3 -77 -15 -77 -12 0
-15 18 -15 105 0 83 3 105 14 105 7 0 20 -7 27 -17z m312 2 c1 -5 -17 -11 -40
-13 -40 -3 -43 -5 -43 -33 0 -27 2 -29 40 -29 29 0 40 -4 40 -15 0 -11 -11
-15 -40 -15 -38 0 -40 -2 -40 -30 0 -29 2 -30 46 -30 32 0 44 -4 42 -12 -3 -9
-25 -13 -64 -13 l-59 0 -3 89 c-2 49 0 96 2 103 7 16 115 14 119 -2z m190 0
c1 -5 -17 -11 -40 -13 -40 -3 -43 -5 -43 -33 0 -27 2 -29 40 -29 29 0 40 -4
40 -15 0 -11 -11 -15 -40 -15 -38 0 -40 -2 -40 -30 0 -29 2 -30 46 -30 32 0
44 -4 42 -12 -3 -9 -25 -13 -64 -13 l-59 0 -3 89 c-2 49 0 96 2 103 7 16 115
14 119 -2z m194 -11 c25 -34 10 -83 -29 -96 -9 -3 -4 -15 15 -37 50 -60 22
-73 -34 -15 l-34 35 -5 -33 c-3 -21 -11 -34 -22 -36 -16 -3 -18 7 -18 96 0 54
3 102 8 106 14 15 105 0 119 -20z m103 -79 c0 -87 -3 -105 -15 -105 -12 0 -15
18 -15 98 0 54 3 102 7 105 18 19 23 -2 23 -98z m121 88 c8 -9 31 -43 51 -77
l38 -61 0 78 c0 62 3 77 15 77 12 0 15 -18 15 -105 0 -94 -2 -105 -18 -105
-11 0 -34 27 -65 77 l-47 78 0 -78 c0 -62 -3 -77 -15 -77 -12 0 -15 18 -15
105 0 83 3 105 14 105 7 0 20 -7 27 -17z m333 11 c9 -3 16 -13 16 -21 0 -12
-6 -13 -27 -8 -40 11 -63 8 -83 -10 -40 -36 -30 -107 18 -131 36 -18 62 -7 62
27 0 24 -4 29 -25 29 -16 0 -25 6 -25 16 0 12 9 14 43 12 l42 -3 3 -45 c4 -54
-13 -70 -76 -70 -63 0 -102 40 -102 105 0 63 39 105 98 105 22 0 47 -3 56 -6z"/>
<path d="M1120 1791 l0 -101 99 0 c86 0 102 3 132 23 61 41 64 108 7 150 -22
16 -47 21 -133 25 l-105 5 0 -102z"/>
<path d="M1120 1459 l0 -112 108 5 c150 7 192 31 192 111 0 76 -60 107 -209
107 l-91 0 0 -111z"/>
<path d="M1680 735 c0 -34 2 -36 28 -33 23 3 27 8 27 33 0 25 -4 30 -27 33
-26 3 -28 1 -28 -33z"/>
</g>
</svg>
