<?xml version="1.0" encoding="utf-8"?>
<svg version="1.1" xmlns="http://www.w3.org/2000/svg" xmlns:xlink="http://www.w3.org/1999/xlink" x="0px" y="0px"
	 viewBox="0 0 1920 1920" style="enable-background:new 0 0 1920 1920;" xml:space="preserve">
<style type="text/css">path{fill:#000}</style>
<g>
	<path class="st1" d="M1183.8,801.5c9.5,4.9,29.2,10.9,53.9,11.5c42.4,0.9,65.5-15.3,82.7-53.3L1548.1,252
		c-9.5-5.1-30.2-10.7-47.2-11.1c-29.3-0.5-68.5,5.4-93.7,65.3l-73.7,174l-144.6-235.5c-9.2-2.8-32.1-6.9-48.8-6.9
		c-50.9,0-79.5,18.8-109,50.9L890.4,442.4l113.1,178c20.9,32.4,48.4,48.9,93.2,48.9c29.2,0,53.5-6.7,64.8-12.1l-136-205.3
		l96.4-102.2l158.3,248.4L1183.8,801.5z M885.1,609.4c0,37.5-14.6,59-87.7,59c-9.7,0-18.2-0.7-26.3-1.9V170c0-37.7,12.8-77,86.6-77
		c9.3,0,18.7,0.9,27.4,2.7V609.4z M734.4,534.5c0,69.8-45.7,120.9-138.3,130.8c-67.1,7.2-164.4-1.3-210.4-6.6
		c-1.8-7.5-3.1-16.9-3.1-24.3c0-61,33-75,63.9-75c32.1,0,82.7,5.6,120.4,5.6c41.3,0,54-14,54-27.4c0-17.6-16.7-24.8-48.9-30.9
		l-87.8-16.9c-73.2-14-112.2-64.6-112.2-118.3c0-65.3,46.2-119.9,137-130c68.8-7.4,152.4,0.9,198.2,6.5c1.6,8,2.6,15.4,2.6,23.6
		c0,60.8-32.1,74-63.1,74c-23.7,0-60.6-4.6-102.6-4.6c-42.9,0-60.7,11.9-60.7,26.4c0,15.2,16.9,21.5,43.8,26.2l84,15.5
		C697.3,425.2,734.4,474.2,734.4,534.5z"/>
</g>
<g>
	<g>
		<path class="st1" d="M392.7,1266.3c6.3,0,10.4-1.5,12.6-4.5c2-2.8,3.2-6.7,3.8-11.7c0.3-2.9,0.4-6.1,0.4-9.3v-3.9
			c6,8.9,14.3,16.4,24.6,22.2c11.8,6.6,25.1,10,39.7,10c13.5,0,25.8-2.6,36.7-7.8c10.8-5.2,20.3-12.3,28.1-21.1
			c7.8-8.8,13.9-19.5,18.1-31.6c4.2-12.1,6.3-25.5,6.3-39.6c0-15.5-2.5-29.5-7.4-41.5c-4.9-12-11.4-22.2-19.5-30.2
			c-8.1-8.1-17.5-14.3-28.1-18.5c-10.6-4.2-21.7-6.4-33-6.4c-15.8,0-29.6,3.2-40.8,9.4c-9.7,5.3-17.4,11.3-23.1,17.8V998.4l-0.9-0.4
			c-1.4-0.6-3.3-1-5.7-1.3c-2.3-0.3-4.7-0.4-7-0.4c-5.7,0-9.5,1.1-11.8,3.4c-2.2,2.2-3.4,5.1-3.4,8.7v183.3
			c0,14.5-0.2,28.2-0.6,40.5c-0.4,12.3-0.8,22.7-1.4,31.1l-0.1,1.1l1,0.4C384.2,1265.8,388.1,1266.3,392.7,1266.3z M411,1185.8
			v-52.9c5.1-10.5,12.9-19,23.2-25.3c10.4-6.4,22.3-9.6,35.3-9.6c8.9,0,17.3,1.6,24.9,4.8c7.6,3.2,14.4,7.9,20.1,13.9
			c5.7,6.1,10.3,13.6,13.6,22.4c3.3,8.8,5,19.1,5,30.6c0,12-1.7,22.8-5,32c-3.3,9.2-7.9,16.9-13.6,23c-5.7,6.1-12.4,10.8-19.9,13.9
			c-7.5,3.2-15.7,4.8-24.3,4.8c-8.4,0-16.2-1.5-23.3-4.4c-7.1-2.9-13.4-7-18.7-12.2c-5.3-5.2-9.6-11.4-12.6-18.3
			C412.5,1201.5,411,1193.9,411,1185.8z"/>
		<path class="st1" d="M750.4,1102.6c-7-8.7-16.1-16-26.9-21.7c-10.9-5.7-23.7-8.6-38.3-8.6c-12.7,0-24.7,2.5-35.7,7.6
			c-11,5-20.7,12-28.8,20.7c-8.2,8.7-14.7,19.2-19.3,31.2c-4.6,12-6.9,25.1-6.9,39.1c0,13.9,2.2,27,6.5,38.9
			c4.4,11.9,10.8,22.5,19.1,31.4c8.3,9,18.7,16.1,30.9,21.1c12.1,5,26,7.6,41.3,7.6c14.4,0,27.8-1.9,39.8-5.5
			c11.9-3.7,21.6-7.4,28.6-11.1l0.6-0.3l0.1-0.7c1.1-6.1,0.4-11.1-2.2-15c-2.6-3.9-6.1-5.9-10.2-5.9c-3,0-6.4,0.7-9.9,2.1
			c-3.3,1.3-7.2,2.7-11.9,4.3c-4.5,1.5-9.7,3-15.5,4.3c-5.7,1.3-12.5,1.9-20.2,1.9c-9.2,0-17.9-1.4-25.9-4.2
			c-8-2.8-15.2-7-21.2-12.4c-6.1-5.5-11.1-12.2-14.7-20.1c-3.5-7.5-5.6-16.3-6.2-26.1h146.4l0.3-1.1c0.8-3.3,1.2-9,1.2-17.6
			c0-9.8-1.7-20-5.2-30.6C762.7,1121.1,757.4,1111.4,750.4,1102.6z M685.2,1096.8c8.6,0,16.5,1.7,23.5,5c7,3.3,13,7.8,17.9,13.5
			c5,5.7,8.9,12.5,11.9,20.1c2.8,7.2,4.5,15,5.1,23.1H623.8c0.9-8.4,2.8-16.2,5.8-23.4c3.2-7.6,7.5-14.4,12.8-20.1
			c5.3-5.7,11.7-10.2,18.9-13.4C668.6,1098.4,676.6,1096.8,685.2,1096.8z"/>
		<path class="st1" d="M915,1252.8l0.1-0.7c0.8-6.7,0.2-11.5-2-14.7c-2.2-3.3-5.5-4.9-9.6-4.9c-2.3,0-4.7,0.6-7.3,1.7
			c-2.3,1-5,2.2-8,3.5c-2.9,1.3-6.3,2.4-10,3.5c-3.6,1-7.8,1.5-12.3,1.5c-11.5,0-20.1-3.4-25.5-10c-5.5-6.7-8.3-15.9-8.3-27.3
			v-103.9h61.6c3,0,5.5-0.9,7.5-2.7c2-1.9,3-5.2,3-10.1c0-4.4-0.4-7.7-1.2-10.3l-0.3-1h-70.5v-50.8l-0.9-0.4c-1.4-0.6-3.2-1-5.5-1.3
			c-2.2-0.3-4.1-0.4-5.7-0.4c-7.1,0-11.7,1.8-13.8,5.4c-2,3.3-2.9,7-2.9,10.9v166c0,18,5.3,32.9,15.7,44.3
			c10.4,11.4,25.3,17.1,44.1,17.1c10.5,0,20.1-1.4,28.5-4.2c8.3-2.8,16-6.4,22.9-10.9L915,1252.8z"/>
		<path class="st1" d="M1058.9,1252.8l0.1-0.7c0.8-6.7,0.2-11.5-2-14.7c-2.2-3.3-5.5-4.9-9.6-4.9c-2.3,0-4.7,0.6-7.3,1.7
			c-2.3,1-5,2.2-8,3.5c-2.9,1.3-6.3,2.4-10,3.5c-3.6,1-7.8,1.5-12.3,1.5c-11.5,0-20.1-3.4-25.5-10c-5.5-6.7-8.3-15.9-8.3-27.3
			v-103.9h61.6c3,0,5.5-0.9,7.5-2.7c2-1.9,3-5.2,3-10.1c0-4.4-0.4-7.7-1.2-10.3l-0.3-1H976v-50.8l-0.9-0.4c-1.4-0.6-3.2-1-5.5-1.3
			c-2.2-0.3-4.1-0.4-5.7-0.4c-7.1,0-11.7,1.8-13.8,5.4c-2,3.3-2.9,7-2.9,10.9v166c0,18,5.3,32.9,15.7,44.3
			c10.4,11.4,25.3,17.1,44.1,17.1c10.5,0,20.1-1.4,28.5-4.2c8.3-2.8,16-6.4,22.9-10.9L1058.9,1252.8z"/>
		<g>
			<path class="st1" d="M1124,1077.5l-0.9-0.4c-1.4-0.6-3.4-1-5.9-1.3c-2.4-0.3-4.9-0.4-7.2-0.4c-5.7,0-9.5,1.1-11.8,3.4
				c-2.2,2.2-3.4,5.1-3.4,8.7v178.4l0.9,0.4c1.4,0.6,3.4,1,5.9,1.3c2.4,0.3,4.9,0.4,7.2,0.4c5.7,0,9.5-1.1,11.8-3.4
				c2.2-2.2,3.4-5.1,3.4-8.7V1077.5z"/>
			<path class="st1" d="M1110,1033.8c5.1,0,9.5-1.9,13-5.5c3.5-3.7,5.3-7.9,5.3-12.8c0-5.1-1.8-9.4-5.3-13c-3.5-3.5-7.9-5.3-13-5.3
				c-5.1,0-9.4,1.8-13,5.3c-3.5,3.5-5.3,7.9-5.3,13c0,4.8,1.8,9.1,5.3,12.8C1100.6,1031.9,1104.9,1033.8,1110,1033.8z"/>
		</g>
		<path class="st1" d="M1165,1267.5c2.4,0.3,4.9,0.4,7.2,0.4c5.7,0,9.5-1.1,11.8-3.4c2.2-2.2,3.4-5.1,3.4-8.7v-125
			c2.5-4.9,5.8-9.4,9.8-13.4c4.1-4.1,8.6-7.6,13.6-10.5c5-2.9,10.3-5.2,15.7-6.7c5.5-1.5,10.8-2.3,15.9-2.3
			c15.2,0,27.4,4.7,36.3,13.9c9,9.2,13.5,24,13.5,43.8v110.2l0.9,0.4c1.4,0.6,3.4,1,5.9,1.3c2.4,0.3,4.9,0.4,7.2,0.4
			c5.7,0,9.5-1.1,11.8-3.4c2.2-2.2,3.4-5.1,3.4-8.7v-103c0-24-6.2-43.6-18.3-58.3c-12.2-14.8-30.1-22.3-53.2-22.3
			c-14.5,0-27.4,3-38.1,9c-9.8,5.4-18.1,12.3-24.7,20.5v-7.7c0-15.4-8.9-18.7-16.3-18.7c-3.5,0-7.4,0.7-11.4,2l-1,0.3v188l0.9,0.4
			C1160.6,1266.8,1162.5,1267.2,1165,1267.5z"/>
		<path class="st1" d="M1539.8,1079.8v182c0,49.1-37.1,81-94.2,81c-27.1,0-55.5-8-76.2-18c-2-17.6,4-25.1,12-25.1
			c4.8,0,9.2,2.4,17.2,5.6c10.8,4.4,27.1,10.4,46.7,10.4c38.3,0,63.8-18,63.8-55.1V1239c-11.6,14.8-35.1,29.5-66.6,29.5
			c-46.3,0-89.4-37.1-89.4-96.2c0-59.5,43.1-97,89.8-97c31.1,0,54.7,14.4,66.2,30.3v-15.6c0-7.2,4-12.4,16-12.4
			C1530.6,1077.8,1536.6,1079,1539.8,1079.8z M1509.1,1139.7c-11.2-21.9-33.9-37.5-60.3-37.5c-35.9,0-64.2,25.9-64.2,70.2
			c0,43.5,28.3,69.4,64.2,69.4c26.3,0,49.1-15.2,60.3-37.5V1139.7z"/>
	</g>
	<g>
		<path class="st1" d="M440.4,1475.2l-1.5-0.6c-4.4-1.9-9.3-2.9-14.7-2.9c-7.6,0-13,3-16.2,9l-37.1,68.8l-69.1-67.4
			c-10.5-10.6-17.7-19.5-21.3-26.5c-3.5-6.9-5.3-13.8-5.3-20.3c0-11.3,3.7-21,11-28.6c7.2-7.6,18.6-11.5,33.8-11.5
			c7.2,0,13.3,0.6,18.3,1.7c5,1.1,9.4,2.4,13.1,3.9c3.8,1.4,7.1,2.7,10,3.9c3,1.2,6.1,1.9,9.2,1.9c3.8,0,7.1-1.5,9.9-4.4
			c2.8-2.9,3.9-7.8,3.3-14.8l-0.1-0.8l-0.7-0.4c-7.9-4.5-17.3-8.3-27.9-11.5c-10.7-3.2-22.7-4.8-35.9-4.8c-11.9,0-22.5,1.8-31.5,5.4
			c-9,3.6-16.7,8.3-23,14c-6.3,5.7-11,12.4-14.1,19.9c-3.1,7.4-4.6,15.1-4.6,22.9c0,10.9,2,20.7,6,29.2c3.7,7.9,8.8,15.5,15.3,22.7
			c-17.2,7-31,16.7-40.9,28.8c-10.4,12.6-15.6,28-15.6,45.8c0,9.6,1.9,19.1,5.8,28.4c3.8,9.3,9.4,17.6,16.6,24.8
			c7.1,7.1,16,13,26.3,17.5c10.3,4.5,22.2,6.8,35.4,6.8c9.8,0,18.8-1.3,26.9-3.8c8-2.5,15.5-5.9,22.3-10.1
			c6.7-4.2,12.8-9.2,18.1-14.9c4.8-5.2,9.2-10.7,12.9-16.5l33.2,33.5c2.7,2.7,5.8,4.8,9.1,6.2c3.3,1.4,7.7,2.1,13.1,2.1
			c4.3,0,7.8-0.3,10.5-1c2.6-0.6,5.1-1.4,7.5-2.2l2.2-0.8l-61.2-60.8L440.4,1475.2z M295.7,1610.3c-8.9,0-16.9-1.5-23.9-4.6
			c-7-3-12.9-7.1-17.7-12c-4.8-4.9-8.4-10.6-10.8-16.9c-2.4-6.3-3.6-12.9-3.6-19.4c0-13.9,4.1-25.5,12.3-34.4
			c8.1-8.9,19.2-16,33.1-21.4l71.5,70.5c-2.7,5-6,9.8-9.7,14.2c-4,4.7-8.5,8.9-13.4,12.5c-5,3.6-10.6,6.4-16.8,8.4
			C310.4,1609.3,303.4,1610.3,295.7,1610.3z"/>
		<path class="st1" d="M932.4,1611.7c-1.5-5.1-2.8-10.5-3.7-15.9c-0.9-5.4-1.5-11.4-1.7-17.8c-0.3-6.4-0.4-14-0.4-22.7v-40.7
			c0-11.8-1.1-22.5-3.4-31.9c-2.3-9.5-6.3-17.6-11.9-24.1c-5.6-6.6-13.3-11.6-22.9-15.1c-9.5-3.4-21.7-5.2-36.1-5.2
			c-15.7,0-30.2,1.5-43.2,4.3c-12.9,2.9-22.8,5.4-29.3,7.5l-0.9,0.3l-0.1,0.9c-1.1,7.2-0.5,12.6,1.8,16.4c2.4,4,5.8,6,10.3,6
			c2.8,0,5.8-0.6,9.1-1.6c3.1-1,7-2.2,11.5-3.5c4.5-1.3,10-2.5,16.5-3.5c6.4-1,14.4-1.5,23.7-1.5c17.3,0,29.6,3.4,36.6,10
			c7,6.6,10.5,17.8,10.5,33.2v14.3c-20.4-3.7-38.6-5.6-54.1-5.6c-28.4,0-49.4,5.7-62.2,16.8c-12.9,11.2-19.5,26.2-19.5,44.6
			c0,7.7,1.3,15.2,4,22.2c2.7,7.1,6.9,13.4,12.5,18.8c5.6,5.3,12.7,9.6,21.1,12.6c8.4,3,18.2,4.6,29.3,4.6
			c18.2,0,33.5-3.8,45.6-11.2c11.1-6.8,20.2-15.3,26.9-25.1c0.7,5.6,1.6,10.5,2.6,14.7c1.2,5,2.5,8.8,3.8,11.4
			c1.1,2.6,3,4.8,5.6,6.5c2.6,1.7,5.9,2.6,9.8,2.6c3,0,5.6-0.4,7.7-1.1c2.1-0.7,4-1.6,5.9-2.7l1.1-0.6l-0.5-1.2
			C935.9,1622.5,934,1616.9,932.4,1611.7z M898.6,1542.5v27.8c-6.9,12.9-15.7,22.9-26.3,29.7c-10.7,6.9-23.6,10.3-38.4,10.3
			c-13.2,0-23.6-3.2-31.2-9.6c-7.6-6.4-11.2-14.6-11.2-24.9c0-12.1,4.6-21.4,14.1-28.2c9.5-6.8,24.4-10.3,44.4-10.3
			C863.1,1537.2,879.5,1539,898.6,1542.5z"/>
		<path class="st1" d="M1214.8,1459.1c-4.8-6.3-11.3-11.4-19.1-15.1c-7.9-3.7-17.5-5.6-28.6-5.6c-13.5,0-25.6,3.4-35.8,10
			c-9.4,6.1-17.7,14.8-24.5,25.7c-4.4-11.4-11.6-20.1-21.3-26.1c-10.5-6.4-22.1-9.6-34.6-9.6c-10.9,0-21.4,2.9-31.1,8.6
			c-8.4,4.9-15.2,11-20.3,18v-4.8c0-15.4-8.9-18.7-16.3-18.7c-3.5,0-7.4,0.7-11.4,2l-1,0.3v188l0.9,0.4c1.4,0.6,3.4,1,5.9,1.3
			c2.4,0.3,4.9,0.4,7.2,0.4c5.7,0,9.5-1.1,11.8-3.4c2.2-2.2,3.4-5.1,3.4-8.7v-126.6c3.8-8.2,9.8-15.6,17.8-21.9
			c8.1-6.3,17.5-9.5,28.1-9.5c12,0,21.7,3.9,28.7,11.5c7,7.7,10.6,18.9,10.6,33.3v123.2l0.9,0.4c1.4,0.6,3.4,1,5.9,1.3
			c2.4,0.3,4.9,0.4,7.2,0.4c5.7,0,9.5-1.1,11.8-3.4c2.2-2.2,3.4-5.1,3.4-8.7v-126.1c4.1-8.5,10-16,17.7-22.3
			c7.7-6.3,17.7-9.5,29.8-9.5c11.3,0,20.4,3.9,27.3,11.5c6.9,7.7,10.4,18.9,10.4,33.3v123.2l0.9,0.4c1.4,0.6,3.4,1,5.9,1.3
			c2.4,0.3,4.9,0.4,7.2,0.4c5.7,0,9.5-1.1,11.8-3.4c2.2-2.2,3.4-5.1,3.4-8.7v-114.3c0-9.2-1.1-18.1-3.2-26.4
			C1223.1,1472.8,1219.6,1465.4,1214.8,1459.1z"/>
		<g>
			<path class="st1" d="M1276.9,1363.2c-5.1,0-9.4,1.8-13,5.3c-3.5,3.5-5.3,7.9-5.3,13c0,4.8,1.8,9.1,5.3,12.8
				c3.5,3.7,7.9,5.5,13,5.5c5.1,0,9.5-1.9,13-5.5c3.5-3.7,5.3-7.9,5.3-12.8c0-5.1-1.8-9.4-5.3-13
				C1286.3,1365,1282,1363.2,1276.9,1363.2z"/>
			<path class="st1" d="M1284.1,1441.9c-2.4-0.3-4.9-0.4-7.2-0.4c-5.7,0-9.5,1.1-11.8,3.4c-2.2,2.2-3.4,5.1-3.4,8.7v178.4l0.9,0.4
				c1.4,0.6,3.4,1,5.9,1.3c2.4,0.3,4.9,0.4,7.2,0.4c5.7,0,9.5-1.1,11.8-3.4c2.2-2.2,3.4-5.1,3.4-8.7v-178.4l-0.9-0.4
				C1288.5,1442.6,1286.6,1442.2,1284.1,1441.9z"/>
		</g>
		<path class="st1" d="M1471.8,1460.6c-12.2-14.8-30.1-22.3-53.2-22.3c-14.5,0-27.4,3-38.1,9c-9.8,5.4-18.1,12.3-24.7,20.5v-7.7
			c0-15.4-8.9-18.7-16.3-18.7c-3.5,0-7.4,0.7-11.4,2l-1,0.3v188l0.9,0.4c1.4,0.6,3.4,1,5.9,1.3c2.4,0.3,4.9,0.4,7.2,0.4
			c5.7,0,9.5-1.1,11.8-3.4c2.2-2.2,3.4-5.1,3.4-8.7v-125c2.5-4.9,5.8-9.4,9.8-13.4c4.1-4.1,8.6-7.6,13.6-10.5
			c5-2.9,10.3-5.2,15.7-6.7c5.5-1.5,10.8-2.3,15.9-2.3c15.2,0,27.4,4.7,36.3,13.9c9,9.2,13.5,24,13.5,43.8v110.2l0.9,0.4
			c1.4,0.6,3.4,1,5.9,1.3c2.4,0.3,4.9,0.4,7.2,0.4c5.7,0,9.5-1.1,11.8-3.4c2.2-2.2,3.4-5.1,3.4-8.7v-103
			C1490.1,1495,1483.9,1475.3,1471.8,1460.6z"/>
		<path class="st1" d="M731,1444.5v182c0,49.1-37.1,81-94.2,81c-27.1,0-55.5-8-76.2-18c-2-17.6,4-25.1,12-25.1
			c4.8,0,9.2,2.4,17.2,5.6c10.8,4.4,27.1,10.4,46.7,10.4c38.3,0,63.8-18,63.8-55.1v-21.6c-11.6,14.8-35.1,29.5-66.6,29.5
			c-46.3,0-89.4-37.1-89.4-96.2c0-59.5,43.1-97,89.8-97c31.1,0,54.7,14.4,66.2,30.3v-15.6c0-7.2,4-12.4,16-12.4
			C721.9,1442.5,727.8,1443.7,731,1444.5z M700.3,1504.3c-11.2-21.9-33.9-37.5-60.3-37.5c-35.9,0-64.2,25.9-64.2,70.2
			c0,43.5,28.3,69.4,64.2,69.4c26.3,0,49.1-15.2,60.3-37.5V1504.3z"/>
		<path class="st1" d="M1709.1,1444.5v182c0,49.1-37.1,81-94.2,81c-27.1,0-55.5-8-76.2-18c-2-17.6,4-25.1,12-25.1
			c4.8,0,9.2,2.4,17.2,5.6c10.8,4.4,27.1,10.4,46.7,10.4c38.3,0,63.8-18,63.8-55.1v-21.6c-11.6,14.8-35.1,29.5-66.6,29.5
			c-46.3,0-89.4-37.1-89.4-96.2c0-59.5,43.1-97,89.8-97c31.1,0,54.7,14.4,66.2,30.3v-15.6c0-7.2,4-12.4,16-12.4
			C1699.9,1442.5,1705.9,1443.7,1709.1,1444.5z M1678.4,1504.3c-11.2-21.9-33.9-37.5-60.3-37.5c-35.9,0-64.2,25.9-64.2,70.2
			c0,43.5,28.3,69.4,64.2,69.4c26.3,0,49.1-15.2,60.3-37.5V1504.3z"/>
	</g>
</g>
</svg>
