<svg enable-background="new 0 0 1920 1920" viewBox="0 0 1920 1920" xmlns="http://www.w3.org/2000/svg"><path d="m1183.8 801.5c9.5 4.9 29.2 10.9 53.9 11.5 42.4.9 65.5-15.3 82.7-53.3l227.7-507.7c-9.5-5.1-30.2-10.7-47.2-11.1-29.3-.5-68.5 5.4-93.7 65.3l-73.7 174-144.6-235.5c-9.2-2.8-32.1-6.9-48.8-6.9-50.9 0-79.5 18.8-109 50.9l-140.7 153.7 113.1 178c20.9 32.4 48.4 48.9 93.2 48.9 29.2 0 53.5-6.7 64.8-12.1l-136-205.3 96.4-102.2 158.3 248.4zm-298.7-192.1c0 37.5-14.6 59-87.7 59-9.7 0-18.2-.7-26.3-1.9v-496.5c0-37.7 12.8-77 86.6-77 9.3 0 18.7.9 27.4 2.7zm-150.7-74.9c0 69.8-45.7 120.9-138.3 130.8-67.1 7.2-164.4-1.3-210.4-6.6-1.8-7.5-3.1-16.9-3.1-24.3 0-61 33-75 63.9-75 32.1 0 82.7 5.6 120.4 5.6 41.3 0 54-14 54-27.4 0-17.6-16.7-24.8-48.9-30.9l-87.8-16.9c-73.2-14-112.2-64.6-112.2-118.3 0-65.3 46.2-119.9 137-130 68.8-7.4 152.4.9 198.2 6.5 1.6 8 2.6 15.4 2.6 23.6 0 60.8-32.1 74-63.1 74-23.7 0-60.6-4.6-102.6-4.6-42.9 0-60.7 11.9-60.7 26.4 0 15.2 16.9 21.5 43.8 26.2l84 15.5c86.1 16.1 123.2 65.1 123.2 125.4z"/><path d="m392.7 1266.3c6.3 0 10.4-1.5 12.6-4.5 2-2.8 3.2-6.7 3.8-11.7.3-2.9.4-6.1.4-9.3v-3.9c6 8.9 14.3 16.4 24.6 22.2 11.8 6.6 25.1 10 39.7 10 13.5 0 25.8-2.6 36.7-7.8 10.8-5.2 20.3-12.3 28.1-21.1s13.9-19.5 18.1-31.6 6.3-25.5 6.3-39.6c0-15.5-2.5-29.5-7.4-41.5s-11.4-22.2-19.5-30.2c-8.1-8.1-17.5-14.3-28.1-18.5s-21.7-6.4-33-6.4c-15.8 0-29.6 3.2-40.8 9.4-9.7 5.3-17.4 11.3-23.1 17.8v-101.2l-.9-.4c-1.4-.6-3.3-1-5.7-1.3-2.3-.3-4.7-.4-7-.4-5.7 0-9.5 1.1-11.8 3.4-2.2 2.2-3.4 5.1-3.4 8.7v183.3c0 14.5-.2 28.2-.6 40.5s-.8 22.7-1.4 31.1l-.1 1.1 1 .4c3 1 6.9 1.5 11.5 1.5zm18.3-80.5v-52.9c5.1-10.5 12.9-19 23.2-25.3 10.4-6.4 22.3-9.6 35.3-9.6 8.9 0 17.3 1.6 24.9 4.8s14.4 7.9 20.1 13.9c5.7 6.1 10.3 13.6 13.6 22.4s5 19.1 5 30.6c0 12-1.7 22.8-5 32s-7.9 16.9-13.6 23-12.4 10.8-19.9 13.9c-7.5 3.2-15.7 4.8-24.3 4.8-8.4 0-16.2-1.5-23.3-4.4s-13.4-7-18.7-12.2-9.6-11.4-12.6-18.3c-3.2-7-4.7-14.6-4.7-22.7z"/><path d="m750.4 1102.6c-7-8.7-16.1-16-26.9-21.7-10.9-5.7-23.7-8.6-38.3-8.6-12.7 0-24.7 2.5-35.7 7.6-11 5-20.7 12-28.8 20.7-8.2 8.7-14.7 19.2-19.3 31.2s-6.9 25.1-6.9 39.1c0 13.9 2.2 27 6.5 38.9 4.4 11.9 10.8 22.5 19.1 31.4 8.3 9 18.7 16.1 30.9 21.1 12.1 5 26 7.6 41.3 7.6 14.4 0 27.8-1.9 39.8-5.5 11.9-3.7 21.6-7.4 28.6-11.1l.6-.3.1-.7c1.1-6.1.4-11.1-2.2-15s-6.1-5.9-10.2-5.9c-3 0-6.4.7-9.9 2.1-3.3 1.3-7.2 2.7-11.9 4.3-4.5 1.5-9.7 3-15.5 4.3-5.7 1.3-12.5 1.9-20.2 1.9-9.2 0-17.9-1.4-25.9-4.2s-15.2-7-21.2-12.4c-6.1-5.5-11.1-12.2-14.7-20.1-3.5-7.5-5.6-16.3-6.2-26.1h146.4l.3-1.1c.8-3.3 1.2-9 1.2-17.6 0-9.8-1.7-20-5.2-30.6-3.5-10.8-8.8-20.5-15.8-29.3zm-65.2-5.8c8.6 0 16.5 1.7 23.5 5s13 7.8 17.9 13.5c5 5.7 8.9 12.5 11.9 20.1 2.8 7.2 4.5 15 5.1 23.1h-119.8c.9-8.4 2.8-16.2 5.8-23.4 3.2-7.6 7.5-14.4 12.8-20.1s11.7-10.2 18.9-13.4c7.3-3.2 15.3-4.8 23.9-4.8z"/><path d="m915 1252.8.1-.7c.8-6.7.2-11.5-2-14.7-2.2-3.3-5.5-4.9-9.6-4.9-2.3 0-4.7.6-7.3 1.7-2.3 1-5 2.2-8 3.5-2.9 1.3-6.3 2.4-10 3.5-3.6 1-7.8 1.5-12.3 1.5-11.5 0-20.1-3.4-25.5-10-5.5-6.7-8.3-15.9-8.3-27.3v-103.9h61.6c3 0 5.5-.9 7.5-2.7 2-1.9 3-5.2 3-10.1 0-4.4-.4-7.7-1.2-10.3l-.3-1h-70.5v-50.8l-.9-.4c-1.4-.6-3.2-1-5.5-1.3-2.2-.3-4.1-.4-5.7-.4-7.1 0-11.7 1.8-13.8 5.4-2 3.3-2.9 7-2.9 10.9v166c0 18 5.3 32.9 15.7 44.3s25.3 17.1 44.1 17.1c10.5 0 20.1-1.4 28.5-4.2 8.3-2.8 16-6.4 22.9-10.9z"/><path d="m1058.9 1252.8.1-.7c.8-6.7.2-11.5-2-14.7-2.2-3.3-5.5-4.9-9.6-4.9-2.3 0-4.7.6-7.3 1.7-2.3 1-5 2.2-8 3.5-2.9 1.3-6.3 2.4-10 3.5-3.6 1-7.8 1.5-12.3 1.5-11.5 0-20.1-3.4-25.5-10-5.5-6.7-8.3-15.9-8.3-27.3v-103.9h61.6c3 0 5.5-.9 7.5-2.7 2-1.9 3-5.2 3-10.1 0-4.4-.4-7.7-1.2-10.3l-.3-1h-70.6v-50.8l-.9-.4c-1.4-.6-3.2-1-5.5-1.3-2.2-.3-4.1-.4-5.7-.4-7.1 0-11.7 1.8-13.8 5.4-2 3.3-2.9 7-2.9 10.9v166c0 18 5.3 32.9 15.7 44.3s25.3 17.1 44.1 17.1c10.5 0 20.1-1.4 28.5-4.2 8.3-2.8 16-6.4 22.9-10.9z"/><path d="m1124 1077.5-.9-.4c-1.4-.6-3.4-1-5.9-1.3-2.4-.3-4.9-.4-7.2-.4-5.7 0-9.5 1.1-11.8 3.4-2.2 2.2-3.4 5.1-3.4 8.7v178.4l.9.4c1.4.6 3.4 1 5.9 1.3 2.4.3 4.9.4 7.2.4 5.7 0 9.5-1.1 11.8-3.4 2.2-2.2 3.4-5.1 3.4-8.7z"/><path d="m1110 1033.8c5.1 0 9.5-1.9 13-5.5 3.5-3.7 5.3-7.9 5.3-12.8 0-5.1-1.8-9.4-5.3-13-3.5-3.5-7.9-5.3-13-5.3s-9.4 1.8-13 5.3c-3.5 3.5-5.3 7.9-5.3 13 0 4.8 1.8 9.1 5.3 12.8 3.6 3.6 7.9 5.5 13 5.5z"/><path d="m1165 1267.5c2.4.3 4.9.4 7.2.4 5.7 0 9.5-1.1 11.8-3.4 2.2-2.2 3.4-5.1 3.4-8.7v-125c2.5-4.9 5.8-9.4 9.8-13.4 4.1-4.1 8.6-7.6 13.6-10.5s10.3-5.2 15.7-6.7c5.5-1.5 10.8-2.3 15.9-2.3 15.2 0 27.4 4.7 36.3 13.9 9 9.2 13.5 24 13.5 43.8v110.2l.9.4c1.4.6 3.4 1 5.9 1.3 2.4.3 4.9.4 7.2.4 5.7 0 9.5-1.1 11.8-3.4 2.2-2.2 3.4-5.1 3.4-8.7v-103c0-24-6.2-43.6-18.3-58.3-12.2-14.8-30.1-22.3-53.2-22.3-14.5 0-27.4 3-38.1 9-9.8 5.4-18.1 12.3-24.7 20.5v-7.7c0-15.4-8.9-18.7-16.3-18.7-3.5 0-7.4.7-11.4 2l-1 .3v188l.9.4c1.3.8 3.2 1.2 5.7 1.5z"/><path d="m1539.8 1079.8v182c0 49.1-37.1 81-94.2 81-27.1 0-55.5-8-76.2-18-2-17.6 4-25.1 12-25.1 4.8 0 9.2 2.4 17.2 5.6 10.8 4.4 27.1 10.4 46.7 10.4 38.3 0 63.8-18 63.8-55.1v-21.6c-11.6 14.8-35.1 29.5-66.6 29.5-46.3 0-89.4-37.1-89.4-96.2 0-59.5 43.1-97 89.8-97 31.1 0 54.7 14.4 66.2 30.3v-15.6c0-7.2 4-12.4 16-12.4 5.5.2 11.5 1.4 14.7 2.2zm-30.7 59.9c-11.2-21.9-33.9-37.5-60.3-37.5-35.9 0-64.2 25.9-64.2 70.2 0 43.5 28.3 69.4 64.2 69.4 26.3 0 49.1-15.2 60.3-37.5z"/><path d="m440.4 1475.2-1.5-.6c-4.4-1.9-9.3-2.9-14.7-2.9-7.6 0-13 3-16.2 9l-37.1 68.8-69.1-67.4c-10.5-10.6-17.7-19.5-21.3-26.5-3.5-6.9-5.3-13.8-5.3-20.3 0-11.3 3.7-21 11-28.6 7.2-7.6 18.6-11.5 33.8-11.5 7.2 0 13.3.6 18.3 1.7s9.4 2.4 13.1 3.9c3.8 1.4 7.1 2.7 10 3.9 3 1.2 6.1 1.9 9.2 1.9 3.8 0 7.1-1.5 9.9-4.4s3.9-7.8 3.3-14.8l-.1-.8-.7-.4c-7.9-4.5-17.3-8.3-27.9-11.5-10.7-3.2-22.7-4.8-35.9-4.8-11.9 0-22.5 1.8-31.5 5.4s-16.7 8.3-23 14-11 12.4-14.1 19.9c-3.1 7.4-4.6 15.1-4.6 22.9 0 10.9 2 20.7 6 29.2 3.7 7.9 8.8 15.5 15.3 22.7-17.2 7-31 16.7-40.9 28.8-10.4 12.6-15.6 28-15.6 45.8 0 9.6 1.9 19.1 5.8 28.4 3.8 9.3 9.4 17.6 16.6 24.8 7.1 7.1 16 13 26.3 17.5s22.2 6.8 35.4 6.8c9.8 0 18.8-1.3 26.9-3.8 8-2.5 15.5-5.9 22.3-10.1 6.7-4.2 12.8-9.2 18.1-14.9 4.8-5.2 9.2-10.7 12.9-16.5l33.2 33.5c2.7 2.7 5.8 4.8 9.1 6.2s7.7 2.1 13.1 2.1c4.3 0 7.8-.3 10.5-1 2.6-.6 5.1-1.4 7.5-2.2l2.2-.8-61.2-60.8zm-144.7 135.1c-8.9 0-16.9-1.5-23.9-4.6-7-3-12.9-7.1-17.7-12s-8.4-10.6-10.8-16.9-3.6-12.9-3.6-19.4c0-13.9 4.1-25.5 12.3-34.4 8.1-8.9 19.2-16 33.1-21.4l71.5 70.5c-2.7 5-6 9.8-9.7 14.2-4 4.7-8.5 8.9-13.4 12.5-5 3.6-10.6 6.4-16.8 8.4-6.3 2.1-13.3 3.1-21 3.1z"/><path d="m932.4 1611.7c-1.5-5.1-2.8-10.5-3.7-15.9s-1.5-11.4-1.7-17.8c-.3-6.4-.4-14-.4-22.7v-40.7c0-11.8-1.1-22.5-3.4-31.9-2.3-9.5-6.3-17.6-11.9-24.1-5.6-6.6-13.3-11.6-22.9-15.1-9.5-3.4-21.7-5.2-36.1-5.2-15.7 0-30.2 1.5-43.2 4.3-12.9 2.9-22.8 5.4-29.3 7.5l-.9.3-.1.9c-1.1 7.2-.5 12.6 1.8 16.4 2.4 4 5.8 6 10.3 6 2.8 0 5.8-.6 9.1-1.6 3.1-1 7-2.2 11.5-3.5s10-2.5 16.5-3.5c6.4-1 14.4-1.5 23.7-1.5 17.3 0 29.6 3.4 36.6 10s10.5 17.8 10.5 33.2v14.3c-20.4-3.7-38.6-5.6-54.1-5.6-28.4 0-49.4 5.7-62.2 16.8-12.9 11.2-19.5 26.2-19.5 44.6 0 7.7 1.3 15.2 4 22.2 2.7 7.1 6.9 13.4 12.5 18.8 5.6 5.3 12.7 9.6 21.1 12.6s18.2 4.6 29.3 4.6c18.2 0 33.5-3.8 45.6-11.2 11.1-6.8 20.2-15.3 26.9-25.1.7 5.6 1.6 10.5 2.6 14.7 1.2 5 2.5 8.8 3.8 11.4 1.1 2.6 3 4.8 5.6 6.5s5.9 2.6 9.8 2.6c3 0 5.6-.4 7.7-1.1s4-1.6 5.9-2.7l1.1-.6-.5-1.2c-2.5-5.9-4.4-11.5-6-16.7zm-33.8-69.2v27.8c-6.9 12.9-15.7 22.9-26.3 29.7-10.7 6.9-23.6 10.3-38.4 10.3-13.2 0-23.6-3.2-31.2-9.6s-11.2-14.6-11.2-24.9c0-12.1 4.6-21.4 14.1-28.2s24.4-10.3 44.4-10.3c13.1-.1 29.5 1.7 48.6 5.2z"/><path d="m1214.8 1459.1c-4.8-6.3-11.3-11.4-19.1-15.1-7.9-3.7-17.5-5.6-28.6-5.6-13.5 0-25.6 3.4-35.8 10-9.4 6.1-17.7 14.8-24.5 25.7-4.4-11.4-11.6-20.1-21.3-26.1-10.5-6.4-22.1-9.6-34.6-9.6-10.9 0-21.4 2.9-31.1 8.6-8.4 4.9-15.2 11-20.3 18v-4.8c0-15.4-8.9-18.7-16.3-18.7-3.5 0-7.4.7-11.4 2l-1 .3v188l.9.4c1.4.6 3.4 1 5.9 1.3 2.4.3 4.9.4 7.2.4 5.7 0 9.5-1.1 11.8-3.4 2.2-2.2 3.4-5.1 3.4-8.7v-126.6c3.8-8.2 9.8-15.6 17.8-21.9 8.1-6.3 17.5-9.5 28.1-9.5 12 0 21.7 3.9 28.7 11.5 7 7.7 10.6 18.9 10.6 33.3v123.2l.9.4c1.4.6 3.4 1 5.9 1.3 2.4.3 4.9.4 7.2.4 5.7 0 9.5-1.1 11.8-3.4 2.2-2.2 3.4-5.1 3.4-8.7v-126.1c4.1-8.5 10-16 17.7-22.3s17.7-9.5 29.8-9.5c11.3 0 20.4 3.9 27.3 11.5 6.9 7.7 10.4 18.9 10.4 33.3v123.2l.9.4c1.4.6 3.4 1 5.9 1.3 2.4.3 4.9.4 7.2.4 5.7 0 9.5-1.1 11.8-3.4 2.2-2.2 3.4-5.1 3.4-8.7v-114.3c0-9.2-1.1-18.1-3.2-26.4-2.5-8.4-6-15.8-10.8-22.1z"/><path d="m1276.9 1363.2c-5.1 0-9.4 1.8-13 5.3-3.5 3.5-5.3 7.9-5.3 13 0 4.8 1.8 9.1 5.3 12.8s7.9 5.5 13 5.5 9.5-1.9 13-5.5c3.5-3.7 5.3-7.9 5.3-12.8 0-5.1-1.8-9.4-5.3-13-3.6-3.5-7.9-5.3-13-5.3z"/><path d="m1284.1 1441.9c-2.4-.3-4.9-.4-7.2-.4-5.7 0-9.5 1.1-11.8 3.4-2.2 2.2-3.4 5.1-3.4 8.7v178.4l.9.4c1.4.6 3.4 1 5.9 1.3 2.4.3 4.9.4 7.2.4 5.7 0 9.5-1.1 11.8-3.4 2.2-2.2 3.4-5.1 3.4-8.7v-178.4l-.9-.4c-1.5-.6-3.4-1-5.9-1.3z"/><path d="m1471.8 1460.6c-12.2-14.8-30.1-22.3-53.2-22.3-14.5 0-27.4 3-38.1 9-9.8 5.4-18.1 12.3-24.7 20.5v-7.7c0-15.4-8.9-18.7-16.3-18.7-3.5 0-7.4.7-11.4 2l-1 .3v188l.9.4c1.4.6 3.4 1 5.9 1.3 2.4.3 4.9.4 7.2.4 5.7 0 9.5-1.1 11.8-3.4 2.2-2.2 3.4-5.1 3.4-8.7v-125c2.5-4.9 5.8-9.4 9.8-13.4 4.1-4.1 8.6-7.6 13.6-10.5s10.3-5.2 15.7-6.7c5.5-1.5 10.8-2.3 15.9-2.3 15.2 0 27.4 4.7 36.3 13.9 9 9.2 13.5 24 13.5 43.8v110.2l.9.4c1.4.6 3.4 1 5.9 1.3 2.4.3 4.9.4 7.2.4 5.7 0 9.5-1.1 11.8-3.4 2.2-2.2 3.4-5.1 3.4-8.7v-103c-.2-23.7-6.4-43.4-18.5-58.1z"/><path d="m731 1444.5v182c0 49.1-37.1 81-94.2 81-27.1 0-55.5-8-76.2-18-2-17.6 4-25.1 12-25.1 4.8 0 9.2 2.4 17.2 5.6 10.8 4.4 27.1 10.4 46.7 10.4 38.3 0 63.8-18 63.8-55.1v-21.6c-11.6 14.8-35.1 29.5-66.6 29.5-46.3 0-89.4-37.1-89.4-96.2 0-59.5 43.1-97 89.8-97 31.1 0 54.7 14.4 66.2 30.3v-15.6c0-7.2 4-12.4 16-12.4 5.6.2 11.5 1.4 14.7 2.2zm-30.7 59.8c-11.2-21.9-33.9-37.5-60.3-37.5-35.9 0-64.2 25.9-64.2 70.2 0 43.5 28.3 69.4 64.2 69.4 26.3 0 49.1-15.2 60.3-37.5z"/><path d="m1709.1 1444.5v182c0 49.1-37.1 81-94.2 81-27.1 0-55.5-8-76.2-18-2-17.6 4-25.1 12-25.1 4.8 0 9.2 2.4 17.2 5.6 10.8 4.4 27.1 10.4 46.7 10.4 38.3 0 63.8-18 63.8-55.1v-21.6c-11.6 14.8-35.1 29.5-66.6 29.5-46.3 0-89.4-37.1-89.4-96.2 0-59.5 43.1-97 89.8-97 31.1 0 54.7 14.4 66.2 30.3v-15.6c0-7.2 4-12.4 16-12.4 5.5.2 11.5 1.4 14.7 2.2zm-30.7 59.8c-11.2-21.9-33.9-37.5-60.3-37.5-35.9 0-64.2 25.9-64.2 70.2 0 43.5 28.3 69.4 64.2 69.4 26.3 0 49.1-15.2 60.3-37.5z"/></svg>