<?xml version="1.0" standalone="no"?>
<!DOCTYPE svg PUBLIC "-//W3C//DTD SVG 20010904//EN"
 "http://www.w3.org/TR/2001/REC-SVG-20010904/DTD/svg10.dtd">
<svg version="1.0" xmlns="http://www.w3.org/2000/svg"
 width="260.000000pt" height="260.000000pt" viewBox="0 0 260.000000 260.000000"
 preserveAspectRatio="xMidYMid meet">
<metadata>
Created by potrace 1.11, written by Peter Selinger 2001-2013
</metadata>
<g transform="translate(0.000000,260.000000) scale(0.100000,-0.100000)"
fill="#000000" stroke="none">
<path d="M0 1300 l0 -1300 1300 0 1300 0 0 1300 0 1300 -1300 0 -1300 0 0
-1300z m698 704 c106 -22 116 -28 109 -71 -10 -57 -23 -66 -87 -59 -30 4 -95
9 -145 12 -79 5 -94 3 -122 -15 -54 -34 -57 -108 -5 -135 15 -8 77 -28 137
-46 125 -36 184 -66 219 -113 31 -42 38 -67 37 -134 -1 -110 -69 -188 -186
-214 -68 -15 -228 -7 -317 16 -66 17 -68 18 -68 49 0 17 7 42 16 55 15 21 21
23 78 17 169 -18 252 -18 284 -2 37 19 52 44 52 86 0 50 -33 72 -159 109 -138
39 -178 59 -219 105 -53 61 -65 163 -26 237 52 102 210 143 402 103z m1517 -4
c22 -6 57 -18 78 -27 36 -16 39 -19 33 -51 -10 -67 -41 -76 -158 -46 -148 38
-274 -9 -334 -126 -28 -56 -31 -173 -4 -242 26 -71 98 -139 164 -158 54 -15
136 -9 189 13 l37 16 0 85 0 86 -88 0 c-55 0 -92 4 -100 12 -7 7 -12 34 -12
60 l0 48 149 0 c192 0 181 13 181 -207 l0 -163 -32 -20 c-69 -42 -160 -62
-271 -58 -92 3 -109 6 -169 36 -283 139 -287 579 -7 715 30 15 75 32 99 37 52
11 186 5 245 -10z m-825 -6 c90 -27 150 -105 150 -194 -1 -45 -37 -108 -81
-139 -23 -17 -35 -31 -27 -31 27 0 94 -57 112 -95 22 -45 23 -130 3 -177 -18
-42 -61 -82 -112 -105 -32 -14 -76 -18 -231 -21 -191 -4 -192 -4 -208 19 -14
21 -16 67 -16 369 0 297 2 349 16 368 15 21 21 22 178 22 120 0 176 -4 216
-16z m960 -999 c0 -13 -123 -15 -1045 -15 -922 0 -1045 2 -1045 15 0 13 123
15 1045 15 922 0 1045 -2 1045 -15z m-1945 -210 c0 -5 -15 -11 -32 -13 l-33
-3 0 -90 c0 -72 -3 -89 -15 -89 -12 0 -15 17 -15 90 l0 90 -35 0 c-33 0 -43 8
-28 24 11 11 158 2 158 -9z m168 0 c1 -5 -17 -11 -40 -13 -40 -3 -43 -5 -43
-33 0 -27 2 -29 40 -29 29 0 40 -4 40 -15 0 -11 -11 -15 -40 -15 -38 0 -40 -2
-40 -30 0 -29 2 -30 46 -30 32 0 44 -4 42 -12 -3 -9 -25 -13 -64 -13 l-59 0
-3 89 c-2 49 0 96 2 103 7 16 115 14 119 -2z m186 9 c47 -10 41 -36 -7 -28
-52 8 -86 -19 -86 -71 0 -53 39 -86 90 -78 29 5 36 3 32 -8 -3 -9 -22 -15 -51
-17 -41 -3 -51 1 -77 27 -50 49 -36 141 25 167 36 16 34 16 74 8z m121 -39 l0
-45 50 0 50 0 0 45 c0 33 4 45 15 45 12 0 15 -18 15 -105 0 -87 -3 -105 -15
-105 -11 0 -15 12 -15 45 l0 45 -50 0 -50 0 0 -45 c0 -33 -4 -45 -15 -45 -12
0 -15 18 -15 105 0 87 3 105 15 105 11 0 15 -12 15 -45z m284 -28 l41 -68 5
68 c4 52 9 68 20 68 12 0 15 -18 15 -100 0 -92 -1 -100 -19 -100 -14 0 -33 21
-60 68 l-41 68 -5 -68 c-4 -54 -9 -68 -22 -71 -16 -3 -18 7 -18 96 0 54 3 102
7 106 17 16 39 -3 77 -67z m301 57 c13 -9 29 -31 35 -50 36 -108 -83 -193
-161 -115 -64 64 -22 181 66 181 19 0 47 -7 60 -16z m133 -77 l3 -87 50 0 c36
0 49 -4 47 -12 -3 -9 -26 -13 -69 -13 l-64 0 -3 89 c-3 97 1 120 21 114 8 -3
13 -33 15 -91z m303 64 c24 -24 29 -38 29 -76 0 -119 -149 -147 -191 -37 -39
103 85 189 162 113z m233 23 c9 -3 16 -13 16 -21 0 -15 -20 -14 -62 2 -20 8
-64 -30 -72 -60 -13 -51 39 -110 85 -98 13 4 19 14 19 34 0 24 -4 29 -25 29
-16 0 -25 6 -25 16 0 12 9 14 43 12 l42 -3 3 -45 c4 -54 -13 -70 -76 -70 -63
0 -102 40 -102 105 0 63 39 105 98 105 22 0 47 -3 56 -6z m112 -34 c15 -22 28
-40 30 -40 2 0 15 18 29 40 14 22 32 40 40 40 21 0 19 -5 -20 -70 -25 -41 -35
-69 -35 -99 0 -30 -4 -41 -15 -41 -11 0 -15 11 -15 41 0 30 -10 58 -35 99 -39
65 -41 70 -20 70 8 0 27 -18 41 -40z"/>
<path d="M1120 1791 l0 -101 99 0 c86 0 102 3 132 23 61 41 64 108 7 150 -22
16 -47 21 -133 25 l-105 5 0 -102z"/>
<path d="M1120 1459 l0 -112 108 5 c150 7 192 31 192 111 0 76 -60 107 -209
107 l-91 0 0 -111z"/>
<path d="M1373 755 c-20 -17 -27 -32 -27 -60 0 -70 72 -104 109 -52 31 44 11
118 -35 130 -13 3 -31 -3 -47 -18z"/>
<path d="M1813 770 c-60 -24 -55 -137 7 -153 25 -7 66 25 74 58 13 52 -38 111
-81 95z"/>
</g>
</svg>
