<?xml version="1.0" encoding="utf-8"?>
<!-- Generator: Adobe Illustrator 24.3.0, SVG Export Plug-In . SVG Version: 6.00 Build 0)  -->
<svg version="1.1" id="PRIMARY" xmlns="http://www.w3.org/2000/svg" xmlns:xlink="http://www.w3.org/1999/xlink" x="0px" y="0px" viewBox="0 0 1608 120" style="enable-background:new 0 0 1608 120;" xml:space="preserve" width="3214" height="407" aria-labelledby="title">
	<title>Sky Betting &amp; Gaming Technology</title>
	<style type="text/css">
		.st0{fill:#FFFFFF;stroke:#FFFFFF;stroke-width:2;stroke-linecap:round;stroke-miterlimit:10;}
		.st1{fill:none;}
		.st2{fill:#FFFFFF;}
		.st3{font-family:'SkyText-Regular';}
		.st4{font-size:90px;}
	</style>
	<line class="st0" x1="1140" y1="0" x2="1140" y2="120"/>
	<rect x="1186.1" y="27.5" class="st1" width="561.3" height="84.5"/>
	<text transform="matrix(1 0 0 1 1186.0514 88.7139)" class="st2 st3 st4">technology</text>
	<g id="XMLID_177_">
		<g>
			<path class="st2" d="M771.5,72.8c0,4.9,4.1,9.4,11.5,9.4c7.5,0,14.1-3.8,18.3-9.4V62C785.1,60.9,771.5,63,771.5,72.8z M629.7,47.3
				c9.5-3.3,12.7-6.1,12.7-11.2c0-4.5-3.7-8.6-10.6-8.6c-6.6,0-10.1,3.8-10.1,8.2C621.7,39.9,624.1,42.1,629.7,47.3z M614.4,70.2
				c0,7.3,6,11.7,14.3,11.7c7.2,0,12.6-3.9,16.3-8.6l-17.7-16.7C619.3,59.3,614.4,63.7,614.4,70.2z M723.6,39.8
				c-10.5,0-18.6,7.5-18.6,20.3c0,12.7,8.1,20.3,18.6,20.3c7.7,0,14.3-4.5,17.3-10.8V50.6C737.8,44.1,731.2,39.8,723.6,39.8z
				M310.9,39.7c-8.7,0-16.6,6-18.1,17.2h34.8C327.2,47.2,320.9,39.7,310.9,39.7z M244.7,40c-7.5,0-14.5,4.4-17.7,10.7v20.4
				c3.2,6.4,10.1,10.7,17.7,10.7c11.1,0,19.3-8.5,19.3-21C264,48.5,255.8,40,244.7,40z M1078.4,0.2H199.7c-4.4,0-8,3.6-8,8v104
				c0,4.4,3.6,8,8,8h878.8c4.4,0,8-3.6,8-8V8.2C1086.4,3.8,1082.8,0.2,1078.4,0.2z M246.6,90.3c-8.5,0-15.4-4-19.6-9.7v5.4
				c0,2.4-1.3,3.7-5.2,3.7c-1.6,0-3.5-0.2-4.5-0.5V16c0-2.2,1.3-3.7,5.2-3.7c1.6,0,3.5,0.2,4.5,0.5v28.4c4.1-5.7,11.1-9.7,19.6-9.7
				c14.3,0,27.2,11,27.2,29.3C273.8,79.4,260.8,90.3,246.6,90.3z M336.6,64.4h-43.8c1.3,11,8.8,17.1,20,17.1c4.8,0,8.6-0.9,12.1-2.1
				c2.5-0.8,3.5-1.2,4.5-1.2c2.7,0,4.5,2.2,4,7.4c-5.1,2.2-12.8,4.7-21,4.7c-17.7,0-29.6-11.9-29.6-29.6c0-17,12.6-29.2,28-29.2
				c17.4,0,26,13.5,26,27.2C337,60.4,336.8,62.4,336.6,64.4z M382.8,86.4c-4.9,2.4-10.6,3.9-16.3,3.9c-11.2,0-17.9-6.6-17.9-17.6
				V24.1c0-2.5,1.4-4.1,5.2-4.1c1.6,0,3.5,0.4,4.5,0.6v12.3h22c0.1,0.8,0.4,2.5,0.4,3.9c0,3.4-1.4,4.6-3.5,4.6h-18.8v30.7
				c0,6.6,3.1,9.8,9.3,9.8c5.7,0,8.8-2.5,11.5-2.5C382,79.4,383.4,81.7,382.8,86.4z M424.9,86.4c-4.9,2.4-10.6,3.9-16.3,3.9
				c-11.2,0-17.9-6.6-17.9-17.6V24.1c0-2.5,1.4-4.1,5.2-4.1c1.6,0,3.5,0.4,4.5,0.6v12.3h22c0.1,0.8,0.4,2.5,0.4,3.9
				c0,3.4-1.4,4.6-3.5,4.6h-18.8v30.7c0,6.6,3.1,9.8,9.3,9.8c5.7,0,8.8-2.5,11.5-2.5C424,79.4,425.4,81.7,424.9,86.4z M443.2,86.1
				c0,2.4-1.2,3.7-5.1,3.7c-1.6,0-3.5-0.2-4.5-0.5V35.8c0-2.2,1.3-3.7,5.2-3.7c1.6,0,3.4,0.2,4.4,0.5V86.1z M438.5,25.9
				c-3.3,0-6.1-2.9-6.1-6.1c0-3.5,2.8-6.1,6.1-6.1c3.5,0,6.2,2.6,6.2,6.1C444.7,22.9,442,25.9,438.5,25.9z M508,86.1
				c0,2.2-1.3,3.7-5.2,3.7c-1.6,0-3.5-0.2-4.5-0.5V56.9c0-11.3-5.5-16.7-13.9-16.7c-6.5,0-13.5,4.5-16.4,9.8v36.2
				c0,2.2-1.3,3.7-5.2,3.7c-1.6,0-3.5-0.2-4.5-0.5V32.6c0.9-0.2,2.8-0.5,4.5-0.5c3.9,0,5.2,1.4,5.2,3.7v4.8
				c4.1-5.1,10.4-9.1,18.7-9.1c11.5,0,21.2,7.3,21.2,24V86.1z M574.9,84c0,14.8-11,24.3-28,24.3c-8,0-16.5-2.4-22.6-5.3
				c-0.6-5.5,1.2-7.8,3.7-7.8c1.4,0,2.8,0.7,5.2,1.6c3.2,1.3,8,3.1,13.7,3.1c11.2,0,18.5-5.3,18.5-16.1v-3.9
				c-3.3,4.5-10.1,8.7-19.4,8.7c-13.7,0-26.3-11-26.3-28.5c0-17.7,12.7-28.5,26.4-28.5c9.1,0,15.9,4.2,19.4,9v-4.6
				c0-2.2,1.3-3.8,4.9-3.8c1.8,0,3.7,0.2,4.6,0.5V84z M665.8,89.7c-2.4,0-4.2-0.7-6-2.4l-9-8.4c-5.3,6.8-12.5,11.3-22.4,11.3
				c-14.1,0-23.1-8.6-23.1-19.6c0-9.2,5.1-16.1,15.4-20.3c-4.8-4.6-8.1-8.2-8.1-15.2c0-6.8,5.8-15.8,19.1-15.8
				c12.8,0,19.2,8.5,19.2,16.4c0,8.4-6.2,13.5-15.1,17.2l13.8,13l7.5-12.5c1.6-2.7,2.9-3.9,5.9-3.9c1.9,0,4,0.7,5.5,1.5l-12.8,20.6
				l17,15.9C670.9,88.8,668.5,89.7,665.8,89.7z M750.5,84c0,14.8-11,24.3-28,24.3c-8,0-16.5-2.4-22.6-5.3c-0.6-5.5,1.2-7.8,3.7-7.8
				c1.4,0,2.8,0.7,5.2,1.6c3.2,1.3,8,3.1,13.7,3.1c11.2,0,18.5-5.3,18.5-16.1v-3.9c-3.3,4.5-10.1,8.7-19.4,8.7
				c-13.7,0-26.3-11-26.3-28.5c0-17.7,12.7-28.5,26.4-28.5c9.1,0,15.9,4.2,19.4,9v-4.6c0-2.2,1.3-3.8,4.9-3.8c1.8,0,3.7,0.2,4.6,0.5
				V84z M811,89.3c-0.9,0.2-2.7,0.5-4.4,0.5c-3.5,0-5.2-1.3-5.2-3.7v-4.9c-5.1,5.8-11.7,9.2-20,9.2c-12.6,0-19.6-8.2-19.6-17.2
				c0-13.7,14.6-19.7,39.5-18v-2c0-9.3-2.8-13.2-13.5-13.2c-4.5,0-10.5,1.3-13.7,2.1c-1.9,0.5-3.3,0.9-4.5,0.9
				c-2.7,0-4.5-2.4-3.5-7.3c5.8-2.1,14.1-4.1,22.1-4.1C804.9,31.5,811,39,811,53V89.3z M904.6,86.1c0,2.4-1.3,3.7-5.2,3.7
				c-1.6,0-3.5-0.2-4.5-0.5v-36c0-8.2-3.9-13.1-11.3-13.1c-6.2,0-11.4,4.4-13.5,8.8v37.1c0,2.4-1.3,3.7-5.2,3.7
				c-1.6,0-3.5-0.2-4.5-0.5v-36c0-8.2-3.9-13.1-11.3-13.1c-6.2,0-11.4,4.4-13.5,8.8v37.1c0,2.4-1.3,3.7-5.2,3.7
				c-1.6,0-3.5-0.2-4.5-0.5V32.6c0.9-0.2,2.8-0.5,4.6-0.5c3.7,0,4.9,1.4,4.9,3.9v3.9c3.7-4.8,9.3-8.4,16.1-8.4
				c7.5,0,13.4,3.8,16.4,10.2c3.9-5.9,9.8-10.2,18.1-10.2c12.1,0,18.5,9.1,18.5,20.5V86.1z M929,86.1c0,2.4-1.2,3.7-5.1,3.7
				c-1.6,0-3.5-0.2-4.5-0.5V35.8c0-2.2,1.3-3.7,5.2-3.7c1.6,0,3.4,0.2,4.4,0.5V86.1z M924.3,25.9c-3.3,0-6.1-2.9-6.1-6.1
				c0-3.5,2.8-6.1,6.1-6.1c3.5,0,6.2,2.6,6.2,6.1C930.5,22.9,927.8,25.9,924.3,25.9z M993.8,86.1c0,2.2-1.3,3.7-5.2,3.7
				c-1.6,0-3.5-0.2-4.5-0.5V56.9c0-11.3-5.5-16.7-13.9-16.7c-6.5,0-13.5,4.5-16.4,9.8v36.2c0,2.2-1.3,3.7-5.2,3.7
				c-1.6,0-3.5-0.2-4.5-0.5V32.6c0.9-0.2,2.8-0.5,4.5-0.5c3.9,0,5.2,1.4,5.2,3.7v4.8c4.1-5.1,10.4-9.1,18.7-9.1
				c11.5,0,21.2,7.3,21.2,24V86.1z M1060.7,84c0,14.8-11,24.3-28,24.3c-8,0-16.5-2.4-22.6-5.3c-0.6-5.5,1.2-7.8,3.7-7.8
				c1.4,0,2.8,0.7,5.2,1.6c3.2,1.3,8,3.1,13.7,3.1c11.2,0,18.5-5.3,18.5-16.1v-3.9c-3.3,4.5-10.1,8.7-19.4,8.7
				c-13.7,0-26.3-11-26.3-28.5c0-17.7,12.7-28.5,26.4-28.5c9.1,0,15.9,4.2,19.4,9v-4.6c0-2.2,1.3-3.8,4.9-3.8c1.8,0,3.7,0.2,4.6,0.5
				V84z M1033.7,39.8c-10.5,0-18.6,7.5-18.6,20.3c0,12.7,8.1,20.3,18.6,20.3c7.7,0,14.3-4.5,17.3-10.8V50.6
				C1048,44.1,1041.4,39.8,1033.7,39.8z M547.9,39.8c-10.5,0-18.6,7.5-18.6,20.3c0,12.7,8.1,20.3,18.6,20.3c7.7,0,14.3-4.5,17.3-10.8
				V50.6C562.2,44.1,555.6,39.8,547.9,39.8z"/>
		</g>
	</g>
	<path id="Sky_x5F_Logo_3_" class="st2" d="M119.9,111.6c1.4,0.7,4.3,1.6,8,1.7c6.3,0.1,9.7-2.3,12.2-7.9l33.6-74.8
		c-1.4-0.7-4.5-1.6-7-1.6c-4.3-0.1-10.1,0.8-13.8,9.6L142,64.2l-21.3-34.7c-1.4-0.4-4.8-1-7.2-1c-7.6,0-11.8,2.8-16.1,7.5L76.6,58.6
		l16.7,26.2c3.1,4.8,7.1,7.2,13.7,7.2c4.3,0,7.9-1,9.6-1.8L96.5,60.1L110.8,45l23.4,36.6L119.9,111.6z M75.8,83.3
		c0,5.5-2.2,8.7-13,8.7c-1.4,0-2.7-0.1-3.9-0.3V18.5c0-5.6,1.9-11.4,12.8-11.4c1.4,0,2.8,0.1,4.1,0.4V83.3z M53.5,72.2
		c0,10.3-6.7,17.8-20.4,19.3c-9.9,1.1-24.3-0.2-31.1-1c-0.2-1.1-0.4-2.5-0.4-3.6c0-9,4.8-11,9.4-11c4.7,0,12.2,0.8,17.8,0.8
		c6.1,0,8-2.1,8-4c0-2.6-2.4-3.6-7.2-4.6l-13-2.5C5.8,63.6,0,56.1,0,48.2C0,38.6,6.8,30.5,20.2,29c10.1-1.1,22.5,0.1,29.3,1
		c0.2,1.1,0.4,2.3,0.4,3.5c0,9-4.7,10.9-9.3,10.9c-3.5,0-8.9-0.6-15.2-0.6c-6.3,0-8.9,1.7-8.9,3.9c0,2.3,2.5,3.2,6.5,3.9l12.4,2.3
		C48,56.1,53.5,63.3,53.5,72.2z"/>
</svg>
