<?xml version="1.0" encoding="utf-8"?>
<!-- Generator: Adobe Illustrator 18.1.1, SVG Export Plug-In . SVG Version: 6.00 Build 0)  -->
<svg version="1.1" id="Layer_1" xmlns="http://www.w3.org/2000/svg" xmlns:xlink="http://www.w3.org/1999/xlink" x="0px" y="0px"
	 viewBox="120.3 61.4 957.4 477.1" enable-background="new 120.3 61.4 957.4 477.1" xml:space="preserve">
<path d="M367.3,280.2c2.9,1.6,8.9,3.4,16.4,3.4c12.8,0.3,19.8-4.7,25-16.2l69.1-153.9c-2.9-1.6-9.1-3.1-14.3-3.4
	c-8.9-0.3-20.9,1.6-28.4,19.8l-22.4,52.7l-43.8-71.5c-2.9-0.8-9.7-2.1-14.9-2.1c-15.4,0-24.3,5.7-33.1,15.4l-42.5,47l34.2,54
	c6.3,9.9,14.6,14.9,28.2,14.9c8.9,0,16.2-2.1,19.8-3.7l-41.2-62.3l29.2-31l48,75.4L367.3,280.2z M276.8,222c0,11.5-4.4,18-26.6,18
	c-2.9,0-5.5-0.3-8.1-0.5V88.7c0-11.5,3.9-23.5,26.3-23.5c2.9,0,5.7,0.3,8.3,0.8V222z M231.1,199.3c0,21.1-13.8,36.5-42,39.7
	c-20.3,2.1-49.8-0.3-63.9-2.1c-0.5-2.3-0.8-5.2-0.8-7.3c0-18.5,9.9-22.7,19.3-22.7c9.7,0,25,1.8,36.5,1.8c12.5,0,16.4-4.2,16.4-8.3
	c0-5.2-5-7.6-14.9-9.4l-26.6-5.2c-22.2-4.2-33.9-19.6-33.9-36c0-19.8,14.1-36.3,41.5-39.4c20.9-2.3,46.2,0.3,60.3,2.1
	c0.5,2.3,0.8,4.7,0.8,7c0,18.5-9.7,22.4-19,22.4c-7.3,0-18.3-1.3-31-1.3c-13,0-18.3,3.7-18.3,7.8c0,4.7,5.2,6.5,13.3,7.8l25.6,4.7
	C219.9,166.2,231.1,181,231.1,199.3z"/>
<text transform="matrix(1 0 0 1 531.3241 158.2875)" font-family="'SkyText-Bold'" font-size="117.3913">BETTING</text>
<text transform="matrix(1 0 0 1 531.3257 257.9728)" font-family="'SkyText-Bold'" font-size="117.3913">&amp; GAMING</text>
<rect x="121.3" y="331.3" width="943.7" height="8.3"/>
<text transform="matrix(1 0 0 1 111.2679 504.9115)" font-family="'SkyTextMedium-Regular'" font-size="160" letter-spacing="2">ENGINEERING</text>
</svg>
