<svg xmlns="http://www.w3.org/2000/svg" class="sbg-logo" viewBox="0 0 1200 600" aria-labelledby="title desc"><title>  Sky Betting &amp; Technology</title><desc>  Stylised typography for Sky Betting &amp; Gaming Technology</desc><path d="M319.9 273.6c3.6 2 11.2 4.3 20.6 4.3 16 0.4 24.8-5.9 31.3-20.3l86.6-192.9c-3.6-2-11.4-3.9-17.9-4.3 -11.2-0.4-26.2 2-35.6 24.8l-28.1 66.1 -54.9-89.6c-3.6-1-12.2-2.6-18.7-2.6 -19.3 0-30.5 7.1-41.5 19.3l-53.3 58.9 42.9 67.7c7.9 12.4 18.3 18.7 35.3 18.7 11.2 0 20.3-2.6 24.8-4.6L259.8 141l36.6-38.9 60.2 94.5L319.9 273.6zM206.5 200.7c0 14.4-5.5 22.6-33.3 22.6 -3.6 0-6.9-0.4-10.2-0.6v-189c0-14.4 4.9-29.5 33-29.5 3.6 0 7.1 0.4 10.4 1v195.5H206.5zM149.2 172.2c0 26.4-17.3 45.7-52.6 49.8 -25.4 2.6-62.4-0.4-80.1-2.6 -0.6-2.9-1-6.5-1-9.1 0-23.2 12.4-28.5 24.2-28.5 12.2 0 31.3 2.3 45.7 2.3 15.7 0 20.6-5.3 20.6-10.4 0-6.5-6.3-9.5-18.7-11.8L54 155.4c-27.8-5.3-42.5-24.6-42.5-45.1 0-24.8 17.7-45.5 52-49.4 26.2-2.9 57.9 0.4 75.6 2.6 0.6 2.9 1 5.9 1 8.8 0 23.2-12.2 28.1-23.8 28.1 -9.1 0-22.9-1.6-38.9-1.6 -16.3 0-22.9 4.6-22.9 9.8 0 5.9 6.5 8.1 16.7 9.8l32.1 5.9C135.1 130.8 149.2 149.3 149.2 172.2z"/><g class="st0"><path d="M547.3 120.8c-2.7 0-5-0.3-6.7-0.9s-3-1.4-4-2.4c-0.9-1-1.6-2.3-1.9-3.8 -0.3-1.5-0.5-3-0.5-4.7V37c0-1.7 0.2-3.2 0.5-4.7s1-2.7 1.9-3.8c0.9-1 2.3-1.8 4-2.4s3.9-0.9 6.7-0.9h22.8c6.7 0 12.3 0.6 16.8 1.9 4.6 1.3 8.3 3 11.1 5.3s4.9 4.9 6.2 7.9 1.9 6.3 1.9 9.9c0 4.8-1.3 9-4 12.6 -2.6 3.6-6.3 6.3-11 8.2 6.7 2.1 11.4 5 14.2 8.9s4.2 8.2 4.2 13c0 9-3.2 15.9-9.6 20.7 -6.4 4.8-16.1 7.2-29.1 7.2H547.3zM557 63.6h11.6c2.8 0 5.2-0.3 7-0.9 1.8-0.6 3.3-1.4 4.3-2.4 1.1-1 1.8-2.1 2.3-3.3 0.4-1.2 0.7-2.5 0.7-3.8 0-3.4-1.1-5.9-3.4-7.5 -2.3-1.6-6-2.4-11.3-2.4H557V63.6zM557 101.9h11.6c5.8 0 10-0.8 12.5-2.5s3.8-4.6 3.8-8.7c0-1.2-0.2-2.4-0.6-3.7 -0.4-1.3-1.2-2.4-2.3-3.4s-2.7-1.8-4.8-2.4 -4.8-1-8.1-1H557V101.9z"/><path d="M634.2 120.8c-2.7 0-5-0.3-6.7-0.9s-3-1.4-4-2.4c-0.9-1-1.6-2.3-1.9-3.8 -0.3-1.5-0.5-3-0.5-4.7V37c0-1.7 0.2-3.2 0.5-4.7s1-2.7 1.9-3.8c0.9-1 2.3-1.8 4-2.4s3.9-0.9 6.7-0.9h48.7c0.2 1.1 0.4 2.6 0.6 4.4 0.2 1.9 0.3 3.8 0.3 5.7 0 4.1-0.8 7-2.5 8.8 -1.7 1.7-3.8 2.6-6.3 2.6h-30v16.8h34.6c0.2 1 0.4 2.3 0.6 3.9 0.2 1.6 0.3 3.4 0.3 5.2 0 3.9-0.8 6.6-2.4 8 -1.6 1.4-3.5 2.1-5.9 2.1H645v16.6h39.4c0.2 1.1 0.4 2.6 0.6 4.5 0.2 1.9 0.3 3.8 0.3 5.7 0 4.2-0.8 7.2-2.5 8.8 -1.7 1.7-3.8 2.5-6.3 2.5L634.2 120.8 634.2 120.8z"/><path d="M730.9 121.4c-2.1 0-4.1-0.1-6.1-0.3 -2-0.2-3.7-0.4-5.1-0.7V46.7h-27.8c-0.2-1.2-0.4-2.5-0.7-4.1 -0.2-1.6-0.4-3.4-0.4-5.4 0-4.5 0.9-7.6 2.7-9.3 1.8-1.7 4.1-2.6 6.8-2.6h70.5c0.2 1.2 0.4 2.6 0.6 4.1 0.2 1.6 0.3 3.4 0.3 5.4 0 7.9-3.2 11.9-9.6 11.9h-18.7v64.4c0 2.8-0.9 5.3-2.6 7.3C739.1 120.4 735.8 121.4 730.9 121.4z"/><path d="M818.3 121.4c-2.1 0-4.1-0.1-6.1-0.3 -2-0.2-3.7-0.4-5.1-0.7V46.7h-27.8c-0.2-1.2-0.4-2.5-0.7-4.1 -0.2-1.6-0.4-3.4-0.4-5.4 0-4.5 0.9-7.6 2.7-9.3 1.8-1.7 4.1-2.6 6.8-2.6h70.5c0.2 1.2 0.4 2.6 0.6 4.1 0.2 1.6 0.3 3.4 0.3 5.4 0 7.9-3.2 11.9-9.6 11.9h-18.7v64.4c0 2.8-0.9 5.3-2.6 7.3C826.5 120.4 823.2 121.4 818.3 121.4z"/><path d="M879.9 121.4c-2.1 0-4.1-0.1-6.1-0.3 -2-0.2-3.7-0.4-5.1-0.7V35.2c0-2.8 0.9-5.3 2.6-7.3 1.8-2 5.1-3 10-3 2.1 0 4.1 0.1 6.1 0.3 2 0.2 3.7 0.4 5.1 0.7v85.2c0 2.8-0.9 5.3-2.6 7.3C888.2 120.4 884.8 121.4 879.9 121.4z"/><path d="M920.4 121.4c-2 0-3.9-0.1-5.7-0.3 -1.9-0.2-3.4-0.4-4.7-0.7V26.7c1.5-0.5 3.4-0.9 5.7-1.3 2.4-0.3 4.4-0.5 6-0.5 5.4 0 9.3 0.7 11.8 2.1s4.5 3.4 6.2 6l33.4 52.5V34.3c0-1.3 0.2-2.5 0.5-3.6s0.9-2.1 1.8-3c0.8-0.9 2-1.6 3.5-2.1s3.3-0.7 5.6-0.7c2 0 3.8 0.1 5.7 0.3 1.8 0.2 3.4 0.4 4.6 0.6v93.9c-1.4 0.7-3 1.2-5 1.4 -2 0.2-3.9 0.4-5.7 0.4 -4.6 0-8-0.6-10.3-1.9s-4.1-3-5.6-5.3l-35.8-57.1v54.6c0 2.7-0.8 5.1-2.5 6.9C928.1 120.5 925 121.4 920.4 121.4z"/><path d="M1055.6 122.5c-7.3 0-13.9-1.3-19.9-4 -6-2.6-11.1-6.2-15.4-10.7 -4.3-4.5-7.6-9.8-9.9-15.9 -2.3-6.1-3.5-12.5-3.5-19.3 0-6.8 1.2-13.1 3.6-19.1 2.4-5.9 5.7-11.1 10-15.4 4.3-4.4 9.4-7.8 15.4-10.4 6-2.5 12.6-3.8 19.9-3.8 5.5 0 11.2 0.6 17 1.7s11.7 3.2 17.7 6.1c0.1 2.5-0.1 4.7-0.4 6.8 -0.4 2.1-1 3.9-1.9 5.4s-2 2.7-3.5 3.6c-1.4 0.9-3.1 1.3-5.1 1.3 -1.7 0-3.2-0.2-4.6-0.6 -1.4-0.4-2.9-0.8-4.5-1.3s-3.5-0.9-5.7-1.3c-2.2-0.4-4.9-0.6-8.1-0.6 -3.6 0-7 0.6-10.2 1.8 -3.1 1.2-5.8 3-8.1 5.4 -2.3 2.4-4 5.2-5.4 8.7 -1.3 3.4-2 7.3-2 11.6 0 4.4 0.6 8.4 1.9 12s3.1 6.6 5.4 9.1 5 4.4 8.1 5.7 6.4 2 9.9 2c2.9 0 5.5-0.2 7.6-0.7s4.1-1.1 6.1-1.9V83.9h-11.9c-2.5 0-4.5-0.7-6-2.2 -1.6-1.5-2.4-4.2-2.4-8.1 0-1.8 0.1-3.5 0.3-5.1 0.2-1.7 0.4-3 0.6-4h28.7c2.7 0 5 0.3 6.7 0.9s3 1.4 4 2.4c0.9 1 1.6 2.3 1.9 3.8s0.5 3 0.5 4.7v36.3c-5 3-10.7 5.4-17.2 7.2C1069 121.6 1062.4 122.5 1055.6 122.5z"/></g><g class="st0"><path d="M563.7 247.4c-5 0-9.6-0.7-13.8-2.2s-7.8-3.5-10.9-6.1c-3-2.6-5.4-5.7-7.1-9.3 -1.7-3.6-2.6-7.6-2.6-11.9 0-2.8 0.4-5.6 1.3-8.2s2.2-5.1 3.8-7.3c1.7-2.2 3.7-4.1 6.1-5.8 2.4-1.7 5.1-2.9 8-3.8 -2.6-2.7-4.5-5.7-5.9-9 -1.4-3.2-2.1-6.6-2.1-10 0-3 0.6-6.1 1.8-9 1.2-3 3-5.7 5.5-8.1 2.5-2.4 5.7-4.3 9.6-5.8 3.9-1.5 8.6-2.2 14-2.2 5.2 0 9.9 0.6 14.1 1.8 4.2 1.2 8.4 2.8 12.5 5 0.4 1.8 0.6 3.6 0.6 5.6 0 2.6-0.8 4.8-2.4 6.7 -1.6 1.9-3.9 2.9-7.1 2.9 -1.2 0-2.4-0.2-3.5-0.5 -1.2-0.3-2.4-0.7-3.7-1.2 -1.3-0.4-2.6-0.9-4.1-1.3 -1.5-0.4-3.1-0.6-5-0.6 -3.3 0-6 0.8-7.9 2.5s-2.9 3.8-2.9 6.5c0 1.7 0.4 3.3 1.3 4.8 0.9 1.5 2.3 3.3 4.1 5.2l21.5 21.9 9.3-17.2c1.3-2.5 2.9-4.2 4.9-5.3s4.2-1.6 6.8-1.6c2.1 0 4.1 0.3 6 0.9 2 0.6 3.7 1.3 5.1 2.1l-18.8 33.8 21 22.8c-2 1.1-4 1.9-6.3 2.6s-5 1-8.3 1c-3 0-5.7-0.6-7.9-1.8s-4.4-2.9-6.5-5.2l-3.7-4c-2.8 3.1-6.4 5.8-10.7 8.1C575.7 246.3 570.3 247.4 563.7 247.4zM565.1 228.4c3.2 0 5.9-0.6 8.1-1.8 2.2-1.2 3.8-2.7 5-4.3l-19-18.7c-2.7 1.1-4.7 2.8-6 5.1 -1.2 2.4-1.8 4.5-1.8 6.5 0 1.7 0.3 3.3 0.9 4.9 0.6 1.6 1.5 3 2.6 4.3 1.2 1.2 2.6 2.2 4.3 2.9C560.8 228.1 562.8 228.4 565.1 228.4z"/><path d="M705.7 247.4c-7.3 0-13.9-1.3-19.9-4 -6-2.6-11.1-6.2-15.4-10.7 -4.3-4.5-7.6-9.8-9.9-15.9 -2.3-6.1-3.5-12.5-3.5-19.3s1.2-13.1 3.6-19.1c2.4-5.9 5.7-11.1 10-15.4 4.3-4.4 9.4-7.8 15.4-10.4 6-2.5 12.6-3.8 19.9-3.8 5.5 0 11.2 0.6 17 1.7 5.8 1.1 11.7 3.2 17.7 6.1 0.1 2.5-0.1 4.7-0.4 6.8 -0.4 2.1-1 3.9-1.9 5.4s-2 2.7-3.5 3.6c-1.4 0.9-3.1 1.3-5.1 1.3 -1.7 0-3.2-0.2-4.6-0.6 -1.4-0.4-2.9-0.8-4.5-1.3s-3.5-0.9-5.7-1.3c-2.2-0.4-4.9-0.6-8.1-0.6 -3.6 0-7 0.6-10.2 1.8 -3.1 1.2-5.8 3-8.1 5.4s-4 5.2-5.4 8.7c-1.3 3.4-2 7.3-2 11.6 0 4.4 0.6 8.4 1.9 12 1.3 3.6 3.1 6.6 5.4 9.1 2.3 2.5 5 4.4 8.1 5.7s6.4 2 9.9 2c2.9 0 5.5-0.2 7.6-0.7s4.1-1.1 6.1-1.9v-14.9h-11.9c-2.5 0-4.5-0.7-6-2.2 -1.6-1.5-2.4-4.2-2.4-8.1 0-1.8 0.1-3.5 0.3-5.1 0.2-1.7 0.4-3 0.6-4h28.7c2.7 0 5 0.3 6.7 0.9 1.7 0.6 3 1.4 4 2.4 0.9 1 1.6 2.3 1.9 3.8 0.3 1.5 0.5 3 0.5 4.7v36.3c-5 3-10.7 5.4-17.2 7.2C719.1 246.5 712.5 247.4 705.7 247.4z"/><path d="M762.1 246.7c-1.9 0-4-0.2-6.4-0.5s-4.4-0.8-6-1.4l30.5-93.3c2.7-0.7 5.3-1.2 8-1.5s5.2-0.4 7.5-0.4c3.2 0 6 0.2 8.3 0.7s4.3 1.2 5.8 2.2c1.6 1 2.9 2.3 3.9 3.9 1 1.6 1.9 3.5 2.6 5.7l26.2 82.5c-1.7 0.7-3.7 1.2-6 1.5 -2.4 0.3-4.7 0.5-6.9 0.5 -2.6 0-5-0.4-7.4-1.3 -2.4-0.8-4.1-2.7-5.2-5.7l-5-15.2h-32.1l-4.2 14.3c-1.1 3.4-2.9 5.6-5.4 6.5C767.6 246.2 764.9 246.7 762.1 246.7zM785 206.2h22l-11-36L785 206.2z"/><path d="M858.7 246.4c-2.3 0-4.2-0.2-6-0.7 -1.7-0.4-3.2-1-4.5-1.5l9-91.7c1.9-0.8 4.3-1.4 7.4-1.9 3-0.5 5.6-0.7 7.8-0.7 3 0 5.7 0.2 7.9 0.6 2.2 0.4 4.1 1.1 5.7 2 1.6 0.9 2.8 2.2 3.8 3.9 0.9 1.7 1.6 3.7 2.1 6.2l3.8 17.8c1.1 4.9 2.2 10.3 3.5 16.3 1.2 5.9 2.3 12 3.3 18.3h0.6c1.1-6.3 2.2-12.4 3.4-18.2 1.2-5.9 2.4-11.3 3.7-16.2l4.7-18.7c1.2-4.6 3.1-7.7 5.7-9.4 2.6-1.7 6.6-2.5 12.1-2.5 2.7 0 5.5 0.2 8.3 0.7s5.1 0.9 7 1.4l8.6 92.3c-1.4 0.5-3 1-4.9 1.5s-4 0.7-6.3 0.7c-3.1 0-5.8-0.5-7.9-1.6 -2.2-1.1-3.3-3.1-3.5-6l-2.2-31.8c-0.5-5.6-0.9-11.5-1.2-17.6s-0.6-11.9-0.7-17.4h-0.3c-1.3 5.1-2.6 10.6-3.9 16.6 -1.3 5.9-2.7 11.4-4 16.4l-6 25c-1.5 5.9-6.1 8.8-14 8.8 -2 0-4-0.2-6-0.6 -2.1-0.4-3.8-0.8-5.3-1.3l-7.5-31.2c-1.5-5.8-2.8-11.5-4.1-17.1s-2.5-11.2-3.5-16.8h-0.4c-0.3 7.8-0.7 15-1.2 21.6 -0.5 6.5-0.9 12.1-1.3 16.8l-2.4 28.7c-0.2 2.8-1.3 4.8-3.2 5.9C864.4 245.8 861.9 246.4 858.7 246.4z"/><path d="M980.9 246.4c-2.1 0-4.1-0.1-6.1-0.3s-3.7-0.4-5.1-0.7v-85.2c0-2.8 0.9-5.3 2.6-7.3 1.8-2 5.1-3 10-3 2.1 0 4.1 0.1 6.1 0.3s3.7 0.4 5.1 0.7v85.2c0 2.8-0.9 5.3-2.6 7.3C989.1 245.4 985.8 246.4 980.9 246.4z"/><path d="M1021.3 246.4c-2 0-3.9-0.1-5.7-0.3 -1.9-0.2-3.4-0.4-4.7-0.7v-93.7c1.5-0.5 3.4-0.9 5.7-1.3 2.4-0.3 4.4-0.5 6-0.5 5.4 0 9.3 0.7 11.8 2.1 2.5 1.4 4.5 3.4 6.2 6l33.4 52.5v-51.2c0-1.3 0.2-2.5 0.5-3.6s0.9-2.1 1.8-3c0.8-0.9 2-1.6 3.5-2.1s3.3-0.7 5.6-0.7c2 0 3.8 0.1 5.7 0.3 1.8 0.2 3.4 0.4 4.6 0.6v93.9c-1.4 0.7-3 1.2-5 1.4s-3.9 0.4-5.7 0.4c-4.6 0-8-0.6-10.3-1.9 -2.3-1.3-4.1-3-5.6-5.3l-35.8-57.1v54.6c0 2.7-0.8 5.1-2.5 6.9C1029.1 245.4 1025.9 246.4 1021.3 246.4z"/><path d="M1156.5 247.4c-7.3 0-13.9-1.3-19.9-4 -6-2.6-11.1-6.2-15.4-10.7s-7.6-9.8-9.9-15.9c-2.3-6.1-3.5-12.5-3.5-19.3s1.2-13.1 3.6-19.1c2.4-5.9 5.7-11.1 10-15.4 4.3-4.4 9.4-7.8 15.4-10.4 6-2.5 12.6-3.8 19.9-3.8 5.5 0 11.2 0.6 17 1.7 5.8 1.1 11.7 3.2 17.7 6.1 0.1 2.5-0.1 4.7-0.4 6.8 -0.4 2.1-1 3.9-1.9 5.4s-2 2.7-3.5 3.6c-1.4 0.9-3.1 1.3-5.1 1.3 -1.7 0-3.2-0.2-4.6-0.6 -1.4-0.4-2.9-0.8-4.5-1.3s-3.5-0.9-5.7-1.3c-2.2-0.4-4.9-0.6-8.1-0.6 -3.6 0-7 0.6-10.2 1.8 -3.1 1.2-5.8 3-8.1 5.4 -2.3 2.4-4 5.2-5.4 8.7 -1.3 3.4-2 7.3-2 11.6 0 4.4 0.6 8.4 1.9 12s3.1 6.6 5.4 9.1 5 4.4 8.1 5.7 6.4 2 9.9 2c2.9 0 5.5-0.2 7.6-0.7s4.1-1.1 6.1-1.9v-14.9H1159c-2.5 0-4.5-0.7-6-2.2 -1.6-1.5-2.4-4.2-2.4-8.1 0-1.8 0.1-3.5 0.3-5.1 0.2-1.7 0.4-3 0.6-4h28.7c2.7 0 5 0.3 6.7 0.9 1.7 0.6 3 1.4 4 2.4 0.9 1 1.6 2.3 1.9 3.8s0.5 3 0.5 4.7v36.3c-5 3-10.7 5.4-17.2 7.2C1169.9 246.5 1163.3 247.4 1156.5 247.4z"/></g><rect x="11.6" y="337.7" width="1182.8" height="10.4"/><path d="M62.5 553.2c-2.1 0-4.2-0.1-6.2-0.3 -2-0.2-3.6-0.4-4.6-0.7V444H12.3c-0.3-1-0.5-2.5-0.6-4.2 -0.1-1.8-0.2-3.6-0.2-5.6 0-4.2 0.9-7 2.6-8.3 1.7-1.3 3.9-2 6.5-2h92.2c0.5 2 0.8 5 0.8 9.1 0 7.4-3 11-9.1 11H73.7v99.9c0 2.6-0.8 4.8-2.5 6.6C69.6 552.3 66.7 553.2 62.5 553.2z"/><path d="M137.6 552c-4.9 0-8-1-9.4-2.9 -1.4-1.9-2.1-4.4-2.1-7.4V434.2c0-3 0.7-5.5 2.1-7.4 1.4-1.9 4.5-2.9 9.4-2.9h66.2c0.3 1.1 0.5 2.5 0.7 4.3 0.2 1.8 0.3 3.7 0.3 5.5 0 3.8-0.8 6.5-2.5 8 -1.6 1.5-3.6 2.3-6 2.3h-48.1v34.3H199c0.1 1.1 0.3 2.4 0.5 4 0.2 1.6 0.3 3.4 0.3 5.2 0 3.7-0.8 6.2-2.3 7.7 -1.5 1.4-3.4 2.2-5.6 2.2h-43.7v34.5h57.3c0.1 1.1 0.3 2.4 0.5 4 0.2 1.6 0.3 3.4 0.3 5.2 0 3.9-0.8 6.7-2.4 8.4 -1.6 1.6-3.5 2.5-5.9 2.5H137.6z"/><path d="M281.2 553.8c-8.9 0-17.2-1.6-24.8-4.8 -7.6-3.2-14.2-7.7-19.8-13.5 -5.6-5.8-9.9-12.7-13.1-20.7 -3.2-8-4.7-16.7-4.7-26.2 0-9.2 1.6-17.8 4.7-25.8 3.2-8 7.5-15 13.1-20.9 5.6-5.9 12.2-10.5 19.8-13.9 7.6-3.3 15.9-5 24.8-5 6.7 0 13.1 0.7 19.2 2 6.1 1.3 11.9 3.1 17.4 5.3 0.1 0.9 0.2 1.7 0.3 2.5 0.1 0.7 0.1 1.5 0.1 2.3 0 4.2-0.9 7.5-2.8 9.8 -1.8 2.4-4.1 3.5-6.9 3.5 -1.3 0-2.8-0.3-4.3-0.8 -1.6-0.5-3.4-1.1-5.4-1.8 -2-0.7-4.4-1.2-7.2-1.8 -2.8-0.5-6-0.8-9.7-0.8 -5.6 0-10.9 1.1-15.8 3.3 -4.9 2.2-9.1 5.2-12.7 9.2 -3.6 3.9-6.4 8.7-8.5 14.3 -2 5.6-3.1 11.8-3.1 18.6 0 7.1 1 13.4 3.1 19 2 5.6 4.9 10.3 8.5 14.2 3.6 3.9 7.8 6.8 12.7 8.8 4.9 2 10.1 3 15.8 3 3.7 0 6.9-0.3 9.6-0.8 2.7-0.5 5-1.1 7-1.8 2-0.7 3.7-1.2 5.1-1.8 1.4-0.5 2.9-0.8 4.3-0.8 3.3 0 5.9 1.1 7.9 3.2 2 2.2 3 5.4 3 9.6 0 0.9 0 1.8 0 2.6 0 0.8-0.1 1.7-0.4 2.8 -5.5 2.4-11.2 4.2-17.1 5.4C295.4 553.1 288.7 553.8 281.2 553.8z"/><path d="M346.6 553.2c-2.1 0-4.2-0.1-6.2-0.3 -2-0.2-3.6-0.4-4.6-0.7V432.8c0-2.6 0.8-4.8 2.5-6.6 1.6-1.8 4.6-2.7 8.8-2.7 2.1 0 4.2 0.1 6.2 0.3 2 0.2 3.6 0.4 4.6 0.7v53.8h59.9v-45.5c0-2.6 0.8-4.8 2.5-6.6 1.6-1.8 4.6-2.7 8.8-2.7 2.1 0 4.2 0.1 6.3 0.3 2.1 0.2 3.7 0.4 4.7 0.7v119.4c0 2.6-0.8 4.8-2.5 6.6 -1.6 1.8-4.6 2.7-8.8 2.7 -2.1 0-4.2-0.1-6.3-0.3 -2.1-0.2-3.7-0.4-4.7-0.7v-54.8h-59.9v46.5c0 2.6-0.8 4.8-2.5 6.6C353.7 552.3 350.8 553.2 346.6 553.2z"/><path d="M476.4 553.2c-2 0-3.9-0.1-5.8-0.2 -1.9-0.1-3.4-0.3-4.4-0.6V425.5c1.4-0.7 3.3-1.1 5.5-1.5 2.2-0.3 4.3-0.5 6.1-0.5 5.2 0 9 0.7 11.3 2.1 2.3 1.4 4.3 3.4 6 6l57.4 88.7 -1.2-88.1c0-2.4 0.8-4.4 2.3-6.1 1.5-1.7 4.2-2.6 8.2-2.6 1.8 0 3.7 0.1 5.6 0.3 1.9 0.2 3.4 0.4 4.4 0.7v126.9c-3 1.2-6.6 1.8-10.6 1.8 -4.7 0-8.2-0.7-10.4-2.1 -2.2-1.4-4.1-3.2-5.5-5.4l-59.3-92.4 1.2 91.2c0 2.5-0.8 4.6-2.3 6.2C483.3 552.4 480.5 553.2 476.4 553.2z"/><path d="M652.9 554.6c-9.3 0-17.9-1.7-25.6-5.2 -7.8-3.5-14.4-8.3-19.9-14.4 -5.5-6.1-9.8-13.2-12.9-21.3 -3.1-8.1-4.6-16.8-4.6-26.1 0-9.2 1.5-17.8 4.6-25.9 3.1-8.1 7.4-15.1 12.9-21 5.5-5.9 12.1-10.6 19.9-14 7.7-3.4 16.3-5.1 25.6-5.1 9.3 0 17.9 1.7 25.6 5.1 7.7 3.4 14.4 8.1 19.9 14 5.5 5.9 9.8 12.9 12.9 20.9 3.1 8 4.6 16.7 4.6 26 0 9.3-1.5 18-4.6 26.1 -3.1 8.1-7.4 15.2-12.9 21.3 -5.5 6.1-12.1 10.9-19.9 14.4C670.8 552.8 662.2 554.6 652.9 554.6zM652.7 534.9c5.5 0 10.7-1.2 15.6-3.6 4.9-2.4 9.1-5.7 12.8-9.9 3.7-4.2 6.6-9.2 8.7-15 2.1-5.8 3.2-11.9 3.2-18.5 0-6.6-1-12.7-3.1-18.4 -2-5.7-4.9-10.6-8.5-14.8 -3.6-4.1-7.8-7.4-12.7-9.8 -4.9-2.4-10.1-3.5-15.8-3.5 -5.5 0-10.7 1.2-15.6 3.4 -4.9 2.3-9.1 5.5-12.7 9.7 -3.6 4.1-6.5 9-8.6 14.7 -2.1 5.6-3.2 11.8-3.2 18.5 0 6.8 1 13.1 3.1 18.9 2 5.8 4.9 10.8 8.5 15 3.6 4.2 7.8 7.5 12.7 9.9C642 533.7 647.2 534.9 652.7 534.9z"/><path d="M744.9 552c-4.9 0-8-1-9.4-2.9 -1.4-1.9-2.1-4.4-2.1-7.4V432.8c0-2.6 0.8-4.8 2.5-6.6 1.6-1.8 4.6-2.7 8.8-2.7 2.1 0 4.2 0.1 6.2 0.3 2 0.2 3.6 0.4 4.6 0.7v107.4h60.9c0.3 1.4 0.5 2.9 0.7 4.4 0.2 1.5 0.3 3.1 0.3 4.6 0 4.2-0.9 7.1-2.7 8.7 -1.8 1.6-4.2 2.4-7.4 2.4H744.9z"/><path d="M884.2 554.6c-9.3 0-17.9-1.7-25.6-5.2 -7.8-3.5-14.4-8.3-19.9-14.4 -5.5-6.1-9.8-13.2-12.9-21.3 -3.1-8.1-4.6-16.8-4.6-26.1 0-9.2 1.5-17.8 4.6-25.9 3.1-8.1 7.4-15.1 12.9-21 5.5-5.9 12.1-10.6 19.9-14 7.7-3.4 16.3-5.1 25.6-5.1 9.3 0 17.9 1.7 25.6 5.1 7.7 3.4 14.4 8.1 19.9 14 5.5 5.9 9.8 12.9 12.9 20.9 3.1 8 4.6 16.7 4.6 26 0 9.3-1.5 18-4.6 26.1 -3.1 8.1-7.4 15.2-12.9 21.3 -5.5 6.1-12.1 10.9-19.9 14.4C902.1 552.8 893.5 554.6 884.2 554.6zM884 534.9c5.5 0 10.7-1.2 15.6-3.6 4.9-2.4 9.1-5.7 12.8-9.9 3.7-4.2 6.6-9.2 8.7-15 2.1-5.8 3.2-11.9 3.2-18.5 0-6.6-1-12.7-3.1-18.4 -2-5.7-4.9-10.6-8.5-14.8 -3.6-4.1-7.8-7.4-12.7-9.8 -4.9-2.4-10.1-3.5-15.8-3.5 -5.5 0-10.7 1.2-15.6 3.4 -4.9 2.3-9.1 5.5-12.7 9.7 -3.6 4.1-6.5 9-8.6 14.7 -2.1 5.6-3.2 11.8-3.2 18.5 0 6.8 1 13.1 3.1 18.9 2 5.8 4.9 10.8 8.5 15 3.6 4.2 7.8 7.5 12.7 9.9C873.3 533.7 878.5 534.9 884 534.9z"/><path d="M1022.9 554.2c-9.7 0-18.6-1.8-26.5-5.3 -7.9-3.5-14.7-8.3-20.4-14.4 -5.6-6-10-13.1-13.1-21.2 -3.1-8.1-4.6-16.6-4.6-25.7 0-9.1 1.6-17.5 4.7-25.4 3.2-7.9 7.5-14.7 13.2-20.5 5.6-5.8 12.4-10.3 20.4-13.7 7.9-3.3 16.6-5 26.1-5 7.5 0 15.1 0.8 22.9 2.4 7.7 1.6 14.8 4.1 21.1 7.5v2.6c0 4.1-0.9 7.4-2.6 9.8 -1.7 2.5-4.3 3.7-7.9 3.7 -1.7 0-3.4-0.3-5.2-0.9 -1.8-0.6-3.9-1.2-6.3-2 -2.4-0.7-5.4-1.4-8.8-2 -3.4-0.6-7.6-0.9-12.4-0.9 -6.2 0-11.8 1.1-16.9 3.2 -5.1 2.1-9.6 5.1-13.3 8.9 -3.7 3.8-6.7 8.4-8.8 13.9 -2.1 5.5-3.2 11.6-3.2 18.4 0 6.7 1 12.9 3.2 18.7 2.1 5.8 5 10.7 8.8 14.9 3.7 4.1 8.2 7.4 13.4 9.8 5.2 2.4 10.9 3.5 17 3.5 5.5 0 10.2-0.6 14.2-1.7 3.9-1.1 7.6-2.6 11-4.4v-29.6h-24.6c-2.4 0-4.3-0.7-5.8-2.1 -1.5-1.4-2.3-4-2.3-7.8 0-3.5 0.3-6.5 1-8.9h41.4c4.9 0 8 1 9.4 2.9 1.4 1.9 2.1 4.4 2.1 7.4V541c-7.1 4.2-14.4 7.5-21.8 9.8C1040.8 553 1032.3 554.2 1022.9 554.2z"/><path d="M1131.4 553.2c-2.1 0-4.2-0.1-6.2-0.3 -2-0.2-3.6-0.4-4.6-0.7v-54.4l-46.5-71.1c1.8-1 4-1.8 6.5-2.4 2.5-0.5 4.7-0.8 6.7-0.8 3.4 0 6.3 0.4 8.6 1.3 2.3 0.9 4.2 2.5 5.8 5l30.7 49.4 30.5-49.2c1.4-2.5 3.2-4.2 5.1-5.1 2-0.9 4.5-1.4 7.7-1.4 1.8 0 4 0.2 6.5 0.7 2.5 0.5 4.5 1.2 6.1 2.3l-45.7 71.1v46.3c0 2.6-0.8 4.8-2.5 6.6C1138.5 552.3 1135.6 553.2 1131.4 553.2z"/></svg>
