<svg enable-background="new 0 0 270.3 491.2" viewBox="0 0 270.3 491.2" xmlns="http://www.w3.org/2000/svg"><g stroke-miterlimit="10" stroke-width="2"><path d="m124.5 54v382.7" fill="none" stroke="#7d7d7d"/><path d="m242.1 54v-2.5" fill="none" stroke="#426db2"/><path d="m242.1 47.2v-15.2" fill="none" stroke="#426db2" stroke-dasharray="4.3472 4.3472"/><path d="m242.1 29.8v-2.5h-2.5" fill="none" stroke="#426db2"/><path d="m234.6 27.3h-78.4" fill="none" stroke="#426db2" stroke-dasharray="5.0547 5.0547"/><path d="m153.7 27.3h-2.5" fill="none" stroke="#426db2"/><path d="m215.4 154.2h-1" fill="none" stroke="#9d7b34"/><path d="m212.4 154.2h-182.7" fill="none" stroke="#9d7b34" stroke-dasharray="1.9964 1.9964"/><path d="m28.7 154.2h-1" fill="none" stroke="#9d7b34"/><path d="m27.7 154.2v1" fill="none" stroke="#9d7b34"/><path d="m27.7 157.1v66" fill="none" stroke="#9d7b34" stroke-dasharray="1.9698 1.9698"/><path d="m27.7 224.1v1" fill="none" stroke="#9d7b34"/><path d="m27.7 278.6v1" fill="none" stroke="#9d7b34"/><path d="m27.7 281.7v19.6" fill="none" stroke="#9d7b34" stroke-dasharray="2.0644 2.0644"/><path d="m27.7 302.3v1" fill="none" stroke="#9d7b34"/><path d="m54.5 330h1" fill="none" stroke="#9d7b34"/><path d="m57.4 330h137.3" fill="none" stroke="#9d7b34" stroke-dasharray="1.9747 1.9747"/><path d="m195.7 330h1" fill="none" stroke="#9d7b34"/><path d="m227.9 330h1" fill="none" stroke="#9d7b34"/><path d="m230.7 330h9.6" fill="none" stroke="#9d7b34" stroke-dasharray="1.745 1.745"/><path d="m241.1 330h1" fill="none" stroke="#9d7b34"/><path d="m242.1 330v1" fill="none" stroke="#9d7b34"/><path d="m242.1 333.1v36.6" fill="none" stroke="#9d7b34" stroke-dasharray="2.0884 2.0884"/><path d="m242.1 370.7v1" fill="none" stroke="#9d7b34"/><path d="m242.1 107.5v2.5" fill="none" stroke="#426db2"/><path d="m242.1 115v7.4" fill="none" stroke="#426db2" stroke-dasharray="4.9815 4.9815"/><path d="m242.1 124.9v2.5" fill="none" stroke="#426db2"/><path d="m182.5 225.1h2.5" fill="none" stroke="#426db2"/><path d="m189.9 225.1h47.3" fill="none" stroke="#426db2" stroke-dasharray="4.971 4.971"/><path d="m239.6 225.1h2.5v-2.5" fill="none" stroke="#426db2"/><path d="m242.1 217v-30.8" fill="none" stroke="#426db2" stroke-dasharray="5.6012 5.6012"/><path d="m242.1 183.4v-2.5" fill="none" stroke="#426db2"/><path d="m151.2 463.4h2.5" fill="none" stroke="#426db2"/><path d="m157.2 463.4h5.4" fill="none" stroke="#426db2" stroke-dasharray="3.5417 3.5417"/><path d="m164.3 463.4h2.5v-2.5" fill="none" stroke="#426db2"/><path d="m166.8 455.9v-210.1" fill="none" stroke="#426db2" stroke-dasharray="5.0623 5.0623"/><path d="m166.8 243.2v-2.5" fill="none" stroke="#426db2"/><path d="m242.1 427.2v2.5" fill="none" stroke="#426db2"/><path d="m242.1 433v5" fill="none" stroke="#426db2" stroke-dasharray="3.3148 3.3148"/><path d="m242.1 439.6v2.5" fill="none" stroke="#426db2"/><path d="m243.1 442.1h-2.5" fill="none" stroke="#426db2"/><path d="m236 442.1h-63.3" fill="none" stroke="#426db2" stroke-dasharray="4.687 4.687"/><path d="m170.3 442.1h-2.5" fill="none" stroke="#426db2"/><circle cx="124.5" cy="27.7" fill="#a5a4a4" r="26.7" stroke="#000"/><circle cx="242.5" cy="81.1" fill="#204b9c" r="26.7" stroke="#000"/><circle cx="242.1" cy="154.2" fill="#204b9c" r="26.7" stroke="#000"/><circle cx="166.8" cy="225.1" fill="#204b9c" r="15.6" stroke="#000"/><circle cx="212.2" cy="329.8" fill="#facb31" r="15.6" stroke="#000"/><circle cx="27.7" cy="251.9" fill="#f9cb33" r="26.7" stroke="#000"/><circle cx="27.7" cy="330" fill="#f9cb33" r="26.7" stroke="#000"/><circle cx="124.3" cy="463.4" fill="#a5a4a4" r="26.7" stroke="#000"/><circle cx="241.8" cy="398.3" fill="#204b9c" r="26.7" stroke="#000"/></g><path d="m103.6 31.4c-.2 0-.3 0-.5-.1-.1 0-.3-.1-.4-.1l.7-7.5c.2-.1.4-.1.6-.2.2 0 .5-.1.6-.1h.6c.2 0 .3.1.5.2.1.1.2.2.3.3s.1.3.2.5l.3 1.5c.1.4.2.8.3 1.3s.2 1 .3 1.5c.1-.5.2-1 .3-1.5s.2-.9.3-1.3l.4-1.5c.1-.4.2-.6.5-.8.2-.1.5-.2 1-.2.2 0 .4 0 .7.1.2 0 .4.1.6.1l.7 7.5c-.1 0-.2.1-.4.1s-.3.1-.5.1c-.3 0-.5 0-.6-.1s-.3-.3-.3-.5l-.2-2.6c0-.5-.1-.9-.1-1.4s0-1-.1-1.4c-.1.4-.2.9-.3 1.4s-.2.9-.3 1.3l-.5 2c-.1.5-.5.7-1.1.7-.2 0-.3 0-.5 0s-.3-.1-.4-.1l-.6-2.5c-.1-.5-.2-.9-.3-1.4s-.2-.9-.3-1.4c0 .6-.1 1.2-.1 1.8 0 .5-.1 1-.1 1.4l-.2 2.3c0 .2-.1.4-.3.5s-.5.1-.8.1z"/><path d="m113 31.4c-.2 0-.3 0-.5 0s-.4-.1-.5-.1l2.5-7.6c.2-.1.4-.1.7-.1h.6c.3 0 .5 0 .7.1s.3.1.5.2c.1.1.2.2.3.3s.2.3.2.5l2.1 6.7c-.1.1-.3.1-.5.1s-.4 0-.6 0-.4 0-.6-.1-.3-.2-.4-.5l-.4-1.2h-2.6l-.3 1.2c-.1.3-.2.5-.4.5-.3 0-.5 0-.8 0zm1.9-3.3h1.8l-.9-2.9z"/><path d="m123 31.5c-.4 0-.9 0-1.4-.1s-1-.2-1.5-.3c0-.4 0-.8.2-1.1.1-.3.3-.4.7-.4h.4c.1 0 .3.1.5.1s.4.1.6.1h.6c.4 0 .7-.1.9-.2s.3-.3.3-.5-.1-.3-.3-.4-.4-.2-.7-.3l-.9-.2c-.4-.1-.8-.3-1-.4s-.5-.4-.7-.6-.3-.4-.4-.7c-.1-.2-.1-.5-.1-.7 0-.3 0-.5.1-.8s.3-.5.5-.8c.2-.2.5-.4.9-.6.4-.1.9-.2 1.5-.2.4 0 .8 0 1.3.1.4.1.9.2 1.4.3 0 .4 0 .8-.1 1.1s-.3.4-.7.4c-.1 0-.3 0-.4 0s-.3 0-.4-.1c-.1 0-.3 0-.5-.1-.2 0-.4 0-.6 0-.4 0-.7.1-.9.2s-.2.3-.2.4c0 .2.1.3.2.4s.4.2.7.3l1 .3c1.5.4 2.3 1.2 2.3 2.4 0 .4-.1.7-.2 1s-.3.6-.6.8-.6.4-1 .5c-.5 0-1 .1-1.5.1z"/><path d="m129.7 31.4c-.2 0-.3 0-.5 0s-.3 0-.4-.1v-6h-2.3c0-.1 0-.2-.1-.3 0-.1 0-.3 0-.4 0-.4.1-.6.2-.8s.3-.2.6-.2h5.7v.3.4c0 .6-.3 1-.8 1h-1.5v5.3c0 .2-.1.4-.2.6 0 .1-.3.2-.7.2z"/><path d="m134.9 31.3c-.2 0-.4 0-.5-.1-.1 0-.2-.1-.3-.2s-.1-.2-.2-.3c0-.1 0-.2 0-.4v-5.9c0-.1 0-.3 0-.4s.1-.2.2-.3.2-.2.3-.2.3-.1.5-.1h4v.4s0 .3 0 .5c0 .3-.1.6-.2.7s-.3.2-.5.2h-2.4v1.4h2.8v.3.4c0 .3-.1.5-.2.7-.1.1-.3.2-.5.2h-2.2v1.4h3.2v.4.5c0 .3-.1.6-.2.7s-.3.2-.5.2h-3.3z"/><path d="m145.1 31.4c-.3 0-.5 0-.7-.1s-.3-.3-.5-.5l-1.5-2.2h-.3v2c0 .2-.1.4-.2.6s-.4.2-.8.2c-.2 0-.3 0-.5 0s-.3 0-.4-.1v-6.8c0-.1 0-.3 0-.4s.1-.2.2-.3.2-.2.3-.2.3-.1.5-.1h1.8c.5 0 .9.1 1.3.2s.7.3 1 .5.5.5.6.8c.2.3.2.7.2 1.1 0 .6-.2 1.1-.5 1.5s-.8.7-1.4.8l2.1 2.7c-.2.1-.4.2-.6.2-.1.1-.3.1-.6.1zm-3-4.2h.9c.5 0 .8-.1 1-.3s.3-.4.3-.7-.1-.5-.3-.7-.5-.3-.9-.3h-1z"/><path d="m243.8 93.3c-.6 0-1.1 0-1.7-.1-.5-.1-1-.1-1.4-.2v-18.8l-4.4 2c-.2-.3-.4-.6-.7-.9-.2-.3-.5-.7-.6-1.2-.2-.5-.3-1-.3-1.4 0-.6.2-1.2.5-1.6.3-.5.8-.8 1.4-1.1l5.8-2.8h4.7v23.4c0 .8-.2 1.4-.7 2-.3.4-1.2.7-2.6.7z" fill="#fff"/><path d="m233.7 166.2c-.1-.3-.2-.7-.3-1.1s-.1-.9-.1-1.3c0-.3 0-.7.1-1.1s.2-.8.3-1.2.4-.9.7-1.3.7-.8 1.1-1.2l5-4.3c.9-.7 1.6-1.3 2.2-1.9.6-.5 1.1-1 1.5-1.5s.7-.9.8-1.4c.2-.4.2-.9.2-1.4 0-.7-.2-1.3-.7-1.9s-1.3-.9-2.4-.9c-.7 0-1.3.1-1.9.3-.5.2-1 .4-1.5.6s-.9.4-1.3.5c-.4.2-.8.2-1.2.2s-.8-.1-1.2-.3-.7-.5-1-.9-.5-.9-.6-1.5-.2-1.2-.1-1.9c1.1-.8 2.4-1.5 3.8-2s3.2-.8 5.2-.8c1.4 0 2.7.2 3.9.6s2.1 1 2.9 1.7 1.4 1.6 1.9 2.7.7 2.2.7 3.4c0 1.9-.5 3.5-1.4 5-1 1.4-2.3 2.7-4 3.8l-4.6 3.4h10.2c.1.3.1.7.2 1.2s.1 1 .1 1.5c0 1.2-.3 2-.8 2.5s-1.1.7-1.8.7h-15.9z" fill="#fff"/><path d="m237.7 410.7c-.7 0-1.4-.1-2.1-.2s-1.3-.3-1.7-.5l10-19.8h-9.1c-.7 0-1.3-.2-1.8-.6s-.7-1.2-.7-2.4c0-.5 0-1.1.1-1.6s.1-.9.2-1.2h18.8v4.2l-9.4 19.9c-.5 1-1.1 1.6-1.8 1.9-.7.2-1.5.3-2.5.3z" fill="#fff"/><path d="m29.9 264.3c-.5 0-1 0-1.5-.1s-.9-.1-1.2-.2v-5.2h-11.6c-.1-.3-.1-.7-.2-1.1-.1-.5-.1-1-.1-1.5 0-.7.1-1.3.3-2s.6-1.3 1.1-2l9.7-14.1h7v15.2h3.8c.1.3.1.7.2 1.1.1.5.1 1 .1 1.5 0 1.1-.2 1.9-.7 2.3s-1 .6-1.7.6h-1.6v3.5c0 .7-.2 1.2-.7 1.5-.6.4-1.5.5-2.9.5zm-7.8-11h5.2v-7.6z" fill="#202c5a"/><path d="m27.4 342.6c-1.8 0-3.5-.2-5-.7s-2.9-1.1-4.1-1.8c0-1.4.3-2.5.9-3.3.5-.8 1.3-1.2 2.2-1.2.4 0 .8.1 1.2.2s.9.3 1.3.4c.5.2 1 .3 1.5.4s1.1.2 1.8.2c1.3 0 2.3-.3 3-1s1-1.5 1-2.4-.3-1.6-1-2.2-1.6-.9-2.8-.9c-.9 0-1.7.1-2.3.4-.6.2-1.2.6-1.7 1l-4.4-1.4 1.4-14.1h15.6c.1.3.1.7.2 1.1.1.5.1 1 .1 1.5 0 1.1-.2 1.9-.7 2.3s-1 .6-1.7.6h-8.2l-.6 4.8c.6-.2 1.2-.5 1.8-.6.6-.2 1.4-.3 2.2-.3 1.4 0 2.7.2 3.8.7s2 1.1 2.7 1.8 1.3 1.6 1.6 2.5c.4.9.5 1.9.5 2.9 0 1.3-.2 2.4-.6 3.5s-1.1 2.1-1.9 2.9c-.9.8-1.9 1.5-3.2 2-1.3.4-2.8.7-4.6.7z" fill="#202c5a"/><path d="m212.6 337.6c-1 0-1.9-.2-2.7-.5-.8-.4-1.6-.9-2.2-1.6s-1.1-1.6-1.5-2.6c-.3-1-.5-2.3-.5-3.7s.2-2.7.5-3.7c.4-1.1.9-1.9 1.5-2.6s1.4-1.2 2.3-1.6 1.9-.5 3-.5c1 0 1.9.1 2.7.3s1.5.4 2.2.8c.1 1-.1 1.7-.4 2.2s-.8.8-1.4.8c-.2 0-.5 0-.7-.1-.2 0-.5-.1-.7-.2s-.5-.1-.8-.2-.6-.1-.9-.1c-1.1 0-1.9.3-2.4.9s-.8 1.6-.9 3c.4-.4 1-.7 1.6-1s1.3-.4 2.1-.4c.9 0 1.7.1 2.4.4s1.2.7 1.7 1.2.8 1 1 1.7.3 1.3.3 2c0 .8-.1 1.5-.4 2.1-.3.7-.7 1.3-1.2 1.8s-1.2.9-1.9 1.2c-.8.3-1.7.4-2.7.4zm0-3.2c.7 0 1.2-.2 1.6-.7s.7-1 .7-1.8c0-.6-.2-1.1-.6-1.5s-1-.6-1.7-.6c-.5 0-1 .1-1.5.3s-.9.4-1.2.7c.1 1.1.3 2 .8 2.6s1.1 1 1.9 1z" fill="#202c5a"/><path d="m166.7 232.8c-1.2 0-2.2-.1-3.2-.4-.9-.3-1.8-.7-2.5-1.2 0-.9.2-1.6.5-2.1s.7-.7 1.3-.7c.3 0 .5 0 .8.1.2.1.5.2.8.3s.6.2 1 .3.8.1 1.3.1c.8 0 1.4-.2 1.7-.5.4-.3.5-.8.5-1.2 0-.2 0-.4-.1-.6s-.2-.4-.4-.5-.5-.3-.8-.3-.7-.1-1.2-.1h-1.6c-.4 0-.7-.1-.9-.4-.3-.2-.4-.7-.4-1.3 0-.3 0-.6 0-.8s.1-.5.1-.7h2.7c.8 0 1.4-.1 1.8-.4s.6-.7.6-1.1-.2-.8-.5-1.1-.8-.4-1.5-.4c-.5 0-.9 0-1.2.1s-.6.1-.9.2-.5.1-.7.2-.5.1-.8.1c-.5 0-.9-.2-1.3-.7-.3-.5-.5-1.2-.5-2.1.7-.4 1.5-.8 2.5-1s2-.4 3.2-.4c1 0 1.8.1 2.5.3s1.3.5 1.7.9.8.9 1 1.4.3 1.1.3 1.7c0 .8-.2 1.6-.7 2.2s-1.1 1.1-2 1.3c.9.2 1.7.7 2.3 1.3s.9 1.5.9 2.5c0 1.5-.6 2.8-1.7 3.7-1.1.8-2.6 1.3-4.6 1.3z" fill="#fdfdfe"/><path d="m124.3 476c-1.7 0-3.3-.2-4.6-.6s-2.4-.9-3.3-1.6-1.5-1.5-2-2.4c-.4-.9-.7-1.9-.7-3 0-1.5.4-2.8 1.2-3.9s1.9-1.9 3.4-2.4c-1-.5-1.8-1.2-2.6-2.1s-1.2-2.1-1.2-3.5c0-.9.2-1.7.5-2.6.4-.9.9-1.6 1.7-2.3s1.8-1.3 3-1.7 2.7-.7 4.4-.7 3.2.2 4.4.7 2.2 1 3 1.7 1.3 1.5 1.7 2.3.5 1.7.5 2.6c0 .7-.1 1.3-.3 1.9s-.5 1.1-.9 1.6-.8.9-1.2 1.2c-.4.4-.9.6-1.4.9 1.4.5 2.5 1.3 3.3 2.4s1.2 2.4 1.2 3.9c0 1.1-.2 2.1-.7 3-.4.9-1.1 1.7-2 2.4s-2 1.2-3.3 1.6c-.8.4-2.4.6-4.1.6zm0-5.4c1.2 0 2.1-.3 2.9-.8s1.1-1.3 1.1-2.2c0-.8-.3-1.5-.9-2.2-.6-.6-1.6-1-3-1s-2.4.3-3 1c-.6.6-.9 1.4-.9 2.2 0 .9.4 1.6 1.1 2.1.6.6 1.5.9 2.7.9zm0-10.8c1 0 1.9-.3 2.5-.8s1-1.2 1-2-.3-1.4-.9-1.9-1.5-.7-2.6-.7-2 .2-2.6.7-.9 1.1-.9 1.9.3 1.5 1 2 1.5.8 2.5.8z" fill="#202c5a"/></svg>