<svg version="1.1" id="git-pr-workflow" xmlns="http://www.w3.org/2000/svg" xmlns:xlink="http://www.w3.org/1999/xlink"
      x="0px" y="0px" viewBox="0 0 270.3 491.2" enable-background="new 0 0 270.3 491.2" xml:space="preserve"
      aria-labelledby="title desc">
<title id="title">Sky Betting &amp; Engineering</title>
<desc id="desc">Stylised typography for Sky Betting &amp; Gaming Engineering</desc>

<line fill="none" stroke="#7D7D7D" stroke-width="2" stroke-miterlimit="10" x1="124.5" y1="54" x2="124.5" y2="436.7"/>
<g>
    <g>
        <line fill="none" stroke="#426DB2" stroke-width="2" stroke-miterlimit="10" x1="242.1" y1="54" x2="242.1" y2="51.5"/>

            <line fill="none" stroke="#426DB2" stroke-width="2" stroke-miterlimit="10" stroke-dasharray="4.3472,4.3472" x1="242.1" y1="47.2" x2="242.1" y2="32"/>
        <polyline fill="none" stroke="#426DB2" stroke-width="2" stroke-miterlimit="10" points="242.1,29.8 242.1,27.3 239.6,27.3         "/>

            <line fill="none" stroke="#426DB2" stroke-width="2" stroke-miterlimit="10" stroke-dasharray="5.0547,5.0547" x1="234.6" y1="27.3" x2="156.2" y2="27.3"/>
        <line fill="none" stroke="#426DB2" stroke-width="2" stroke-miterlimit="10" x1="153.7" y1="27.3" x2="151.2" y2="27.3"/>
    </g>
</g>
<g>
    <g>
        <line fill="none" stroke="#9D7B34" stroke-width="2" stroke-miterlimit="10" x1="215.4" y1="154.2" x2="214.4" y2="154.2"/>

            <line fill="none" stroke="#9D7B34" stroke-width="2" stroke-miterlimit="10" stroke-dasharray="1.9964,1.9964" x1="212.4" y1="154.2" x2="29.7" y2="154.2"/>
        <line fill="none" stroke="#9D7B34" stroke-width="2" stroke-miterlimit="10" x1="28.7" y1="154.2" x2="27.7" y2="154.2"/>
    </g>
</g>
<g>
    <g>
        <line fill="none" stroke="#9D7B34" stroke-width="2" stroke-miterlimit="10" x1="27.7" y1="154.2" x2="27.7" y2="155.2"/>

            <line fill="none" stroke="#9D7B34" stroke-width="2" stroke-miterlimit="10" stroke-dasharray="1.9698,1.9698" x1="27.7" y1="157.1" x2="27.7" y2="223.1"/>
        <line fill="none" stroke="#9D7B34" stroke-width="2" stroke-miterlimit="10" x1="27.7" y1="224.1" x2="27.7" y2="225.1"/>
    </g>
</g>
<g>
    <g>
        <line fill="none" stroke="#9D7B34" stroke-width="2" stroke-miterlimit="10" x1="27.7" y1="278.6" x2="27.7" y2="279.6"/>

            <line fill="none" stroke="#9D7B34" stroke-width="2" stroke-miterlimit="10" stroke-dasharray="2.0644,2.0644" x1="27.7" y1="281.7" x2="27.7" y2="301.3"/>
        <line fill="none" stroke="#9D7B34" stroke-width="2" stroke-miterlimit="10" x1="27.7" y1="302.3" x2="27.7" y2="303.3"/>
    </g>
</g>
<g>
    <g>
        <line fill="none" stroke="#9D7B34" stroke-width="2" stroke-miterlimit="10" x1="54.5" y1="330" x2="55.5" y2="330"/>

            <line fill="none" stroke="#9D7B34" stroke-width="2" stroke-miterlimit="10" stroke-dasharray="1.9747,1.9747" x1="57.4" y1="330" x2="194.7" y2="330"/>
        <line fill="none" stroke="#9D7B34" stroke-width="2" stroke-miterlimit="10" x1="195.7" y1="330" x2="196.7" y2="330"/>
    </g>
</g>
<g>
    <g>
        <line fill="none" stroke="#9D7B34" stroke-width="2" stroke-miterlimit="10" x1="227.9" y1="330" x2="228.9" y2="330"/>

            <line fill="none" stroke="#9D7B34" stroke-width="2" stroke-miterlimit="10" stroke-dasharray="1.745,1.745" x1="230.7" y1="330" x2="240.3" y2="330"/>
        <line fill="none" stroke="#9D7B34" stroke-width="2" stroke-miterlimit="10" x1="241.1" y1="330" x2="242.1" y2="330"/>
    </g>
</g>
<g>
    <g>
        <line fill="none" stroke="#9D7B34" stroke-width="2" stroke-miterlimit="10" x1="242.1" y1="330" x2="242.1" y2="331"/>

            <line fill="none" stroke="#9D7B34" stroke-width="2" stroke-miterlimit="10" stroke-dasharray="2.0884,2.0884" x1="242.1" y1="333.1" x2="242.1" y2="369.7"/>
        <line fill="none" stroke="#9D7B34" stroke-width="2" stroke-miterlimit="10" x1="242.1" y1="370.7" x2="242.1" y2="371.7"/>
    </g>
</g>
<g>
    <g>
        <line fill="none" stroke="#426DB2" stroke-width="2" stroke-miterlimit="10" x1="242.1" y1="107.5" x2="242.1" y2="110"/>

            <line fill="none" stroke="#426DB2" stroke-width="2" stroke-miterlimit="10" stroke-dasharray="4.9815,4.9815" x1="242.1" y1="115" x2="242.1" y2="122.4"/>
        <line fill="none" stroke="#426DB2" stroke-width="2" stroke-miterlimit="10" x1="242.1" y1="124.9" x2="242.1" y2="127.4"/>
    </g>
</g>
<g>
    <g>
        <line fill="none" stroke="#426DB2" stroke-width="2" stroke-miterlimit="10" x1="182.5" y1="225.1" x2="185" y2="225.1"/>

            <line fill="none" stroke="#426DB2" stroke-width="2" stroke-miterlimit="10" stroke-dasharray="4.971,4.971" x1="189.9" y1="225.1" x2="237.2" y2="225.1"/>
        <polyline fill="none" stroke="#426DB2" stroke-width="2" stroke-miterlimit="10" points="239.6,225.1 242.1,225.1 242.1,222.6
            "/>

            <line fill="none" stroke="#426DB2" stroke-width="2" stroke-miterlimit="10" stroke-dasharray="5.6012,5.6012" x1="242.1" y1="217" x2="242.1" y2="186.2"/>
        <line fill="none" stroke="#426DB2" stroke-width="2" stroke-miterlimit="10" x1="242.1" y1="183.4" x2="242.1" y2="180.9"/>
    </g>
</g>
<g>
    <g>
        <line fill="none" stroke="#426DB2" stroke-width="2" stroke-miterlimit="10" x1="151.2" y1="463.4" x2="153.7" y2="463.4"/>

            <line fill="none" stroke="#426DB2" stroke-width="2" stroke-miterlimit="10" stroke-dasharray="3.5417,3.5417" x1="157.2" y1="463.4" x2="162.6" y2="463.4"/>
        <polyline fill="none" stroke="#426DB2" stroke-width="2" stroke-miterlimit="10" points="164.3,463.4 166.8,463.4 166.8,460.9
            "/>

            <line fill="none" stroke="#426DB2" stroke-width="2" stroke-miterlimit="10" stroke-dasharray="5.0623,5.0623" x1="166.8" y1="455.9" x2="166.8" y2="245.8"/>
        <line fill="none" stroke="#426DB2" stroke-width="2" stroke-miterlimit="10" x1="166.8" y1="243.2" x2="166.8" y2="240.7"/>
    </g>
</g>
<g>
    <g>
        <line fill="none" stroke="#426DB2" stroke-width="2" stroke-miterlimit="10" x1="242.1" y1="427.2" x2="242.1" y2="429.7"/>

            <line fill="none" stroke="#426DB2" stroke-width="2" stroke-miterlimit="10" stroke-dasharray="3.3148,3.3148" x1="242.1" y1="433" x2="242.1" y2="438"/>
        <line fill="none" stroke="#426DB2" stroke-width="2" stroke-miterlimit="10" x1="242.1" y1="439.6" x2="242.1" y2="442.1"/>
    </g>
</g>
<g>
    <g>
        <line fill="none" stroke="#426DB2" stroke-width="2" stroke-miterlimit="10" x1="243.1" y1="442.1" x2="240.6" y2="442.1"/>

            <line fill="none" stroke="#426DB2" stroke-width="2" stroke-miterlimit="10" stroke-dasharray="4.687,4.687" x1="236" y1="442.1" x2="172.7" y2="442.1"/>
        <line fill="none" stroke="#426DB2" stroke-width="2" stroke-miterlimit="10" x1="170.3" y1="442.1" x2="167.8" y2="442.1"/>
    </g>
</g>
<circle fill="#A5A4A4" stroke="#000000" stroke-width="2" stroke-miterlimit="10" cx="124.5" cy="27.7" r="26.7"/>
<circle fill="#204B9C" stroke="#000000" stroke-width="2" stroke-miterlimit="10" cx="242.5" cy="81.1" r="26.7"/>
<circle fill="#204B9C" stroke="#000000" stroke-width="2" stroke-miterlimit="10" cx="242.1" cy="154.2" r="26.7"/>
<circle fill="#204B9C" stroke="#000000" stroke-width="2" stroke-miterlimit="10" cx="166.8" cy="225.1" r="15.6"/>
<circle fill="#FACB31" stroke="#000000" stroke-width="2" stroke-miterlimit="10" cx="212.2" cy="329.8" r="15.6"/>
<circle fill="#F9CB33" stroke="#000000" stroke-width="2" stroke-miterlimit="10" cx="27.7" cy="251.9" r="26.7"/>
<circle fill="#F9CB33" stroke="#000000" stroke-width="2" stroke-miterlimit="10" cx="27.7" cy="330" r="26.7"/>
<circle fill="#A5A4A4" stroke="#000000" stroke-width="2" stroke-miterlimit="10" cx="124.3" cy="463.4" r="26.7"/>
<circle fill="#204B9C" stroke="#000000" stroke-width="2" stroke-miterlimit="10" cx="241.8" cy="398.3" r="26.7"/>
<g>
    <path d="M103.6,31.4c-0.2,0-0.3,0-0.5-0.1c-0.1,0-0.3-0.1-0.4-0.1l0.7-7.5c0.2-0.1,0.4-0.1,0.6-0.2c0.2,0,0.5-0.1,0.6-0.1
        c0.2,0,0.5,0,0.6,0c0.2,0,0.3,0.1,0.5,0.2c0.1,0.1,0.2,0.2,0.3,0.3c0.1,0.1,0.1,0.3,0.2,0.5l0.3,1.5c0.1,0.4,0.2,0.8,0.3,1.3
        c0.1,0.5,0.2,1,0.3,1.5h0c0.1-0.5,0.2-1,0.3-1.5s0.2-0.9,0.3-1.3l0.4-1.5c0.1-0.4,0.2-0.6,0.5-0.8c0.2-0.1,0.5-0.2,1-0.2
        c0.2,0,0.4,0,0.7,0.1c0.2,0,0.4,0.1,0.6,0.1l0.7,7.5c-0.1,0-0.2,0.1-0.4,0.1c-0.2,0-0.3,0.1-0.5,0.1c-0.3,0-0.5,0-0.6-0.1
        s-0.3-0.3-0.3-0.5l-0.2-2.6c0-0.5-0.1-0.9-0.1-1.4c0-0.5,0-1-0.1-1.4h0c-0.1,0.4-0.2,0.9-0.3,1.4s-0.2,0.9-0.3,1.3l-0.5,2
        c-0.1,0.5-0.5,0.7-1.1,0.7c-0.2,0-0.3,0-0.5,0c-0.2,0-0.3-0.1-0.4-0.1l-0.6-2.5c-0.1-0.5-0.2-0.9-0.3-1.4c-0.1-0.5-0.2-0.9-0.3-1.4
        h0c0,0.6-0.1,1.2-0.1,1.8c0,0.5-0.1,1-0.1,1.4l-0.2,2.3c0,0.2-0.1,0.4-0.3,0.5S103.9,31.4,103.6,31.4z"/>
    <path d="M113,31.4c-0.2,0-0.3,0-0.5,0c-0.2,0-0.4-0.1-0.5-0.1l2.5-7.6c0.2-0.1,0.4-0.1,0.7-0.1c0.2,0,0.4,0,0.6,0
        c0.3,0,0.5,0,0.7,0.1s0.3,0.1,0.5,0.2c0.1,0.1,0.2,0.2,0.3,0.3c0.1,0.1,0.2,0.3,0.2,0.5l2.1,6.7c-0.1,0.1-0.3,0.1-0.5,0.1
        c-0.2,0-0.4,0-0.6,0c-0.2,0-0.4,0-0.6-0.1s-0.3-0.2-0.4-0.5l-0.4-1.2h-2.6l-0.3,1.2c-0.1,0.3-0.2,0.5-0.4,0.5
        C113.5,31.4,113.3,31.4,113,31.4z M114.9,28.1h1.8l-0.9-2.9L114.9,28.1z"/>
    <path d="M123,31.5c-0.4,0-0.9,0-1.4-0.1c-0.5-0.1-1-0.2-1.5-0.3c0-0.4,0-0.8,0.2-1.1c0.1-0.3,0.3-0.4,0.7-0.4c0.1,0,0.3,0,0.4,0
        c0.1,0,0.3,0.1,0.5,0.1c0.2,0,0.4,0.1,0.6,0.1c0.2,0,0.4,0,0.6,0c0.4,0,0.7-0.1,0.9-0.2s0.3-0.3,0.3-0.5c0-0.2-0.1-0.3-0.3-0.4
        c-0.2-0.1-0.4-0.2-0.7-0.3l-0.9-0.2c-0.4-0.1-0.8-0.3-1-0.4s-0.5-0.4-0.7-0.6c-0.2-0.2-0.3-0.4-0.4-0.7c-0.1-0.2-0.1-0.5-0.1-0.7
        c0-0.3,0-0.5,0.1-0.8c0.1-0.3,0.3-0.5,0.5-0.8c0.2-0.2,0.5-0.4,0.9-0.6c0.4-0.1,0.9-0.2,1.5-0.2c0.4,0,0.8,0,1.3,0.1
        c0.4,0.1,0.9,0.2,1.4,0.3c0,0.4,0,0.8-0.1,1.1c-0.1,0.3-0.3,0.4-0.7,0.4c-0.1,0-0.3,0-0.4,0s-0.3,0-0.4-0.1c-0.1,0-0.3,0-0.5-0.1
        c-0.2,0-0.4,0-0.6,0c-0.4,0-0.7,0.1-0.9,0.2s-0.2,0.3-0.2,0.4c0,0.2,0.1,0.3,0.2,0.4c0.1,0.1,0.4,0.2,0.7,0.3l1,0.3
        c1.5,0.4,2.3,1.2,2.3,2.4c0,0.4-0.1,0.7-0.2,1c-0.1,0.3-0.3,0.6-0.6,0.8c-0.3,0.2-0.6,0.4-1,0.5C124,31.4,123.5,31.5,123,31.5z"/>
    <path d="M129.7,31.4c-0.2,0-0.3,0-0.5,0s-0.3,0-0.4-0.1v-6h-2.3c0-0.1,0-0.2-0.1-0.3c0-0.1,0-0.3,0-0.4c0-0.4,0.1-0.6,0.2-0.8
        s0.3-0.2,0.6-0.2h5.7c0,0.1,0,0.2,0,0.3c0,0.1,0,0.3,0,0.4c0,0.6-0.3,1-0.8,1h-1.5v5.3c0,0.2-0.1,0.4-0.2,0.6
        C130.4,31.3,130.1,31.4,129.7,31.4z"/>
    <path d="M134.9,31.3c-0.2,0-0.4,0-0.5-0.1c-0.1,0-0.2-0.1-0.3-0.2s-0.1-0.2-0.2-0.3c0-0.1,0-0.2,0-0.4v-5.9c0-0.1,0-0.3,0-0.4
        s0.1-0.2,0.2-0.3s0.2-0.2,0.3-0.2c0.1,0,0.3-0.1,0.5-0.1h4c0,0.1,0,0.2,0,0.4s0,0.3,0,0.5c0,0.3-0.1,0.6-0.2,0.7
        c-0.1,0.1-0.3,0.2-0.5,0.2h-2.4v1.4h2.8c0,0.1,0,0.2,0,0.3c0,0.1,0,0.3,0,0.4c0,0.3-0.1,0.5-0.2,0.7c-0.1,0.1-0.3,0.2-0.5,0.2h-2.2
        v1.4h3.2c0,0.1,0,0.2,0,0.4c0,0.2,0,0.3,0,0.5c0,0.3-0.1,0.6-0.2,0.7c-0.1,0.1-0.3,0.2-0.5,0.2H134.9z"/>
    <path d="M145.1,31.4c-0.3,0-0.5,0-0.7-0.1c-0.2-0.1-0.3-0.3-0.5-0.5l-1.5-2.2h-0.3v2c0,0.2-0.1,0.4-0.2,0.6
        c-0.1,0.2-0.4,0.2-0.8,0.2c-0.2,0-0.3,0-0.5,0s-0.3,0-0.4-0.1v-6.8c0-0.1,0-0.3,0-0.4s0.1-0.2,0.2-0.3s0.2-0.2,0.3-0.2
        c0.1,0,0.3-0.1,0.5-0.1h1.8c0.5,0,0.9,0.1,1.3,0.2c0.4,0.1,0.7,0.3,1,0.5c0.3,0.2,0.5,0.5,0.6,0.8c0.2,0.3,0.2,0.7,0.2,1.1
        c0,0.6-0.2,1.1-0.5,1.5c-0.3,0.4-0.8,0.7-1.4,0.8l2.1,2.7c-0.2,0.1-0.4,0.2-0.6,0.2C145.6,31.4,145.4,31.4,145.1,31.4z M142.1,27.2
        h0.9c0.5,0,0.8-0.1,1-0.3c0.2-0.2,0.3-0.4,0.3-0.7c0-0.3-0.1-0.5-0.3-0.7c-0.2-0.2-0.5-0.3-0.9-0.3h-1V27.2z"/>
</g>
<g>
    <path fill="#FFFFFF" d="M243.8,93.3c-0.6,0-1.1,0-1.7-0.1c-0.5-0.1-1-0.1-1.4-0.2V74.2l-4.4,2c-0.2-0.3-0.4-0.6-0.7-0.9
        c-0.2-0.3-0.5-0.7-0.6-1.2c-0.2-0.5-0.3-1-0.3-1.4c0-0.6,0.2-1.2,0.5-1.6c0.3-0.5,0.8-0.8,1.4-1.1l5.8-2.8h4.7v23.4
        c0,0.8-0.2,1.4-0.7,2C246.1,93,245.2,93.3,243.8,93.3z"/>
</g>
<g>
    <path fill="#FFFFFF" d="M233.7,166.2c-0.1-0.3-0.2-0.7-0.3-1.1c-0.1-0.4-0.1-0.9-0.1-1.3c0-0.3,0-0.7,0.1-1.1
        c0.1-0.4,0.2-0.8,0.3-1.2s0.4-0.9,0.7-1.3c0.3-0.4,0.7-0.8,1.1-1.2l5-4.3c0.9-0.7,1.6-1.3,2.2-1.9c0.6-0.5,1.1-1,1.5-1.5
        c0.4-0.5,0.7-0.9,0.8-1.4c0.2-0.4,0.2-0.9,0.2-1.4c0-0.7-0.2-1.3-0.7-1.9c-0.5-0.6-1.3-0.9-2.4-0.9c-0.7,0-1.3,0.1-1.9,0.3
        c-0.5,0.2-1,0.4-1.5,0.6c-0.5,0.2-0.9,0.4-1.3,0.5c-0.4,0.2-0.8,0.2-1.2,0.2c-0.4,0-0.8-0.1-1.2-0.3c-0.4-0.2-0.7-0.5-1-0.9
        c-0.3-0.4-0.5-0.9-0.6-1.5c-0.1-0.6-0.2-1.2-0.1-1.9c1.1-0.8,2.4-1.5,3.8-2s3.2-0.8,5.2-0.8c1.4,0,2.7,0.2,3.9,0.6
        c1.2,0.4,2.1,1,2.9,1.7c0.8,0.7,1.4,1.6,1.9,2.7s0.7,2.2,0.7,3.4c0,1.9-0.5,3.5-1.4,5c-1,1.4-2.3,2.7-4,3.8l-4.6,3.4h10.2
        c0.1,0.3,0.1,0.7,0.2,1.2c0.1,0.5,0.1,1,0.1,1.5c0,1.2-0.3,2-0.8,2.5c-0.5,0.5-1.1,0.7-1.8,0.7H233.7z"/>
</g>
<g>
    <path fill="#FFFFFF" d="M237.7,410.7c-0.7,0-1.4-0.1-2.1-0.2c-0.7-0.1-1.3-0.3-1.7-0.5l10-19.8h-9.1c-0.7,0-1.3-0.2-1.8-0.6
        c-0.5-0.4-0.7-1.2-0.7-2.4c0-0.5,0-1.1,0.1-1.6c0.1-0.5,0.1-0.9,0.2-1.2h18.8v4.2l-9.4,19.9c-0.5,1-1.1,1.6-1.8,1.9
        C239.5,410.6,238.7,410.7,237.7,410.7z"/>
</g>
<g>
    <path fill="#202C5A" d="M29.9,264.3c-0.5,0-1,0-1.5-0.1c-0.5-0.1-0.9-0.1-1.2-0.2v-5.2H15.6c-0.1-0.3-0.1-0.7-0.2-1.1
        c-0.1-0.5-0.1-1-0.1-1.5c0-0.7,0.1-1.3,0.3-2s0.6-1.3,1.1-2l9.7-14.1h7v15.2h3.8c0.1,0.3,0.1,0.7,0.2,1.1c0.1,0.5,0.1,1,0.1,1.5
        c0,1.1-0.2,1.9-0.7,2.3c-0.5,0.4-1,0.6-1.7,0.6h-1.6v3.5c0,0.7-0.2,1.2-0.7,1.5C32.2,264.2,31.3,264.3,29.9,264.3z M22.1,253.3h5.2
        v-7.6L22.1,253.3z"/>
</g>
<g>
    <path fill="#202C5A" d="M27.4,342.6c-1.8,0-3.5-0.2-5-0.7c-1.5-0.5-2.9-1.1-4.1-1.8c0-1.4,0.3-2.5,0.9-3.3c0.5-0.8,1.3-1.2,2.2-1.2
        c0.4,0,0.8,0.1,1.2,0.2c0.4,0.1,0.9,0.3,1.3,0.4c0.5,0.2,1,0.3,1.5,0.4c0.5,0.1,1.1,0.2,1.8,0.2c1.3,0,2.3-0.3,3-1s1-1.5,1-2.4
        c0-0.9-0.3-1.6-1-2.2c-0.7-0.6-1.6-0.9-2.8-0.9c-0.9,0-1.7,0.1-2.3,0.4c-0.6,0.2-1.2,0.6-1.7,1l-4.4-1.4l1.4-14.1H36
        c0.1,0.3,0.1,0.7,0.2,1.1c0.1,0.5,0.1,1,0.1,1.5c0,1.1-0.2,1.9-0.7,2.3c-0.5,0.4-1,0.6-1.7,0.6h-8.2l-0.6,4.8
        c0.6-0.2,1.2-0.5,1.8-0.6c0.6-0.2,1.4-0.3,2.2-0.3c1.4,0,2.7,0.2,3.8,0.7c1.1,0.5,2,1.1,2.7,1.8c0.7,0.7,1.3,1.6,1.6,2.5
        c0.4,0.9,0.5,1.9,0.5,2.9c0,1.3-0.2,2.4-0.6,3.5c-0.4,1.1-1.1,2.1-1.9,2.9c-0.9,0.8-1.9,1.5-3.2,2
        C30.7,342.3,29.2,342.6,27.4,342.6z"/>
</g>
<g>
    <path fill="#202C5A" d="M212.6,337.6c-1,0-1.9-0.2-2.7-0.5c-0.8-0.4-1.6-0.9-2.2-1.6c-0.6-0.7-1.1-1.6-1.5-2.6
        c-0.3-1-0.5-2.3-0.5-3.7c0-1.4,0.2-2.7,0.5-3.7c0.4-1.1,0.9-1.9,1.5-2.6c0.6-0.7,1.4-1.2,2.3-1.6c0.9-0.4,1.9-0.5,3-0.5
        c1,0,1.9,0.1,2.7,0.3c0.8,0.2,1.5,0.4,2.2,0.8c0.1,1-0.1,1.7-0.4,2.2c-0.3,0.5-0.8,0.8-1.4,0.8c-0.2,0-0.5,0-0.7-0.1
        c-0.2,0-0.5-0.1-0.7-0.2c-0.2-0.1-0.5-0.1-0.8-0.2s-0.6-0.1-0.9-0.1c-1.1,0-1.9,0.3-2.4,0.9c-0.5,0.6-0.8,1.6-0.9,3
        c0.4-0.4,1-0.7,1.6-1c0.6-0.3,1.3-0.4,2.1-0.4c0.9,0,1.7,0.1,2.4,0.4s1.2,0.7,1.7,1.2s0.8,1,1,1.7s0.3,1.3,0.3,2
        c0,0.8-0.1,1.5-0.4,2.1c-0.3,0.7-0.7,1.3-1.2,1.8c-0.5,0.5-1.2,0.9-1.9,1.2C214.5,337.5,213.6,337.6,212.6,337.6z M212.6,334.4
        c0.7,0,1.2-0.2,1.6-0.7c0.4-0.5,0.7-1,0.7-1.8c0-0.6-0.2-1.1-0.6-1.5c-0.4-0.4-1-0.6-1.7-0.6c-0.5,0-1,0.1-1.5,0.3
        c-0.5,0.2-0.9,0.4-1.2,0.7c0.1,1.1,0.3,2,0.8,2.6C211.2,334,211.8,334.4,212.6,334.4z"/>
</g>
<g>
    <path fill="#FDFDFE" d="M166.7,232.8c-1.2,0-2.2-0.1-3.2-0.4c-0.9-0.3-1.8-0.7-2.5-1.2c0-0.9,0.2-1.6,0.5-2.1s0.7-0.7,1.3-0.7
        c0.3,0,0.5,0,0.8,0.1c0.2,0.1,0.5,0.2,0.8,0.3s0.6,0.2,1,0.3c0.4,0.1,0.8,0.1,1.3,0.1c0.8,0,1.4-0.2,1.7-0.5
        c0.4-0.3,0.5-0.8,0.5-1.2c0-0.2,0-0.4-0.1-0.6c-0.1-0.2-0.2-0.4-0.4-0.5c-0.2-0.1-0.5-0.3-0.8-0.3s-0.7-0.1-1.2-0.1h-1.6
        c-0.4,0-0.7-0.1-0.9-0.4c-0.3-0.2-0.4-0.7-0.4-1.3c0-0.3,0-0.6,0-0.8s0.1-0.5,0.1-0.7h2.7c0.8,0,1.4-0.1,1.8-0.4
        c0.4-0.3,0.6-0.7,0.6-1.1c0-0.4-0.2-0.8-0.5-1.1c-0.3-0.3-0.8-0.4-1.5-0.4c-0.5,0-0.9,0-1.2,0.1c-0.3,0.1-0.6,0.1-0.9,0.2
        c-0.3,0.1-0.5,0.1-0.7,0.2c-0.2,0.1-0.5,0.1-0.8,0.1c-0.5,0-0.9-0.2-1.3-0.7c-0.3-0.5-0.5-1.2-0.5-2.1c0.7-0.4,1.5-0.8,2.5-1
        s2-0.4,3.2-0.4c1,0,1.8,0.1,2.5,0.3s1.3,0.5,1.7,0.9s0.8,0.9,1,1.4c0.2,0.5,0.3,1.1,0.3,1.7c0,0.8-0.2,1.6-0.7,2.2s-1.1,1.1-2,1.3
        c0.9,0.2,1.7,0.7,2.3,1.3s0.9,1.5,0.9,2.5c0,1.5-0.6,2.8-1.7,3.7C170.2,232.3,168.7,232.8,166.7,232.8z"/>
</g>
<g>
    <path fill="#202C5A" d="M124.3,476c-1.7,0-3.3-0.2-4.6-0.6c-1.3-0.4-2.4-0.9-3.3-1.6c-0.9-0.7-1.5-1.5-2-2.4
        c-0.4-0.9-0.7-1.9-0.7-3c0-1.5,0.4-2.8,1.2-3.9c0.8-1.1,1.9-1.9,3.4-2.4c-1-0.5-1.8-1.2-2.6-2.1s-1.2-2.1-1.2-3.5
        c0-0.9,0.2-1.7,0.5-2.6c0.4-0.9,0.9-1.6,1.7-2.3c0.8-0.7,1.8-1.3,3-1.7c1.2-0.4,2.7-0.7,4.4-0.7c1.7,0,3.2,0.2,4.4,0.7s2.2,1,3,1.7
        c0.8,0.7,1.3,1.5,1.7,2.3s0.5,1.7,0.5,2.6c0,0.7-0.1,1.3-0.3,1.9c-0.2,0.6-0.5,1.1-0.9,1.6c-0.4,0.5-0.8,0.9-1.2,1.2
        c-0.4,0.4-0.9,0.6-1.4,0.9c1.4,0.5,2.5,1.3,3.3,2.4c0.8,1.1,1.2,2.4,1.2,3.9c0,1.1-0.2,2.1-0.7,3c-0.4,0.9-1.1,1.7-2,2.4
        s-2,1.2-3.3,1.6C127.6,475.8,126,476,124.3,476z M124.3,470.6c1.2,0,2.1-0.3,2.9-0.8s1.1-1.3,1.1-2.2c0-0.8-0.3-1.5-0.9-2.2
        c-0.6-0.6-1.6-1-3-1c-1.4,0-2.4,0.3-3,1c-0.6,0.6-0.9,1.4-0.9,2.2c0,0.9,0.4,1.6,1.1,2.1C122.2,470.3,123.1,470.6,124.3,470.6z
         M124.3,459.8c1,0,1.9-0.3,2.5-0.8c0.6-0.5,1-1.2,1-2c0-0.8-0.3-1.4-0.9-1.9c-0.6-0.5-1.5-0.7-2.6-0.7c-1.1,0-2,0.2-2.6,0.7
        c-0.6,0.5-0.9,1.1-0.9,1.9c0,0.8,0.3,1.5,1,2C122.5,459.5,123.3,459.8,124.3,459.8z"/>
</g>
</svg>
