<?xml version="1.0" standalone="no"?>
<!DOCTYPE svg PUBLIC "-//W3C//DTD SVG 1.1//EN" "http://www.w3.org/Graphics/SVG/1.1/DTD/svg11.dtd" >
<svg xmlns="http://www.w3.org/2000/svg">
<metadata>
This is a custom SVG webfont generated by Font Squirrel.
Copyright   : Copyright c 2009 BSkyB Ltd
Designer    : Miles Newlyn
Foundry     : Miles Newlyn
</metadata>
<defs>
<font id="SkyTextBold" horiz-adv-x="1253" >
<font-face units-per-em="2048" ascent="1638" descent="-410" />
<missing-glyph horiz-adv-x="409" />
<glyph unicode=" "  horiz-adv-x="409" />
<glyph unicode="&#x09;" horiz-adv-x="409" />
<glyph unicode="&#xa0;" horiz-adv-x="409" />
<glyph unicode="!" horiz-adv-x="636" d="M147 147q0 37 13.5 68t37 54.5t54.5 36.5t65 13q35 0 67 -13t55.5 -36.5t36.5 -54.5t13 -68q0 -70 -50 -118.5t-122 -48.5q-70 0 -120 48.5t-50 118.5zM147 1169q-8 74 34 120t153 46q47 0 92 -4t76 -12l-70 -727q-4 -35 -29.5 -60.5t-83.5 -25.5q-43 0 -104 18z" />
<glyph unicode="&#x22;" horiz-adv-x="917" d="M111 1190q-8 68 27.5 106.5t127.5 38.5q41 0 79 -4t61 -8l-60 -508q-2 -23 -24.5 -43t-69.5 -20q-18 0 -41 3t-51 13zM528 1190q-8 68 28 106.5t128 38.5q41 0 79 -4t60 -8l-59 -508q-2 -23 -24.5 -43t-69.5 -20q-18 0 -41 3t-51 13z" />
<glyph unicode="#" horiz-adv-x="1255" d="M35 424q0 66 26.5 91.5t65.5 25.5h133l53 225h-182q-4 16 -7 45t-3 57q0 66 27.5 91.5t64.5 25.5h152l67 291q12 41 45 53t74 12q68 0 125 -20l-80 -336h211l67 291q12 41 45 53t74 12q68 0 125 -20l-80 -336h170q4 -18 8.5 -47t4.5 -57q0 -66 -28 -90.5t-67 -24.5h-139 l-53 -225h196q2 -18 6.5 -47t4.5 -58q0 -66 -28 -90t-64 -24h-166l-66 -275q-10 -41 -44 -53t-75 -12q-35 0 -66.5 6t-56.5 16l76 318h-211l-63 -273q-12 -41 -45 -54t-74 -13q-35 0 -67.5 6t-57.5 16l76 318h-164q-4 16 -7 44.5t-3 57.5zM492 541h210l54 225h-211z" />
<glyph unicode="$" d="M109 950q0 59 17 122t62 118t119 96t189 57v123q0 41 28.5 61.5t112.5 20.5q29 0 60.5 -3t47.5 -7v-190q80 -8 163 -25.5t169 -46.5q6 -113 -24.5 -182.5t-112.5 -69.5q-33 0 -65.5 6l-70.5 12.5t-84 12.5t-108 6q-109 0 -149.5 -33t-40.5 -70q0 -39 36 -63.5t128 -46.5 l172 -45q387 -102 387 -402q0 -82 -22.5 -150.5t-72 -122.5t-125 -90t-180.5 -50v-123q0 -41 -28.5 -61.5t-112.5 -20.5q-29 0 -60.5 3t-47.5 7v189q-92 8 -191.5 25.5t-191.5 47.5q-6 113 25.5 185.5t115.5 72.5q33 0 72 -7l84 -15q45 -8 96 -15.5t110 -7.5q98 0 144.5 32 t46.5 83q0 47 -45 72.5t-121 46.5l-156 41q-106 29 -179 71.5t-117 96t-62 113.5t-18 126z" />
<glyph unicode="%" horiz-adv-x="1644" d="M70 989q0 92 28.5 161t75.5 115t107.5 68.5t124.5 22.5q63 0 123.5 -22.5t108.5 -68.5t76.5 -115t28.5 -161t-28.5 -160.5t-76.5 -114.5t-108.5 -68.5t-123.5 -22.5t-124 22.5t-108 68.5t-75.5 114.5t-28.5 160.5zM299 987q0 -104 28.5 -153.5t78.5 -49.5q47 0 76.5 49.5 t29.5 153.5t-29.5 152.5t-76.5 48.5q-49 0 -78 -48.5t-29 -152.5zM358 25l727 1259q12 25 37 42t62 17t61.5 -13t38.5 -23l-725 -1260q-16 -29 -44 -43t-60 -14q-27 0 -53 11.5t-44 23.5zM901 354q0 92 28.5 161t76 115t108 68.5t123.5 22.5t123.5 -22.5t109 -68.5t77 -115 t28.5 -161t-28.5 -160.5t-77 -114.5t-109 -68.5t-123.5 -22.5t-123.5 22.5t-108 68.5t-76 114.5t-28.5 160.5zM1130 352q0 -104 29 -153t78 -49q47 0 76.5 49t29.5 153t-29.5 152.5t-76.5 48.5q-49 0 -78 -48.5t-29 -152.5z" />
<glyph unicode="&#x26;" horiz-adv-x="1372" d="M53 389q0 59 18.5 114.5t53.5 101.5t85 81t112 53q-53 57 -82 125t-29 140q0 63 24.5 125.5t77 112.5t134 81t194.5 31q109 0 197 -24.5t174 -69.5q8 -37 8 -78q0 -53 -33 -93t-98 -40q-25 0 -49.5 7t-51 16t-57.5 17.5t-69 8.5q-70 0 -110 -35t-40 -90q0 -35 18.5 -67 t57.5 -72l299 -306l129 240q27 51 67.5 73.5t94.5 22.5q43 0 84 -12t71 -29l-262 -471l293 -317q-41 -23 -87 -36t-116 -13q-63 0 -109 24.5t-91 71.5l-52 55q-59 -66 -149 -113t-228 -47q-104 0 -192 31t-151.5 85t-99.5 130t-36 166zM360 426q0 -35 12.5 -68.5t37 -59.5 t59.5 -41t82 -15q68 0 113 25.5t69 60.5l-264 260q-57 -23 -83 -72t-26 -90z" />
<glyph unicode="'" horiz-adv-x="499" d="M111 1190q-8 68 27.5 106.5t127.5 38.5q41 0 79 -4t61 -8l-60 -508q-2 -23 -24.5 -43t-69.5 -20q-18 0 -41 3t-51 13z" />
<glyph unicode="(" horiz-adv-x="804" d="M78 473q0 178 55 326.5t138 261.5t178.5 188.5t177.5 112.5q68 -29 94.5 -68t26.5 -80q0 -29 -12.5 -55t-30.5 -41q-74 -53 -134.5 -119.5t-104.5 -146.5t-68.5 -174t-24.5 -203q0 -115 24.5 -209t67.5 -173t104.5 -144.5t135.5 -120.5q18 -14 30.5 -37.5t12.5 -52.5 q0 -39 -28 -79t-97 -69q-82 37 -177.5 113t-177.5 187.5t-136 258t-54 324.5z" />
<glyph unicode=")" horiz-adv-x="804" d="M57 1212q0 41 28 81t93 69q82 -37 177.5 -112.5t178 -188.5t138 -261.5t55.5 -326.5t-54.5 -324.5t-136 -258t-177 -187.5t-177.5 -113q-68 29 -95.5 69t-27.5 79q0 59 41 90q74 55 135.5 120.5t104.5 144.5t67.5 172t24.5 206t-24.5 208t-68.5 175t-104.5 145.5 t-134.5 118.5q-18 14 -30.5 39.5t-12.5 54.5z" />
<glyph unicode="*" horiz-adv-x="739" d="M-4 1114q0 45 28.5 78t73.5 33q23 0 47.5 -9.5t51.5 -31.5l114 -70l-47 258q23 23 49.5 35t53.5 12q25 0 47 -10t37.5 -29.5t20.5 -47t-5 -64.5l-35 -154l236 123q37 -16 55 -48t18 -67q0 -41 -28.5 -73.5t-94.5 -32.5l-165 -8l211 -185q2 -29 -7.5 -53.5t-27 -42.5 t-39 -28.5t-43.5 -10.5q-31 0 -60.5 22.5t-50.5 71.5l-65 152l-129 -244q-29 -6 -56.5 0t-48 21.5t-33 38t-12.5 49.5t15.5 54.5t50.5 55.5l123 99l-263 32q-22 39 -22 74z" />
<glyph unicode="+" d="M115 514q0 78 32.5 108.5t79.5 30.5h271v285q0 47 28.5 79t106.5 32q35 0 66.5 -3.5t54.5 -7.5v-385h374q4 -20 8.5 -47.5t4.5 -64.5q0 -78 -33 -109t-80 -31h-274v-299q0 -47 -29 -78.5t-107 -31.5q-35 0 -66.5 3t-53.5 7v399h-371q-4 20 -8 48t-4 65z" />
<glyph unicode="," horiz-adv-x="442" d="M8 -217l107 371q16 59 56 88.5t85 29.5q51 0 91 -35.5t40 -105.5q0 -51 -17.5 -96t-19.5 -51q-31 -63 -70.5 -104.5t-83.5 -65t-92.5 -29.5t-95.5 -2z" />
<glyph unicode="-" horiz-adv-x="770" d="M59 522q0 86 35 118t88 32h514q4 -23 9.5 -58.5t5.5 -74.5q0 -86 -35 -118t-88 -32h-514q-4 23 -9.5 58.5t-5.5 74.5z" />
<glyph unicode="." horiz-adv-x="466" d="M61 150q0 72 50.5 122t119.5 50q72 0 121 -50.5t49 -121.5q0 -70 -49 -119t-121 -49q-70 0 -120 49t-50 119z" />
<glyph unicode="/" horiz-adv-x="712" d="M27 -57l376 1337q16 53 56.5 67.5t91.5 14.5q43 0 82 -7t69 -20l-374 -1337q-16 -53 -56.5 -67.5t-91.5 -14.5q-87 0 -153 27z" />
<glyph unicode="0" horiz-adv-x="1277" d="M70 666q0 172 43 301t118.5 215t180 129t227.5 43t227.5 -43t180 -129t118.5 -215t43 -301t-43 -301t-118.5 -215.5t-180 -129.5t-227.5 -43t-227.5 43t-180 129.5t-118.5 215.5t-43 301zM401 666q0 -213 59.5 -313.5t178.5 -100.5q117 0 177.5 100.5t60.5 313.5 t-60.5 313t-177.5 100q-119 0 -178.5 -100t-59.5 -313z" />
<glyph unicode="1" horiz-adv-x="897" d="M53 1049q0 49 26.5 83.5t74.5 57.5l299 141h239v-1196q0 -59 -37 -101t-139 -42q-43 0 -85 4t-71 10v965l-225 -103l-35 45q-18 25 -32 62q-15 37 -15 74z" />
<glyph unicode="2" horiz-adv-x="1069" d="M33 127q0 25 5 55.5t17.5 63.5t35 65.5t56.5 61.5l254 219l114 96q46 41 76 77t42 69.5t12 72.5q0 53 -37 98.5t-123 45.5q-53 0 -95 -13.5t-76.5 -29t-65.5 -27.5t-64 -12q-31 0 -59.5 16t-49 47t-30.5 75t-6 99q84 61 196.5 104.5t266.5 43.5q111 0 200 -31t150 -87 t95 -136t34 -176q0 -145 -73.5 -254t-207.5 -195l-235 -176h520l10 -59.5t6 -77.5q0 -92 -38.5 -127t-92.5 -35h-819q-8 25 -13 58.5t-5 68.5z" />
<glyph unicode="3" horiz-adv-x="1136" d="M76 109q2 111 42 170t103 59q35 0 66 -10l65 -23q35 -12 79 -22.5t106 -10.5q96 0 141 41t45 103q0 27 -10.5 50t-35 41.5t-64.5 29t-97 10.5h-131q-45 0 -77 29.5t-32 105.5q0 35 4.5 68.5t8.5 54.5h221q102 0 149.5 34.5t47.5 94.5q0 49 -37 86t-127 37q-57 0 -97 -7.5 t-72 -16.5t-60.5 -16t-61.5 -7q-63 0 -103 60t-43 169q86 53 205 84t258 31q119 0 205 -28t141.5 -77t82 -114.5t26.5 -141.5q0 -104 -57.5 -179t-159.5 -109q113 -27 186.5 -110t73.5 -208q0 -188 -138 -299t-382 -111q-145 0 -262 36.5t-209 95.5z" />
<glyph unicode="4" horiz-adv-x="1222" d="M47 408q0 51 17.5 100t56.5 102l495 721h357v-778h192q4 -23 9.5 -58.5t5.5 -74.5q0 -86 -35 -118t-88 -32h-84v-178q0 -53 -37 -77.5t-141 -24.5q-37 0 -76 5t-60 9v268h-598q-4 23 -9 59t-5 77zM391 553h268v389z" />
<glyph unicode="5" horiz-adv-x="1099" d="M47 106q2 111 44 170.5t112 59.5q31 0 62 -10l68 -23q36 -12 77 -22.5t90 -10.5q102 0 155.5 49.5t53.5 124.5q0 66 -52.5 113t-142.5 47q-70 0 -118 -18.5t-89 -48.5l-223 71l72 723h794q4 -23 8.5 -58.5t4.5 -76.5q0 -86 -35 -119t-88 -33h-422l-29 -243q45 18 92 32.5 t115 14.5q111 0 193.5 -35t139 -92t84 -130t27.5 -147q0 -96 -32.5 -181t-98 -148.5t-165 -100.5t-232.5 -37q-141 0 -257 36t-208 93z" />
<glyph unicode="6" horiz-adv-x="1214" d="M74 662q0 174 44 304t122.5 216t189.5 129t246 43q123 0 217 -21.5t180 -66.5q8 -117 -29.5 -179.5t-117.5 -62.5q-31 0 -59 6l-57 13q-30 7 -62.5 13.5t-71.5 6.5q-133 0 -198.5 -77t-76.5 -243q53 47 129 82t175 35q113 0 195.5 -34.5t138 -94t83 -136.5t27.5 -161 q0 -92 -34 -175t-98.5 -145.5t-159.5 -99.5t-218 -37q-121 0 -224.5 43t-179 128t-118.5 213.5t-43 300.5zM412 537q8 -141 68.5 -216t158.5 -75q80 0 133 55t53 143q0 78 -51 125t-141 47q-66 0 -123 -24t-98 -55z" />
<glyph unicode="7" horiz-adv-x="1009" d="M16 1190q0 41 4.5 80t8.5 61h962v-213l-481 -1020q-37 -76 -90 -97t-125 -21q-51 0 -105.5 10t-89.5 26l512 1016h-467q-55 0 -92 33t-37 125z" />
<glyph unicode="8" horiz-adv-x="1167" d="M47 371q0 117 62.5 200.5t173.5 124.5q-74 35 -133.5 108t-59.5 181q0 66 27.5 132.5t87 119.5t153 87t226.5 34t227 -34t153.5 -87t87 -119.5t27.5 -132.5q0 -53 -16 -99t-44 -82t-61.5 -63.5t-70.5 -44.5q109 -41 171 -125t62 -200q0 -84 -33.5 -156t-101 -125 t-168 -84t-233.5 -31t-233.5 31t-168 84t-101.5 125t-34 156zM381 401q0 -68 55.5 -109.5t147.5 -41.5q90 0 146 42t56 111q0 61 -48 110.5t-154 49.5t-154.5 -49.5t-48.5 -112.5zM408 942q0 -61 49 -100t127 -39q80 0 129 39t49 100q0 59 -46 96t-132 37t-131 -37t-45 -96z " />
<glyph unicode="9" horiz-adv-x="1212" d="M70 899q0 94 33.5 177t99 144.5t160 97.5t215.5 36q125 0 228 -43t178 -128t117 -213t42 -300t-44 -302t-125 -217.5t-195.5 -130.5t-256.5 -43q-109 0 -206 18.5t-181 61.5q-10 117 28 179.5t120 62.5q59 0 116.5 -15.5t122.5 -15.5q137 0 210 70t85 242 q-57 -49 -134 -78t-169 -29q-113 0 -197 36t-139 94.5t-81.5 135t-26.5 160.5zM393 899q0 -84 49.5 -133t141.5 -49q61 0 119.5 17.5t103.5 51.5q-6 139 -65.5 219t-163.5 80q-78 0 -131.5 -53t-53.5 -133z" />
<glyph unicode=":" horiz-adv-x="505" d="M74 147q0 37 13 68t36.5 54.5t54.5 36.5t66 13t66.5 -13t55 -36.5t37 -54.5t13.5 -68q0 -70 -50.5 -118.5t-121.5 -48.5q-70 0 -120 48.5t-50 118.5zM74 776q0 72 50 121t120 49q72 0 121 -49t49 -121q0 -70 -49.5 -120t-120.5 -50q-70 0 -120 50t-50 120z" />
<glyph unicode=";" horiz-adv-x="505" d="M55 -217l105 371q16 59 57 88.5t86 29.5q51 0 91 -35.5t40 -105.5q0 -51 -17.5 -96t-21.5 -51q-31 -63 -69.5 -104.5t-83.5 -65t-92.5 -29.5t-94.5 -2zM109 776q0 72 49 121t118 49q37 0 68 -13t54.5 -37t37 -54.5t13.5 -65.5t-13.5 -65.5t-37 -54t-54.5 -37t-68 -13.5 q-70 0 -118.5 50t-48.5 120z" />
<glyph unicode="&#x3c;" d="M203 410v241l807 412v-291l-516 -233l516 -240v-297z" />
<glyph unicode="=" horiz-adv-x="1146" d="M137 174v252h873v-252h-873zM137 635v252h873v-252h-873z" />
<glyph unicode="&#x3e;" d="M244 2v297l516 240l-516 233v291l807 -412v-241z" />
<glyph unicode="?" horiz-adv-x="991" d="M41 1237q84 53 204 87t240 34q117 0 205 -27.5t148.5 -77t90 -115t29.5 -141.5q0 -104 -50 -181t-140 -118q-43 -23 -84 -39t-73.5 -35.5t-56.5 -47t-34 -70.5q-6 -27 -31.5 -49.5t-80.5 -22.5q-23 0 -47.5 4t-57.5 15l-7 48q-3 22 -3 44q0 72 24.5 122t62.5 87t82 62 l82 48q38 23 62.5 44.5t24.5 52.5q0 45 -38 73.5t-108 28.5q-57 0 -98 -8t-74.5 -19.5t-63.5 -19.5t-65 -8q-61 0 -102 60t-41 169zM233 147q0 37 13.5 68t36 54.5t53.5 36.5t65 13q35 0 67 -13t55.5 -36.5t36.5 -54.5t13 -68q0 -70 -50 -118.5t-122 -48.5q-70 0 -119 48.5 t-49 118.5z" />
<glyph unicode="@" horiz-adv-x="1433" d="M57 575q0 143 53.5 267.5t146.5 216.5t218 144t270 52q160 0 282 -50t203 -133t122 -190.5t41 -224.5q0 -96 -29 -169.5t-76 -126t-107.5 -79t-123.5 -26.5q-78 0 -122 31.5t-67 77.5q-29 -41 -72.5 -75t-121.5 -34q-119 0 -191.5 87t-72.5 226q0 61 19.5 115.5t53 94.5 t79.5 63.5t97 23.5q76 0 118 -32.5t65 -65.5h2q10 45 31.5 68.5t76.5 23.5q14 0 36 -3l36 -5v-371q0 -43 16.5 -60.5t46.5 -17.5q57 0 104.5 62.5t47.5 185.5q0 94 -32.5 178t-96 146.5t-156 98.5t-209.5 36q-102 0 -195 -37t-163 -105.5t-110.5 -168t-40.5 -221.5 q0 -127 38.5 -225.5t106.5 -168t159 -105.5t193 -36q66 0 114 8t84 19l63 18q28 8 53 8q18 0 36.5 -6t30.5 -20.5t16.5 -41t-2.5 -65.5q-84 -35 -187 -57.5t-208 -22.5q-145 0 -268 52.5t-214 145.5t-142.5 220t-51.5 274zM610 565q0 -57 30 -99t93 -42q35 0 59.5 17.5 t41.5 43.5v150q-8 29 -37 50.5t-64 21.5q-63 0 -93 -44.5t-30 -97.5z" />
<glyph unicode="A" horiz-adv-x="1318" d="M10 14l426 1299q55 14 111.5 20t103.5 6q68 0 116 -10t81 -30.5t54.5 -54.5t35.5 -79l365 -1149q-35 -14 -84.5 -21t-96.5 -7q-53 0 -103 17.5t-73 78.5l-69 211h-447l-59 -199q-23 -72 -76 -90t-113 -18q-39 0 -89 7t-83 19zM502 551h305l-152 502z" />
<glyph unicode="B" horiz-adv-x="1210" d="M121 164v1003q0 35 7 66t26.5 52.5t55.5 33.5t93 12h318q139 0 234 -26.5t154.5 -73.5t86 -110.5t26.5 -137.5q0 -100 -55 -175t-154 -114q139 -43 197.5 -124t58.5 -181q0 -188 -134 -288.5t-404 -100.5h-328q-57 0 -93 12.5t-55.5 34t-26.5 52t-7 65.5zM438 264h162 q121 0 174 35t53 121q0 25 -8 51.5t-31.5 47t-66.5 33.5t-113 13h-170v-301zM438 797h162q59 0 97 12t60.5 32.5t32 46t9.5 52.5q0 72 -47 104.5t-158 32.5h-156v-280z" />
<glyph unicode="C" horiz-adv-x="1165" d="M51 666q0 143 51.5 268t141.5 217t213 144.5t268 52.5q104 0 202.5 -22.5t182.5 -57.5q2 -30 2 -56q0 -217 -135 -217q-27 0 -49.5 6.5t-49 12.5t-59.5 12t-78 6q-72 0 -135 -25.5t-109 -73.5t-73 -115.5t-27 -151.5q0 -88 27 -158t73 -118t109.5 -73.5t134.5 -25.5 q45 0 80 6t62.5 12t52.5 12.5t51 6.5q135 0 135 -222q0 -24 -2 -51q-84 -35 -187.5 -57.5t-207.5 -22.5q-145 0 -268 52.5t-213 144.5t-141.5 219.5t-51.5 274.5z" />
<glyph unicode="D" horiz-adv-x="1345" d="M121 164v1003q0 35 7 66t26.5 52.5t55.5 33.5t93 12h254q174 0 310.5 -46t231.5 -132t145 -207t50 -270q0 -141 -50 -264t-146.5 -214.5t-235.5 -144.5t-319 -53h-240q-57 0 -93 12.5t-55.5 34t-26.5 52t-7 65.5zM453 289h120q80 0 150 24.5t121 73.5t80.5 122t29.5 169 q0 88 -29.5 155.5t-80.5 113.5t-122 70.5t-153 24.5h-116v-753z" />
<glyph unicode="E" horiz-adv-x="1079" d="M121 164v1003q0 35 7 66t26.5 52.5t55.5 33.5t93 12h678q4 -23 8 -61.5t4 -79.5q0 -86 -34.5 -122t-88.5 -36h-417v-233h481q4 -20 8 -54t4 -73q0 -82 -32.5 -112t-82.5 -30h-378v-231h548q4 -23 8.5 -62.5t4.5 -78.5q0 -88 -35 -123t-88 -35h-588q-57 0 -93 12.5 t-55.5 34t-26.5 52t-7 65.5z" />
<glyph unicode="F" horiz-adv-x="1056" d="M121 6v1161q0 35 7 66t26.5 52.5t55.5 33.5t93 12h709q4 -25 8 -62.5t4 -78.5q0 -92 -38 -125t-91 -33h-442v-295h512q4 -23 9 -59.5t5 -75.5q0 -84 -35 -113.5t-88 -29.5h-403v-324q0 -59 -37 -101t-140 -42q-43 0 -84.5 4t-70.5 10z" />
<glyph unicode="G" horiz-adv-x="1329" d="M51 672q0 141 50.5 265t139.5 215t214 144.5t276 53.5q115 0 237 -23.5t246 -85.5q0 -10 1 -20q0 -40 -7 -75q-8 -44 -26.5 -76t-48 -50.5t-70.5 -18.5q-35 0 -64 9l-62 18q-34 10 -79 18.5t-113 8.5q-76 0 -141 -25.5t-112.5 -75t-75 -121t-27.5 -161.5q0 -92 26.5 -167 t75 -127t113 -80t137.5 -28q61 0 105.5 10.5t85.5 26.5v207h-166q-51 0 -84 30.5t-33 112.5q0 37 4 72t9 55h399q57 0 93 -12t55.5 -33.5t26.5 -52.5t7 -65v-506q-104 -63 -239.5 -100.5t-276.5 -37.5q-152 0 -276.5 55.5t-214 149.5t-137.5 221.5t-48 268.5z" />
<glyph unicode="H" horiz-adv-x="1398" d="M121 6v1186q0 59 37 101t139 42q43 0 85 -4t71 -10v-516h493v387q0 59 37 101t139 42q43 0 85 -4t71 -10v-1186q0 -59 -37 -101t-139 -42q-43 0 -85 4t-71 10v518h-493v-389q0 -59 -37 -101t-140 -42q-43 0 -84.5 4t-70.5 10z" />
<glyph unicode="I" horiz-adv-x="573" d="M121 6v1186q0 59 37 101t139 42q43 0 85 -4t71 -10v-1186q0 -59 -37 -101t-140 -42q-43 0 -84.5 4t-70.5 10z" />
<glyph unicode="J" horiz-adv-x="983" d="M18 102q-2 30 -2 56q0 90 28 134q36 56 108 56q31 0 56 -10l53 -22q28 -11 58.5 -21t73.5 -10q66 0 108 35.5t42 117.5v754q0 59 36.5 101t139.5 42q43 0 85 -4t70 -10v-915q0 -205 -118.5 -313.5t-329.5 -108.5q-115 0 -218.5 33.5t-189.5 84.5z" />
<glyph unicode="K" horiz-adv-x="1265" d="M121 6v1186q0 59 37 101t139 42q43 0 85 -4t71 -10v-584l381 494q45 59 95 82.5t115 23.5q72 0 124.5 -11t97.5 -34l-480 -604l496 -649q-45 -25 -94 -39t-123 -14q-70 0 -122 23.5t-95 80.5l-395 520v-475q0 -59 -37 -101t-140 -42q-43 0 -84.5 4t-70.5 10z" />
<glyph unicode="L" horiz-adv-x="1083" d="M121 164v1028q0 59 37 101t139 42q43 0 85 -4t71 -10v-1022h587l10 -57q5 -33 5 -76q0 -96 -40 -131t-110 -35h-602q-57 0 -93 12.5t-55.5 34t-26.5 52t-7 65.5z" />
<glyph unicode="M" horiz-adv-x="1632" d="M63 23l125 1275q39 16 102.5 26.5t108.5 10.5q63 0 109.5 -8t79.5 -27.5t52 -54.5t30 -86l53 -248l48 -226q26 -124 46 -255h8q23 131 47.5 254t51.5 225l65 260q25 96 79 131t169 35q57 0 115.5 -9t97.5 -19l119 -1284q-29 -10 -69 -20.5t-87 -10.5q-66 0 -111 22.5 t-49 83.5l-30 443q-10 117 -17.5 244.5t-9.5 242.5h-4q-27 -106 -54.5 -230t-56.5 -229l-84 -348q-31 -123 -194 -123q-41 0 -84 8.5t-74 18.5l-104 434q-31 121 -57.5 237.5t-49.5 233.5h-6q-6 -164 -16.5 -300l-18.5 -234l-33 -400q-4 -59 -45 -81.5t-106 -22.5 q-47 0 -83 9.5t-63 21.5z" />
<glyph unicode="N" horiz-adv-x="1421" d="M121 6v1305q31 10 80 17t84 7q113 0 164 -28.5t86 -83.5l464 -731v712q0 27 7.5 50.5t25 42t48 28.5t77.5 10q41 0 79 -4t64 -8v-1307q-29 -14 -69.5 -19t-79.5 -5q-96 0 -143 26.5t-78 73.5l-498 795v-760q0 -57 -35 -96t-131 -39q-41 0 -79.5 4t-65.5 10z" />
<glyph unicode="O" horiz-adv-x="1458" d="M51 670q0 143 48 269t137.5 219t214 146.5t278.5 53.5t279 -53.5t214 -146.5t137 -219t48 -269q0 -145 -48 -272.5t-137 -221.5t-214 -149.5t-279 -55.5t-278.5 55.5t-214 149.5t-137.5 221.5t-48 272.5zM395 668q0 -86 25.5 -160t70 -128t104.5 -84t132 -30 q70 0 131.5 31t107.5 85t71.5 127t25.5 157t-24.5 156.5t-68.5 125.5t-105.5 84t-135.5 31q-72 0 -132 -29.5t-105.5 -83t-71 -126t-25.5 -156.5z" />
<glyph unicode="P" horiz-adv-x="1181" d="M121 6v1161q0 35 7 66t26.5 52.5t55.5 33.5t93 12h283q150 0 257 -37t174.5 -101.5t99.5 -150.5t32 -182q0 -106 -38 -195.5t-107.5 -154t-166 -100t-214.5 -35.5h-170v-240q0 -59 -37 -101t-140 -42q-43 0 -84.5 4t-70.5 10zM453 657h114q139 0 194.5 57.5t55.5 143.5 q0 88 -57.5 138.5t-161.5 50.5h-145v-390z" />
<glyph unicode="Q" horiz-adv-x="1458" d="M51 670q0 143 48 269t137.5 219t214 146.5t278.5 53.5t279 -53.5t214 -146.5t137 -219t48 -269q0 -133 -42 -252t-119 -210t-184.5 -150.5t-240.5 -73.5l559 -113q-25 -236 -186 -250q-8 -1 -17 0q-22 0 -45 3q-34 5 -71 14l-660 147q-1 10 0 20q0 60 31 113 q37 61 119 84q-115 27 -208 89.5t-157.5 150.5t-99.5 196.5t-35 231.5zM395 668q0 -88 25.5 -163t70 -128t104.5 -84t132 -31q70 0 131.5 31t107.5 85t71.5 128t25.5 160q0 84 -24.5 156.5t-68.5 125.5t-105.5 84t-135.5 31q-72 0 -132 -29.5t-105.5 -83t-71 -126 t-25.5 -156.5z" />
<glyph unicode="R" horiz-adv-x="1228" d="M121 6v1161q0 35 7 66t26.5 52.5t55.5 33.5t93 12h315q123 0 222.5 -27.5t170 -81t109.5 -134t39 -187.5q0 -160 -81 -261t-234 -136l354 -467q-45 -23 -103.5 -37t-127.5 -14q-70 0 -115 23.5t-86 82.5l-262 377h-51v-334q0 -59 -37 -101t-140 -42q-43 0 -84.5 4 t-70.5 10zM453 715h155q123 0 172 51t49 125q0 78 -52 124t-152 46h-172v-346z" />
<glyph unicode="S" horiz-adv-x="1148" d="M63 950q0 68 24 139.5t83 130t159.5 96.5t256.5 38q106 0 216.5 -18.5t231.5 -59.5q1 -19 1 -36q0 -88 -25 -146q-31 -70 -115 -70q-33 0 -65.5 6l-70.5 12.5t-84 12.5t-106 6q-111 0 -150.5 -33t-39.5 -70q0 -39 35 -63.5t127 -46.5l172 -45q389 -102 389 -402 q0 -94 -31 -171.5t-97.5 -134t-170 -87.5t-248.5 -31q-106 0 -235.5 18.5t-251.5 59.5q0 13 -1 26q0 95 27 160q31 73 117 72q33 0 71 -7l83 -15q45 -8 96 -15.5t110 -7.5q100 0 146.5 32t46.5 83q0 47 -45 71.5t-121 47.5l-156 41q-106 29 -179 71.5t-117 96t-63.5 113.5 t-19.5 126z" />
<glyph unicode="T" horiz-adv-x="1150" d="M12 1165q0 94 38 130t95 36h981q4 -25 8.5 -57.5t4.5 -75.5q0 -166 -133 -166h-261v-897q0 -59 -36.5 -101t-139.5 -42q-43 0 -85 4t-70 10v1026h-387l-10 58q-5 32 -5 75z" />
<glyph unicode="U" horiz-adv-x="1345" d="M98 553v639q0 59 37 101t139 42q43 0 85 -4t71 -10v-770q0 -133 65.5 -208t178.5 -75q111 0 178.5 75t67.5 208v641q0 59 36.5 101t139.5 42q43 0 84 -4t69 -10v-768q0 -121 -42 -226.5t-115.5 -185.5t-180 -126t-239.5 -46q-135 0 -241.5 46t-180.5 126t-113 185.5 t-39 226.5z" />
<glyph unicode="V" horiz-adv-x="1302" d="M14 1305q35 16 87.5 23t101.5 7q27 0 55.5 -4t53 -14t44 -29.5t29.5 -52.5l131 -438l72 -243l67 -245q16 68 33 127l33 118l34 118l38 127l131 430q10 35 29.5 56.5t44 32.5t53 14t57.5 3q37 0 86 -7t82 -19l-385 -1178q-29 -86 -87.5 -116.5t-166.5 -30.5 q-51 0 -102.5 6t-98.5 22z" />
<glyph unicode="W" horiz-adv-x="1812" d="M29 1298q31 16 72.5 26.5t97.5 10.5q76 0 121 -25.5t57 -97.5l72 -424q23 -125 40 -259t31 -259h6q18 125 40 256t55 271l94 403q16 72 69.5 102.5t147.5 30.5q47 0 92 -5t80 -19l117 -514q29 -129 51 -268.5l39 -256.5h8q6 57 15 127t20 140l19 136q9 67 20 122l73 434 q10 63 53.5 85.5t110.5 22.5q47 0 88 -10t70 -20l-252 -1178q-10 -45 -28.5 -72.5t-47 -43t-66.5 -21.5t-85 -6q-43 0 -98.5 5t-96.5 19l-133 578q-16 74 -34 179l-34 204h-4q-16 -98 -35.5 -202.5t-39.5 -180.5l-119 -459q-23 -88 -71 -115.5t-142 -27.5q-45 0 -103.5 5 t-99.5 19z" />
<glyph unicode="X" horiz-adv-x="1277" d="M10 18l424 662l-418 620q41 16 98.5 25.5t114.5 9.5t113.5 -16t97.5 -84l205 -350l207 354q39 66 92 81t109 15q41 0 97 -8t93 -22l-407 -643l430 -639q-41 -16 -101.5 -25.5t-117.5 -9.5t-113.5 17.5t-97.5 82.5l-215 350l-211 -352q-41 -66 -94.5 -82t-110.5 -16 q-43 0 -100.5 8t-94.5 22z" />
<glyph unicode="Y" horiz-adv-x="1284" d="M-8 1300q86 35 205 35q57 0 112.5 -16t96.5 -84l243 -426l252 430q39 63 97.5 79.5t113.5 16.5q41 0 96.5 -8t91.5 -22l-485 -773v-397q0 -59 -37 -101t-139 -42q-43 0 -84 4t-70 10v522z" />
<glyph unicode="Z" horiz-adv-x="1138" d="M59 131q0 49 16.5 96t55.5 101l526 704h-469q-53 0 -90 33t-37 125q0 41 4.5 80t8.5 61h979q6 -23 10 -58.5t4 -72.5q0 -43 -16.5 -93t-55.5 -101l-528 -707h598q4 -23 8 -61.5t4 -79.5q0 -92 -35.5 -125t-91.5 -33h-876l-9.5 57.5t-5.5 73.5z" />
<glyph unicode="[" horiz-adv-x="782" d="M94 -246v1637q0 35 7.5 64.5t26.5 51t55 34.5t93 13h441q4 -23 8 -55.5t4 -66.5q0 -80 -32.5 -113t-80.5 -33h-227v-1427h328q4 -23 8 -55.5t4 -67.5q0 -80 -32.5 -113t-80.5 -33h-340q-57 0 -93 12.5t-55 34t-26.5 52t-7.5 65.5z" />
<glyph unicode="\" horiz-adv-x="735" d="M27 1335q66 27 153 27q51 0 91 -14.5t57 -67.5l374 -1337q-31 -12 -69.5 -19.5t-81.5 -7.5q-51 0 -91 14.5t-57 67.5z" />
<glyph unicode="]" horiz-adv-x="782" d="M86 -287q0 80 33 113t80 33h229v1427h-330q-4 23 -8 55.5t-4 67.5q0 80 33 112.5t80 32.5h340q57 0 93 -12t55.5 -33.5t26.5 -52.5t7 -65v-1637q0 -35 -7 -64.5t-26.5 -51t-55.5 -35t-93 -13.5h-441q-4 23 -8 55.5t-4 67.5z" />
<glyph unicode="^" horiz-adv-x="1275" d="M283 946l198 324q33 14 78 22t80 8q78 0 121 -18t67 -59l166 -277q-25 -10 -61.5 -18t-71.5 -8q-53 0 -90 15t-57 54l-74 148l-76 -148q-20 -39 -57 -54t-90 -15q-35 0 -71.5 8t-61.5 18z" />
<glyph unicode="_" horiz-adv-x="993" d="M-8 -154h1009v-102h-1009v102z" />
<glyph unicode="`" horiz-adv-x="966" d="M385 1364q0 51 35 96t100 74l389 -338q-39 -43 -86 -67.5t-102 -24.5q-70 0 -143 43l-74 47q-61 35 -90 79t-29 91z" />
<glyph unicode="a" horiz-adv-x="1067" d="M45 287q0 156 106.5 242.5t329.5 86.5q45 0 93.5 -3t101.5 -11v39q0 72 -34 102.5t-122 30.5q-86 0 -155.5 -21.5t-128.5 -21.5q-37 0 -59.5 20.5t-35 52.5t-15.5 74q-1 18 -1 36q0 24 2 49q88 23 189.5 40t218.5 17q125 0 210.5 -26.5t137 -80t74 -132.5t22.5 -183v-215 q0 -55 1 -101t4 -89t8 -87.5t14 -95.5q-25 -8 -67 -14t-95 -6q-78 0 -106.5 31.5t-39.5 76.5q-4 27 -5 39.5t-3 26.5h-4q-41 -74 -122 -126t-199 -52q-74 0 -133.5 23.5t-101.5 65.5t-63.5 96.5t-21.5 115.5zM360 315q0 -45 33 -71.5t88 -26.5q66 0 119 37t80 111v69 q-53 6 -98 6q-102 0 -162 -31t-60 -94z" />
<glyph unicode="b" horiz-adv-x="1191" d="M86 10q6 137 8 241.5t2 205.5v833q0 53 38 80t147 27q39 0 78.5 -5.5t60.5 -9.5v-481q47 47 115.5 83t177.5 36q72 0 148.5 -31t140 -94.5t104.5 -159.5t41 -225q0 -111 -34 -206t-93 -165.5t-138 -111.5t-171 -41q-100 0 -180 45t-121 135h-4v-47q-6 -49 -41 -88 t-123 -39q-53 0 -93 6t-63 12zM418 444q0 -80 53 -133t131 -53q92 0 153.5 63.5t61.5 186.5q0 51 -15.5 96t-43 79t-68.5 53.5t-92 19.5q-61 0 -107.5 -27t-72.5 -70v-215z" />
<glyph unicode="c" horiz-adv-x="954" d="M45 498q0 106 38 200.5t105.5 165t161.5 110.5t209 40q117 0 198 -23.5t146 -58.5q4 -31 4 -58q0 -65 -21 -109q-30 -62 -98 -63q-41 0 -85 19.5t-113 19.5q-92 0 -154.5 -61.5t-62.5 -181.5q0 -119 64.5 -180.5t162.5 -61.5q35 0 62.5 6t51 14.5t45 14.5t44.5 6 q114 0 114 -177q0 -23 -2 -48q-76 -41 -163.5 -64.5t-192.5 -23.5q-115 0 -209 39.5t-161.5 109.5t-105.5 163t-38 202z" />
<glyph unicode="d" horiz-adv-x="1193" d="M45 500q0 131 41 228t104.5 161.5t141.5 97.5t151 33q104 0 170 -37t117 -90v397q0 53 38 80t146 27q39 0 79 -5.5t61 -9.5v-921q0 -57 1 -110l2 -105q1 -53 3 -111.5t6 -126.5q-23 -6 -64 -12t-94 -6q-45 0 -74.5 10t-48 27.5t-28 40t-11.5 47.5v43h-2 q-47 -88 -126.5 -131t-184.5 -43q-70 0 -145.5 31.5t-138 96t-103.5 161t-41 227.5zM375 510q0 -53 14 -99t42 -81t69 -55.5t94 -20.5q55 0 103 24.5t77 69.5v324q-29 45 -76 66.5t-102 21.5t-96 -20.5t-69 -54.5t-42 -80t-14 -95z" />
<glyph unicode="e" horiz-adv-x="1083" d="M45 502q0 111 37 206t103.5 164.5t159.5 108.5t206 39q119 0 209 -41t151.5 -109.5t92 -156.5t30.5 -183q0 -31 -3 -61.5t-9 -56.5h-670q14 -86 81 -134.5t171 -48.5q49 0 85 6.5t64.5 12.5l54.5 12t50 6q53 0 87 -38t34 -113q0 -29 -6 -62q-66 -29 -162 -52.5 t-213 -23.5q-129 0 -231.5 39t-174 109t-109.5 166t-38 211zM346 596h402q-4 39 -18.5 75t-40 62.5t-60.5 43t-78 16.5q-88 0 -141.5 -56.5t-63.5 -140.5z" />
<glyph unicode="f" horiz-adv-x="784" d="M12 850q0 72 28 95.5t71 23.5h51v104q0 182 107.5 271.5t287.5 89.5q86 0 161 -14.5t138 -35.5q2 -23 2 -44q0 -84 -27 -128q-33 -55 -98 -55q-18 0 -34 3l-30 6q-15 3 -35 6.5t-46 3.5q-43 0 -73 -27t-30 -92v-88h258q4 -18 8.5 -49t4.5 -60q0 -72 -28 -95.5t-71 -23.5 h-172v-645q0 -53 -37.5 -79.5t-146.5 -26.5q-39 0 -79 5t-60 9v737h-137q-4 18 -8.5 49t-4.5 60z" />
<glyph unicode="g" horiz-adv-x="1064" d="M33 -100q0 59 36.5 119.5t118.5 103.5q-20 23 -31.5 47.5t-11.5 58.5q0 43 24 85t77 65q-82 43 -135.5 111.5t-53.5 173.5q0 78 30 143t87 112.5t142 74t196 26.5q72 0 117 -8t98 -27q25 20 56.5 42t66.5 41l67.5 35.5t61.5 29.5q29 -16 52 -51q28 -40 28 -85 q0 -33 -13 -54q-15 -24 -43 -38t-66 -18q-25 -3 -52 -3q-13 0 -27 1l-2 -4q41 -35 79 -92.5t38 -135.5q0 -154 -118 -244t-343 -90q-29 0 -53.5 5.5t-40.5 1.5q-35 -6 -35 -35q0 -23 27.5 -32t64.5 -13l275 -31q86 -10 144 -34.5t94 -61.5t51.5 -83t15.5 -97 q0 -76 -36 -138.5t-103.5 -108.5t-166 -72t-221.5 -26q-133 0 -227 26t-153.5 69t-87 97.5t-27.5 113.5zM286 -23q0 -27 13 -53q23 -45 84 -77.5t166 -32.5q106 0 155.5 33.5t49.5 74.5q0 31 -27 46.5t-82 21.5l-209 22q-55 6 -81.5 14.5t-49.5 18.5q-19 -32 -19 -68z M356 662q0 -74 49.5 -109t108.5 -35q61 0 111.5 35t50.5 109q0 72 -48 108.5t-114 36.5q-63 0 -110.5 -36.5t-47.5 -108.5z" />
<glyph unicode="h" horiz-adv-x="1157" d="M92 4v1286q0 53 38 80t146 27q39 0 79 -5.5t61 -9.5v-526q47 72 124.5 118t176.5 46q72 0 136.5 -24.5t112.5 -76t75.5 -132t27.5 -191.5v-500q0 -53 -38 -79.5t-146 -26.5q-39 0 -79 3t-61 7v557q0 100 -41.5 147.5t-119.5 47.5q-51 0 -97.5 -25t-68.5 -61v-570 q0 -53 -38 -79.5t-147 -26.5q-39 0 -80 5t-61 9z" />
<glyph unicode="i" horiz-adv-x="516" d="M90 1300q0 70 49 119t119 49t119 -49t49 -119t-49 -117.5t-119 -47.5t-119 47.5t-49 117.5zM94 4v899q0 53 38 80t147 27q39 0 79.5 -5.5t61.5 -9.5v-899q0 -53 -38 -79.5t-146 -26.5q-39 0 -80.5 5t-61.5 9z" />
<glyph unicode="j" horiz-adv-x="524" d="M-127 -246q0 76 84 111q49 20 77.5 44.5t43 55.5t17.5 69t3 85l2 784q0 53 38 80t147 27q39 0 80 -5.5t61 -9.5v-886q0 -217 -108.5 -343t-344.5 -184q-53 47 -76.5 91t-23.5 81zM98 1300q0 70 49.5 119t118.5 49q70 0 119 -49t49 -119t-49 -117.5t-119 -47.5t-119 47.5 t-49 117.5z" />
<glyph unicode="k" horiz-adv-x="1122" d="M92 6v1280q0 53 38 80t146 27q39 0 79 -5.5t61 -9.5v-798l282 344q37 45 81 67.5t130 22.5q53 0 104.5 -9.5t92.5 -21.5l-387 -465l409 -477q-41 -23 -102 -36t-129 -13q-70 0 -126 32.5t-105 98.5l-250 328v-353q0 -53 -38 -79.5t-147 -26.5q-39 0 -79 5t-60 9z" />
<glyph unicode="l" horiz-adv-x="509" d="M92 4v1286q0 53 38 80t146 27q39 0 79 -5.5t61 -9.5v-1286q0 -53 -38 -79.5t-147 -26.5q-39 0 -79 5t-60 9z" />
<glyph unicode="m" horiz-adv-x="1705" d="M98 4v991q23 4 64 9.5t84 5.5q94 0 129 -31t35 -98v-23h2q43 68 117.5 115t162.5 47q104 0 181 -51t112 -150q59 98 135 149.5t172 51.5q147 0 236.5 -99.5t89.5 -297.5v-527q0 -53 -38 -79.5t-146 -26.5q-39 0 -79 5t-61 9v580q0 162 -135 161q-47 0 -83 -22.5 t-56 -54.5v-572q0 -53 -38 -79.5t-146 -26.5q-39 0 -79 5t-61 9v580q0 162 -135 161q-47 0 -84 -22.5t-55 -54.5v-572q0 -53 -38 -79.5t-146 -26.5q-39 0 -79.5 5t-60.5 9z" />
<glyph unicode="n" horiz-adv-x="1155" d="M92 4v991q23 4 65 9.5t85 5.5q92 0 126.5 -33t34.5 -96v-25h5q47 72 128.5 118t180.5 46q76 0 139.5 -25.5t110.5 -79t73.5 -133.5t26.5 -186v-500q0 -53 -38 -79.5t-146 -26.5q-39 0 -79 5t-61 9v553q0 100 -42 147.5t-119 47.5q-49 0 -95.5 -23.5t-70.5 -62.5v-570 q0 -53 -38 -79.5t-147 -26.5q-39 0 -79 5t-60 9z" />
<glyph unicode="o" horiz-adv-x="1144" d="M45 498q0 106 38 201.5t107.5 166t167 111.5t215.5 41q119 0 216.5 -41t166 -111.5t106.5 -166t38 -201.5t-37 -200.5t-106.5 -165.5t-167 -113t-216.5 -42t-216 41t-166.5 112t-107.5 166.5t-38 201.5zM350 498q0 -63 20.5 -111.5t52.5 -81.5t72 -49t78 -16q39 0 78 16 t72 49t53.5 81t20.5 112q0 59 -18.5 108t-49.5 83t-72 52.5t-84 18.5t-82.5 -18.5t-71.5 -52.5t-50.5 -83t-18.5 -108z" />
<glyph unicode="p" horiz-adv-x="1185" d="M90 -379v1376q25 6 67 10.5t83 4.5q92 0 126.5 -37t34.5 -96v-31h5q45 72 121.5 121t193.5 49q70 0 144.5 -30t136 -93.5t100.5 -159.5t39 -227q0 -133 -41 -230.5t-104.5 -163t-141.5 -97t-152 -31.5q-53 0 -96 10t-77.5 28.5t-62.5 42t-52 48.5v-402q0 -53 -38 -79.5 t-147 -26.5q-39 0 -79 5t-60 9zM414 332q27 -41 71.5 -63.5t104.5 -22.5q111 0 166 73.5t55 178.5q0 49 -13.5 94t-40 81t-68.5 57.5t-97 21.5q-53 0 -101.5 -26t-76.5 -71v-323z" />
<glyph unicode="q" horiz-adv-x="1189" d="M45 506q0 127 38 222t99.5 159.5t138 97.5t154.5 33q61 0 109.5 -15.5t86.5 -40t64.5 -55t44.5 -61.5h4q0 35 6.5 64.5t25 52t50 35t80.5 12.5q43 0 85 -4.5t67 -10.5v-1282q0 -53 -38 -79.5t-147 -26.5q-39 0 -78.5 5t-60.5 9v494q-53 -63 -129 -96t-160 -33 q-78 0 -156.5 33.5t-142 100t-102.5 163t-39 223.5zM373 496q0 -49 13 -94.5t41 -80t66.5 -55t92.5 -20.5q55 0 106 25.5t80 72.5v217q0 43 -15.5 78t-42 59.5t-59 39t-67.5 14.5q-53 0 -94 -21.5t-68 -56.5t-40 -82t-13 -96z" />
<glyph unicode="r" horiz-adv-x="792" d="M98 4v993q23 4 67 9.5t87 5.5q76 0 116 -37t40 -103v-22h2q53 86 106 120t129 34q37 0 80 -9.5t72 -25.5q4 -18 4 -35v-33q0 -115 -61 -157q-58 -40 -144 -40q-4 0 -8 1q-41 2 -82 10t-84 20v-639q0 -53 -38 -79.5t-146 -26.5q-39 0 -79.5 5t-60.5 9z" />
<glyph unicode="s" horiz-adv-x="976" d="M51 55q-4 29 -3 55q0 62 21 105q30 61 97 61q29 0 63 -8l75 -17q40 -9 85 -16.5t92 -7.5q74 0 105.5 19.5t31.5 48.5t-26.5 45t-91.5 33l-125 28q-92 23 -154.5 53.5t-100.5 69.5t-53.5 83t-15.5 93q0 68 25.5 126.5t78 101.5t133.5 67.5t191 24.5q92 0 195.5 -15.5 t204.5 -50.5q3 -25 2 -47q0 -63 -21 -107q-29 -60 -96 -61q-29 0 -58.5 7.5t-64.5 14.5t-74 14t-86 7q-63 0 -91 -18.5t-28 -44.5q0 -20 15.5 -36.5t87.5 -35.5l151 -37q172 -41 243 -114.5t71 -184.5q0 -66 -23.5 -125t-76 -104t-138.5 -70.5t-211 -25.5q-94 0 -211 17 t-219 52z" />
<glyph unicode="t" horiz-adv-x="876" d="M-2 846q0 72 28.5 97.5t71.5 25.5h64v121q0 35 7 67.5t27.5 57t57.5 40t98 15.5q29 0 66 -5t59 -12v-284h305q4 -18 7.5 -48t3.5 -59q0 -72 -29 -97.5t-72 -25.5h-215v-366q0 -59 25.5 -88t72.5 -29t78 14.5t64 14.5q55 0 88 -39t33 -121q0 -14 -1 -28.5t-3 -30.5 q-66 -39 -136.5 -59.5t-162.5 -20.5q-88 0 -157 28.5t-117 78.5t-73.5 120t-25.5 152v374h-154q-4 18 -7 48t-3 59z" />
<glyph unicode="u" horiz-adv-x="1157" d="M86 406v497q0 53 38 80t146 27q39 0 79 -5.5t61 -9.5v-553q0 -98 44 -144t117 -46q49 0 93.5 23.5t72.5 66.5v561q0 53 38 80t147 27q39 0 79.5 -5.5t61.5 -9.5v-506q0 -57 1 -110t3 -109.5t6 -120t10 -139.5q-23 -6 -65.5 -13t-95.5 -7q-51 0 -83 16.5t-49.5 42 t-25.5 55t-10 56.5h-4q-47 -76 -120 -127t-190 -51q-74 0 -138 24.5t-112.5 76.5t-76 132t-27.5 191z" />
<glyph unicode="v" horiz-adv-x="1036" d="M-14 977q33 14 80 23.5t92 9.5q66 0 110.5 -18.5t67.5 -84.5l96 -286q29 -86 49.5 -164t38.5 -164h6q18 86 41 164t51 164l101 292q33 96 166 97q100 0 170 -29l-340 -875q-27 -70 -74 -95t-133 -25q-41 0 -82 5t-78 17z" />
<glyph unicode="w" horiz-adv-x="1484" d="M4 975q29 14 71 24.5t95 10.5q72 0 116 -27t56 -92l49 -279q14 -86 24.5 -161.5t18.5 -147.5h4l15 80q8 45 18 91l21 90l18 77l70 260q16 63 64 86t114 23q14 0 35.5 -1t42 -4.5t39 -7.5t30.5 -8l90 -348q8 -37 19.5 -81t22 -90t18.5 -89l14 -78h2q14 135 45 309l51 287 q10 61 52.5 86t107.5 25q51 0 89 -9.5t67 -23.5l-205 -862q-18 -76 -75.5 -102.5t-135.5 -26.5q-18 0 -43 1t-49.5 4t-46 8t-35.5 11l-150 613l-129 -508q-16 -76 -73.5 -102.5t-137.5 -26.5q-18 0 -42.5 1t-49 4t-47 8t-37.5 11z" />
<glyph unicode="x" horiz-adv-x="1044" d="M-4 27l336 479l-322 467q39 16 98.5 26.5t102.5 10.5q59 0 109.5 -21.5t80.5 -73.5l142 -227l151 242q29 47 74 66.5t98 19.5q41 0 94.5 -8.5t88.5 -24.5l-332 -491l323 -463q-39 -16 -92 -26.5t-106 -10.5q-78 0 -124 19.5t-75 66.5l-143 231l-148 -241 q-27 -41 -67.5 -58.5t-108.5 -17.5q-47 0 -96 9.5t-84 25.5z" />
<glyph unicode="y" horiz-adv-x="1044" d="M-14 983q33 12 83 19.5t97 7.5q51 0 101 -19.5t77 -89.5l82 -231q33 -92 60.5 -180.5t41.5 -170.5h2q23 86 49.5 170t61.5 181l88 252q20 55 67.5 71.5t94.5 16.5q43 0 91 -7.5t79 -19.5l-518 -1284q-25 -59 -69 -76.5t-99 -17.5q-47 0 -90 7t-76 21l174 383z" />
<glyph unicode="z" horiz-adv-x="958" d="M49 121q0 47 13.5 91t52.5 91l391 438h-336q-47 0 -79 29t-32 107q0 35 4.5 67.5t8.5 52.5h813q4 -20 8 -53t4 -67q0 -41 -12.5 -88.5t-53.5 -92.5l-391 -442h457q4 -18 8 -51t4 -68q0 -78 -31.5 -106.5t-78.5 -28.5h-738q-4 20 -8 53t-4 68z" />
<glyph unicode="{" horiz-adv-x="673" d="M72 379v186q29 6 58.5 15.5t54 25t40 39t15.5 55.5q0 33 -8 66l-15 69q-8 36 -15 76.5t-7 87.5q0 74 26.5 133.5t66.5 103.5t86 75.5t87 50.5q66 -27 93.5 -67t27.5 -81q0 -31 -12.5 -55t-32.5 -41q-57 -41 -70.5 -87t-13.5 -81q0 -37 5 -66.5t12 -57t12 -57.5t5 -62 q0 -51 -17 -90t-45 -68t-62.5 -47.5t-71.5 -30.5q37 -12 71.5 -30.5t62.5 -47t45 -67.5t17 -90q0 -35 -5 -65t-12 -58.5t-12 -59t-5 -67.5q0 -41 15 -79t69 -79q18 -14 30.5 -39t12.5 -53q0 -39 -27 -78t-94 -68q-43 20 -90 54t-85 80.5t-62.5 100.5t-24.5 116q0 53 7 94 t15 76l15 66q7 32 8 69q0 37 -16.5 60.5t-41 37.5t-54 21.5t-58.5 13.5z" />
<glyph unicode="|" horiz-adv-x="628" d="M193 -385v1661q0 41 28.5 60.5t108.5 19.5q29 0 59.5 -3t46.5 -7v-1661q0 -41 -28.5 -60.5t-108.5 -19.5q-29 0 -59.5 3t-46.5 7z" />
<glyph unicode="}" horiz-adv-x="673" d="M92 1214q0 41 27.5 81t93.5 67q41 -18 87 -50t86 -76t66.5 -103.5t26.5 -133.5q0 -47 -7 -88t-15 -76l-16 -69q-7 -33 -7 -66t15.5 -56t40 -38.5t54 -25t58.5 -15.5v-186q-29 -6 -58.5 -13.5t-54 -21.5t-41 -37.5t-16.5 -60.5t7 -69l16 -66q8 -35 15 -76t7 -94 q0 -61 -24.5 -115.5t-62.5 -101t-85 -80t-90 -54.5q-68 29 -94.5 68t-26.5 78q0 29 12.5 53.5t30.5 38.5q53 41 68.5 79t15.5 79q0 37 -5 67.5t-12 59t-12.5 58.5t-5.5 65q0 51 16.5 90t44 67.5t63.5 47t73 30.5q-37 12 -73 30.5t-63.5 47.5t-44 67.5t-16.5 90.5 q0 33 5.5 62.5t12.5 57t12 57t5 66.5q0 35 -13 81t-71 87q-20 16 -32.5 40.5t-12.5 55.5z" />
<glyph unicode="~" horiz-adv-x="1110" d="M104 336l152 305q29 20 56.5 33.5t72.5 13.5q47 0 85 -16.5t67 -36.5l190 -125l70 152h211l-146 -302q-70 -41 -129 -41q-68 0 -107.5 18.5t-86.5 53.5l-148 105l-76 -160h-211z" />
<glyph unicode="&#xa1;" horiz-adv-x="636" d="M152 12l69 727q4 35 29.5 60.5t83.5 25.5q43 0 104 -18l68 -645q8 -74 -34 -120t-153 -46q-47 0 -91.5 4t-75.5 12zM164 1184q0 70 50 119t122 49q70 0 120 -49.5t50 -118.5q0 -37 -13.5 -68t-37 -54.5t-54 -36.5t-65.5 -13t-66.5 13t-55.5 36.5t-37 54.5t-13 68z" />
<glyph unicode="&#xa2;" d="M166 578q0 88 25.5 168.5t73.5 145t117 112t153 69.5v180q0 41 29.5 61.5t113.5 20.5q29 0 60.5 -3t47.5 -7v-238q74 -10 131.5 -30.5t106.5 -46.5q6 -31 6 -62q0 -76 -33.5 -122t-87.5 -46q-23 0 -40 6l-39 15q-22 8 -47 14t-62 6q-98 0 -162.5 -61.5t-64.5 -181.5 q0 -119 64.5 -180.5t162.5 -61.5q37 0 65.5 7t51 14.5l43 14.5t43.5 7q129 0 112 -227q-55 -31 -116.5 -51.5t-133.5 -30.5v-205q0 -41 -28.5 -61.5t-112.5 -20.5q-29 0 -61.5 3t-48.5 7v289q-84 23 -153 69t-117 111.5t-73.5 145.5t-25.5 170z" />
<glyph unicode="&#xa3;" horiz-adv-x="1171" d="M84 631q0 72 30.5 100.5t75.5 28.5h64q-8 35 -14.5 88t-6.5 102q0 102 34 178t93.5 126.5t140.5 75t175 24.5q125 0 227.5 -35t181.5 -82q0 -94 -38.5 -161.5t-108.5 -67.5q-35 0 -59.5 8t-50 19.5t-56.5 19.5t-76 8q-76 0 -111.5 -44t-35.5 -122q0 -41 7 -74l13 -63h332 q4 -20 8 -52t4 -65q0 -74 -30.5 -101.5t-75.5 -27.5h-225q-2 -53 -18.5 -109.5t-41.5 -105.5h565q4 -23 8.5 -61.5t4.5 -79.5q0 -90 -37 -124t-94 -34h-799q-6 14 -9 38.5t-3 47.5q0 55 21.5 103.5t46 97.5t43 104t12.5 123h-185q-4 20 -8 51t-4 66z" />
<glyph unicode="&#xa4;" d="M96 879l180 180l146 -146q47 25 99 39.5t110 14.5q57 0 109.5 -14.5t99.5 -41.5l143 144l178 -178l-143 -144q53 -94 53 -209q0 -113 -53 -209l143 -139l-180 -182l-143 143q-94 -53 -207 -53q-57 0 -109.5 14.5t-99.5 38.5l-148 -147l-176 180l144 145 q-25 47 -39.5 99.5t-14.5 109.5t14.5 108.5t39.5 98.5zM424 524q0 -43 16.5 -80.5t44 -65.5t65.5 -43.5t81 -15.5t80 15.5t64.5 43.5t44 65.5t16.5 80.5t-16.5 81t-44 65.5t-64.5 44t-80 16.5t-81 -16.5t-65.5 -44t-44 -65.5t-16.5 -81z" />
<glyph unicode="&#xa5;" d="M-23 1300q86 35 205 35q57 0 112.5 -16t96.5 -84l244 -426l252 430q39 63 97 79.5t114 16.5q41 0 96 -8t92 -22l-481 -766h321q4 -20 8.5 -52t4.5 -65q0 -74 -31 -101.5t-76 -27.5h-231v-158q0 -59 -37 -101t-139 -42q-43 0 -84 4t-70 10v287h-338q-4 20 -8 51t-4 66 q0 72 30.5 100.5t75.5 28.5h238z" />
<glyph unicode="&#xa6;" horiz-adv-x="628" d="M193 322q0 41 28.5 60t108.5 19q29 0 59.5 -3t46.5 -7v-698q0 -41 -28.5 -60.5t-108.5 -19.5q-29 0 -59.5 3t-46.5 7v699zM193 578v698q0 41 28.5 60.5t108.5 19.5q29 0 59.5 -3t46.5 -7v-699q0 -41 -28.5 -60.5t-108.5 -19.5q-29 0 -59.5 3.5t-46.5 7.5z" />
<glyph unicode="&#xa7;" d="M172 1028q0 70 26.5 129.5t80 103.5t134.5 68.5t189 24.5q90 0 191.5 -15.5t203.5 -50.5q8 -92 -19.5 -154.5t-98.5 -62.5q-29 0 -58 7l-59 16q-31 8 -68 15t-80 7q-70 0 -100.5 -16.5t-30.5 -46.5q0 -20 16.5 -39t90.5 -35l143 -35q174 -41 244 -115.5t70 -187.5 q0 -59 -23 -114.5t-70 -96.5q51 -43 72 -89t21 -112q0 -154 -113 -238.5t-336 -84.5q-94 0 -195.5 16.5t-203.5 50.5q-12 98 16.5 160t95.5 62q29 0 60 -9l65 -17q35 -9 75 -16.5t89 -7.5q72 0 103.5 20.5t31.5 49.5t-26.5 45t-90.5 33l-112 26q-96 23 -159.5 53.5 t-101.5 69.5t-53.5 84t-15.5 97q0 61 23.5 116.5t70.5 96.5q-47 35 -72.5 86t-25.5 106zM420 655q0 -23 24.5 -38t65.5 -28.5t97.5 -25.5t117.5 -31q27 8 43 23.5t16 44.5q0 25 -25.5 40t-68.5 28.5t-97 27t-112 29.5q-61 -19 -61 -70z" />
<glyph unicode="&#xa8;" horiz-adv-x="966" d="M133 1276q0 68 46 116t112 48q68 0 116 -48.5t48 -115.5q0 -66 -48.5 -112t-115.5 -46q-66 0 -112 46t-46 112zM539 1276q0 68 47 116t112 48q68 0 115 -48.5t47 -115.5q0 -66 -47 -112t-115 -46q-33 0 -62.5 12.5t-51 34t-33.5 50t-12 61.5z" />
<glyph unicode="&#xa9;" horiz-adv-x="1447" d="M51 664q0 150 50.5 275.5t139.5 216.5t211.5 142.5t270.5 51.5q147 0 270 -51.5t213 -142.5t140.5 -217t50.5 -275q0 -152 -50.5 -279t-139.5 -217t-213 -140.5t-271 -50.5t-271 50.5t-213 140.5t-138.5 217t-49.5 279zM182 664q0 -123 40 -225.5t112 -178.5t171 -118 t218 -42t218 42t171 118t113 178.5t41 225.5t-41 225t-114 177t-172 117t-218 42t-217 -42t-170 -117t-112 -177t-40 -225zM358 662q0 78 28 147.5t78 121.5t119.5 82.5t153.5 30.5q88 0 147.5 -17t106.5 -44q14 -76 -13.5 -124t-74.5 -48q-31 0 -56.5 14.5t-78.5 14.5 q-72 0 -124 -46t-52 -132q0 -88 52 -135.5t124 -47.5q27 0 47.5 5t36.5 11l32 10q15 5 31 5q96 0 86 -170q-117 -63 -264 -64q-84 0 -153.5 30t-119.5 82t-78 123t-28 151z" />
<glyph unicode="&#xaa;" horiz-adv-x="927" d="M88 762q0 129 91 193.5t270 64.5q33 0 66.5 -2t70.5 -6v28q0 55 -27 80t-96 25q-66 0 -121 -16.5t-102 -16.5q-29 0 -47.5 15.5t-28.5 42t-13.5 58.5t1.5 66q18 6 53 14.5t79 15.5t94 12t99 5q98 0 166 -21.5t109 -63.5t58 -105.5t17 -144.5v-170q0 -43 1 -80l2 -71 q1 -34 5.5 -68.5t10.5 -73.5q-18 -6 -52 -12.5t-75 -6.5q-68 0 -94.5 39t-28.5 99q-45 -66 -105.5 -104t-148.5 -38q-59 0 -106.5 19.5t-80 52.5t-50 77t-17.5 93zM340 782q0 -35 24.5 -55t71.5 -20q49 0 89 28.5t63 87.5v54q-41 6 -78 6q-76 0 -123 -25t-47 -76z" />
<glyph unicode="&#xab;" horiz-adv-x="1267" d="M57 412v239l504 330q14 -33 24.5 -76t10.5 -84q0 -53 -12.5 -92t-59.5 -67l-211 -127l211 -127q47 -29 59.5 -68t12.5 -92q0 -41 -10.5 -84t-24.5 -76zM610 412v239l504 330q14 -33 24.5 -76t10.5 -84q0 -53 -12.5 -92t-59.5 -67l-211 -127l211 -127q47 -29 59.5 -68 t12.5 -92q0 -41 -10.5 -84t-24.5 -76z" />
<glyph unicode="&#xac;" d="M115 514q0 78 32.5 108.5t79.5 30.5h721q57 0 93 -12t55.5 -33.5t26.5 -52.5t7 -66v-387q0 -47 -28.5 -78.5t-106.5 -31.5q-35 0 -66.5 3t-54.5 7v399h-747q-4 20 -8 48t-4 65z" />
<glyph unicode="&#xad;" horiz-adv-x="770" d="M59 522q0 86 35 118t88 32h514q4 -23 9.5 -58.5t5.5 -74.5q0 -86 -35 -118t-88 -32h-514q-4 23 -9.5 58.5t-5.5 74.5z" />
<glyph unicode="&#xae;" horiz-adv-x="778" d="M55 1018q0 70 27 130t72 105t105 72t130 27t131.5 -27t106.5 -72t70.5 -105.5t25.5 -129.5q0 -70 -25.5 -131.5t-70.5 -106.5t-106.5 -70.5t-131.5 -25.5t-130 26.5t-105 71.5t-72 105.5t-27 130.5zM135 1018q0 -55 20.5 -102.5t55.5 -81t81 -53t97 -19.5t97 19.5t81 53 t55.5 81t20.5 102.5t-20.5 101t-55.5 80t-81 53.5t-97 19.5t-97 -19.5t-81 -53.5t-55.5 -80t-20.5 -101zM260 844v303q0 20 9.5 32.5t41.5 12.5h82q66 0 105 -28.5t39 -86.5q0 -76 -78 -100l86 -121q-10 -8 -27.5 -12t-32.5 -4q-25 0 -38 6t-25 24l-62 95h-8v-86 q0 -16 -9 -27.5t-38 -11.5q-25 0 -45 4zM352 1032h39q29 0 40 12.5t11 28.5q0 41 -49 41h-41v-82z" />
<glyph unicode="&#xaf;" horiz-adv-x="966" d="M188 1257q0 72 30 99.5t73 27.5h506q4 -20 8 -49.5t4 -62.5q0 -127 -102 -127h-508q-4 18 -7.5 48.5t-3.5 63.5z" />
<glyph unicode="&#xb0;" horiz-adv-x="823" d="M78 1022q0 70 26.5 130t71.5 105.5t105.5 72t130.5 26.5t130 -26.5t105 -72t71.5 -105.5t26.5 -130t-26.5 -130.5t-71.5 -106.5t-105.5 -72.5t-129.5 -26.5q-70 0 -130.5 26.5t-105.5 72.5t-71.5 106.5t-26.5 130.5zM246 1022q0 -70 49 -119t117 -49t117 49t49 119 q0 68 -49.5 116t-116.5 48q-68 0 -117 -48t-49 -116z" />
<glyph unicode="&#xb1;" horiz-adv-x="1173" d="M78 858q0 78 32.5 108.5t79.5 30.5h271v285q0 47 28.5 79t106.5 32q35 0 66.5 -3.5t54.5 -7.5v-385h374q4 -20 8.5 -47.5t4.5 -64.5q0 -78 -33 -109t-80 -31h-274v-299q0 -47 -29 -78.5t-107 -31.5q-35 0 -66.5 3t-53.5 7v399h-371q-4 20 -8 48t-4 65z" />
<glyph unicode="&#xb2;" horiz-adv-x="919" d="M119 545q0 33 14 80t66 86l172 131l86 66q35 28 56.5 49.5t30.5 42t9 44.5q0 41 -28.5 66t-86.5 25q-33 0 -60.5 -9.5t-52.5 -19.5l-51 -20q-25 -9 -51 -9q-41 0 -69.5 49.5t-30.5 120.5q57 41 140 74t200 33q152 0 241 -81t89 -214q0 -53 -16.5 -96t-48.5 -81t-77 -72 t-100 -71l-115 -73v-4h359q4 -16 5 -45t1 -58q0 -61 -23.5 -84.5t-62.5 -23.5h-586q-4 16 -7 42.5t-3 51.5z" />
<glyph unicode="&#xb3;" horiz-adv-x="935" d="M125 514q0 74 27.5 120t70.5 46q25 0 45.5 -6t45 -14.5t55 -14.5t71.5 -6q59 0 93 22.5t34 61.5q0 35 -30.5 59.5t-108.5 24.5h-96q-31 0 -52.5 22.5t-21.5 73.5q0 23 2 47.5t6 38.5h160q68 0 98.5 21.5t30.5 58.5q0 33 -26.5 54.5t-86.5 21.5q-37 0 -64.5 -5t-49.5 -12 l-43 -11q-20 -5 -41 -5q-45 0 -72 48t-29 122q59 35 142.5 53.5t177.5 18.5q160 0 238.5 -71t78.5 -171q0 -72 -37.5 -121t-105.5 -73q76 -18 125 -74t49 -139q0 -127 -100.5 -201t-264.5 -74q-39 0 -83 6t-87 17.5t-81.5 27t-69.5 33.5z" />
<glyph unicode="&#xb4;" horiz-adv-x="966" d="M334 1196l391 338q66 -29 100.5 -74t34.5 -96q0 -47 -29.5 -91t-89.5 -79l-73 -47q-74 -43 -144 -43q-55 0 -103 24.5t-87 67.5z" />
<glyph unicode="&#xb5;" horiz-adv-x="1189" d="M90 -383v1286q0 53 38 80t146 27q39 0 79 -4.5t61 -8.5v-557q0 -100 48 -147t120 -47q47 0 89 26.5t70 69.5v561q0 53 38 80t147 27q39 0 78.5 -5.5t60.5 -9.5v-506v-110q0 -53 2 -109.5t7 -120t13 -139.5l-54 -13q-30 -7 -77 -7q-59 0 -87.5 17.5t-43.5 37.5 q-12 16 -18 41t-8 41h-2q-27 -66 -77 -108t-126 -42q-68 0 -116 27t-72 68l8 -322q2 -82 -36 -114.5t-147 -32.5q-39 0 -80 5t-61 9z" />
<glyph unicode="&#xb6;" horiz-adv-x="1247" d="M33 883q0 100 35.5 182t100 141.5t157 92t202.5 32.5h457q88 0 114.5 -35.5t26.5 -91.5v-1204q-16 -4 -42.5 -6t-53.5 -2q-66 0 -88 25.5t-22 64.5v1044h-93v-1126q-16 -4 -42.5 -6t-53.5 -2q-66 0 -88 25.5t-22 64.5v360h-93q-111 0 -201.5 33t-156.5 91.5t-101.5 139.5 t-35.5 177zM254 885q0 -102 69.5 -168t206.5 -66h91v475h-89q-139 0 -208.5 -68.5t-69.5 -172.5z" />
<glyph unicode="&#xb7;" horiz-adv-x="475" d="M67 525q0 72 50.5 122t119.5 50q72 0 121 -50.5t49 -121.5q0 -70 -49 -119t-121 -49q-70 0 -120 49t-50 119z" />
<glyph unicode="&#xb8;" horiz-adv-x="966" d="M287 -399q0 57 21.5 93t56.5 36t62.5 -12.5t72.5 -12.5q33 0 55.5 16.5t22.5 45.5q0 23 -21.5 39t-77.5 16h-18q-35 0 -55.5 27.5t-2.5 72.5l33 84h162l-25 -55q100 -8 147.5 -64.5t47.5 -124.5q0 -104 -75 -161.5t-191 -57.5q-49 0 -108.5 16.5t-106.5 41.5z" />
<glyph unicode="&#xb9;" horiz-adv-x="890" d="M143 1077q-16 53 0.5 87t59.5 53l233 114h164v-889q-18 -4 -47 -6t-57 -2q-72 0 -96.5 29t-24.5 69v555l-187 -86l-22 32q-13 17 -23 44z" />
<glyph unicode="&#xba;" horiz-adv-x="919" d="M47 936q0 84 29.5 158.5t85 130t132.5 88.5t169 33q94 0 170 -32t130 -86t84 -128t30 -158t-30 -158.5t-84 -132t-130 -91.5t-170 -34t-171 33t-131.5 88t-84 130t-29.5 159zM289 936q0 -49 15 -87t41 -62.5t56.5 -38t61.5 -13.5t61.5 12.5t55 38t41 63.5t16.5 87 q0 92 -53.5 148.5t-120.5 56.5q-68 0 -121 -56.5t-53 -148.5z" />
<glyph unicode="&#xbb;" horiz-adv-x="1267" d="M115 256q0 53 12 92t59 68l211 127l-211 127q-47 29 -59 67.5t-12 91.5q0 41 10 84t25 76l503 -323v-240l-503 -330q-14 33 -24.5 76t-10.5 84zM668 256q0 53 12 92t59 68l211 127l-211 127q-47 29 -59 67.5t-12 91.5q0 41 10 84t25 76l503 -323v-240l-503 -330 q-14 33 -24.5 76t-10.5 84z" />
<glyph unicode="&#xbc;" horiz-adv-x="1900" d="M68 1077q-16 53 0 87t57 53l235 114h164v-889q-18 -4 -46.5 -6t-57.5 -2q-72 0 -96.5 29t-24.5 69v555l-188 -86q-8 14 -21.5 31.5t-21.5 44.5zM489 195l553 913q23 37 52.5 53.5t58.5 16.5q31 0 61.5 -12.5t40.5 -22.5l-550 -916q-25 -41 -61 -56t-64 -15 q-29 0 -55 14.5t-36 24.5zM1014 260q0 37 11 71t40 72l346 486h254v-520h141q4 -16 7.5 -45t3.5 -58q0 -55 -25 -77.5t-59 -22.5h-68v-166q-18 -4 -47 -6t-57 -2q-72 0 -96.5 28.5t-24.5 69.5v76h-416q-10 37 -10 94zM1274 369h166v241z" />
<glyph unicode="&#xbd;" horiz-adv-x="1910" d="M68 1077q-16 53 0 87t57 53l235 114h164v-889q-18 -4 -46.5 -6t-57.5 -2q-72 0 -96.5 29t-24.5 69v555l-188 -86q-8 14 -21.5 31.5t-21.5 44.5zM469 195l553 913q23 37 52.5 53.5t58.5 16.5q31 0 61.5 -12.5t40.5 -22.5l-551 -916q-25 -41 -60.5 -56t-64.5 -15 t-54.5 14.5t-35.5 24.5zM1124 96q0 35 15.5 83t66.5 87l162 121l87 63q36 26 59.5 49t35 44.5t11.5 50.5q0 39 -29 63.5t-82 24.5q-33 0 -61.5 -9t-54 -19.5t-51.5 -19.5t-52 -9q-41 0 -69.5 50t-31.5 122q57 41 142.5 73.5t202.5 32.5q74 0 134 -21.5t102 -60.5t65.5 -93 t23.5 -120q0 -115 -68.5 -189.5t-185.5 -137.5l-112 -68h370q2 -16 4 -46t2 -58q0 -61 -24.5 -85t-61.5 -24h-589q-4 16 -7.5 42.5t-3.5 53.5z" />
<glyph unicode="&#xbe;" horiz-adv-x="2095" d="M88 514q0 74 28.5 120t71.5 46q25 0 45.5 -6t45 -14.5t55.5 -14.5t72 -6q59 0 91.5 22.5t32.5 61.5q0 35 -30.5 59.5t-108.5 24.5h-94q-31 0 -52.5 22.5t-21.5 73.5q0 23 2 47.5t6 38.5h160q129 0 129 82q0 31 -26.5 52.5t-85.5 21.5q-37 0 -65 -5t-50 -12l-43 -11 q-20 -5 -41 -5q-47 0 -73.5 48t-26.5 122q59 35 141 53.5t176 18.5q160 0 239.5 -71t79.5 -171q0 -72 -37.5 -121t-105.5 -73q74 -18 124 -72.5t50 -140.5q0 -129 -100.5 -202t-265.5 -73q-39 0 -82 6t-86 17.5t-83 27t-71 33.5zM674 195l553 913q23 37 52.5 53.5t57.5 16.5 q31 0 62 -12.5t41 -22.5l-551 -916q-25 -41 -60.5 -56t-64.5 -15t-54.5 14.5t-35.5 24.5zM1202 260q0 37 11.5 71t39.5 72l346 486h254v-520h142q4 -16 7 -45t3 -58q0 -55 -24.5 -77.5t-59.5 -22.5h-68v-166q-18 -4 -46.5 -6t-57.5 -2q-72 0 -96.5 28.5t-24.5 69.5v76h-416 q-10 37 -10 94zM1462 369h166v241z" />
<glyph unicode="&#xbf;" horiz-adv-x="991" d="M31 340q0 104 51 181t141 120q43 23 84 39t74 34.5t56.5 46t33.5 70.5q6 27 30.5 49.5t80.5 22.5q23 0 48 -4t58 -14q4 -25 7 -47.5t3 -44.5q0 -72 -24.5 -122t-62.5 -86t-82 -62l-82 -48q-38 -23 -62.5 -45t-24.5 -51q0 -45 38 -74t108 -29q55 0 96 8.5t75 18.5l63 19 q30 8 65 8q61 0 102 -60.5t43 -169.5q-86 -53 -205.5 -86.5t-238.5 -33.5q-117 0 -206 27.5t-148.5 76.5t-90 114.5t-30.5 141.5zM418 1190q0 70 49 119t121 49q70 0 120 -49t50 -119q0 -72 -50.5 -122t-119.5 -50q-72 0 -121 50t-49 122z" />
<glyph unicode="&#xc0;" horiz-adv-x="1318" d="M10 14l426 1299q55 14 111.5 20t103.5 6q68 0 116 -10t81 -30.5t54.5 -54.5t35.5 -79l365 -1149q-35 -14 -84.5 -21t-96.5 -7q-53 0 -103 17.5t-73 78.5l-69 211h-447l-59 -199q-23 -72 -76 -90t-113 -18q-39 0 -89 7t-83 19zM502 551h305l-152 502zM326 1663q0 51 35 96 t100 74l389 -338q-39 -43 -86 -67.5t-102 -24.5q-70 0 -143 43l-74 47q-61 35 -90 79t-29 91z" />
<glyph unicode="&#xc1;" horiz-adv-x="1318" d="M10 14l426 1299q55 14 111.5 20t103.5 6q68 0 116 -10t81 -30.5t54.5 -54.5t35.5 -79l365 -1149q-35 -14 -84.5 -21t-96.5 -7q-53 0 -103 17.5t-73 78.5l-69 211h-447l-59 -199q-23 -72 -76 -90t-113 -18q-39 0 -89 7t-83 19zM502 551h305l-152 502zM404 1495l391 338 q66 -29 100.5 -74t34.5 -96q0 -47 -29.5 -91t-89.5 -79l-73 -47q-74 -43 -144 -43q-55 0 -103 24.5t-87 67.5z" />
<glyph unicode="&#xc2;" horiz-adv-x="1318" d="M10 14l426 1299q55 14 111.5 20t103.5 6q68 0 116 -10t81 -30.5t54.5 -54.5t35.5 -79l365 -1149q-35 -14 -84.5 -21t-96.5 -7q-53 0 -103 17.5t-73 78.5l-69 211h-447l-59 -199q-23 -72 -76 -90t-113 -18q-39 0 -89 7t-83 19zM502 551h305l-152 502zM301 1421l199 323 q33 14 78 22.5t80 8.5q78 0 121 -18.5t67 -59.5l166 -276q-25 -10 -61.5 -18.5t-71.5 -8.5q-53 0 -90 15.5t-57 54.5l-74 147l-76 -147q-20 -39 -57 -54.5t-90 -15.5q-35 0 -72 8.5t-62 18.5z" />
<glyph unicode="&#xc3;" horiz-adv-x="1318" d="M10 14l426 1299q55 14 111.5 20t103.5 6q68 0 116 -10t81 -30.5t54.5 -54.5t35.5 -79l365 -1149q-35 -14 -84.5 -21t-96.5 -7q-53 0 -103 17.5t-73 78.5l-69 211h-447l-59 -199q-23 -72 -76 -90t-113 -18q-39 0 -89 7t-83 19zM502 551h305l-152 502zM296 1454 q27 123 86.5 193.5t151.5 70.5q45 0 81 -16.5t65 -34.5l57 -35q27 -16 53 -17q25 0 38 13.5t25.5 31t29 31t46.5 13.5q29 0 55.5 -11.5t47.5 -34.5q-37 -129 -91.5 -196.5t-146.5 -67.5q-43 0 -77.5 16.5t-65.5 35.5l-59 34q-28 16 -54 17q-25 0 -38 -13.5t-25.5 -31 t-28.5 -30.5t-47 -13q-29 0 -56 11t-47 34z" />
<glyph unicode="&#xc4;" horiz-adv-x="1318" d="M10 14l426 1299q55 14 111.5 20t103.5 6q68 0 116 -10t81 -30.5t54.5 -54.5t35.5 -79l365 -1149q-35 -14 -84.5 -21t-96.5 -7q-53 0 -103 17.5t-73 78.5l-69 211h-447l-59 -199q-23 -72 -76 -90t-113 -18q-39 0 -89 7t-83 19zM502 551h305l-152 502zM297 1550 q0 68 46 116t112 48q68 0 116 -48.5t48 -115.5q0 -66 -48.5 -112t-115.5 -46q-66 0 -112 46t-46 112zM703 1550q0 68 47 116t112 48q68 0 115 -48.5t47 -115.5q0 -66 -47 -112t-115 -46q-33 0 -62.5 12.5t-51 34t-33.5 50t-12 61.5z" />
<glyph unicode="&#xc5;" horiz-adv-x="1318" d="M10 14l426 1299q55 14 111.5 20t103.5 6q68 0 116 -10t81 -30.5t54.5 -54.5t35.5 -79l365 -1149q-35 -14 -84.5 -21t-96.5 -7q-53 0 -103 17.5t-73 78.5l-69 211h-447l-59 -199q-23 -72 -76 -90t-113 -18q-39 0 -89 7t-83 19zM420 1616q0 47 18.5 87t51 69.5t76.5 47 t93 17.5t92.5 -17.5t75 -47t50 -69.5t18.5 -87q0 -49 -18.5 -90t-51 -71t-76.5 -47t-94 -17q-49 0 -92 17t-74.5 47t-50 71t-18.5 90zM502 551h305l-150 502h-4zM561 1616q0 -41 30 -68.5t66 -27.5q37 0 67 27.5t30 68.5t-30 67.5t-67 26.5t-66.5 -26.5t-29.5 -67.5z" />
<glyph unicode="&#xc6;" horiz-adv-x="1748" d="M2 14l520 1317h1129q4 -23 8 -58.5t4 -76.5q0 -86 -35 -119t-88 -33h-489l53 -239h504q4 -20 8 -55t4 -72q0 -82 -33 -111.5t-82 -29.5h-350l57 -250h459q4 -23 8 -60t4 -75q0 -88 -34.5 -120t-87.5 -32h-455q-59 0 -107.5 18.5t-64.5 90.5l-43 194h-445l-79 -207 q-27 -70 -80.5 -89t-112.5 -19q-39 0 -89 7t-83 19zM541 559h301l-107 502h-6z" />
<glyph unicode="&#xc7;" horiz-adv-x="1171" d="M51 666q0 143 51.5 268t141.5 217t213 144.5t268 52.5q104 0 202.5 -22.5t182.5 -57.5q18 -272 -133 -273q-27 0 -49.5 6.5t-49 12.5t-59.5 12t-78 6q-72 0 -135 -25.5t-109 -73.5t-73 -115.5t-27 -151.5q0 -88 27 -158t73 -118t109.5 -73.5t134.5 -25.5q45 0 80 6 t62.5 12t52.5 12.5t51 6.5q61 0 101 -47.5t40 -141.5q0 -18 -2 -39.5t-6 -44.5q-84 -35 -187.5 -57.5t-207.5 -22.5l-10 -24q100 -8 147 -64.5t47 -124.5q0 -104 -74.5 -161.5t-191.5 -57.5q-49 0 -108.5 16.5t-106.5 41.5q0 57 21.5 93t56.5 36t62.5 -12.5t72.5 -12.5 q33 0 55.5 16.5t22.5 45.5q0 23 -21.5 39t-76.5 16h-19q-35 0 -55.5 27.5t-1.5 72.5l26 70q-115 25 -210 85t-164.5 148t-107.5 200t-38 241z" />
<glyph unicode="&#xc8;" horiz-adv-x="1079" d="M121 164v1003q0 35 7 66t26.5 52.5t55.5 33.5t93 12h678q4 -23 8 -61.5t4 -79.5q0 -86 -34.5 -122t-88.5 -36h-417v-233h481q4 -20 8 -54t4 -73q0 -82 -32.5 -112t-82.5 -30h-378v-231h548q4 -23 8.5 -62.5t4.5 -78.5q0 -88 -35 -123t-88 -35h-588q-57 0 -93 12.5 t-55.5 34t-26.5 52t-7 65.5zM295 1663q0 51 35 96t100 74l389 -338q-39 -43 -86 -67.5t-102 -24.5q-70 0 -143 43l-74 47q-61 35 -90 79t-29 91z" />
<glyph unicode="&#xc9;" horiz-adv-x="1079" d="M121 164v1003q0 35 7 66t26.5 52.5t55.5 33.5t93 12h678q4 -23 8 -61.5t4 -79.5q0 -86 -34.5 -122t-88.5 -36h-417v-233h481q4 -20 8 -54t4 -73q0 -82 -32.5 -112t-82.5 -30h-378v-231h548q4 -23 8.5 -62.5t4.5 -78.5q0 -88 -35 -123t-88 -35h-588q-57 0 -93 12.5 t-55.5 34t-26.5 52t-7 65.5zM322 1495l391 338q66 -29 100.5 -74t34.5 -96q0 -47 -29.5 -91t-89.5 -79l-73 -47q-74 -43 -144 -43q-55 0 -103 24.5t-87 67.5z" />
<glyph unicode="&#xca;" horiz-adv-x="1079" d="M121 164v1003q0 35 7 66t26.5 52.5t55.5 33.5t93 12h678q4 -23 8 -61.5t4 -79.5q0 -86 -34.5 -122t-88.5 -36h-417v-233h481q4 -20 8 -54t4 -73q0 -82 -32.5 -112t-82.5 -30h-378v-231h548q4 -23 8.5 -62.5t4.5 -78.5q0 -88 -35 -123t-88 -35h-588q-57 0 -93 12.5 t-55.5 34t-26.5 52t-7 65.5zM190 1421l199 323q33 14 78 22.5t80 8.5q78 0 121 -18.5t67 -59.5l166 -276q-25 -10 -61.5 -18.5t-71.5 -8.5q-53 0 -90 15.5t-57 54.5l-74 147l-76 -147q-20 -39 -57 -54.5t-90 -15.5q-35 0 -72 8.5t-62 18.5z" />
<glyph unicode="&#xcb;" horiz-adv-x="1079" d="M121 164v1003q0 35 7 66t26.5 52.5t55.5 33.5t93 12h678q4 -23 8 -61.5t4 -79.5q0 -86 -34.5 -122t-88.5 -36h-417v-233h481q4 -20 8 -54t4 -73q0 -82 -32.5 -112t-82.5 -30h-378v-231h548q4 -23 8.5 -62.5t4.5 -78.5q0 -88 -35 -123t-88 -35h-588q-57 0 -93 12.5 t-55.5 34t-26.5 52t-7 65.5zM190 1571q0 68 46 116t112 48q68 0 116 -48.5t48 -115.5q0 -66 -48.5 -112t-115.5 -46q-66 0 -112 46t-46 112zM596 1571q0 68 47 116t112 48q68 0 115 -48.5t47 -115.5q0 -66 -47 -112t-115 -46q-33 0 -62.5 12.5t-51 34t-33.5 50t-12 61.5z " />
<glyph unicode="&#xcc;" horiz-adv-x="573" d="M121 6v1186q0 59 37 101t139 42q43 0 85 -4t71 -10v-1186q0 -59 -37 -101t-140 -42q-43 0 -84.5 4t-70.5 10zM-4 1663q0 51 35 96t100 74l389 -338q-39 -43 -86 -67.5t-102 -24.5q-70 0 -143 43l-74 47q-61 35 -90 79t-29 91z" />
<glyph unicode="&#xcd;" horiz-adv-x="573" d="M121 6v1186q0 59 37 101t139 42q43 0 85 -4t71 -10v-1186q0 -59 -37 -101t-140 -42q-43 0 -84.5 4t-70.5 10zM62 1493l391 338q66 -29 100.5 -74t34.5 -96q0 -47 -29.5 -91t-89.5 -79l-73 -47q-74 -43 -144 -43q-55 0 -103 24.5t-87 67.5z" />
<glyph unicode="&#xce;" horiz-adv-x="573" d="M121 6v1186q0 59 37 101t139 42q43 0 85 -4t71 -10v-1186q0 -59 -37 -101t-140 -42q-43 0 -84.5 4t-70.5 10zM-78 1421l199 323q33 14 78 22.5t80 8.5q78 0 121 -18.5t67 -59.5l166 -276q-25 -10 -61.5 -18.5t-71.5 -8.5q-53 0 -90 15.5t-57 54.5l-74 147l-76 -147 q-20 -39 -57 -54.5t-90 -15.5q-35 0 -72 8.5t-62 18.5z" />
<glyph unicode="&#xcf;" horiz-adv-x="573" d="M113 6v1186q0 59 37 101t139 42q43 0 85 -4t71 -10v-1186q0 -59 -37 -101t-140 -42q-43 0 -84.5 4t-70.5 10zM-84 1571q0 68 46 116t112 48q68 0 116 -48.5t48 -115.5q0 -66 -48.5 -112t-115.5 -46q-66 0 -112 46t-46 112zM322 1571q0 68 47 116t112 48q68 0 115 -48.5 t47 -115.5q0 -66 -47 -112t-115 -46q-33 0 -62.5 12.5t-51 34t-33.5 50t-12 61.5z" />
<glyph unicode="&#xd0;" horiz-adv-x="1392" d="M25 662q0 78 31.5 106.5t78.5 28.5h31v370q0 35 7 66t26.5 52.5t55.5 33.5t93 12h256q174 0 310.5 -46t231.5 -132t145 -207t50 -270q0 -141 -50 -264t-146 -214.5t-235.5 -144.5t-319.5 -53h-242q-57 0 -93 12.5t-55.5 34t-26.5 52t-7 65.5v375h-129q-4 20 -8 54t-4 69z M500 289h121q82 0 151.5 24.5t120.5 73.5t79.5 122t28.5 169q0 92 -30.5 159.5t-85 113.5t-127 68.5t-158.5 22.5h-100v-245h223q4 -20 8 -53t4 -68q0 -82 -39 -109.5t-92 -27.5h-104v-250z" />
<glyph unicode="&#xd1;" horiz-adv-x="1421" d="M121 6v1305q31 10 80 17t84 7q113 0 164 -28.5t86 -83.5l464 -731v712q0 27 7.5 50.5t25 42t48 28.5t77.5 10q41 0 79 -4t64 -8v-1307q-29 -14 -69.5 -19t-79.5 -5q-96 0 -143 26.5t-78 73.5l-498 795v-760q0 -57 -35 -96t-131 -39q-41 0 -79.5 4t-65.5 10zM339 1465 q27 123 86.5 193.5t151.5 70.5q45 0 81 -16.5t65 -34.5l57 -35q27 -16 53 -17q25 0 38 13.5t25.5 31t29 31t46.5 13.5q29 0 55.5 -11.5t47.5 -34.5q-37 -129 -91.5 -196.5t-146.5 -67.5q-43 0 -77.5 16.5t-65.5 35.5l-59 34q-28 16 -54 17q-25 0 -38 -13.5t-25.5 -31 t-28.5 -30.5t-47 -13q-29 0 -56 11t-47 34z" />
<glyph unicode="&#xd2;" horiz-adv-x="1458" d="M51 670q0 143 48 269t137.5 219t214 146.5t278.5 53.5t279 -53.5t214 -146.5t137 -219t48 -269q0 -145 -48 -272.5t-137 -221.5t-214 -149.5t-279 -55.5t-278.5 55.5t-214 149.5t-137.5 221.5t-48 272.5zM395 668q0 -86 25.5 -160t70 -128t104.5 -84t132 -30 q70 0 131.5 31t107.5 85t71.5 127t25.5 157t-24.5 156.5t-68.5 125.5t-105.5 84t-135.5 31q-72 0 -132 -29.5t-105.5 -83t-71 -126t-25.5 -156.5zM399 1663q0 51 35 96t100 74l389 -338q-39 -43 -86 -67.5t-102 -24.5q-70 0 -143 43l-74 47q-61 35 -90 79t-29 91z" />
<glyph unicode="&#xd3;" horiz-adv-x="1458" d="M51 670q0 143 48 269t137.5 219t214 146.5t278.5 53.5t279 -53.5t214 -146.5t137 -219t48 -269q0 -145 -48 -272.5t-137 -221.5t-214 -149.5t-279 -55.5t-278.5 55.5t-214 149.5t-137.5 221.5t-48 272.5zM395 668q0 -86 25.5 -160t70 -128t104.5 -84t132 -30 q70 0 131.5 31t107.5 85t71.5 127t25.5 157t-24.5 156.5t-68.5 125.5t-105.5 84t-135.5 31q-72 0 -132 -29.5t-105.5 -83t-71 -126t-25.5 -156.5zM479 1495l391 338q66 -29 100.5 -74t34.5 -96q0 -47 -29.5 -91t-89.5 -79l-73 -47q-74 -43 -144 -43q-55 0 -103 24.5 t-87 67.5z" />
<glyph unicode="&#xd4;" horiz-adv-x="1458" d="M51 670q0 143 48 269t137.5 219t214 146.5t278.5 53.5t279 -53.5t214 -146.5t137 -219t48 -269q0 -145 -48 -272.5t-137 -221.5t-214 -149.5t-279 -55.5t-278.5 55.5t-214 149.5t-137.5 221.5t-48 272.5zM395 668q0 -86 25.5 -160t70 -128t104.5 -84t132 -30 q70 0 131.5 31t107.5 85t71.5 127t25.5 157t-24.5 156.5t-68.5 125.5t-105.5 84t-135.5 31q-72 0 -132 -29.5t-105.5 -83t-71 -126t-25.5 -156.5zM370 1421l199 323q33 14 78 22.5t80 8.5q78 0 121 -18.5t67 -59.5l166 -276q-25 -10 -61.5 -18.5t-71.5 -8.5q-53 0 -90 15.5 t-57 54.5l-74 147l-76 -147q-20 -39 -57 -54.5t-90 -15.5q-35 0 -72 8.5t-62 18.5z" />
<glyph unicode="&#xd5;" horiz-adv-x="1458" d="M51 670q0 143 48 269t137.5 219t214 146.5t278.5 53.5t279 -53.5t214 -146.5t137 -219t48 -269q0 -145 -48 -272.5t-137 -221.5t-214 -149.5t-279 -55.5t-278.5 55.5t-214 149.5t-137.5 221.5t-48 272.5zM395 668q0 -86 25.5 -160t70 -128t104.5 -84t132 -30 q70 0 131.5 31t107.5 85t71.5 127t25.5 157t-24.5 156.5t-68.5 125.5t-105.5 84t-135.5 31q-72 0 -132 -29.5t-105.5 -83t-71 -126t-25.5 -156.5zM364 1467q27 123 86.5 193.5t151.5 70.5q45 0 81 -16.5t65 -34.5l57 -35q27 -16 53 -17q25 0 38 13.5t25.5 31t29 31 t46.5 13.5q29 0 55.5 -11.5t47.5 -34.5q-37 -129 -91.5 -196.5t-146.5 -67.5q-43 0 -77.5 16.5t-65.5 35.5l-59 34q-28 16 -54 17q-25 0 -38 -13.5t-25.5 -31t-28.5 -30.5t-47 -13q-29 0 -56 11t-47 34z" />
<glyph unicode="&#xd6;" horiz-adv-x="1458" d="M51 670q0 143 48 269t137.5 219t214 146.5t278.5 53.5t279 -53.5t214 -146.5t137 -219t48 -269q0 -145 -48 -272.5t-137 -221.5t-214 -149.5t-279 -55.5t-278.5 55.5t-214 149.5t-137.5 221.5t-48 272.5zM395 668q0 -86 25.5 -160t70 -128t104.5 -84t132 -30 q70 0 131.5 31t107.5 85t71.5 127t25.5 157t-24.5 156.5t-68.5 125.5t-105.5 84t-135.5 31q-72 0 -132 -29.5t-105.5 -83t-71 -126t-25.5 -156.5zM364 1571q0 68 46 116t112 48q68 0 116 -48.5t48 -115.5q0 -66 -48.5 -112t-115.5 -46q-66 0 -112 46t-46 112zM770 1571 q0 68 47 116t112 48q68 0 115 -48.5t47 -115.5q0 -66 -47 -112t-115 -46q-33 0 -62.5 12.5t-51 34t-33.5 50t-12 61.5z" />
<glyph unicode="&#xd7;" d="M150 201l303 299l-240 237q-16 16 -25.5 32.5t-9.5 39.5q0 47 53 102q23 23 47.5 41.5t43.5 30.5l307 -307l239 244q35 35 74 34q23 0 48.5 -12t53.5 -41q27 -27 43.5 -48.5t26.5 -39.5l-311 -313l237 -234q35 -35 35 -73q0 -23 -11 -45.5t-40 -51.5q-25 -25 -49.5 -45 t-42.5 -31l-303 306l-234 -232q-35 -35 -73 -35q-23 0 -48.5 12.5t-54.5 41.5q-27 27 -43 48.5t-26 39.5z" />
<glyph unicode="&#xd8;" horiz-adv-x="1452" d="M49 670q0 143 49 268t138.5 217t213 145.5t275.5 53.5q184 0 328 -78l41 55q16 23 45.5 42.5t83.5 19.5q43 0 83 -8.5t70 -18.5l-157 -215q88 -92 136 -215t48 -266q0 -145 -49 -271.5t-138.5 -219.5t-214 -147.5t-276.5 -54.5q-88 0 -168 19.5t-149 54.5l-62 -67 q-37 -39 -108 -39q-88 0 -154 26l156 205q-92 94 -141.5 220.5t-49.5 273.5zM391 668q0 -125 55 -215l418 571q-31 16 -65.5 26.5t-73.5 10.5q-70 0 -131.5 -30t-106.5 -82t-70.5 -124.5t-25.5 -156.5zM596 301q53 -33 129 -33q66 0 126 30t106.5 82t74 125t27.5 161 q0 113 -51 202z" />
<glyph unicode="&#xd9;" horiz-adv-x="1345" d="M98 553v639q0 59 37 101t139 42q43 0 85 -4t71 -10v-770q0 -133 65.5 -208t178.5 -75q111 0 178.5 75t67.5 208v641q0 59 36.5 101t139.5 42q43 0 84 -4t69 -10v-768q0 -121 -42 -226.5t-115.5 -185.5t-180 -126t-239.5 -46q-135 0 -241.5 46t-180.5 126t-113 185.5 t-39 226.5zM365 1663q0 51 35 96t100 74l389 -338q-39 -43 -86 -67.5t-102 -24.5q-70 0 -143 43l-74 47q-61 35 -90 79t-29 91z" />
<glyph unicode="&#xda;" horiz-adv-x="1345" d="M98 553v639q0 59 37 101t139 42q43 0 85 -4t71 -10v-770q0 -133 65.5 -208t178.5 -75q111 0 178.5 75t67.5 208v641q0 59 36.5 101t139.5 42q43 0 84 -4t69 -10v-768q0 -121 -42 -226.5t-115.5 -185.5t-180 -126t-239.5 -46q-135 0 -241.5 46t-180.5 126t-113 185.5 t-39 226.5zM443 1495l391 338q66 -29 100.5 -74t34.5 -96q0 -47 -29.5 -91t-89.5 -79l-73 -47q-74 -43 -144 -43q-55 0 -103 24.5t-87 67.5z" />
<glyph unicode="&#xdb;" horiz-adv-x="1345" d="M98 553v639q0 59 37 101t139 42q43 0 85 -4t71 -10v-770q0 -133 65.5 -208t178.5 -75q111 0 178.5 75t67.5 208v641q0 59 36.5 101t139.5 42q43 0 84 -4t69 -10v-768q0 -121 -42 -226.5t-115.5 -185.5t-180 -126t-239.5 -46q-135 0 -241.5 46t-180.5 126t-113 185.5 t-39 226.5zM317 1421l199 323q33 14 78 22.5t80 8.5q78 0 121 -18.5t67 -59.5l166 -276q-25 -10 -61.5 -18.5t-71.5 -8.5q-53 0 -90 15.5t-57 54.5l-74 147l-76 -147q-20 -39 -57 -54.5t-90 -15.5q-35 0 -72 8.5t-62 18.5z" />
<glyph unicode="&#xdc;" horiz-adv-x="1345" d="M98 553v639q0 59 37 101t139 42q43 0 85 -4t71 -10v-770q0 -133 65.5 -208t178.5 -75q111 0 178.5 75t67.5 208v641q0 59 36.5 101t139.5 42q43 0 84 -4t69 -10v-768q0 -121 -42 -226.5t-115.5 -185.5t-180 -126t-239.5 -46q-135 0 -241.5 46t-180.5 126t-113 185.5 t-39 226.5zM311 1571q0 68 46 116t112 48q68 0 116 -48.5t48 -115.5q0 -66 -48.5 -112t-115.5 -46q-66 0 -112 46t-46 112zM717 1571q0 68 47 116t112 48q68 0 115 -48.5t47 -115.5q0 -66 -47 -112t-115 -46q-33 0 -62.5 12.5t-51 34t-33.5 50t-12 61.5z" />
<glyph unicode="&#xdd;" horiz-adv-x="1284" d="M-8 1300q86 35 205 35q57 0 112.5 -16t96.5 -84l243 -426l252 430q39 63 97.5 79.5t113.5 16.5q41 0 96.5 -8t91.5 -22l-485 -773v-397q0 -59 -37 -101t-139 -42q-43 0 -84 4t-70 10v522zM459 1495l391 338q66 -29 100.5 -74t34.5 -96q0 -47 -29.5 -91t-89.5 -79l-73 -47 q-74 -43 -144 -43q-55 0 -103 24.5t-87 67.5z" />
<glyph unicode="&#xde;" horiz-adv-x="1191" d="M121 6v1186q0 59 37 101t139 42q43 0 85 -4t71 -10v-166h133q150 0 258 -37t179 -101.5t103.5 -149.5t32.5 -181q0 -106 -40 -195.5t-110.5 -154t-169 -100t-216.5 -35.5h-170v-66q0 -59 -37 -101t-140 -42q-43 0 -84.5 4t-70.5 10zM453 481h114q70 0 118 15.5t77 43 t42 63.5t13 79q0 90 -57.5 140t-161.5 50h-145v-391z" />
<glyph unicode="&#xdf;" horiz-adv-x="1341" d="M92 4v997q0 115 40 197t108.5 134t158.5 77t189 25q262 0 401 -118t139 -329q0 -55 -8 -101t-20 -75q-98 -2 -141.5 -26.5t-43.5 -53.5q0 -33 29 -56.5t73 -46.5l94 -49q50 -26 94 -63t73 -87t29 -122q0 -68 -27 -126t-82 -101t-138 -68.5t-196 -25.5q-106 0 -194 17 t-158 40q-2 16 -3 30.5t-1 28.5q0 74 27.5 118t80.5 44q51 0 111.5 -19.5t138.5 -19.5q57 0 91 17.5t36 52.5q0 27 -28.5 48.5t-71.5 43.5l-94 50q-51 28 -94 66t-72 88t-29 120q0 111 67.5 181.5t174.5 98.5q10 78 -51.5 131.5t-178.5 53.5q-115 0 -157.5 -58.5 t-42.5 -169.5v-852q0 -53 -38 -79.5t-147 -26.5q-39 0 -79 5t-60 9z" />
<glyph unicode="&#xe0;" horiz-adv-x="1067" d="M45 287q0 156 106.5 242.5t329.5 86.5q45 0 93.5 -3t101.5 -11v39q0 72 -34 102.5t-122 30.5q-86 0 -155.5 -21.5t-128.5 -21.5q-37 0 -59.5 20.5t-35 52.5t-15.5 74q-1 18 -1 36q0 24 2 49q88 23 189.5 40t218.5 17q125 0 210.5 -26.5t137 -80t74 -132.5t22.5 -183v-215 q0 -55 1 -101t4 -89t8 -87.5t14 -95.5q-25 -8 -67 -14t-95 -6q-78 0 -106.5 31.5t-39.5 76.5q-4 27 -5 39.5t-3 26.5h-4q-41 -74 -122 -126t-199 -52q-74 0 -133.5 23.5t-101.5 65.5t-63.5 96.5t-21.5 115.5zM360 315q0 -45 33 -71.5t88 -26.5q66 0 119 37t80 111v69 q-53 6 -98 6q-102 0 -162 -31t-60 -94zM240 1364q0 51 35 96t100 74l389 -338q-39 -43 -86 -67.5t-102 -24.5q-70 0 -143 43l-74 47q-61 35 -90 79t-29 91z" />
<glyph unicode="&#xe1;" horiz-adv-x="1067" d="M45 287q0 156 106.5 242.5t329.5 86.5q45 0 93.5 -3t101.5 -11v39q0 72 -34 102.5t-122 30.5q-86 0 -155.5 -21.5t-128.5 -21.5q-37 0 -59.5 20.5t-35 52.5t-15.5 74q-1 18 -1 36q0 24 2 49q88 23 189.5 40t218.5 17q125 0 210.5 -26.5t137 -80t74 -132.5t22.5 -183v-215 q0 -55 1 -101t4 -89t8 -87.5t14 -95.5q-25 -8 -67 -14t-95 -6q-78 0 -106.5 31.5t-39.5 76.5q-4 27 -5 39.5t-3 26.5h-4q-41 -74 -122 -126t-199 -52q-74 0 -133.5 23.5t-101.5 65.5t-63.5 96.5t-21.5 115.5zM360 315q0 -45 33 -71.5t88 -26.5q66 0 119 37t80 111v69 q-53 6 -98 6q-102 0 -162 -31t-60 -94zM307 1196l391 338q66 -29 100.5 -74t34.5 -96q0 -47 -29.5 -91t-89.5 -79l-73 -47q-74 -43 -144 -43q-55 0 -103 24.5t-87 67.5z" />
<glyph unicode="&#xe2;" horiz-adv-x="1067" d="M45 287q0 156 106.5 242.5t329.5 86.5q45 0 93.5 -3t101.5 -11v39q0 72 -34 102.5t-122 30.5q-86 0 -155.5 -21.5t-128.5 -21.5q-37 0 -59.5 20.5t-35 52.5t-15.5 74q-1 18 -1 36q0 24 2 49q88 23 189.5 40t218.5 17q125 0 210.5 -26.5t137 -80t74 -132.5t22.5 -183v-215 q0 -55 1 -101t4 -89t8 -87.5t14 -95.5q-25 -8 -67 -14t-95 -6q-78 0 -106.5 31.5t-39.5 76.5q-4 27 -5 39.5t-3 26.5h-4q-41 -74 -122 -126t-199 -52q-74 0 -133.5 23.5t-101.5 65.5t-63.5 96.5t-21.5 115.5zM360 315q0 -45 33 -71.5t88 -26.5q66 0 119 37t80 111v69 q-53 6 -98 6q-102 0 -162 -31t-60 -94zM178 1104l199 323q33 14 78 22.5t80 8.5q78 0 121 -18.5t67 -59.5l166 -276q-25 -10 -61.5 -18.5t-71.5 -8.5q-53 0 -90 15.5t-57 54.5l-74 147l-76 -147q-20 -39 -57 -54.5t-90 -15.5q-35 0 -72 8.5t-62 18.5z" />
<glyph unicode="&#xe3;" horiz-adv-x="1067" d="M45 287q0 156 106.5 242.5t329.5 86.5q45 0 93.5 -3t101.5 -11v39q0 72 -34 102.5t-122 30.5q-86 0 -155.5 -21.5t-128.5 -21.5q-37 0 -59.5 20.5t-35 52.5t-15.5 74q-1 18 -1 36q0 24 2 49q88 23 189.5 40t218.5 17q125 0 210.5 -26.5t137 -80t74 -132.5t22.5 -183v-215 q0 -55 1 -101t4 -89t8 -87.5t14 -95.5q-25 -8 -67 -14t-95 -6q-78 0 -106.5 31.5t-39.5 76.5q-4 27 -5 39.5t-3 26.5h-4q-41 -74 -122 -126t-199 -52q-74 0 -133.5 23.5t-101.5 65.5t-63.5 96.5t-21.5 115.5zM360 315q0 -45 33 -71.5t88 -26.5q66 0 119 37t80 111v69 q-53 6 -98 6q-102 0 -162 -31t-60 -94zM172 1182q27 123 86.5 193.5t151.5 70.5q45 0 81 -16.5t65 -34.5l57 -35q27 -16 53 -17q25 0 38 13.5t25.5 31t29 31t46.5 13.5q29 0 55.5 -11.5t47.5 -34.5q-37 -129 -91.5 -196.5t-146.5 -67.5q-43 0 -77.5 16.5t-65.5 35.5l-59 34 q-28 16 -54 17q-25 0 -38 -13.5t-25.5 -31t-28.5 -30.5t-47 -13q-29 0 -56 11t-47 34z" />
<glyph unicode="&#xe4;" horiz-adv-x="1067" d="M45 287q0 156 106.5 242.5t329.5 86.5q45 0 93.5 -3t101.5 -11v39q0 72 -34 102.5t-122 30.5q-86 0 -155.5 -21.5t-128.5 -21.5q-37 0 -59.5 20.5t-35 52.5t-15.5 74q-1 18 -1 36q0 24 2 49q88 23 189.5 40t218.5 17q125 0 210.5 -26.5t137 -80t74 -132.5t22.5 -183v-215 q0 -55 1 -101t4 -89t8 -87.5t14 -95.5q-25 -8 -67 -14t-95 -6q-78 0 -106.5 31.5t-39.5 76.5q-4 27 -5 39.5t-3 26.5h-4q-41 -74 -122 -126t-199 -52q-74 0 -133.5 23.5t-101.5 65.5t-63.5 96.5t-21.5 115.5zM360 315q0 -45 33 -71.5t88 -26.5q66 0 119 37t80 111v69 q-53 6 -98 6q-102 0 -162 -31t-60 -94zM172 1276q0 68 46 116t112 48q68 0 116 -48.5t48 -115.5q0 -66 -48.5 -112t-115.5 -46q-66 0 -112 46t-46 112zM578 1276q0 68 47 116t112 48q68 0 115 -48.5t47 -115.5q0 -66 -47 -112t-115 -46q-33 0 -62.5 12.5t-51 34t-33.5 50 t-12 61.5z" />
<glyph unicode="&#xe5;" horiz-adv-x="1064" d="M45 287q0 158 108.5 242.5t338.5 84.5q84 0 182 -12v39q0 72 -33 102.5t-123 30.5q-86 0 -155.5 -21.5t-126.5 -21.5q-37 0 -60.5 20.5t-36 52.5t-14.5 74t2 85q88 23 188.5 40t216.5 17q125 0 211 -26.5t138.5 -80t75 -132.5t22.5 -183v-215q0 -55 1 -101t4 -89t7 -87.5 t13 -95.5q-25 -8 -66 -14t-94 -6q-78 0 -111 29.5t-39 99.5l-4 45h-4q-41 -74 -123 -126t-198 -52q-76 0 -135.5 23.5t-100.5 65.5t-62.5 96.5t-21.5 115.5zM297 1319q0 47 18.5 88t51 70.5t76.5 47t96 17.5q49 0 92 -17.5t74.5 -47t50 -70.5t18.5 -88q0 -49 -18.5 -90 t-51 -71t-76.5 -46t-93 -16t-93.5 16t-76 46t-50 71t-18.5 90zM360 315q0 -45 33 -71.5t88 -26.5q66 0 118 37t81 111v69q-53 6 -98 6q-102 0 -162 -31t-60 -94zM440 1319q0 -41 30 -67.5t67 -26.5t65.5 26.5t28.5 67.5t-29 68.5t-65 27.5q-37 0 -67 -27.5t-30 -68.5z" />
<glyph unicode="&#xe6;" horiz-adv-x="1699" d="M45 281q0 158 114.5 241.5t366.5 83.5q37 0 77 -2t81 -6q6 49 -7 82t-38 52.5t-58.5 28.5t-66.5 9q-86 0 -153.5 -17.5t-124.5 -17.5q-37 0 -60.5 19.5t-36 51.5t-15.5 73t1 84q76 23 175 40t198 17q133 0 210.5 -35t127.5 -108q59 72 146 107.5t185 35.5q119 0 209 -41 t151.5 -109.5t92.5 -156.5t31 -183q0 -31 -3 -61.5t-10 -56.5h-667q14 -86 79.5 -134.5t170.5 -48.5q49 0 84.5 6.5l65.5 12.5t55.5 12t50.5 6q53 0 85.5 -38t32.5 -115q0 -14 -1 -28.5t-3 -31.5q-66 -29 -162 -52.5t-212 -23.5q-135 0 -235.5 43t-166.5 121 q-86 -86 -180 -125t-217 -39q-92 0 -162 25t-117 67t-70.5 97.5t-23.5 114.5zM360 309q0 -43 32 -67.5t87 -24.5q66 0 121 24.5t102 84.5q-4 12 -10 46t-6 58q-18 2 -72 2q-135 0 -194.5 -28.5t-59.5 -94.5zM967 596h397q-4 39 -18.5 75t-40 62.5t-60.5 43t-78 16.5 q-88 0 -139 -56.5t-61 -140.5z" />
<glyph unicode="&#xe7;" horiz-adv-x="954" d="M45 498q0 106 38 200.5t105.5 165t161.5 110.5t209 40q117 0 198 -23.5t146 -58.5q12 -104 -17.5 -167t-97.5 -63q-41 0 -85 19.5t-113 19.5q-92 0 -154.5 -61.5t-62.5 -181.5q0 -119 64.5 -180.5t162.5 -61.5q35 0 62.5 6t51 14.5t45 14.5t44.5 6q129 0 112 -225 q-72 -41 -156.5 -63.5t-183.5 -24.5l-14 -33q100 -8 147.5 -64.5t47.5 -124.5q0 -104 -75 -161.5t-192 -57.5q-49 0 -108 16.5t-107 41.5q0 57 21.5 93t56.5 36t62.5 -12.5t72.5 -12.5q33 0 55.5 16.5t22.5 45.5q0 23 -21.5 39t-76.5 16h-18q-35 0 -55.5 27.5t-2.5 72.5 l31 78q-86 20 -155.5 67.5t-119 113t-76 146.5t-26.5 171z" />
<glyph unicode="&#xe8;" horiz-adv-x="1083" d="M45 502q0 111 37 206t103.5 164.5t159.5 108.5t206 39q119 0 209 -41t151.5 -109.5t92 -156.5t30.5 -183q0 -31 -3 -61.5t-9 -56.5h-670q14 -86 81 -134.5t171 -48.5q49 0 85 6.5t64.5 12.5l54.5 12t50 6q53 0 87 -38t34 -113q0 -29 -6 -62q-66 -29 -162 -52.5 t-213 -23.5q-129 0 -231.5 39t-174 109t-109.5 166t-38 211zM346 596h402q-4 39 -18.5 75t-40 62.5t-60.5 43t-78 16.5q-88 0 -141.5 -56.5t-63.5 -140.5zM270 1364q0 51 35 96t100 74l389 -338q-39 -43 -86 -67.5t-102 -24.5q-70 0 -143 43l-74 47q-61 35 -90 79t-29 91z " />
<glyph unicode="&#xe9;" horiz-adv-x="1083" d="M45 502q0 111 37 206t103.5 164.5t159.5 108.5t206 39q119 0 209 -41t151.5 -109.5t92 -156.5t30.5 -183q0 -31 -3 -61.5t-9 -56.5h-670q14 -86 81 -134.5t171 -48.5q49 0 85 6.5t64.5 12.5l54.5 12t50 6q53 0 87 -38t34 -113q0 -29 -6 -62q-66 -29 -162 -52.5 t-213 -23.5q-129 0 -231.5 39t-174 109t-109.5 166t-38 211zM346 596h402q-4 39 -18.5 75t-40 62.5t-60.5 43t-78 16.5q-88 0 -141.5 -56.5t-63.5 -140.5zM314 1196l391 338q66 -29 100.5 -74t34.5 -96q0 -47 -29.5 -91t-89.5 -79l-73 -47q-74 -43 -144 -43q-55 0 -103 24.5 t-87 67.5z" />
<glyph unicode="&#xea;" horiz-adv-x="1083" d="M45 502q0 111 37 206t103.5 164.5t159.5 108.5t206 39q119 0 209 -41t151.5 -109.5t92 -156.5t30.5 -183q0 -31 -3 -61.5t-9 -56.5h-670q14 -86 81 -134.5t171 -48.5q49 0 85 6.5t64.5 12.5l54.5 12t50 6q53 0 87 -38t34 -113q0 -29 -6 -62q-66 -29 -162 -52.5 t-213 -23.5q-129 0 -231.5 39t-174 109t-109.5 166t-38 211zM346 596h402q-4 39 -18.5 75t-40 62.5t-60.5 43t-78 16.5q-88 0 -141.5 -56.5t-63.5 -140.5zM182 1104l199 323q33 14 78 22.5t80 8.5q78 0 121 -18.5t67 -59.5l166 -276q-25 -10 -61.5 -18.5t-71.5 -8.5 q-53 0 -90 15.5t-57 54.5l-74 147l-76 -147q-20 -39 -57 -54.5t-90 -15.5q-35 0 -72 8.5t-62 18.5z" />
<glyph unicode="&#xeb;" horiz-adv-x="1083" d="M45 502q0 111 37 206t103.5 164.5t159.5 108.5t206 39q119 0 209 -41t151.5 -109.5t92 -156.5t30.5 -183q0 -31 -3 -61.5t-9 -56.5h-670q14 -86 81 -134.5t171 -48.5q49 0 85 6.5t64.5 12.5l54.5 12t50 6q53 0 87 -38t34 -113q0 -29 -6 -62q-66 -29 -162 -52.5 t-213 -23.5q-129 0 -231.5 39t-174 109t-109.5 166t-38 211zM346 596h402q-4 39 -18.5 75t-40 62.5t-60.5 43t-78 16.5q-88 0 -141.5 -56.5t-63.5 -140.5zM176 1276q0 68 46 116t112 48q68 0 116 -48.5t48 -115.5q0 -66 -48.5 -112t-115.5 -46q-66 0 -112 46t-46 112z M582 1276q0 68 47 116t112 48q68 0 115 -48.5t47 -115.5q0 -66 -47 -112t-115 -46q-33 0 -62.5 12.5t-51 34t-33.5 50t-12 61.5z" />
<glyph unicode="&#xec;" horiz-adv-x="516" d="M94 4v899q0 53 38 80t147 27q39 0 79.5 -5.5t61.5 -9.5v-899q0 -53 -38 -79.5t-146 -26.5q-39 0 -80.5 5t-61.5 9zM-64 1364q0 51 35 96t100 74l389 -338q-39 -43 -86 -67.5t-102 -24.5q-70 0 -143 43l-74 47q-61 35 -90 79t-29 91z" />
<glyph unicode="&#xed;" horiz-adv-x="516" d="M94 4v899q0 53 38 80t147 27q39 0 79.5 -5.5t61.5 -9.5v-899q0 -53 -38 -79.5t-146 -26.5q-39 0 -80.5 5t-61.5 9zM51 1196l391 338q66 -29 100.5 -74t34.5 -96q0 -47 -29.5 -91t-89.5 -79l-73 -47q-74 -43 -144 -43q-55 0 -103 24.5t-87 67.5z" />
<glyph unicode="&#xee;" horiz-adv-x="516" d="M94 4v899q0 53 38 80t147 27q39 0 79.5 -5.5t61.5 -9.5v-899q0 -53 -38 -79.5t-146 -26.5q-39 0 -80.5 5t-61.5 9zM-95 1104l199 323q33 14 78 22.5t80 8.5q78 0 121 -18.5t67 -59.5l166 -276q-25 -10 -61.5 -18.5t-71.5 -8.5q-53 0 -90 15.5t-57 54.5l-74 147l-76 -147 q-20 -39 -57 -54.5t-90 -15.5q-35 0 -72 8.5t-62 18.5z" />
<glyph unicode="&#xef;" horiz-adv-x="516" d="M94 4v899q0 53 38 80t147 27q39 0 79.5 -5.5t61.5 -9.5v-899q0 -53 -38 -79.5t-146 -26.5q-39 0 -80.5 5t-61.5 9zM-103 1276q0 68 46 116t112 48q68 0 116 -48.5t48 -115.5q0 -66 -48.5 -112t-115.5 -46q-66 0 -112 46t-46 112zM303 1276q0 68 47 116t112 48 q68 0 115 -48.5t47 -115.5q0 -66 -47 -112t-115 -46q-33 0 -62.5 12.5t-51 34t-33.5 50t-12 61.5z" />
<glyph unicode="&#xf0;" horiz-adv-x="1138" d="M45 449q0 102 37 185t97.5 142.5t139 91t164.5 31.5q49 0 88 -5t72 -16.5t64.5 -27.5t66.5 -39q-14 66 -73.5 131.5t-145.5 120.5l-174 -105q-20 -10 -41 -10q-23 0 -43 35q-10 16 -15.5 31.5t-9.5 23.5l156 95q-20 10 -40 18l-40 16q-16 6 -32.5 29t-16.5 57 q0 29 15.5 65t52.5 77q78 -18 153.5 -47t145.5 -70l137 82q23 10 41 10q25 0 41 -33q10 -16 14 -30.5l8 -30.5l-125 -76q141 -111 226.5 -269.5t85.5 -363.5q0 -127 -38 -234.5t-106.5 -186t-167 -124t-219.5 -45.5q-123 0 -220 38t-162.5 102.5t-100.5 150t-35 181.5z M350 457q0 -51 18.5 -91t48 -68t68.5 -43t80 -15q61 0 107.5 28.5t75 75.5t39 107.5t1.5 123.5q-41 47 -94 75t-125 28q-41 0 -80.5 -13.5t-70.5 -41t-49.5 -69.5t-18.5 -97z" />
<glyph unicode="&#xf1;" horiz-adv-x="1155" d="M92 4v991q23 4 65 9.5t85 5.5q92 0 126.5 -33t34.5 -96v-25h5q47 72 128.5 118t180.5 46q76 0 139.5 -25.5t110.5 -79t73.5 -133.5t26.5 -186v-500q0 -53 -38 -79.5t-146 -26.5q-39 0 -79 5t-61 9v553q0 100 -42 147.5t-119 47.5q-49 0 -95.5 -23.5t-70.5 -62.5v-570 q0 -53 -38 -79.5t-147 -26.5q-39 0 -79 5t-60 9zM212 1182q27 123 86.5 193.5t151.5 70.5q45 0 81 -16.5t65 -34.5l57 -35q27 -16 53 -17q25 0 38 13.5t25.5 31t29 31t46.5 13.5q29 0 55.5 -11.5t47.5 -34.5q-37 -129 -91.5 -196.5t-146.5 -67.5q-43 0 -77.5 16.5 t-65.5 35.5l-59 34q-28 16 -54 17q-25 0 -38 -13.5t-25.5 -31t-28.5 -30.5t-47 -13q-29 0 -56 11t-47 34z" />
<glyph unicode="&#xf2;" horiz-adv-x="1144" d="M45 498q0 106 38 201.5t107.5 166t167 111.5t215.5 41q119 0 216.5 -41t166 -111.5t106.5 -166t38 -201.5t-37 -200.5t-106.5 -165.5t-167 -113t-216.5 -42t-216 41t-166.5 112t-107.5 166.5t-38 201.5zM350 498q0 -63 20.5 -111.5t52.5 -81.5t72 -49t78 -16q39 0 78 16 t72 49t53.5 81t20.5 112q0 59 -18.5 108t-49.5 83t-72 52.5t-84 18.5t-82.5 -18.5t-71.5 -52.5t-50.5 -83t-18.5 -108zM258 1364q0 51 35 96t100 74l389 -338q-39 -43 -86 -67.5t-102 -24.5q-70 0 -143 43l-74 47q-61 35 -90 79t-29 91z" />
<glyph unicode="&#xf3;" horiz-adv-x="1144" d="M45 498q0 106 38 201.5t107.5 166t167 111.5t215.5 41q119 0 216.5 -41t166 -111.5t106.5 -166t38 -201.5t-37 -200.5t-106.5 -165.5t-167 -113t-216.5 -42t-216 41t-166.5 112t-107.5 166.5t-38 201.5zM350 498q0 -63 20.5 -111.5t52.5 -81.5t72 -49t78 -16q39 0 78 16 t72 49t53.5 81t20.5 112q0 59 -18.5 108t-49.5 83t-72 52.5t-84 18.5t-82.5 -18.5t-71.5 -52.5t-50.5 -83t-18.5 -108zM340 1196l391 338q66 -29 100.5 -74t34.5 -96q0 -47 -29.5 -91t-89.5 -79l-73 -47q-74 -43 -144 -43q-55 0 -103 24.5t-87 67.5z" />
<glyph unicode="&#xf4;" horiz-adv-x="1144" d="M45 498q0 106 38 201.5t107.5 166t167 111.5t215.5 41q119 0 216.5 -41t166 -111.5t106.5 -166t38 -201.5t-37 -200.5t-106.5 -165.5t-167 -113t-216.5 -42t-216 41t-166.5 112t-107.5 166.5t-38 201.5zM350 498q0 -63 20.5 -111.5t52.5 -81.5t72 -49t78 -16q39 0 78 16 t72 49t53.5 81t20.5 112q0 59 -18.5 108t-49.5 83t-72 52.5t-84 18.5t-82.5 -18.5t-71.5 -52.5t-50.5 -83t-18.5 -108zM215 1104l199 323q33 14 78 22.5t80 8.5q78 0 121 -18.5t67 -59.5l166 -276q-25 -10 -61.5 -18.5t-71.5 -8.5q-53 0 -90 15.5t-57 54.5l-74 147l-76 -147 q-20 -39 -57 -54.5t-90 -15.5q-35 0 -72 8.5t-62 18.5z" />
<glyph unicode="&#xf5;" horiz-adv-x="1144" d="M45 498q0 106 38 201.5t107.5 166t167 111.5t215.5 41q119 0 216.5 -41t166 -111.5t106.5 -166t38 -201.5t-37 -200.5t-106.5 -165.5t-167 -113t-216.5 -42t-216 41t-166.5 112t-107.5 166.5t-38 201.5zM350 498q0 -63 20.5 -111.5t52.5 -81.5t72 -49t78 -16q39 0 78 16 t72 49t53.5 81t20.5 112q0 59 -18.5 108t-49.5 83t-72 52.5t-84 18.5t-82.5 -18.5t-71.5 -52.5t-50.5 -83t-18.5 -108zM208 1151q27 123 86.5 193.5t151.5 70.5q45 0 81 -16.5t65 -34.5l57 -35q27 -16 53 -17q25 0 38 13.5t25.5 31t29 31t46.5 13.5q29 0 55.5 -11.5 t47.5 -34.5q-37 -129 -91.5 -196.5t-146.5 -67.5q-43 0 -77.5 16.5t-65.5 35.5l-59 34q-28 16 -54 17q-25 0 -38 -13.5t-25.5 -31t-28.5 -30.5t-47 -13q-29 0 -56 11t-47 34z" />
<glyph unicode="&#xf6;" horiz-adv-x="1144" d="M45 498q0 106 38 201.5t107.5 166t167 111.5t215.5 41q119 0 216.5 -41t166 -111.5t106.5 -166t38 -201.5t-37 -200.5t-106.5 -165.5t-167 -113t-216.5 -42t-216 41t-166.5 112t-107.5 166.5t-38 201.5zM350 498q0 -63 20.5 -111.5t52.5 -81.5t72 -49t78 -16q39 0 78 16 t72 49t53.5 81t20.5 112q0 59 -18.5 108t-49.5 83t-72 52.5t-84 18.5t-82.5 -18.5t-71.5 -52.5t-50.5 -83t-18.5 -108zM209 1276q0 68 46 116t112 48q68 0 116 -48.5t48 -115.5q0 -66 -48.5 -112t-115.5 -46q-66 0 -112 46t-46 112zM615 1276q0 68 47 116t112 48 q68 0 115 -48.5t47 -115.5q0 -66 -47 -112t-115 -46q-33 0 -62.5 12.5t-51 34t-33.5 50t-12 61.5z" />
<glyph unicode="&#xf7;" d="M115 514q0 78 32.5 108.5t79.5 30.5h901q4 -20 8.5 -47.5t4.5 -64.5q0 -78 -33 -109t-80 -31h-901q-4 20 -8 48t-4 65zM477 907q0 66 46 112t112 46t111 -46t45 -112q0 -63 -45.5 -109t-110.5 -46q-66 0 -112 46t-46 109zM479 156q0 66 45 110.5t109 44.5q66 0 112 -45 t46 -110q0 -66 -46.5 -111t-111.5 -45q-63 0 -108.5 45t-45.5 111z" />
<glyph unicode="&#xf8;" horiz-adv-x="1153" d="M49 498q0 106 38 201.5t107.5 166t167 111.5t216.5 41q129 0 231 -49l43 63q35 49 104 49q59 0 107 -20l-123 -178q78 -72 121 -171.5t43 -213.5q0 -106 -38 -200.5t-106.5 -165.5t-166 -113t-215.5 -42q-66 0 -123.5 12.5t-106.5 35.5l-37 -52q-20 -27 -43.5 -38 t-60.5 -11q-33 0 -59.5 6.5t-49.5 14.5l115 168q-78 72 -121 170t-43 215zM352 498q0 -41 9.5 -74t25.5 -59l266 378q-33 16 -75 17q-45 0 -86 -18.5t-72 -53.5t-49.5 -83t-18.5 -107zM506 256q31 -16 72 -16q45 0 84.5 17t70.5 51t49.5 82t18.5 108q0 35 -8.5 69.5 t-26.5 63.5z" />
<glyph unicode="&#xf9;" horiz-adv-x="1157" d="M86 406v497q0 53 38 80t146 27q39 0 79 -5.5t61 -9.5v-553q0 -98 44 -144t117 -46q49 0 93.5 23.5t72.5 66.5v561q0 53 38 80t147 27q39 0 79.5 -5.5t61.5 -9.5v-506q0 -57 1 -110t3 -109.5t6 -120t10 -139.5q-23 -6 -65.5 -13t-95.5 -7q-51 0 -83 16.5t-49.5 42 t-25.5 55t-10 56.5h-4q-47 -76 -120 -127t-190 -51q-74 0 -138 24.5t-112.5 76.5t-76 132t-27.5 191zM346 1364q0 51 35 96t100 74l389 -338q-39 -43 -86 -67.5t-102 -24.5q-70 0 -143 43l-74 47q-61 35 -90 79t-29 91z" />
<glyph unicode="&#xfa;" horiz-adv-x="1157" d="M86 406v497q0 53 38 80t146 27q39 0 79 -5.5t61 -9.5v-553q0 -98 44 -144t117 -46q49 0 93.5 23.5t72.5 66.5v561q0 53 38 80t147 27q39 0 79.5 -5.5t61.5 -9.5v-506q0 -57 1 -110t3 -109.5t6 -120t10 -139.5q-23 -6 -65.5 -13t-95.5 -7q-51 0 -83 16.5t-49.5 42 t-25.5 55t-10 56.5h-4q-47 -76 -120 -127t-190 -51q-74 0 -138 24.5t-112.5 76.5t-76 132t-27.5 191zM365 1196l391 338q66 -29 100.5 -74t34.5 -96q0 -47 -29.5 -91t-89.5 -79l-73 -47q-74 -43 -144 -43q-55 0 -103 24.5t-87 67.5z" />
<glyph unicode="&#xfb;" horiz-adv-x="1157" d="M86 406v497q0 53 38 80t146 27q39 0 79 -5.5t61 -9.5v-553q0 -98 44 -144t117 -46q49 0 93.5 23.5t72.5 66.5v561q0 53 38 80t147 27q39 0 79.5 -5.5t61.5 -9.5v-506q0 -57 1 -110t3 -109.5t6 -120t10 -139.5q-23 -6 -65.5 -13t-95.5 -7q-51 0 -83 16.5t-49.5 42 t-25.5 55t-10 56.5h-4q-47 -76 -120 -127t-190 -51q-74 0 -138 24.5t-112.5 76.5t-76 132t-27.5 191zM221 1104l199 323q33 14 78 22.5t80 8.5q78 0 121 -18.5t67 -59.5l166 -276q-25 -10 -61.5 -18.5t-71.5 -8.5q-53 0 -90 15.5t-57 54.5l-74 147l-76 -147 q-20 -39 -57 -54.5t-90 -15.5q-35 0 -72 8.5t-62 18.5z" />
<glyph unicode="&#xfc;" horiz-adv-x="1157" d="M86 406v497q0 53 38 80t146 27q39 0 79 -5.5t61 -9.5v-553q0 -98 44 -144t117 -46q49 0 93.5 23.5t72.5 66.5v561q0 53 38 80t147 27q39 0 79.5 -5.5t61.5 -9.5v-506q0 -57 1 -110t3 -109.5t6 -120t10 -139.5q-23 -6 -65.5 -13t-95.5 -7q-51 0 -83 16.5t-49.5 42 t-25.5 55t-10 56.5h-4q-47 -76 -120 -127t-190 -51q-74 0 -138 24.5t-112.5 76.5t-76 132t-27.5 191zM215 1276q0 68 46 116t112 48q68 0 116 -48.5t48 -115.5q0 -66 -48.5 -112t-115.5 -46q-66 0 -112 46t-46 112zM621 1276q0 68 47 116t112 48q68 0 115 -48.5t47 -115.5 q0 -66 -47 -112t-115 -46q-33 0 -62.5 12.5t-51 34t-33.5 50t-12 61.5z" />
<glyph unicode="&#xfd;" horiz-adv-x="1044" d="M-14 983q33 12 83 19.5t97 7.5q51 0 101 -19.5t77 -89.5l82 -231q33 -92 60.5 -180.5t41.5 -170.5h2q23 86 49.5 170t61.5 181l88 252q20 55 67.5 71.5t94.5 16.5q43 0 91 -7.5t79 -19.5l-518 -1284q-25 -59 -69 -76.5t-99 -17.5q-47 0 -90 7t-76 21l174 383zM322 1196 l391 338q66 -29 100.5 -74t34.5 -96q0 -47 -29.5 -91t-89.5 -79l-73 -47q-74 -43 -144 -43q-55 0 -103 24.5t-87 67.5z" />
<glyph unicode="&#xfe;" horiz-adv-x="1187" d="M92 -379v1669q0 53 38 80t146 27q39 0 79 -5.5t61 -9.5v-481q47 47 115.5 83t179.5 36q72 0 148.5 -31t139 -94.5t103.5 -159.5t41 -225q0 -111 -34 -206t-92.5 -165.5t-137 -111.5t-170.5 -41q-100 0 -175 36.5t-118 108.5v-418q0 -53 -38 -79.5t-147 -26.5q-39 0 -79 5 t-60 9zM416 432q0 -80 53 -127t129 -47q92 0 153.5 63.5t61.5 186.5q0 51 -14.5 96t-43 79t-69.5 53.5t-92 19.5q-61 0 -106.5 -27t-71.5 -70v-227z" />
<glyph unicode="&#xff;" horiz-adv-x="1044" d="M-14 983q33 12 83 19.5t97 7.5q51 0 101 -19.5t77 -89.5l82 -231q33 -92 60.5 -180.5t41.5 -170.5h2q23 86 49.5 170t61.5 181l88 252q20 55 67.5 71.5t94.5 16.5q43 0 91 -7.5t79 -19.5l-518 -1284q-25 -59 -69 -76.5t-99 -17.5q-47 0 -90 7t-76 21l174 383zM160 1276 q0 68 46 116t112 48q68 0 116 -48.5t48 -115.5q0 -66 -48.5 -112t-115.5 -46q-66 0 -112 46t-46 112zM566 1276q0 68 47 116t112 48q68 0 115 -48.5t47 -115.5q0 -66 -47 -112t-115 -46q-33 0 -62.5 12.5t-51 34t-33.5 50t-12 61.5z" />
<glyph unicode="&#x131;" horiz-adv-x="516" d="M94 4v899q0 53 38 80t147 27q39 0 79.5 -5.5t61.5 -9.5v-899q0 -53 -38 -79.5t-146 -26.5q-39 0 -80.5 5t-61.5 9z" />
<glyph unicode="&#x152;" horiz-adv-x="1873" d="M51 670q0 143 49.5 268t138.5 217t214 145.5t276 53.5q51 0 92 -3t77 -8.5t71 -8.5t71 -3h734q4 -23 8 -58.5t4 -76.5q0 -86 -35 -119t-88 -33h-418v-245h484q4 -20 8 -54t4 -73q0 -82 -33 -112t-84 -30h-379v-243h551q4 -23 8 -60t4 -75q0 -88 -34.5 -120t-87.5 -32 h-644q-72 0 -143.5 -11.5t-169.5 -11.5q-152 0 -275.5 54.5t-213.5 147.5t-139.5 219.5t-49.5 271.5zM395 668q0 -86 25.5 -160t72 -126t110 -82t138.5 -30q59 0 98.5 8.5t73.5 24.5v727q-33 12 -72.5 20.5t-99.5 8.5q-76 0 -139 -30t-109.5 -82t-72 -123.5t-25.5 -155.5z " />
<glyph unicode="&#x153;" horiz-adv-x="1820" d="M45 498q0 106 38 201.5t107.5 166t167 111.5t215.5 41q117 0 207 -42t154 -102q59 61 149.5 103.5t204.5 42.5q119 0 209 -41t151.5 -109.5t92.5 -156.5t31 -183q0 -31 -3.5 -61.5t-9.5 -56.5h-669q14 -86 80.5 -134.5t170.5 -48.5q49 0 85 6.5t65 12.5t54.5 12t49.5 6 q53 0 87 -38t34 -113q0 -29 -6 -62q-66 -29 -162 -52.5t-213 -23.5q-131 0 -230 42t-165 108q-66 -63 -156 -106.5t-211 -43.5q-119 0 -216 41t-166.5 112t-107.5 166.5t-38 201.5zM350 498q0 -63 20.5 -111.5t52.5 -81.5t72 -49t78 -16q39 0 78 16t72 49t53.5 81t20.5 112 q0 59 -18.5 108t-49.5 83t-72 52.5t-84 18.5t-82.5 -18.5t-71.5 -52.5t-50.5 -83t-18.5 -108zM1083 596h402q-4 39 -18.5 75t-40 62.5t-60.5 43t-78 16.5q-88 0 -141.5 -56.5t-63.5 -140.5z" />
<glyph unicode="&#x160;" horiz-adv-x="1148" d="M63 950q0 68 24 139.5t83 130t159.5 96.5t256.5 38q106 0 216.5 -18.5t231.5 -59.5q1 -19 1 -36q0 -88 -25 -146q-31 -70 -115 -70q-33 0 -65.5 6l-70.5 12.5t-84 12.5t-106 6q-111 0 -150.5 -33t-39.5 -70q0 -39 35 -63.5t127 -46.5l172 -45q389 -102 389 -402 q0 -94 -31 -171.5t-97.5 -134t-170 -87.5t-248.5 -31q-106 0 -235.5 18.5t-251.5 59.5q0 13 -1 26q0 95 27 160q31 73 117 72q33 0 71 -7l83 -15q45 -8 96 -15.5t110 -7.5q100 0 146.5 32t46.5 83q0 47 -45 71.5t-121 47.5l-156 41q-106 29 -179 71.5t-117 96t-63.5 113.5 t-19.5 126zM237 1760q25 10 61.5 18t71.5 8q53 0 90 -15t58 -54l73 -148l76 148q20 39 57 54t91 15q35 0 71.5 -8t61.5 -18l-199 -324q-33 -14 -78 -22.5t-80 -8.5q-78 0 -120.5 18.5t-67.5 59.5z" />
<glyph unicode="&#x161;" horiz-adv-x="976" d="M51 55q-4 29 -3 55q0 62 21 105q30 61 97 61q29 0 63 -8l75 -17q40 -9 85 -16.5t92 -7.5q74 0 105.5 19.5t31.5 48.5t-26.5 45t-91.5 33l-125 28q-92 23 -154.5 53.5t-100.5 69.5t-53.5 83t-15.5 93q0 68 25.5 126.5t78 101.5t133.5 67.5t191 24.5q92 0 195.5 -15.5 t204.5 -50.5q3 -25 2 -47q0 -63 -21 -107q-29 -60 -96 -61q-29 0 -58.5 7.5t-64.5 14.5t-74 14t-86 7q-63 0 -91 -18.5t-28 -44.5q0 -20 15.5 -36.5t87.5 -35.5l151 -37q172 -41 243 -114.5t71 -184.5q0 -66 -23.5 -125t-76 -104t-138.5 -70.5t-211 -25.5q-94 0 -211 17 t-219 52zM135 1434q25 10 61.5 18t71.5 8q53 0 90 -15t58 -54l73 -148l76 148q20 39 57 54t91 15q35 0 71.5 -8t61.5 -18l-199 -324q-33 -14 -78 -22.5t-80 -8.5q-78 0 -120.5 18.5t-67.5 59.5z" />
<glyph unicode="&#x178;" horiz-adv-x="1284" d="M-8 1300q86 35 205 35q57 0 112.5 -16t96.5 -84l243 -426l252 430q39 63 97.5 79.5t113.5 16.5q41 0 96.5 -8t91.5 -22l-485 -773v-397q0 -59 -37 -101t-139 -42q-43 0 -84 4t-70 10v522zM278 1626q0 68 46 116t112 48q68 0 116 -48.5t48 -115.5q0 -66 -48.5 -112 t-115.5 -46q-66 0 -112 46t-46 112zM684 1626q0 68 47 116t112 48q68 0 115 -48.5t47 -115.5q0 -66 -47 -112t-115 -46q-33 0 -62.5 12.5t-51 34t-33.5 50t-12 61.5z" />
<glyph unicode="&#x17d;" horiz-adv-x="1138" d="M59 131q0 49 16.5 96t55.5 101l526 704h-469q-53 0 -90 33t-37 125q0 41 4.5 80t8.5 61h979q6 -23 10 -58.5t4 -72.5q0 -43 -16.5 -93t-55.5 -101l-528 -707h598q4 -23 8 -61.5t4 -79.5q0 -92 -35.5 -125t-91.5 -33h-876l-9.5 57.5t-5.5 73.5zM217 1760q25 10 61.5 18 t71.5 8q53 0 90 -15t58 -54l73 -148l76 148q20 39 57 54t91 15q35 0 71.5 -8t61.5 -18l-199 -324q-33 -14 -78 -22.5t-80 -8.5q-78 0 -120.5 18.5t-67.5 59.5z" />
<glyph unicode="&#x17e;" horiz-adv-x="958" d="M49 121q0 47 13.5 91t52.5 91l391 438h-336q-47 0 -79 29t-32 107q0 35 4.5 67.5t8.5 52.5h813q4 -20 8 -53t4 -67q0 -41 -12.5 -88.5t-53.5 -92.5l-391 -442h457q4 -18 8 -51t4 -68q0 -78 -31.5 -106.5t-78.5 -28.5h-738q-4 20 -8 53t-4 68zM129 1434q25 10 61.5 18 t71.5 8q53 0 90 -15t58 -54l73 -148l76 148q20 39 57 54t91 15q35 0 71.5 -8t61.5 -18l-199 -324q-33 -14 -78 -22.5t-80 -8.5q-78 0 -120.5 18.5t-67.5 59.5z" />
<glyph unicode="&#x192;" horiz-adv-x="817" d="M-309 -252q0 109 40 170.5t107 61.5q41 0 71 -12.5t73 -12.5q86 0 100 100l100 684h-176q-4 18 -7 48t-3 59q0 72 28.5 97.5t71.5 25.5h119l14 100q27 180 138.5 272.5t291.5 92.5q86 0 163 -15.5t136 -42.5q-10 -117 -49 -170t-104 -53q-18 0 -34.5 3t-33 8t-36 8.5 t-46.5 3.5q-45 0 -74.5 -32t-37.5 -95l-13 -80h250q4 -18 7.5 -48t3.5 -59q0 -72 -29 -97.5t-72 -25.5h-190l-103 -696q-27 -186 -130 -272t-275 -86q-80 0 -161 19t-140 44z" />
<glyph unicode="&#x2c6;" horiz-adv-x="966" d="M147 1104l199 323q33 14 78 22.5t80 8.5q78 0 121 -18.5t67 -59.5l166 -276q-25 -10 -61.5 -18.5t-71.5 -8.5q-53 0 -90 15.5t-57 54.5l-74 147l-76 -147q-20 -39 -57 -54.5t-90 -15.5q-35 0 -72 8.5t-62 18.5z" />
<glyph unicode="&#x2dc;" horiz-adv-x="937" d="M106 1182q27 123 86.5 193.5t151.5 70.5q45 0 81 -16.5t65 -34.5l57 -35q27 -16 53 -17q25 0 38 13.5t25.5 31t29 31t46.5 13.5q29 0 55.5 -11.5t47.5 -34.5q-37 -129 -91.5 -196.5t-146.5 -67.5q-43 0 -77.5 16.5t-65.5 35.5l-59 34q-28 16 -54 17q-25 0 -38 -13.5 t-25.5 -31t-28.5 -30.5t-47 -13q-29 0 -56 11t-47 34z" />
<glyph unicode="&#x2000;" horiz-adv-x="917" />
<glyph unicode="&#x2001;" horiz-adv-x="1837" />
<glyph unicode="&#x2002;" horiz-adv-x="917" />
<glyph unicode="&#x2003;" horiz-adv-x="1837" />
<glyph unicode="&#x2004;" horiz-adv-x="612" />
<glyph unicode="&#x2005;" horiz-adv-x="458" />
<glyph unicode="&#x2006;" horiz-adv-x="305" />
<glyph unicode="&#x2007;" horiz-adv-x="305" />
<glyph unicode="&#x2008;" horiz-adv-x="229" />
<glyph unicode="&#x2009;" horiz-adv-x="366" />
<glyph unicode="&#x200a;" horiz-adv-x="100" />
<glyph unicode="&#x2010;" horiz-adv-x="770" d="M59 522q0 86 35 118t88 32h514q4 -23 9.5 -58.5t5.5 -74.5q0 -86 -35 -118t-88 -32h-514q-4 23 -9.5 58.5t-5.5 74.5z" />
<glyph unicode="&#x2011;" horiz-adv-x="770" d="M59 522q0 86 35 118t88 32h514q4 -23 9.5 -58.5t5.5 -74.5q0 -86 -35 -118t-88 -32h-514q-4 23 -9.5 58.5t-5.5 74.5z" />
<glyph unicode="&#x2012;" horiz-adv-x="770" d="M59 522q0 86 35 118t88 32h514q4 -23 9.5 -58.5t5.5 -74.5q0 -86 -35 -118t-88 -32h-514q-4 23 -9.5 58.5t-5.5 74.5z" />
<glyph unicode="&#x2013;" horiz-adv-x="985" d="M59 522q0 86 35 118t88 32h729q4 -23 9.5 -58.5t5.5 -74.5q0 -86 -36 -118t-87 -32h-729q-4 23 -9.5 58.5t-5.5 74.5z" />
<glyph unicode="&#x2014;" horiz-adv-x="1409" d="M59 522q0 86 35 118t88 32h1155q4 -23 8.5 -58.5t4.5 -74.5q0 -86 -35 -118t-86 -32h-1155q-4 23 -9.5 58.5t-5.5 74.5z" />
<glyph unicode="&#x2018;" horiz-adv-x="440" d="M51 1026q0 51 17.5 96t19.5 52q31 63 71 104t84 64.5t92 29.5t95 2l-106 -370q-16 -59 -56.5 -89t-85.5 -30q-51 0 -91 35.5t-40 105.5z" />
<glyph unicode="&#x2019;" horiz-adv-x="440" d="M29 887l106 373q16 59 56 87.5t85 28.5q51 0 91.5 -35.5t40.5 -103.5q0 -51 -17.5 -96t-19.5 -51q-31 -63 -70 -104.5t-84 -65t-93 -30.5t-95 -3z" />
<glyph unicode="&#x201a;" horiz-adv-x="471" d="M8 -217l107 371q16 59 56 88.5t85 29.5q51 0 91 -35.5t40 -105.5q0 -51 -17.5 -96t-19.5 -51q-31 -63 -70.5 -104.5t-83.5 -65t-92.5 -29.5t-95.5 -2z" />
<glyph unicode="&#x201c;" horiz-adv-x="835" d="M51 1026q0 51 16.5 96t20.5 52q31 63 70 104t84 64.5t93 29.5t95 2l-106 -370q-16 -59 -57.5 -89t-86.5 -30q-51 0 -90 35.5t-39 105.5zM446 1026q0 51 17.5 96t19.5 52q31 63 70 104t84 64.5t93 29.5t95 2l-106 -370q-16 -59 -56 -89t-85 -30q-51 0 -91.5 35.5 t-40.5 105.5z" />
<glyph unicode="&#x201d;" horiz-adv-x="835" d="M29 887l106 370q16 59 56 89t85 30q51 0 91.5 -35.5t40.5 -105.5q0 -51 -17.5 -96t-19.5 -52q-31 -63 -71 -104t-84 -64.5t-92 -29.5t-95 -2zM424 887l106 370q16 59 56.5 89t85.5 30q51 0 91 -35.5t40 -105.5q0 -51 -16.5 -96t-20.5 -52q-31 -63 -70 -104t-84 -64.5 t-93 -29.5t-95 -2z" />
<glyph unicode="&#x201e;" horiz-adv-x="837" d="M-4 -217l106 371q16 59 56.5 88.5t85.5 29.5q51 0 91 -35.5t40 -105.5q0 -51 -16.5 -96t-20.5 -51q-31 -63 -70 -104.5t-84 -65t-93 -29.5t-95 -2zM393 -217l105 371q16 59 57 88.5t86 29.5q51 0 91 -35.5t40 -105.5q0 -51 -17.5 -96t-21.5 -51q-31 -63 -69.5 -104.5 t-83.5 -65t-92.5 -29.5t-94.5 -2z" />
<glyph unicode="&#x2020;" horiz-adv-x="1044" d="M41 799q0 72 30.5 104.5t86.5 28.5l248 -27l-37 254q-6 37 -1 72t23.5 61.5t51 42t83.5 15.5q49 0 85 -7.5t63 -15.5l-39 -422l332 33q4 -20 7 -60t3 -69q0 -72 -31 -104.5t-84 -28.5l-227 14l27 -246l-48 -704q-2 -33 -21.5 -56.5t-70.5 -23.5q-18 0 -41.5 3t-52.5 13 l-47 768l25 246l-353 -20q-4 18 -8 59t-4 70z" />
<glyph unicode="&#x2021;" horiz-adv-x="1099" d="M94 297q0 70 31 103.5t86 29.5l235 -22l-10 143l19 160l-346 -15q-4 18 -8.5 59.5t-4.5 69.5q0 72 31 105t84 28l244 -24l-31 225q-6 37 -1 72t23.5 61.5t51 42t84.5 15.5q49 0 84.5 -7.5t60.5 -15.5l-33 -393l326 29q4 -18 8 -59.5t4 -69.5q0 -70 -30.5 -104t-86.5 -30 l-223 11l25 -162l-12 -141l313 26q4 -18 8 -59t4 -70q0 -72 -30.5 -104.5t-84.5 -28.5l-225 10l-24 -442q-2 -33 -18.5 -56.5t-65.5 -23.5q-18 0 -42 3t-53 13l-26 506l-355 -14q-4 18 -8 59t-4 70z" />
<glyph unicode="&#x2022;" horiz-adv-x="985" d="M121 635q0 76 29.5 144.5t80 118.5t118 80t145.5 30q76 0 143.5 -30t118.5 -80t79.5 -118.5t28.5 -144.5q0 -78 -28.5 -145.5t-79.5 -117.5t-119 -80t-143 -30q-78 0 -145.5 30t-118 80t-80 117.5t-29.5 145.5z" />
<glyph unicode="&#x2026;" horiz-adv-x="1495" d="M577 150q0 72 50.5 122t119.5 50q72 0 121 -50.5t49 -121.5q0 -70 -49 -119t-121 -49q-70 0 -120 49t-50 119zM1079 150q0 72 50.5 122t119.5 50q72 0 121 -50.5t49 -121.5q0 -70 -49 -119t-121 -49q-70 0 -120 49t-50 119zM61 150q0 72 50.5 122t119.5 50 q72 0 121 -50.5t49 -121.5q0 -70 -49 -119t-121 -49q-70 0 -120 49t-50 119z" />
<glyph unicode="&#x202f;" horiz-adv-x="366" />
<glyph unicode="&#x2030;" horiz-adv-x="2387" d="M70 989q0 92 28.5 161t75.5 115t107.5 68.5t124.5 22.5q63 0 123.5 -22.5t108.5 -68.5t76.5 -115t28.5 -161t-28.5 -160.5t-76.5 -114.5t-108.5 -68.5t-123.5 -22.5t-124 22.5t-108 68.5t-75.5 114.5t-28.5 160.5zM299 987q0 -104 28.5 -153.5t78.5 -49.5q47 0 76.5 49.5 t29.5 153.5t-29.5 152.5t-76.5 48.5q-49 0 -78 -48.5t-29 -152.5zM358 25l727 1259q12 25 37 42t62 17t61.5 -13t38.5 -23l-725 -1260q-16 -29 -44 -43t-60 -14q-27 0 -53 11.5t-44 23.5zM901 354q0 92 28.5 161t76 115t108 68.5t123.5 22.5t123.5 -22.5t109 -68.5t77 -115 t28.5 -161t-28.5 -160.5t-77 -114.5t-109 -68.5t-123.5 -22.5t-123.5 22.5t-108 68.5t-76 114.5t-28.5 160.5zM1130 352q0 -104 29 -153t78 -49q47 0 76.5 49t29.5 153t-29.5 152.5t-76.5 48.5q-49 0 -78 -48.5t-29 -152.5zM1645 354q0 92 28.5 161t75.5 115t107.5 68.5 t123.5 22.5t124 -22.5t109 -68.5t76.5 -115t28.5 -161t-28.5 -160.5t-76.5 -114.5t-108.5 -68.5t-124.5 -22.5q-63 0 -123.5 22.5t-107.5 68.5t-75.5 114.5t-28.5 160.5zM1874 352q0 -104 28.5 -153t77.5 -49q47 0 77 49t30 153t-29.5 152.5t-77.5 48.5q-49 0 -77.5 -48.5 t-28.5 -152.5z" />
<glyph unicode="&#x2039;" horiz-adv-x="710" d="M57 412v239l504 330q14 -33 24.5 -76t10.5 -84q0 -53 -12.5 -92t-59.5 -67l-211 -127l211 -127q47 -29 59.5 -68t12.5 -92q0 -41 -10.5 -84t-24.5 -76z" />
<glyph unicode="&#x203a;" horiz-adv-x="710" d="M115 256q0 53 12 92t59 68l211 127l-211 127q-47 29 -59 67.5t-12 91.5q0 41 10 84t25 76l503 -323v-240l-503 -330q-14 33 -24.5 76t-10.5 84z" />
<glyph unicode="&#x205f;" horiz-adv-x="458" />
<glyph unicode="&#x20ac;" horiz-adv-x="1218" d="M94 530q0 53 21.5 74t54.5 21h68q-2 14 -2 35.5t2 33.5h-136q-4 14 -6 38t-2 44q0 53 21.5 73.5t54.5 20.5h84q25 123 75 213.5t122.5 150.5t163 90t192.5 30q104 0 191 -18.5t169 -53.5q10 -135 -23.5 -195.5t-107.5 -60.5q-27 0 -47 5l-42 10q-22 5 -50.5 10.5 t-73.5 5.5q-86 0 -143 -46t-84 -141h322q4 -14 6 -36.5t2 -45.5q0 -53 -21.5 -73.5t-54.5 -20.5h-281q-2 -12 -2 -33.5t2 -35.5h349q4 -14 6 -37t2 -45q0 -53 -21.5 -73.5t-54.5 -20.5h-250q27 -90 83 -132.5t140 -42.5q45 0 76 4.5t54.5 9.5t45 9t48.5 4q74 0 107.5 -59.5 t23.5 -194.5q-82 -35 -174.5 -52.5t-196.5 -17.5q-207 0 -353.5 119t-195.5 353h-156q-4 14 -6 37.5t-2 43.5z" />
<glyph unicode="&#x2122;" horiz-adv-x="1355" d="M53 1253q0 45 16.5 61.5t45.5 16.5h454q2 -12 4 -30.5t2 -40.5q0 -76 -61 -76h-123v-410q0 -27 -18.5 -39t-69.5 -12q-18 0 -37.5 2t-29.5 4v455h-177q-2 12 -4 30.5t-2 38.5zM604 737l60 584q16 6 45.5 11t50.5 5q59 0 88 -16t39 -66l24 -114l22 -104l23 -117l24 117 q11 56 24 104l30 121q10 43 36 59t79 16q27 0 54.5 -4t43.5 -8l56 -588q-12 -4 -31 -9t-41 -5q-31 0 -51.5 10t-22.5 39l-14 199l-8.5 112.5t-4.5 112.5q-14 -49 -27 -106.5t-26 -104.5l-43 -156q-10 -53 -86 -53q-45 0 -71 8l-52 197q-14 55 -26 109l-25 106 q-4 -76 -8 -138.5t-8 -107.5l-15 -178q-4 -29 -22.5 -39t-48.5 -10q-39 0 -68 14z" />
<glyph unicode="&#xe000;" horiz-adv-x="1014" d="M0 1015h1015v-1015h-1015v1015z" />
<glyph horiz-adv-x="976" d="M135 1434q25 10 61.5 18t71.5 8q53 0 90 -15t58 -54l73 -148l76 148q20 39 57 54t91 15q35 0 71.5 -8t61.5 -18l-199 -324q-33 -14 -78 -22.5t-80 -8.5q-78 0 -120.5 18.5t-67.5 59.5z" />
</font>
</defs>
</svg>
