<?xml version="1.0" standalone="no"?>
<!DOCTYPE svg PUBLIC "-//W3C//DTD SVG 1.1//EN" "http://www.w3.org/Graphics/SVG/1.1/DTD/svg11.dtd" >
<svg xmlns="http://www.w3.org/2000/svg">
<metadata>
This is a custom SVG webfont generated by Font Squirrel.
Copyright   : Copyright 2009 Dalton Maag Ltd This typeface is for exclusive use by Sky only The typeface may only be used in projects relating to Sky All rights reserved
Foundry     : Dalton Maag Ltd
Foundry URL : httpwwwdaltonmaagcom
</metadata>
<defs>
<font id="SkyMediumRegular" horiz-adv-x="1241" >
<font-face units-per-em="2048" ascent="1638" descent="-410" />
<missing-glyph horiz-adv-x="409" />
<glyph unicode=" "  horiz-adv-x="409" />
<glyph unicode="&#x09;" horiz-adv-x="409" />
<glyph unicode="&#xa0;" horiz-adv-x="409" />
<glyph unicode="!" horiz-adv-x="573" d="M154 115q0 55 39.5 94t93.5 39q55 0 94 -39t39 -94q0 -53 -39 -93t-94 -40q-53 0 -93 40t-40 93zM160 1227v12q0 41 30.5 68.5t100.5 27.5q37 0 72.5 -4t54.5 -8l-51 -797q-2 -25 -18.5 -44t-57.5 -19q-33 0 -74 14z" />
<glyph unicode="&#x22;" horiz-adv-x="798" d="M115 1243v12q0 35 25.5 57.5t84.5 22.5q70 0 107 -10l-41 -481q-2 -23 -17.5 -39.5t-52.5 -16.5q-27 0 -65 13zM473 1243v12q0 35 25.5 57.5t85.5 22.5q31 0 60.5 -3t45.5 -7l-41 -481q-2 -23 -17.5 -39.5t-51.5 -16.5q-27 0 -66 13z" />
<glyph unicode="#" d="M47 422q0 47 20.5 66.5t49.5 19.5h155l74 299h-196l-5.5 32.5t-3.5 43.5q0 49 20.5 67.5t49.5 18.5h170l76 323q10 31 33.5 39t54.5 8q57 0 92 -14l-86 -356h272l76 323q10 31 33.5 39t54.5 8q57 0 92 -14l-86 -356h191q2 -12 4 -33t2 -43q0 -49 -19.5 -67.5t-48.5 -18.5 h-164l-71 -299h207l5 -35q3 -20 3 -43q0 -47 -20.5 -65.5t-49.5 -18.5h-182l-76 -311q-10 -29 -33.5 -38t-52.5 -9q-27 0 -50.5 4t-41.5 10l82 344h-270l-74 -309q-10 -31 -34 -40t-54 -9q-27 0 -50.5 4t-41.5 10l82 344h-181q-2 12 -5 32.5t-3 43.5zM444 508h271l73 299 h-272z" />
<glyph unicode="$" d="M129 98q0 68 23.5 110t78.5 42q25 0 53 -8l63 -19q36 -10 83 -18t111 -8v383l-47 14q-98 31 -167 71t-111 89t-60.5 105t-18.5 122q0 57 19.5 116.5t65.5 108.5t124 84t195 45v131q0 23 11 44.5t52 21.5q33 0 76 -14v-183q86 -6 175 -22.5t183 -50.5v-27 q0 -72 -23.5 -111t-78.5 -39q-23 0 -44 8l-51 16q-30 9 -68 17.5t-93 10.5v-363l61 -18q180 -53 270.5 -143.5t90.5 -231.5q0 -162 -100.5 -264.5t-321.5 -122.5v-137q0 -23 -11.5 -44.5t-52.5 -21.5q-33 0 -75 14v189q-92 4 -198.5 21.5t-211.5 54.5q0 8 -1 14t-1 14z M354 983q0 -61 41 -105t146 -71v330q-53 -2 -89 -17.5t-57.5 -37t-31 -48t-9.5 -51.5zM680 195q98 10 143 56t45 116q0 74 -51 114.5t-137 65.5v-352z" />
<glyph unicode="%" horiz-adv-x="1449" d="M31 987q0 92 24.5 161t66.5 115t98 68.5t118 22.5q61 0 117.5 -22.5t99.5 -68.5t67.5 -115t24.5 -161t-24.5 -160.5t-67.5 -114.5t-99.5 -68.5t-117.5 -22.5t-117.5 22.5t-98.5 68.5t-66.5 114.5t-24.5 160.5zM223 989q0 -111 31 -162t84 -51q51 0 84 51.5t33 161.5 q0 111 -33 159t-84 48q-53 0 -84 -48t-31 -159zM274 18l740 1274q10 18 30.5 32.5t51.5 14.5t51 -11l31 -17l-738 -1274q-14 -25 -36.5 -36t-49.5 -11q-23 0 -43.5 9t-36.5 19zM803 354q0 92 24.5 161t66.5 115t98.5 68.5t117.5 22.5t117.5 -22.5t99.5 -68.5t67.5 -115 t24.5 -161t-24.5 -160.5t-67.5 -114.5t-99.5 -68.5t-117.5 -22.5t-117.5 22.5t-98.5 68.5t-66.5 114.5t-24.5 160.5zM995 356q0 -111 31 -162t84 -51q51 0 84 51.5t33 161.5q0 111 -33 159t-84 48q-53 0 -84 -48t-31 -159z" />
<glyph unicode="&#x26;" horiz-adv-x="1337" d="M70 381q0 129 70.5 224t211.5 143q-57 63 -88 125.5t-31 138.5q0 61 25 121.5t74 106.5t123.5 74.5t177.5 28.5q106 0 192 -23.5t158 -55.5q2 -12 3 -24.5t1 -22.5q0 -59 -27.5 -91t-72.5 -32q-25 0 -47 7l-50 16q-28 9 -64 16.5t-87 7.5q-98 0 -138 -44t-40 -108 q0 -45 22.5 -88t83.5 -104l320 -324l143 266q18 35 51 50.5t72 15.5q29 0 60.5 -7t54.5 -18l-244 -442l303 -315q-31 -16 -72 -25.5t-75 -9.5q-61 0 -96 20.5t-78 67.5l-93 100q-61 -84 -156 -139t-241 -55q-111 0 -194.5 31.5t-139 87t-84 128t-28.5 152.5zM291 403 q0 -45 16.5 -84.5t46 -70.5t73.5 -48.5t99 -17.5q98 0 158.5 35t97.5 94l-315 322q-176 -72 -176 -230z" />
<glyph unicode="'" horiz-adv-x="440" d="M115 1243v12q0 35 25.5 57.5t84.5 22.5q70 0 107 -10l-41 -481q-2 -23 -17.5 -39.5t-52.5 -16.5q-27 0 -65 13z" />
<glyph unicode="(" horiz-adv-x="751" d="M78 473q0 160 45 299t119.5 252t170 198t195.5 136q45 -20 64.5 -50t19.5 -59q0 -47 -35 -71q-168 -117 -261 -288t-93 -417q0 -242 90 -414t264 -290q33 -25 33 -68q0 -29 -18.5 -58.5t-65.5 -50.5q-102 55 -197.5 139.5t-169 196t-117.5 248.5t-44 297z" />
<glyph unicode=")" horiz-adv-x="751" d="M57 1249q0 29 19.5 58.5t64.5 50.5q100 -51 195.5 -136t170.5 -198t120 -252t45 -299t-44 -297t-118 -248.5t-169 -195.5t-198 -140q-47 20 -65.5 50t-18.5 59q0 47 33 68q174 117 264 289.5t90 414.5q0 246 -93 417t-261 288q-35 24 -35 71z" />
<glyph unicode="*" horiz-adv-x="690" d="M-4 1108q0 33 21.5 54.5t62.5 21.5q35 0 65 -15l152 -67l-29 262q16 16 35 22.5t37 6.5q33 0 57.5 -22.5t24.5 -70.5q0 -4 -1 -9t-1 -11l-23 -178l246 88q51 -33 51 -84q0 -29 -22.5 -51.5t-71.5 -26.5l-184 -14l194 -211q-4 -41 -28.5 -65.5t-57.5 -24.5q-23 0 -46 16 t-42 51l-90 172l-139 -237h-12q-41 0 -68 22.5t-27 57.5q0 41 43 88l127 131l-260 41q-14 33 -14 53z" />
<glyph unicode="+" d="M113 530q0 57 23.5 76t60.5 19h325v346q0 35 20.5 57.5t75.5 22.5q27 0 52.5 -3.5l40.5 -5.5v-417h407q8 -31 8 -90q0 -57 -23.5 -76t-60.5 -19h-331v-362q0 -35 -20.5 -57.5t-76.5 -22.5q-27 0 -52 3t-40 5v434h-401q-8 31 -8 90z" />
<glyph unicode="," horiz-adv-x="374" d="M8 -233l117 370q25 82 96 82q41 0 64.5 -25.5t23.5 -70.5q0 -35 -12 -80t-21 -63q-47 -113 -112.5 -163t-140.5 -50h-15z" />
<glyph unicode="-" horiz-adv-x="727" d="M55 520q0 59 25.5 82t62.5 23h521l5 -42q3 -26 3 -53q0 -59 -24.5 -82.5t-61.5 -23.5h-520q-2 16 -6.5 41.5t-4.5 54.5z" />
<glyph unicode="." horiz-adv-x="407" d="M70 115q0 55 38.5 94t92.5 39q55 0 95 -39t40 -94q0 -53 -40 -92t-95 -39q-53 0 -92 39t-39 92z" />
<glyph unicode="/" horiz-adv-x="663" d="M39 -66l387 1371q12 37 41 48t65 11q66 0 109 -21l-387 -1368q-10 -39 -40 -49t-67 -10q-33 0 -59 5t-49 13z" />
<glyph unicode="0" horiz-adv-x="1259" d="M92 666q0 172 40 301t110.5 215t169 129t215.5 43t216 -43t171.5 -129t112.5 -215t40 -301t-40 -301t-112.5 -215.5t-172 -129.5t-215.5 -43q-117 0 -215.5 43t-169 129.5t-110.5 215.5t-40 301zM326 666q0 -258 79.5 -377t221.5 -119q141 0 225 121t84 375t-84 374.5 t-225 120.5t-221 -118.5t-80 -376.5z" />
<glyph unicode="1" horiz-adv-x="796" d="M39 1075q0 72 72 113l295 143h178v-1247q0 -41 -26 -68.5t-91 -27.5q-33 0 -65.5 3t-49.5 7v1077l-252 -119q-29 23 -45 55.5t-16 63.5z" />
<glyph unicode="2" horiz-adv-x="1032" d="M35 90q0 35 14 82t49 76l369 332q59 51 104 94t76 84t47.5 82t16.5 88q0 98 -59.5 156.5t-182.5 58.5q-61 0 -109.5 -16.5t-86.5 -36.5l-68 -37q-31 -16 -58 -17q-45 0 -72.5 42t-31.5 116q72 57 183.5 104.5t252.5 47.5q221 0 342 -113t121 -297q0 -72 -21.5 -133.5 t-60.5 -116.5t-90 -104.5t-113 -96.5l-319 -276h616q10 -37 11 -98q0 -63 -26 -87t-65 -24h-831q-4 16 -6 39.5t-2 50.5z" />
<glyph unicode="3" horiz-adv-x="1101" d="M82 100q2 78 30.5 119t73.5 41q31 0 62 -12t69.5 -25.5t90 -26t122.5 -12.5q129 0 192.5 57.5t63.5 149.5q0 80 -59 137.5t-207 57.5h-164q-33 0 -55 22.5t-22 75.5q0 51 10 88h213q135 0 194.5 47t59.5 139q0 35 -11.5 68t-38 57.5t-68.5 40t-106 15.5 q-66 0 -111.5 -10.5t-82.5 -22.5l-66 -23q-29 -10 -57 -10q-47 0 -75.5 43t-30.5 119q80 45 188.5 78t251.5 33q113 0 194.5 -28t134 -75t77 -111.5t24.5 -138.5q0 -111 -61.5 -187.5t-165.5 -109.5q117 -20 194.5 -104t77.5 -215q0 -92 -35 -167t-98.5 -126t-154.5 -79 t-201 -28q-150 0 -257.5 35t-195.5 88z" />
<glyph unicode="4" horiz-adv-x="1167" d="M51 395q0 37 12.5 72t40.5 76l558 788h241v-835h205q10 -37 10 -95q0 -59 -25.5 -81.5t-60.5 -22.5h-129v-217q0 -39 -23.5 -65.5t-86.5 -26.5q-33 0 -64 3t-47 7v299h-619q-4 16 -8 40.5t-4 57.5zM297 494h385v544z" />
<glyph unicode="5" horiz-adv-x="1060" d="M57 94q0 80 32 120t79 40q25 0 54.5 -10.5t67.5 -21.5t86 -21.5t109 -10.5q147 0 215 64.5t68 171.5q0 106 -73.5 166.5t-184.5 60.5q-90 0 -147.5 -23.5t-110.5 -62.5l-158 56l72 708h756q10 -37 10 -96t-24.5 -84t-63.5 -25h-500l-45 -366q47 33 101.5 55.5t146.5 22.5 q104 0 188 -34t142.5 -90.5t90 -131t31.5 -156.5q0 -94 -31.5 -175t-96 -141.5t-160 -94t-222.5 -33.5q-129 0 -236.5 30.5t-195.5 81.5z" />
<glyph unicode="6" horiz-adv-x="1148" d="M92 655q0 178 41 308.5t116 215.5t178 126t228 41q104 0 194.5 -20.5t166.5 -57.5v-29q0 -72 -27.5 -107.5t-77.5 -35.5q-27 0 -51 7t-54 14t-65.5 14.5t-85.5 7.5q-166 0 -246.5 -105.5t-91.5 -320.5q59 53 140.5 98t201.5 45q109 0 192 -35t138 -94t83 -136t28 -163 q0 -90 -32 -172t-93.5 -143.5t-151.5 -98.5t-207 -37q-115 0 -211 43t-165.5 128t-108.5 212t-39 295zM326 549q8 -184 84.5 -281.5t207.5 -97.5q117 0 185.5 73.5t68.5 190.5t-68.5 179.5t-185.5 62.5q-102 0 -172.5 -41t-119.5 -86z" />
<glyph unicode="7" horiz-adv-x="1001" d="M35 1233q0 31 2 56.5t6 41.5h932v-153l-547 -1119q-23 -47 -60.5 -61t-84.5 -14q-35 0 -73 7t-63 17l564 1114h-588q-41 0 -64.5 24t-23.5 87z" />
<glyph unicode="8" horiz-adv-x="1153" d="M66 360q0 129 67.5 214t183.5 122q-41 16 -77.5 43t-65.5 65t-46 86t-17 105q0 70 27.5 134.5t85 114.5t145.5 81t209 31t208.5 -31t144 -81t84 -114.5t27.5 -134.5q0 -59 -17 -106t-46 -84t-67 -64.5t-76 -44.5q117 -37 184 -123t67 -211q0 -84 -32.5 -154.5t-97 -121.5 t-160 -81t-219.5 -30q-127 0 -222.5 30t-160 81t-97 121.5t-32.5 152.5zM299 379q0 -92 75 -151.5t204 -59.5q61 0 111 15.5t87 44t57.5 66.5t20.5 85q0 43 -16.5 82t-50 69.5t-86 49t-123.5 18.5q-74 0 -127.5 -18.5t-87 -49t-49 -69.5t-15.5 -82zM336 969 q0 -86 65.5 -140.5t176.5 -54.5t175 54.5t64 140.5t-61.5 137t-177.5 51q-117 0 -179.5 -51t-62.5 -137z" />
<glyph unicode="9" horiz-adv-x="1157" d="M68 909q0 94 32.5 175t94 141.5t149.5 94.5t201 34q242 0 380 -169t138 -509q0 -346 -153.5 -519t-426.5 -173q-92 0 -181 19.5t-161 53.5q-2 20 -2 27q0 143 107 143q27 0 52 -6l53 -12l59.5 -12.5t72.5 -6.5q168 0 255 96.5t98 325.5q-66 -59 -144 -94t-188 -35 q-111 0 -193 35t-136 93.5t-80.5 135t-26.5 162.5zM295 909q0 -111 62.5 -179t187.5 -68q92 0 158.5 28.5t123.5 85.5q-2 86 -19 157t-51 122t-86.5 78.5t-125.5 27.5q-111 0 -180.5 -69.5t-69.5 -182.5z" />
<glyph unicode=":" horiz-adv-x="493" d="M104 793q0 55 39 95t93 40q55 0 95 -40t40 -95q0 -53 -40 -92t-95 -39q-53 0 -92.5 39t-39.5 92zM106 115q0 55 39 94t93 39q55 0 94 -39t39 -94q0 -53 -39 -93t-94 -40q-53 0 -92.5 40t-39.5 93z" />
<glyph unicode=";" horiz-adv-x="493" d="M94 -233l115 370q12 41 39.5 61.5t58.5 20.5q35 0 62.5 -24.5t27.5 -71.5q0 -41 -13 -84t-22 -59q-47 -113 -113.5 -163t-139.5 -50h-15zM156 793q0 55 38.5 95t92.5 40q55 0 94 -40t39 -95q0 -53 -39 -92t-94 -39q-53 0 -92 39t-39 92z" />
<glyph unicode="&#x3c;" d="M184 449v172l787 423q10 -23 18 -52t8 -58q0 -35 -12 -72t-61 -61l-514 -262l514 -275q49 -27 61 -63.5t12 -71.5q0 -29 -8 -58.5t-18 -52.5z" />
<glyph unicode="=" horiz-adv-x="1181" d="M152 309q0 57 23.5 75.5t60.5 18.5h788q8 -31 8 -90q0 -57 -23.5 -75.5t-60.5 -18.5h-788q-8 31 -8 90zM152 741q0 57 23.5 76t60.5 19h788q8 -31 8 -91q0 -57 -23.5 -75.5t-60.5 -18.5h-788q-8 31 -8 90z" />
<glyph unicode="&#x3e;" d="M244 129q0 35 12 71t61 62l514 266l-514 271q-49 27 -61 63.5t-12 71.5q0 29 8 58.5t18 51.5l787 -430v-172l-787 -424q-10 23 -18 52.5t-8 58.5z" />
<glyph unicode="?" horiz-adv-x="944" d="M39 1227q74 49 188.5 85t233.5 36q104 0 186 -26t137.5 -72t84 -108.5t28.5 -135.5q0 -57 -16.5 -102.5t-42 -81.5t-59.5 -62.5t-68 -44.5l-98 -56q-42 -25 -72.5 -50t-49 -55t-24.5 -71q-4 -20 -23.5 -38.5t-60.5 -18.5q-35 0 -76 14q-2 16 -3 31.5t-1 30.5 q0 76 26.5 129t67.5 92t88 67.5t88 56t68 59.5t27 77q0 72 -54.5 116t-152.5 44q-68 0 -116 -11.5t-84 -25.5l-63 -26q-28 -11 -57 -11q-43 0 -71.5 42t-30.5 116zM250 115q0 55 40 94t93 39q55 0 94 -39t39 -94q0 -53 -39 -93t-94 -40q-53 0 -93 40t-40 93z" />
<glyph unicode="@" horiz-adv-x="1419" d="M57 571q0 143 52.5 267.5t144.5 214.5t217 142t270 52q154 0 271.5 -50t197.5 -133t120 -189.5t40 -219.5q0 -104 -24.5 -183t-67.5 -132t-99.5 -80t-117.5 -27q-74 0 -115 38t-57 85q-29 -47 -76 -80.5t-135 -33.5q-57 0 -107.5 21.5t-88.5 62.5t-59.5 99t-21.5 132 q0 66 21.5 122t58.5 97t86 63.5t105 22.5q72 0 119 -30.5t75 -73.5h2q0 47 18.5 71.5t65.5 24.5q41 0 60 -8v-389q0 -53 20.5 -72.5t52.5 -19.5q66 0 100 74.5t34 209.5q0 92 -33 173t-94.5 142.5t-150.5 97.5t-200 36q-102 0 -194 -36t-163 -104.5t-113 -166t-42 -220.5 q0 -127 40 -225t107.5 -165.5t157 -103.5t189.5 -36q66 0 114 9t83.5 19.5l64.5 19.5t53 9q35 0 56.5 -25.5t21.5 -76.5v-15q0 -7 -2 -18q-86 -35 -185.5 -58.5t-203.5 -23.5q-145 0 -267 52.5t-211 144.5t-139.5 219t-50.5 274zM559 551q0 -72 40 -124t122 -52 q45 0 82 24.5t59 63.5v172q-14 41 -54 68.5t-87 27.5q-80 0 -121 -54t-41 -126z" />
<glyph unicode="A" horiz-adv-x="1234" d="M12 12l453 1309q39 10 77 14t72 4q49 0 81 -7t53.5 -22.5t36 -39t26.5 -58.5l412 -1198q-25 -10 -56.5 -18t-58.5 -8q-47 0 -82 11t-51 58l-98 293h-525l-96 -293q-16 -45 -47 -57t-76 -12q-29 0 -65 6t-56 18zM418 547h395l-197 594z" />
<glyph unicode="B" horiz-adv-x="1171" d="M127 106v1119q0 47 21.5 76.5t97.5 29.5h338q127 0 218 -25.5t149.5 -71.5t85 -109.5t26.5 -139.5q0 -104 -59.5 -182t-163.5 -113q137 -33 203.5 -119t66.5 -190q0 -186 -127 -283.5t-391 -97.5h-346q-76 0 -97.5 29.5t-21.5 76.5zM350 203h217q160 0 233.5 44t73.5 148 q0 37 -12 71t-44 59.5t-89 42t-149 16.5h-230v-381zM350 776h225q74 0 124.5 14.5t80 39t43 58.5t13.5 73q0 168 -256 167h-230v-352z" />
<glyph unicode="C" horiz-adv-x="1134" d="M55 659q0 143 49.5 268.5t136.5 217.5t205.5 144t258.5 52q104 0 199 -20.5t181 -54.5q2 -14 3.5 -25.5t1.5 -23.5q0 -66 -29 -103t-72 -37q-20 0 -45 8l-56 19q-32 10 -75 18t-100 8q-88 0 -164 -33.5t-132.5 -95t-88 -148.5t-31.5 -194q0 -111 31.5 -197.5t88 -147 t132.5 -91t164 -30.5q57 0 99 8t72.5 18t53.5 18.5t45 8.5q51 0 82 -34t31 -99v-27q0 -12 -4 -29q-86 -37 -178.5 -56t-208.5 -19q-139 0 -258 50t-206 140t-136.5 215t-49.5 272z" />
<glyph unicode="D" horiz-adv-x="1298" d="M125 106v1119q0 47 21.5 76.5t97.5 29.5h280q166 0 299 -46t226.5 -132t143.5 -207t50 -270q0 -141 -49 -264t-143.5 -214.5t-228.5 -144.5t-304 -53h-274q-76 0 -97.5 29.5t-21.5 76.5zM354 209h183q96 0 181 29.5t148.5 88t100.5 146.5t37 207q0 106 -37 189 t-100.5 139.5t-149.5 85t-185 28.5h-178v-913z" />
<glyph unicode="E" horiz-adv-x="1032" d="M125 106v1119q0 47 21.5 76.5t97.5 29.5h688q4 -16 7 -45t3 -57q0 -59 -25.5 -83t-62.5 -24h-500v-356h529l5 -42q3 -26 3 -54q0 -57 -23.5 -80t-58.5 -23h-455v-358h596l5 -42q3 -26 3 -54q0 -61 -24.5 -87t-61.5 -26h-628q-76 0 -97.5 29.5t-21.5 76.5z" />
<glyph unicode="F" horiz-adv-x="1011" d="M135 -2v1227q0 47 21.5 76.5t97.5 29.5h721q4 -16 6 -43.5t2 -56.5q0 -66 -25.5 -87.5t-64.5 -21.5h-528v-389h559q10 -37 10 -96t-25.5 -83t-60.5 -24h-483v-446q0 -41 -26 -68.5t-91 -27.5q-33 0 -65 3t-48 7z" />
<glyph unicode="G" horiz-adv-x="1320" d="M59 670q0 141 49.5 264t137.5 213t212 142t271 52q117 0 237.5 -24.5t219.5 -77.5v-27q0 -63 -26.5 -102t-82.5 -39q-27 0 -54.5 9.5t-65 20.5t-91 20t-129.5 9q-96 0 -176 -32.5t-138 -92t-91 -144.5t-33 -191q0 -104 33 -194.5t91 -155t139 -101.5t177 -37 q86 0 147.5 17.5t114.5 46.5v307h-256q-37 0 -60 21.5t-23 80.5q0 55 10 93h430q76 0 97.5 -30t21.5 -77v-526q-111 -66 -226.5 -102t-263.5 -36q-152 0 -275.5 55.5t-211.5 149.5t-136.5 220.5t-48.5 267.5z" />
<glyph unicode="H" horiz-adv-x="1357" d="M137 -2v1241q0 41 25.5 68.5t91.5 27.5q33 0 64.5 -3t48.5 -7v-559h622v473q0 41 25.5 68.5t91.5 27.5q33 0 65.5 -3t49.5 -7v-1241q0 -41 -26 -68.5t-91 -27.5q-33 0 -65.5 3t-49.5 7v569h-622v-483q0 -41 -26 -68.5t-91 -27.5q-33 0 -65 3t-48 7z" />
<glyph unicode="I" horiz-adv-x="499" d="M135 -2v1241q0 41 25.5 68.5t91.5 27.5q33 0 64.5 -3t48.5 -7v-1241q0 -41 -26 -68.5t-91 -27.5q-33 0 -65 3t-48 7z" />
<glyph unicode="J" horiz-adv-x="917" d="M16 127q0 66 29 99.5t70 33.5q25 0 52 -10l60 -23q33 -12 70 -22t80 -10q78 0 129 47t51 151v846q0 41 25.5 68.5t91.5 27.5q33 0 64.5 -3t47.5 -7v-946q0 -197 -106.5 -295t-290.5 -98q-43 0 -107.5 8t-123 25.5t-100.5 44t-42 63.5z" />
<glyph unicode="K" horiz-adv-x="1161" d="M135 -2v1241q0 41 25.5 68.5t91.5 27.5q33 0 64.5 -3t48.5 -7v-610l471 555q29 35 60.5 50t88.5 15q33 0 75 -9t70 -26l-536 -616l573 -659q-31 -16 -72.5 -26.5t-76.5 -10.5q-59 0 -93 17.5t-65 51.5l-495 574v-547q0 -41 -26 -68.5t-91 -27.5q-33 0 -65 3t-48 7z" />
<glyph unicode="L" horiz-adv-x="1024" d="M127 106v1133q0 41 25.5 68.5t91.5 27.5q33 0 64.5 -3t47.5 -7v-1116h633q4 -23 7 -46.5t3 -47.5q0 -66 -27.5 -90.5t-76.5 -24.5h-649q-76 0 -97.5 29.5t-21.5 76.5z" />
<glyph unicode="M" horiz-adv-x="1581" d="M76 12l133 1297q29 12 75 19t78 7q92 0 140.5 -27.5t64.5 -97.5l226 -891l227 885q16 70 65.5 100.5t135.5 30.5q41 0 84 -6t71 -14l129 -1303q-20 -8 -47.5 -15t-62.5 -7q-47 0 -78 16.5t-35 61.5l-88 1052l-250 -932q-16 -57 -56 -78.5t-102 -21.5q-31 0 -64.5 4 t-55.5 12l-283 1016l-94 -1054q-4 -43 -35 -59.5t-74 -16.5q-35 0 -60.5 7t-43.5 15z" />
<glyph unicode="N" horiz-adv-x="1366" d="M135 -4v1319q23 10 57.5 15t63.5 5q82 0 118 -21.5t62 -62.5l596 -921l-12 915q0 37 23.5 63.5t84.5 26.5q29 0 59 -3t46 -7v-1319q-47 -18 -111 -18q-74 0 -108.5 21.5t-57.5 56.5l-616 960l12 -948q0 -39 -23.5 -64.5t-86.5 -25.5q-31 0 -61 2t-46 6z" />
<glyph unicode="O" horiz-adv-x="1421" d="M55 670q0 143 48.5 269t134.5 218t206.5 145.5t266.5 53.5q145 0 266 -53.5t207 -145.5t134 -217t48 -270t-48 -271.5t-134 -221.5t-207 -149.5t-266 -54.5t-266 54.5t-207 149.5t-134.5 221.5t-48.5 271.5zM295 670q0 -106 31.5 -196.5t88 -156t132.5 -102.5t162 -37 t161.5 38t133 103.5t90 155.5t32.5 193q0 102 -31.5 191t-88 153.5t-132 101.5t-163.5 37q-86 0 -162 -36t-132.5 -100.5t-89 -152.5t-32.5 -192z" />
<glyph unicode="P" horiz-adv-x="1120" d="M135 -2v1227q0 47 21.5 76.5t97.5 29.5h301q131 0 230.5 -34.5t165 -96t98 -144.5t32.5 -177q0 -100 -35.5 -184.5t-102 -145t-160 -94t-208.5 -33.5h-210v-338q0 -41 -26 -68.5t-91 -27.5q-33 0 -65 3t-48 7zM365 625h174q160 0 233.5 67.5t73.5 184.5q0 119 -74 182 t-215 63h-192v-497z" />
<glyph unicode="Q" horiz-adv-x="1427" d="M55 670q0 143 48.5 269t134.5 218t206.5 145.5t266.5 53.5q145 0 266 -53.5t207 -145.5t134 -217t48 -270q0 -137 -43 -258t-121 -214.5t-187.5 -151.5t-242.5 -71l549 -125q0 -92 -39 -136t-102 -44q-29 2 -56.5 5t-60.5 12l-553 131v12q0 115 115 150 q-129 14 -233.5 74.5t-179.5 152.5t-116 211t-41 252zM295 670q0 -106 31.5 -196.5t88 -156t132.5 -102.5t162 -37t161.5 38t133 103.5t90 155.5t32.5 193q0 102 -31.5 191t-88 153.5t-132 101.5t-163.5 37q-86 0 -162 -36t-132.5 -100.5t-89 -152.5t-32.5 -192z" />
<glyph unicode="R" horiz-adv-x="1155" d="M135 -2v1227q0 47 21.5 76.5t97.5 29.5h334q229 0 356 -109.5t127 -301.5q0 -80 -25.5 -149t-72.5 -122t-114.5 -88t-153.5 -45l413 -491q-33 -18 -71.5 -27.5t-73.5 -9.5q-66 0 -104 19.5t-78 70.5l-334 428h-92v-422q0 -41 -26 -68.5t-91 -27.5q-33 0 -65 3t-48 7z M365 702h188q156 0 222.5 58.5t66.5 159.5q0 98 -60.5 150t-191.5 52h-225v-420z" />
<glyph unicode="S" horiz-adv-x="1110" d="M72 92q0 68 24.5 110t79.5 42q27 0 64 -8l83 -19q46 -10 102 -18.5t124 -8.5q141 0 201.5 51.5t60.5 129.5q0 39 -14.5 66.5t-41 47t-64.5 33.5t-87 29l-170 47q-201 55 -279.5 153.5t-78.5 225.5q0 63 22.5 129.5t77.5 120t147.5 88.5t231.5 35q94 0 201.5 -18.5 t224.5 -59.5v-29q0 -70 -23.5 -108.5t-76.5 -38.5q-27 0 -58.5 7t-71.5 14t-91.5 14.5t-114.5 7.5q-72 0 -119 -13.5t-75.5 -36t-41 -50t-12.5 -56.5q0 -68 46 -102.5t165 -67.5l180 -51q358 -94 359 -373q0 -90 -30 -164t-93.5 -127t-159.5 -82.5t-232 -29.5 q-100 0 -217.5 20.5t-240.5 60.5q0 8 -1 14.5t-1 14.5z" />
<glyph unicode="T" horiz-adv-x="1073" d="M6 1225q0 66 26.5 86t67.5 20h959q8 -31 8 -94q0 -115 -94 -115h-320v-1038q0 -41 -25.5 -68.5t-90.5 -27.5q-33 0 -65 3t-48 7v1124h-410q-4 16 -6 44t-2 59z" />
<glyph unicode="U" horiz-adv-x="1325" d="M111 551v688q0 41 25.5 68.5t90.5 27.5q33 0 65 -3t48 -7v-780q0 -166 83 -265.5t236 -99.5q147 0 234.5 99.5t87.5 265.5v694q0 41 25.5 68.5t91.5 27.5q33 0 63.5 -3t46.5 -7v-774q0 -121 -36.5 -225.5t-106.5 -183.5t-173.5 -124t-234.5 -45q-133 0 -234 45t-171 124 t-105.5 183.5t-35.5 225.5z" />
<glyph unicode="V" horiz-adv-x="1216" d="M14 1311q25 10 61 19t62 9q47 0 82 -11t51 -58l351 -1067l346 1067q16 45 49 57t78 12q29 0 64.5 -6t55.5 -18l-421 -1229q-23 -61 -65 -82.5t-120 -21.5q-35 0 -71.5 5t-69.5 17z" />
<glyph unicode="W" horiz-adv-x="1689" d="M31 1309q23 10 52.5 18t68.5 8q49 0 81.5 -18.5t42.5 -69.5l103 -555l45 -255q23 -130 39 -242q16 115 42.5 239.5t61.5 265.5l131 539q12 53 56.5 74.5t111.5 21.5q68 0 123 -16l148 -619q31 -129 58.5 -261t47.5 -244q8 55 20 121l23 136l25 134l22 121l97 546 q8 47 38.5 64.5t77.5 17.5q35 0 63.5 -7t49.5 -15l-254 -1225q-14 -66 -57 -84t-111 -18q-31 0 -72 3t-69 13l-172 705l-18 80q-9 44 -18 94l-20 100q-10 51 -22 98l-42 -197l-40 -175l-150 -619q-16 -63 -54 -82.5t-103 -19.5q-33 0 -77 4t-73 14z" />
<glyph unicode="X" horiz-adv-x="1191" d="M20 18l435 660l-418 625q29 16 67.5 24t69.5 8q53 0 88 -13t60 -52l278 -451l279 451q23 37 53.5 51t77.5 14q29 0 67.5 -7t63.5 -23l-410 -637l438 -648q-29 -16 -68.5 -24t-70.5 -8q-53 0 -89 13t-60 52l-295 459l-289 -455q-25 -39 -55.5 -54t-81.5 -15q-33 0 -74 7 t-66 23z" />
<glyph unicode="Y" horiz-adv-x="1181" d="M-2 1303q29 16 67.5 24t69.5 8q53 0 89 -13t61 -52l319 -514l318 512q23 39 53.5 53t79.5 14q29 0 67.5 -7t63.5 -23l-475 -740v-481q0 -41 -26 -68.5t-91 -27.5q-33 0 -64.5 3t-48.5 7v565z" />
<glyph unicode="Z" horiz-adv-x="1095" d="M63 98q0 37 12.5 72t41.5 76l631 876h-588q-39 0 -64.5 22.5t-25.5 86.5q0 31 2 57.5t6 42.5h928q4 -16 8 -46t4 -58q0 -41 -12.5 -78t-42.5 -80l-623 -860h682q4 -16 6 -43t2 -55q0 -63 -25.5 -87t-64.5 -24h-864q-4 16 -8.5 40.5t-4.5 57.5z" />
<glyph unicode="[" horiz-adv-x="770" d="M115 -307v1734q0 43 19.5 71t88.5 28h414q4 -14 7 -40t3 -52q0 -55 -23.5 -77t-58.5 -22h-241v-1550h313q4 -14 7 -40t3 -52q0 -55 -23.5 -77t-58.5 -22h-342q-70 0 -89 28t-19 71z" />
<glyph unicode="\" horiz-adv-x="722" d="M39 1343q43 20 108 21q37 0 67 -11.5t40 -47.5l387 -1371q-23 -8 -49.5 -13t-59.5 -5q-35 0 -65.5 10.5t-40.5 48.5z" />
<glyph unicode="]" horiz-adv-x="770" d="M113 -313q0 55 23.5 76.5t58.5 21.5h241v1550h-313q-4 14 -7 40t-3 52q0 55 23.5 77t58.5 22h342q70 0 89 -28t19 -71v-1734q0 -43 -19.5 -71t-88.5 -28h-414q-4 14 -7 40t-3 53z" />
<glyph unicode="^" horiz-adv-x="1253" d="M315 932l205 317q25 10 53.5 17.5t57.5 7.5q59 0 88 -16.5t51 -47.5l178 -276q-20 -10 -47 -16.5t-49 -6.5q-41 0 -67.5 11.5t-43.5 40.5l-108 184l-117 -193q-29 -43 -102 -43q-27 0 -54 6.5t-45 14.5z" />
<glyph unicode="_" horiz-adv-x="970" d="M-14 -154h999v-102h-999v102z" />
<glyph unicode="`" horiz-adv-x="954" d="M393 1348q0 39 21.5 70.5t62.5 43.5l328 -305q-45 -57 -113 -57q-51 0 -102 35l-131 92q-35 25 -51.5 55.5t-14.5 65.5z" />
<glyph unicode="a" horiz-adv-x="1056" d="M59 283q0 74 26 135t79 105t134 68.5t194 24.5q106 0 241 -24v51q0 100 -45 142t-162 42q-59 0 -104 -7t-81 -16l-63 -17q-28 -7 -53 -7q-43 0 -63.5 37t-20.5 90v20q0 9 2 19q68 23 168.5 42.5t223.5 19.5q119 0 197.5 -27t126.5 -79t67.5 -127t19.5 -173v-215 q0 -61 1 -110.5t6 -92.5t13.5 -85t22.5 -91q-18 -8 -46 -14t-64 -6q-41 0 -67 15t-40 41t-19 60.5t-8 73.5h-2q-25 -39 -56.5 -74.5t-74.5 -62.5t-97 -42t-124 -15q-80 0 -142.5 23.5t-104.5 64.5t-63.5 95.5t-21.5 115.5zM281 299q0 -66 47 -100.5t123 -34.5 q98 0 170.5 57.5t113.5 143.5v86q-104 18 -186 18q-135 0 -201.5 -44t-66.5 -126z" />
<glyph unicode="b" horiz-adv-x="1161" d="M111 6q6 98 8 202.5t2 174.5v915q0 41 23.5 68t88.5 27q31 0 63 -3.5t48 -7.5v-514q47 53 125 96.5t195 43.5q80 0 159.5 -32t142 -95.5t101.5 -157.5t39 -219q0 -111 -33 -205t-92 -165t-141 -110.5t-181 -39.5q-106 0 -193 48t-132 134v-46q0 -30 -7.5 -57.5t-33 -48 t-80.5 -20.5q-35 0 -60.5 4t-41.5 8zM344 426q0 -53 19.5 -99t53.5 -80t81 -53.5t100 -19.5q117 0 198 83t81 243q0 147 -79 233t-204 86q-86 0 -150.5 -39t-99.5 -104v-250z" />
<glyph unicode="c" horiz-adv-x="933" d="M55 492q0 106 36 198t101.5 162t157.5 109.5t205 39.5q111 0 187.5 -22.5t138.5 -56.5q2 -10 2 -20v-17q0 -57 -24.5 -91t-63.5 -34q-18 0 -40 7l-47 16q-26 9 -60 17.5t-79 8.5q-59 0 -110 -20.5t-90 -61.5t-61.5 -100.5t-22.5 -134.5q0 -76 22.5 -135.5t62.5 -99.5 t93 -61.5t115 -21.5q43 0 77.5 8t62.5 19l50 18q23 8 41 8q41 0 65.5 -28.5t24.5 -85.5q0 -10 -1 -22.5t-3 -24.5q-72 -39 -152.5 -60.5t-187.5 -21.5q-113 0 -205 39.5t-157.5 108.5t-101.5 161.5t-36 198.5z" />
<glyph unicode="d" horiz-adv-x="1161" d="M55 500q0 129 41 224t105.5 158.5t144.5 94.5t158 31q104 0 181 -39t132 -103v432q0 41 23.5 68t89.5 27q31 0 62.5 -3.5t47.5 -7.5v-991q0 -111 3.5 -201t9.5 -188q-16 -4 -45 -8t-64 -4q-47 0 -70.5 15t-33 40t-9.5 53v58h-2q-57 -92 -142 -133t-189 -41 q-80 0 -159 32.5t-142.5 98t-102.5 162t-39 225.5zM285 504q0 -72 19.5 -133.5t56 -105.5t89 -68.5t119.5 -24.5q74 0 142.5 35t107.5 106v371q-39 70 -106.5 103.5t-143.5 33.5q-66 0 -119 -24.5t-89.5 -66.5t-56 -100t-19.5 -126z" />
<glyph unicode="e" horiz-adv-x="1060" d="M55 496q0 111 37 204t101.5 161.5t152.5 107.5t191 39q115 0 202.5 -42t146 -112t88.5 -158t30 -180q0 -51 -11 -102h-710q14 -119 93 -181.5t208 -62.5q55 0 96 8t73.5 19.5t59.5 19.5t53 8q37 0 60.5 -32.5t23.5 -88.5q0 -10 -1 -22t-3 -25q-61 -29 -153.5 -54.5 t-208.5 -25.5q-125 0 -223.5 39t-166 109t-103.5 165t-36 206zM281 573h514q-10 111 -75 186t-183 75q-113 0 -179.5 -72t-76.5 -189z" />
<glyph unicode="f" horiz-adv-x="724" d="M29 877q0 51 21.5 71.5t53.5 20.5h70v108q0 176 97.5 261t254.5 85q78 0 152 -14t127 -33v-30q0 -68 -23.5 -97.5t-66.5 -29.5q-33 0 -70 10t-102 10q-66 0 -106 -39t-40 -137v-94h308q10 -31 10 -82t-21.5 -71.5t-54.5 -20.5h-242v-713q0 -41 -24.5 -67.5t-89.5 -26.5 q-72 0 -109 10v797h-137q-4 14 -6 36.5t-2 45.5z" />
<glyph unicode="g" horiz-adv-x="1036" d="M41 -109q0 152 162 234q-16 14 -32.5 38.5t-16.5 55.5q0 47 26.5 80t79.5 57q-78 39 -134 113t-56 184q0 76 28.5 141.5t83 112.5t133 74t179.5 27q102 0 194 -35l64 33l70 35l70 33q34 15 58 24q23 -10 42.5 -34t19.5 -52q0 -37 -17.5 -57.5t-46 -32t-67.5 -15.5 t-82 -10l2 -4q53 -41 88 -105.5t35 -136.5q0 -160 -109.5 -252t-312.5 -92q-49 0 -71.5 5t-39.5 5q-29 0 -42 -14t-13 -31q0 -29 31.5 -43t85.5 -22l272 -39q158 -23 219.5 -92.5t61.5 -165.5q0 -59 -27 -117.5t-85 -105.5t-152.5 -76t-231.5 -29q-117 0 -205 24.5 t-146.5 65.5t-88 97t-29.5 122zM236 -59q0 -86 69.5 -138.5t224.5 -52.5q68 0 116 13.5t79 33t45 43t14 43.5q0 47 -29.5 66.5t-107.5 34.5l-194 32q-72 12 -106 23.5t-54 21.5q-57 -44 -57 -120zM283 653q0 -88 60 -141t153 -53q94 0 153.5 52t59.5 140q0 92 -57.5 144.5 t-155.5 52.5q-94 0 -153.5 -51.5t-59.5 -143.5z" />
<glyph unicode="h" horiz-adv-x="1118" d="M117 -2v1300q0 41 23.5 68t88.5 27q31 0 63 -3.5t48 -7.5v-538q49 68 129 116t190 48q74 0 138.5 -25t114 -76t78 -131t28.5 -190v-504q0 -41 -24.5 -67.5t-90.5 -26.5q-31 0 -61.5 3t-46.5 7v563q0 131 -57.5 193.5t-162.5 62.5q-72 0 -138 -38t-97 -97v-600 q0 -41 -23.5 -67.5t-89.5 -26.5q-31 0 -62.5 3t-47.5 7z" />
<glyph unicode="i" horiz-adv-x="460" d="M104 1300q0 53 37 90t88 37q53 0 90 -36.5t37 -90.5q0 -51 -36.5 -87.5t-90.5 -36.5q-51 0 -88 36.5t-37 87.5zM117 -2v905q0 41 24.5 67.5t87.5 26.5q33 0 64 -3t47 -7v-905q0 -41 -24.5 -67.5t-90.5 -26.5q-31 0 -61.5 3t-46.5 7z" />
<glyph unicode="j" horiz-adv-x="485" d="M-147 -297q0 29 15 50.5t44 31.5q63 20 105 37.5t68 44.5t37 66.5t11 107.5v854q0 41 24.5 67.5t88.5 26.5q33 0 63.5 -3t46.5 -7v-901q0 -111 -27.5 -189.5t-81.5 -136t-136 -96.5t-189 -68q-69 52 -69 115zM123 1300q0 53 36 90t89 37q51 0 88 -36.5t37 -90.5 q0 -51 -37 -87.5t-88 -36.5q-53 0 -89 36.5t-36 87.5z" />
<glyph unicode="k" horiz-adv-x="1001" d="M117 -2v1300q0 41 23.5 68t88.5 27q31 0 63 -3.5t48 -7.5v-831l344 375q29 31 63.5 47t96.5 16q37 0 71.5 -7t63.5 -17l-418 -453l445 -492q-33 -16 -73 -24t-83 -8q-61 0 -100 26.5t-62 51.5l-348 403v-387q0 -41 -23.5 -67.5t-89.5 -26.5q-31 0 -62.5 3t-47.5 7z" />
<glyph unicode="l" horiz-adv-x="456" d="M117 -2v1300q0 41 23.5 68t88.5 27q31 0 63 -3.5t48 -7.5v-1300q0 -41 -23.5 -67.5t-89.5 -26.5q-31 0 -62.5 3t-47.5 7z" />
<glyph unicode="m" horiz-adv-x="1636" d="M117 -2v983q23 6 46 11t52 5q63 0 91 -33.5t28 -91.5l2 -24q43 68 116.5 114t159.5 46q100 0 179 -50.5t114 -148.5q59 98 136 148.5t176 50.5q162 0 240.5 -100.5t78.5 -274.5v-551q0 -41 -23.5 -67.5t-89.5 -26.5q-31 0 -62.5 3t-47.5 7v612q0 104 -47 154.5t-125 50.5 q-74 0 -125 -38t-78 -91v-604q0 -41 -23.5 -67.5t-89.5 -26.5q-31 0 -62.5 3t-47.5 7v612q0 100 -46 152.5t-132 52.5q-66 0 -118 -38t-79 -89v-606q0 -41 -23.5 -67.5t-89.5 -26.5q-31 0 -62.5 3t-47.5 7z" />
<glyph unicode="n" horiz-adv-x="1116" d="M117 -2v983q23 6 46 11t52 5q63 0 91 -33.5t28 -91.5l2 -28q51 72 134 118t187 46q166 0 262.5 -108.5t96.5 -311.5v-506q0 -41 -23.5 -67.5t-89.5 -26.5q-31 0 -62.5 3t-47.5 7v565q0 131 -57.5 192.5t-162.5 61.5q-66 0 -132 -37t-101 -98v-600q0 -41 -23.5 -67.5 t-89.5 -26.5q-31 0 -62.5 3t-47.5 7z" />
<glyph unicode="o" horiz-adv-x="1130" d="M55 494q0 104 38 197t105.5 163t162 111t206.5 41q113 0 207 -41t160.5 -111t103.5 -163t37 -197t-35.5 -198.5t-102.5 -164.5t-161 -110.5t-209 -40.5t-209 39.5t-161.5 108.5t-104.5 163t-37 203zM283 494q0 -82 24.5 -143.5t64.5 -103.5t91 -62.5t104 -20.5 q51 0 101.5 20.5t90.5 61.5t64.5 102.5t24.5 145.5q0 76 -22.5 137t-60.5 103t-89 64.5t-109 22.5q-55 0 -106 -22.5t-91 -64.5t-63.5 -103t-23.5 -137z" />
<glyph unicode="p" horiz-adv-x="1159" d="M117 -385v1366q23 6 46 11t52 5q66 0 90.5 -33.5t28.5 -91.5l2 -38q53 76 132 124t198 48q82 0 160.5 -34t140 -98.5t99.5 -160t38 -217.5q0 -133 -41 -229.5t-105.5 -160t-145.5 -94t-159 -30.5q-111 0 -188.5 44t-124.5 99v-426q0 -41 -23.5 -67.5t-89.5 -26.5 q-31 0 -62.5 3t-47.5 7zM340 305q33 -59 98.5 -99t151.5 -40q63 0 116.5 23.5t90.5 66.5t57 102.5t20 130.5q0 63 -17 122t-53 105t-89 73.5t-125 27.5q-74 0 -142.5 -36t-107.5 -107v-369z" />
<glyph unicode="q" horiz-adv-x="1159" d="M55 492q0 119 37 214t99.5 161.5t142.5 102.5t166 36q119 0 200.5 -55.5t122.5 -125.5l2 47q2 57 28 91t91 34q29 0 52.5 -5t45.5 -11v-1282q0 -41 -23.5 -67.5t-88.5 -26.5q-31 0 -62.5 3t-48.5 7v508q-59 -72 -143 -105.5t-170 -33.5q-88 0 -169 35.5t-143.5 102 t-100.5 160t-38 210.5zM285 487q0 -66 18.5 -124t54 -102t87 -69.5t118.5 -25.5q78 0 147.5 37t106.5 108v252q0 53 -19.5 99.5t-54 81t-81 54t-97.5 19.5q-70 0 -122 -26.5t-88 -72.5t-53 -105.5t-17 -125.5z" />
<glyph unicode="r" horiz-adv-x="745" d="M133 -2v983q23 6 46.5 11t51.5 5q63 0 91 -33.5t28 -91.5v-71h4q41 100 111 150t162 50q31 0 56.5 -3t47.5 -7q12 -43 12 -78q0 -115 -114 -114h-37q-106 0 -171 -55.5t-65 -172.5v-489q0 -41 -23.5 -67.5t-88.5 -26.5q-31 0 -63 3t-48 7z" />
<glyph unicode="s" horiz-adv-x="956" d="M61 102q0 53 22.5 86t63.5 33q25 0 59 -8t73.5 -19.5t89 -19.5t104.5 -8q61 0 99 9t58.5 24.5t28 35t7.5 41.5q0 45 -35 69t-123 48l-146 41q-166 47 -231 115.5t-65 171.5q0 55 22.5 106.5t70.5 90t123.5 62.5t184.5 24q178 0 375 -66q0 -10 1 -17.5t1 -15.5 q0 -59 -21.5 -93t-66.5 -34t-114 21.5t-175 21.5q-98 0 -138 -24.5t-40 -67.5q0 -18 5 -32.5t20.5 -27t43 -23.5t74.5 -23l154 -43q168 -47 236.5 -117t68.5 -176q0 -55 -19.5 -109.5t-66.5 -96.5t-128 -68.5t-204 -26.5q-98 0 -203.5 19.5t-203.5 53.5q-2 10 -3.5 21.5 t-1.5 21.5z" />
<glyph unicode="t" horiz-adv-x="825" d="M8 897q0 51 21.5 71.5t54.5 20.5h88v141q0 25 5 47.5t18.5 41t39 28.5t68.5 10q49 0 88 -14v-254h336q10 -31 10 -82t-21.5 -71.5t-53.5 -20.5h-271v-477q0 -78 37 -121t109 -43q31 0 55 6t43.5 14.5t37 14.5t34.5 6q39 0 61.5 -26.5t22.5 -84.5v-21q0 -11 -3 -22 q-59 -35 -125.5 -55t-154.5 -20q-80 0 -142.5 25.5t-105.5 71.5t-65.5 108.5t-22.5 138.5v485h-156q-4 14 -6 36.5t-2 45.5z" />
<glyph unicode="u" horiz-adv-x="1122" d="M100 399v504q0 41 25 67.5t88 26.5q33 0 63.5 -3t47.5 -7v-569q0 -129 60 -188.5t155 -59.5q68 0 131 37t106 108v588q0 41 24.5 67.5t88.5 26.5q33 0 64.5 -3t47.5 -7v-600q0 -61 1.5 -109.5t5.5 -91.5t10 -85t16 -91q-49 -23 -114 -22q-53 0 -78 18.5t-35 44t-11 56 t-5 55.5h-3q-53 -80 -131.5 -130t-195.5 -50q-74 0 -139.5 24.5t-114.5 75.5t-78 129.5t-29 187.5z" />
<glyph unicode="v" horiz-adv-x="956" d="M0 971q23 10 56.5 18t64.5 8q39 0 70.5 -10t48.5 -55l137 -406l54 -161q26 -76 48 -162h4q23 86 50.5 160.5t56.5 162.5l135 404q14 41 46 54t73 13q27 0 60.5 -7t53.5 -17l-337 -901q-18 -49 -51 -67.5t-97 -18.5q-29 0 -58.5 4t-56.5 14z" />
<glyph unicode="w" horiz-adv-x="1411" d="M10 971q23 10 51.5 18t67.5 8q49 0 80 -18t41 -68l84 -395l33 -164l28 -147l19 77l21 89q11 45 23.5 88t22.5 73l101 363q16 59 50 80.5t93 21.5q27 0 53.5 -4t46.5 -10l121 -451l46 -174q24 -88 38 -153l27 141q14 76 35 170l88 402q10 45 36.5 62t73.5 17q35 0 62.5 -7 t48.5 -15l-219 -897q-14 -53 -57.5 -72.5t-98.5 -19.5q-29 0 -67.5 4t-59.5 12l-192 725l-177 -645q-16 -57 -56 -76.5t-99 -19.5q-27 0 -67 4t-62 14z" />
<glyph unicode="x" horiz-adv-x="993" d="M18 12l353 488l-340 467q27 14 64.5 22t66.5 8q51 0 86 -13t59 -48l199 -293l190 295q23 33 54.5 46t70.5 13q29 0 67 -6t62 -16l-323 -477l331 -480q-27 -14 -63.5 -22t-65.5 -8q-51 0 -85.5 13t-57.5 48l-194 305l-220 -313q-20 -29 -49 -42q-25 -12 -65 -12 q-6 0 -13 1q-35 0 -68.5 7t-58.5 17z" />
<glyph unicode="y" horiz-adv-x="974" d="M10 971q23 10 55.5 18t67.5 8q53 0 82 -17t39 -50l242 -688l247 690q14 39 44 52t71 13q27 0 59.5 -7t53.5 -17l-500 -1280q-33 -88 -129 -88q-39 0 -66.5 6t-48.5 14l166 379z" />
<glyph unicode="z" horiz-adv-x="923" d="M53 88q0 33 9.5 64.5t37.5 66.5l484 588h-439q-35 0 -57 20.5t-22 75.5q0 25 3 48.5t7 37.5h774q4 -14 7 -37.5t3 -48.5q0 -29 -9 -62.5t-36 -66.5l-487 -594h532q10 -31 10 -84q0 -55 -22.5 -75.5t-56.5 -20.5h-728q-4 14 -7 38.5t-3 49.5z" />
<glyph unicode="{" horiz-adv-x="628" d="M84 410v137q31 6 61.5 15t53 24.5t37 39t14.5 60.5t-7 75t-16.5 78t-16.5 84t-7 95q0 117 63.5 199.5t173.5 140.5q55 -16 80 -47t25 -64q0 -47 -41 -76q-51 -35 -69.5 -77.5t-18.5 -89.5q0 -72 15 -158t15 -158q0 -86 -49 -139t-129 -74q80 -18 130.5 -67.5t50.5 -137.5 q0 -66 -17.5 -152.5t-17.5 -164.5q0 -47 18.5 -90t69.5 -78q41 -29 41 -76q0 -33 -24.5 -63.5t-80.5 -46.5q-111 57 -174 140t-63 200q0 49 7 92t16 83l18 79q8 39 8 77q0 33 -14.5 56.5t-38 39t-53 26t-60.5 18.5z" />
<glyph unicode="|" horiz-adv-x="583" d="M217 -379v1667q0 23 14.5 44.5t57.5 21.5q35 0 78 -15v-1667q0 -23 -14.5 -44t-57.5 -21q-35 0 -78 14z" />
<glyph unicode="}" horiz-adv-x="628" d="M84 -291q0 47 41 76q51 35 69.5 78t18.5 90q0 72 -15.5 158t-15.5 157q0 86 49.5 139.5t128.5 73.5q-80 18 -130 67.5t-50 137.5q0 66 17.5 153t17.5 165q0 47 -18.5 90t-69.5 77q-41 29 -41 76q0 33 24.5 63.5t79.5 47.5q111 -57 174.5 -140t63.5 -200q0 -49 -8 -92 t-17.5 -83t-16.5 -79t-7 -78q0 -35 14.5 -57.5t38 -38t53 -25.5t60.5 -18v-137q-31 -6 -61.5 -15.5t-53 -25t-37 -39t-14.5 -60.5t7 -74.5t16.5 -77.5t16.5 -84t7 -95q0 -117 -63.5 -200t-174.5 -140q-55 16 -79.5 46.5t-24.5 63.5z" />
<glyph unicode="~" horiz-adv-x="1161" d="M92 346l154 299q20 12 50 21.5t66 9.5q37 0 68 -15.5t59 -44.5l164 -161l101 204h139l-152 -297q-25 -14 -53.5 -21t-52.5 -7q-55 0 -81 16.5t-54 44.5l-158 156l-106 -205h-144z" />
<glyph unicode="&#xa1;" horiz-adv-x="555" d="M135 1208q0 53 39 93t94 40q53 0 93 -39.5t40 -93.5q0 -55 -39.5 -94t-93.5 -39q-55 0 -94 39t-39 94zM137 0l49 797q2 25 20.5 44t59.5 19q33 0 74 -14l55 -750v-12q0 -41 -30.5 -68.5t-100.5 -27.5q-37 0 -73 4t-54 8z" />
<glyph unicode="&#xa2;" d="M188 578q0 96 32 182t88.5 153.5t136 111.5t178.5 56v185q0 23 11 44t52 21q33 0 76 -14v-234q78 -8 140.5 -26.5t111.5 -44.5q2 -10 2 -20v-17q0 -57 -24.5 -91t-63.5 -34q-33 0 -67 16.5t-99 24.5v-629q70 4 108.5 19.5t71.5 15.5q41 0 64.5 -28.5t23.5 -88.5v-21 q0 -11 -2 -24q-59 -31 -123.5 -43t-142.5 -20v-195q0 -23 -11.5 -44t-52.5 -21q-33 0 -75 14v248q-98 12 -178 56t-136.5 110.5t-88.5 153t-32 184.5zM412 578q0 -135 61.5 -214t149.5 -98v623q-92 -16 -151.5 -98t-59.5 -213z" />
<glyph unicode="&#xa3;" horiz-adv-x="1032" d="M72 627q0 53 22.5 73.5t52.5 20.5h103q-12 51 -30.5 113.5t-18.5 134.5q0 174 108.5 275.5t300.5 101.5q104 0 191.5 -28t161.5 -73q0 -66 -28 -112t-77 -46q-27 0 -50 10l-50 19q-27 10 -60.5 19.5t-81.5 9.5q-106 0 -149 -54.5t-43 -140.5q0 -61 15.5 -119.5 t25.5 -109.5h340q4 -14 6 -38t2 -48q0 -53 -21.5 -73.5t-54.5 -20.5h-258q0 -176 -117 -332h637q4 -16 6.5 -43t2.5 -55q0 -59 -26 -85t-73 -26h-772q-10 25 -10 68t23 90l48 101q26 54 48 117.5t22 141.5v23h-188q-4 14 -6 37.5t-2 48.5z" />
<glyph unicode="&#xa4;" d="M154 184l135 135q-57 94 -58 207q0 115 58 203l-135 137l133 133l135 -137q90 59 205 60q115 0 204 -60l136 135l133 -131l-137 -135q61 -90 61 -205t-59 -204l135 -134l-133 -133l-136 133q-90 -57 -204 -57q-113 0 -207 57l-135 -135zM401 526q0 -47 17.5 -88 t48.5 -71.5t72 -48t88 -17.5q45 0 87 17.5t72.5 48t49 71.5t18.5 88t-18.5 88t-49 72t-72.5 48.5t-87 17.5q-47 0 -88 -17.5t-72 -48.5t-48.5 -72t-17.5 -88z" />
<glyph unicode="&#xa5;" d="M25 1303q29 16 67.5 24t69.5 8q53 0 88 -13t59 -52l320 -514l317 512q23 39 54.5 53t80.5 14q29 0 69 -7t64 -23l-477 -742h277q4 -14 6 -37.5t2 -48.5q0 -53 -21.5 -73.5t-54.5 -20.5h-209v-299q0 -41 -25.5 -68.5t-90.5 -27.5q-33 0 -65 3t-48 7v385h-285 q-4 14 -6 37.5t-2 48.5q0 53 22.5 73.5t53.5 20.5h217z" />
<glyph unicode="&#xa6;" horiz-adv-x="581" d="M217 326q0 23 14.5 44t57.5 21q35 0 78 -14v-701q0 -23 -14.5 -44t-57.5 -21q-35 0 -78 14v701zM217 588v700q0 23 14.5 44.5t57.5 21.5q35 0 78 -15v-700q0 -23 -14.5 -44.5t-57.5 -21.5q-35 1 -78 15z" />
<glyph unicode="&#xa7;" d="M193 1069q0 61 23.5 112.5t73.5 90.5t127 60.5t181 21.5q92 0 178 -16.5t185 -49.5q0 -8 1 -15t1 -16q0 -55 -21.5 -89.5t-67.5 -34.5q-25 0 -51 7t-59 14t-73 14.5t-91 7.5q-188 0 -188 -101q0 -35 26.5 -65.5t124.5 -55.5l142 -34q170 -43 237.5 -116t67.5 -177 q0 -61 -31 -119.5t-98 -99.5q72 -43 100.5 -91.5t28.5 -119.5q0 -61 -22.5 -115.5t-72 -96.5t-129 -65.5t-194.5 -23.5q-98 0 -190.5 16t-190.5 51q-2 12 -3 23.5t-1 21.5q0 53 22.5 83t63.5 30q25 0 54 -7l65 -17q35 -9 80 -16t100 -7q61 0 100 10t60.5 26.5t30 37 t8.5 40.5q0 45 -34 69t-126 48l-115 31q-90 25 -150.5 53.5t-97.5 63t-51 77.5t-14 97q0 63 30.5 121.5t96.5 99.5q-66 35 -101.5 93t-35.5 128zM383 643q0 -33 24.5 -55.5t67.5 -40t103 -32.5l129 -34q113 27 112 121q0 33 -25.5 57.5t-69.5 43t-103.5 35t-124.5 32.5 q-57 -14 -85 -48t-28 -79z" />
<glyph unicode="&#xa8;" horiz-adv-x="954" d="M182 1260q0 53 36 88.5t87 35.5t87 -35.5t36 -88.5q0 -49 -36 -85t-87 -36t-87 36t-36 85zM557 1260q0 53 36 88.5t87 35.5t87 -35.5t36 -88.5q0 -49 -36 -85t-87 -36t-87 36t-36 85z" />
<glyph unicode="&#xa9;" horiz-adv-x="1460" d="M53 664q0 150 50.5 276.5t140.5 217.5t214 142.5t271 51.5t270 -51.5t212 -142.5t139.5 -218t50.5 -276q0 -152 -50.5 -278t-139.5 -217t-211.5 -142.5t-270.5 -51.5q-147 0 -272 51.5t-214 142.5t-139.5 217t-50.5 278zM195 664q0 -121 39.5 -223.5t110.5 -176.5 t169 -114.5t215 -40.5t215 40.5t168 114.5t109 176.5t39 223.5q0 119 -40 220t-111 175t-168 116t-214 42t-214 -42t-168 -116t-110.5 -175t-39.5 -220zM369 664q0 80 26.5 149.5t75.5 121.5t118.5 83t153.5 31q37 0 80 -6.5t80 -16.5t61.5 -27.5t24.5 -37.5 q0 -47 -22.5 -74t-55.5 -27q-12 0 -25 5l-31 13q-17 7 -39.5 12t-55.5 5q-92 0 -155.5 -60.5t-63.5 -170.5q0 -111 63.5 -173.5t155.5 -62.5q35 0 59.5 5t58 17.5t48.5 12.5q72 0 71 -103q0 -25 -29.5 -40t-71.5 -25t-85 -14.5t-68 -4.5q-84 0 -152.5 31t-117.5 83 t-76.5 123t-27.5 151z" />
<glyph unicode="&#xaa;" horiz-adv-x="901" d="M84 766q0 131 93 194.5t259 63.5q41 0 85 -4t91 -12v39q0 78 -35.5 112.5t-121.5 34.5t-142.5 -18.5t-95.5 -18.5q-35 0 -52.5 28.5t-17.5 76.5q0 20 3 30q18 6 50.5 14.5t73.5 16.5t89.5 13t97.5 5q94 0 157.5 -21.5t101.5 -62t54.5 -101t16.5 -138.5v-170v-85 q0 -38 3 -73t10 -68.5t19 -72.5q-16 -6 -39.5 -12.5t-54.5 -6.5q-59 0 -79.5 41t-24.5 101q-45 -66 -114 -106t-163 -40q-63 0 -112.5 19.5t-83 52.5t-51 76t-17.5 92zM266 778q0 -49 37 -79.5t107 -30.5q68 0 120 36.5t84 106.5v86q-39 6 -73.5 10t-67.5 4 q-98 0 -152.5 -32.5t-54.5 -100.5z" />
<glyph unicode="&#xab;" horiz-adv-x="1193" d="M59 397v158l482 326q12 -23 21 -52.5t9 -60.5q0 -47 -21.5 -83t-51.5 -54l-246 -150l246 -145q31 -18 52 -53t21 -82q0 -31 -9 -60.5t-21 -52.5zM555 397v158l482 326q12 -23 21 -52.5t9 -60.5q0 -47 -21.5 -83t-51.5 -54l-246 -150l246 -145q31 -18 52 -53t21 -82 q0 -31 -9 -60.5t-21 -52.5z" />
<glyph unicode="&#xac;" d="M113 530q0 57 23.5 76t60.5 19h807q76 0 97 -30t21 -77v-440q0 -35 -20.5 -57.5t-75.5 -22.5q-27 0 -51.5 3t-38.5 5v434h-815q-8 31 -8 90z" />
<glyph unicode="&#xad;" horiz-adv-x="727" d="M55 520q0 59 25.5 82t62.5 23h521l5 -42q3 -26 3 -53q0 -59 -24.5 -82.5t-61.5 -23.5h-520q-2 16 -6.5 41.5t-4.5 54.5z" />
<glyph unicode="&#xae;" horiz-adv-x="768" d="M53 1018q0 68 25.5 128t70 105t104.5 72t132 27q70 0 130 -27t104.5 -72t70 -105.5t25.5 -127.5q0 -72 -25.5 -132.5t-70 -104.5t-104.5 -69.5t-130 -25.5q-72 0 -132 25.5t-104.5 70.5t-70 105.5t-25.5 130.5zM127 1018q0 -59 21.5 -107.5t57.5 -82t83 -52t96 -18.5 t95 18.5t81 52t56.5 81.5t21.5 108q0 57 -21.5 105t-56.5 82t-81 52.5t-95 18.5t-96 -18.5t-83 -52.5t-57.5 -82t-21.5 -105zM262 848v307q0 16 7 26.5t34 10.5h88q59 0 97 -29.5t38 -83.5q0 -35 -21.5 -62.5t-64.5 -37.5l95 -125q-10 -6 -21.5 -10t-28.5 -4q-35 0 -53 26 l-76 103h-14v-92q0 -33 -41 -33q-19 0 -39 4zM342 1034h45q31 0 44 13.5t13 29.5q0 45 -53 45h-49v-88z" />
<glyph unicode="&#xaf;" horiz-adv-x="954" d="M211 1268q0 53 21.5 72.5t56.5 19.5h504q4 -14 6 -35.5t2 -46.5q0 -92 -78 -92h-504q-4 14 -6 35.5t-2 46.5z" />
<glyph unicode="&#xb0;" horiz-adv-x="813" d="M78 1026q0 68 25.5 128t70.5 104.5t105.5 70t128.5 25.5t127 -25.5t104 -70t70.5 -104.5t25.5 -128t-25.5 -127t-70.5 -104t-104.5 -71t-126.5 -26q-68 0 -128.5 26t-105.5 71t-70.5 104t-25.5 127zM215 1026q0 -39 15.5 -73.5t41 -60.5t60.5 -41t76 -15q39 0 73.5 15 t60 41t41 60.5t15.5 73.5t-15.5 75t-41 61.5t-60.5 41t-73 15.5q-41 0 -76 -15.5t-60.5 -41t-41 -61.5t-15.5 -75z" />
<glyph unicode="&#xb1;" horiz-adv-x="1148" d="M68 890q0 57 23.5 76t60.5 19h325v346q0 35 20.5 57.5t75.5 22.5q27 0 52.5 -3.5l40.5 -5.5v-417h407q8 -31 8 -90q0 -57 -23.5 -76t-60.5 -19h-331v-362q0 -35 -20.5 -57.5t-76.5 -22.5q-27 0 -52 3t-40 5v434h-401q-8 31 -8 90z" />
<glyph unicode="&#xb2;" horiz-adv-x="878" d="M119 526q0 20 10 55t47 66l213 178l87 75q36 32 57.5 57.5t30.5 50t9 55.5q0 59 -38.5 94t-112.5 35q-39 0 -69.5 -9t-57.5 -21.5t-50.5 -22t-45.5 -9.5q-33 0 -55.5 32t-22.5 89q49 37 129 70t184 33q147 0 230.5 -78t83.5 -207q0 -98 -59.5 -171t-172.5 -159l-162 -125 h402q2 -14 4 -34.5t2 -42.5q0 -45 -18.5 -63.5t-47.5 -18.5h-569q-2 10 -5 30.5t-3 40.5z" />
<glyph unicode="&#xb3;" horiz-adv-x="923" d="M137 514q0 53 20.5 87t57.5 34q20 0 41 -6l47 -15q27 -8 62.5 -14t87.5 -6q76 0 122 31.5t46 85.5q0 51 -41 85.5t-142 34.5h-114q-25 0 -40.5 18.5t-15.5 55.5q0 16 2 37t4 31h158q86 0 127 30.5t41 81.5q0 47 -36 78t-115 31q-84 0 -133.5 -18.5t-82.5 -18.5 q-41 0 -59 37t-18 88q53 29 129.5 49.5t175.5 20.5q76 0 134 -19.5t96 -51.5t57.5 -75t19.5 -92q0 -74 -40 -125t-107 -74q76 -16 127 -71.5t51 -141.5q0 -63 -25.5 -112t-72 -84t-110 -53.5t-138.5 -18.5q-86 0 -171.5 22.5t-144.5 57.5z" />
<glyph unicode="&#xb4;" horiz-adv-x="954" d="M322 1157l327 305q41 -12 62.5 -44t21.5 -70q0 -35 -15.5 -66t-49.5 -55l-131 -92q-51 -35 -101 -35q-69 0 -114 57z" />
<glyph unicode="&#xb5;" horiz-adv-x="1167" d="M115 -383v1286q0 41 24.5 67.5t87.5 26.5q33 0 64 -3t47 -7v-549q0 -70 18.5 -121t49 -83.5t71.5 -49t86 -16.5q66 0 125.5 38t102.5 109v588q0 41 24.5 67.5t87.5 26.5q33 0 64.5 -3t48.5 -7v-516q0 -106 5 -215t30 -248q-16 -6 -40 -12t-57 -6q-37 0 -58.5 8 t-34.5 25.5t-20 47t-14 72.5h-2q-41 -74 -101 -120t-153 -46q-92 0 -146 35t-87 90v-401q0 -41 -24.5 -67.5t-90.5 -26.5q-31 0 -61.5 3t-46.5 7z" />
<glyph unicode="&#xb6;" horiz-adv-x="1189" d="M39 893q0 94 33.5 175t97 139.5t154 91t200.5 32.5h404q76 0 97.5 -29.5t21.5 -76.5v-1172q0 -29 -17.5 -47t-62.5 -18q-23 0 -44.5 2t-33.5 4v1182h-103v-1123q0 -29 -17 -47t-62 -18q-23 0 -45.5 2t-34.5 4v467h-103q-111 0 -201 31.5t-152 89t-97 136.5t-35 175z M209 893q0 -129 83 -200.5t243 -71.5h92v555h-92q-160 0 -243 -77t-83 -206z" />
<glyph unicode="&#xb7;" horiz-adv-x="436" d="M84 516q0 55 38.5 94t92.5 39q55 0 95 -39t40 -94q0 -53 -40 -92t-95 -39q-53 0 -92 39t-39 92z" />
<glyph unicode="&#xb8;" horiz-adv-x="954" d="M311 -387q0 41 17.5 68.5t46.5 27.5t57.5 -13t77.5 -13q41 0 69.5 20.5t28.5 58.5q0 29 -25.5 50.5t-90.5 21.5h-13q-29 0 -45 14.5t-16 38.5q0 12 6 29l33 88h123l-27 -70q53 -2 91 -18t61.5 -41t34 -54.5t10.5 -60.5q0 -98 -68 -149t-172 -51q-51 0 -104.5 15t-94.5 38 z" />
<glyph unicode="&#xb9;" horiz-adv-x="798" d="M131 1145q0 47 51 74l221 112h121v-823q0 -29 -18.5 -49.5t-65.5 -20.5q-23 0 -46 2t-36 6v697l-186 -92l-26 36q-15 23 -15 58z" />
<glyph unicode="&#xba;" horiz-adv-x="907" d="M59 934q0 84 30 158.5t83 130t127 88t164 32.5q92 0 165.5 -31.5t126 -87t81 -129t28.5 -157.5t-28.5 -157.5t-81 -131t-126 -90.5t-165.5 -33q-90 0 -164 32t-127 87t-83 129t-30 160zM238 934q0 -61 20.5 -108.5t52 -79t71.5 -48t81 -16.5q39 0 79 15.5t72.5 47 t53 78.5t20.5 111q0 59 -18.5 107.5t-49 81t-71.5 50t-86 17.5q-43 0 -83 -17.5t-72 -50t-51 -81t-19 -107.5z" />
<glyph unicode="&#xbb;" horiz-adv-x="1193" d="M125 201q0 47 21.5 82.5t52.5 54.5l245 149l-245 146q-31 18 -52.5 53t-21.5 82q0 31 9 60.5t22 52.5l481 -310v-157l-481 -326q-12 23 -21.5 52.5t-9.5 60.5zM621 201q0 47 21.5 82.5t52.5 54.5l245 149l-245 146q-31 18 -52.5 53t-21.5 82q0 31 9 60.5t22 52.5 l481 -310v-157l-481 -326q-12 23 -21.5 52.5t-9.5 60.5z" />
<glyph unicode="&#xbc;" horiz-adv-x="1851" d="M59 1145q0 47 52 74l221 112h121v-823q0 -29 -18.5 -49.5t-65.5 -20.5q-23 0 -46.5 2t-35.5 6v697l-187 -92l-25 36q-16 23 -16 58zM479 188l570 945q16 27 35.5 36t41.5 9q35 0 53.5 -10.5t32.5 -20.5l-569 -942q-16 -25 -35.5 -36t-40.5 -11q-49 -1 -88 30zM1016 258 q0 29 10 57.5t33 61.5l371 512h182v-557h141q4 -12 6 -34t2 -44q0 -41 -16 -58.5t-45 -17.5h-88v-121q0 -29 -18.5 -49t-65.5 -20q-23 0 -47.5 2t-36.5 6v182h-418q-10 31 -10 80zM1200 330h244v336z" />
<glyph unicode="&#xbd;" horiz-adv-x="1878" d="M59 1145q0 47 52 74l221 112h121v-823q0 -29 -18.5 -49.5t-65.5 -20.5q-23 0 -46.5 2t-35.5 6v697l-187 -92l-25 36q-16 23 -16 58zM461 188l569 945q16 27 36.5 36t43.5 9q33 0 50.5 -10.5t31.5 -20.5l-567 -942q-16 -29 -38 -38t-44 -9q-43 -1 -82 30zM1118 74 q0 35 12.5 70.5t51.5 66.5l184 145l89 70q40 31 67.5 58.5t42 56t14.5 65.5q0 55 -38 92t-105 37q-41 0 -74 -10t-60 -22l-52 -21q-24 -10 -46 -10q-29 0 -54.5 27.5t-25.5 76.5q0 23 32 44.5t81 39t105.5 28.5t105.5 11q70 0 127 -21.5t97 -59.5t62.5 -90t22.5 -114 q0 -61 -21.5 -109t-58.5 -88t-86 -76l-106 -77l-142 -104h420q2 -12 3 -34t1 -44q0 -45 -17 -63.5t-46 -18.5h-578q-2 10 -5 33t-3 41z" />
<glyph unicode="&#xbe;" horiz-adv-x="2076" d="M94 514q0 53 20.5 88t55.5 35q20 0 42 -7l47 -17q26 -9 61.5 -16t87.5 -7q76 0 121.5 32.5t45.5 86.5q0 51 -39.5 86.5t-142.5 35.5h-114q-23 0 -38.5 18.5t-15.5 55.5q0 16 1 37t3 31h158q88 0 128 30.5t40 86.5q0 43 -35 75.5t-114 32.5q-43 0 -76 -7t-59.5 -14.5 t-46 -14.5t-36.5 -7q-41 0 -58 38t-19 89q53 29 130.5 49.5t176.5 20.5q76 0 133 -19.5t95 -51.5t57.5 -75t19.5 -92q0 -74 -40 -125t-105 -74q76 -16 126 -72.5t50 -142.5q0 -61 -26 -111t-72 -84t-109.5 -52.5t-136.5 -18.5q-86 0 -172.5 22.5t-143.5 57.5zM700 188 l570 945q29 45 78 45q35 0 52 -10.5l32 -20.5l-570 -942q-16 -29 -36.5 -38t-43.5 -9h-16q-8 0 -16 4q-18 4 -29 11t-21 15zM1235 258q0 29 10 57.5t33 61.5l371 512h182v-557h141q4 -12 6 -34t2 -44q0 -41 -16 -58.5t-45 -17.5h-88v-121q0 -29 -18.5 -49t-65.5 -20 q-23 0 -47.5 2t-36.5 6v182h-418q-10 31 -10 80zM1425 330h240v336z" />
<glyph unicode="&#xbf;" horiz-adv-x="944" d="M49 332q0 55 15.5 101t41 82t59.5 63.5t68 46.5l98 54q42 24 72.5 48.5t49 55t24.5 73.5q4 18 22.5 36.5t59.5 18.5q37 0 78 -14q2 -16 3 -31.5t1 -29.5q0 -78 -26.5 -130.5t-67.5 -90t-88 -66.5l-88 -56.5t-68 -59.5t-27 -77q0 -72 54.5 -115.5t152.5 -43.5q68 0 116 11 t84 24.5l63.5 24.5t56.5 11q45 0 72.5 -41t29.5 -116q-37 -25 -85 -46.5t-103 -38t-114.5 -26.5t-119.5 -10q-104 0 -185 25.5t-136.5 71.5t-84 108.5t-28.5 136.5zM428 1225q0 53 40 92t95 39q53 0 92 -39t39 -92q0 -55 -39 -94t-92 -39q-55 0 -95 39t-40 94z" />
<glyph unicode="&#xc0;" horiz-adv-x="1234" d="M12 12l453 1309q39 10 77 14t72 4q49 0 81 -7t53.5 -22.5t36 -39t26.5 -58.5l412 -1198q-25 -10 -56.5 -18t-58.5 -8q-47 0 -82 11t-51 58l-98 293h-525l-96 -293q-16 -45 -47 -57t-76 -12q-29 0 -65 6t-56 18zM418 547h395l-197 594zM346 1645q0 39 21.5 70.5t62.5 43.5 l328 -305q-45 -57 -113 -57q-51 0 -102 35l-131 92q-35 25 -51.5 55.5t-14.5 65.5z" />
<glyph unicode="&#xc1;" horiz-adv-x="1234" d="M12 12l453 1309q39 10 77 14t72 4q49 0 81 -7t53.5 -22.5t36 -39t26.5 -58.5l412 -1198q-25 -10 -56.5 -18t-58.5 -8q-47 0 -82 11t-51 58l-98 293h-525l-96 -293q-16 -45 -47 -57t-76 -12q-29 0 -65 6t-56 18zM418 547h395l-197 594zM422 1454l327 305q41 -12 62.5 -44 t21.5 -70q0 -35 -15.5 -66t-49.5 -55l-131 -92q-51 -35 -101 -35q-69 0 -114 57z" />
<glyph unicode="&#xc2;" horiz-adv-x="1234" d="M12 12l453 1309q39 10 77 14t72 4q49 0 81 -7t53.5 -22.5t36 -39t26.5 -58.5l412 -1198q-25 -10 -56.5 -18t-58.5 -8q-47 0 -82 11t-51 58l-98 293h-525l-96 -293q-16 -45 -47 -57t-76 -12q-29 0 -65 6t-56 18zM418 547h395l-197 594zM301 1407l205 317q25 10 53.5 17.5 t57.5 7.5q59 0 87.5 -16.5t51.5 -47.5l178 -276q-20 -10 -47 -16.5t-49 -6.5q-41 0 -67.5 11.5t-43.5 39.5l-108 185l-117 -193q-29 -43 -102 -43q-27 0 -54 6.5t-45 14.5z" />
<glyph unicode="&#xc3;" horiz-adv-x="1234" d="M12 12l453 1309q39 10 77 14t72 4q49 0 81 -7t53.5 -22.5t36 -39t26.5 -58.5l412 -1198q-25 -10 -56.5 -18t-58.5 -8q-47 0 -82 11t-51 58l-98 293h-525l-96 -293q-16 -45 -47 -57t-76 -12q-29 0 -65 6t-56 18zM418 547h395l-197 594zM272 1482q25 104 70 164t131 60 q43 0 78 -15.5t64 -34.5l57 -33q27 -15 51 -16q23 0 35 13.5t23 30t25.5 29.5t41.5 13t43 -9t35 -30q-35 -109 -76 -166t-125 -57q-39 0 -74 15.5t-65 33.5l-59 34q-28 15 -52 15q-23 0 -35 -13t-23.5 -29.5t-25.5 -30t-41 -13.5t-43.5 9.5t-34.5 29.5z" />
<glyph unicode="&#xc4;" horiz-adv-x="1234" d="M12 12l453 1309q39 10 77 14t72 4q49 0 81 -7t53.5 -22.5t36 -39t26.5 -58.5l412 -1198q-25 -10 -56.5 -18t-58.5 -8q-47 0 -82 11t-51 58l-98 293h-525l-96 -293q-16 -45 -47 -57t-76 -12q-29 0 -65 6t-56 18zM418 547h395l-197 594zM307 1539q0 53 36 88.5t87 35.5 t87 -35.5t36 -88.5q0 -49 -36 -85t-87 -36t-87 36t-36 85zM682 1539q0 53 36 88.5t87 35.5t87 -35.5t36 -88.5q0 -49 -36 -85t-87 -36t-87 36t-36 85z" />
<glyph unicode="&#xc5;" horiz-adv-x="1234" d="M12 12l453 1309q39 10 77 14t72 4q49 0 81 -7t53.5 -22.5t36 -39t26.5 -58.5l412 -1198q-25 -10 -56.5 -18t-58.5 -8q-47 0 -82 11t-51 58l-98 293h-525l-96 -293q-16 -45 -47 -57t-76 -12q-29 0 -65 6t-56 18zM397 1608q0 45 17.5 83t47.5 66.5t70.5 45t88.5 16.5 q45 0 86 -16.5t69.5 -45t46 -66.5t17.5 -83q0 -47 -17.5 -85t-48.5 -67t-71.5 -44t-86.5 -15q-92 0 -155.5 59.5t-63.5 151.5zM418 547h395l-197 594zM514 1608q0 -47 30.5 -78t73.5 -31q41 0 73 31t32 78t-32 77.5t-73 30.5q-43 0 -73.5 -30.5t-30.5 -77.5z" />
<glyph unicode="&#xc6;" horiz-adv-x="1665" d="M16 14l500 1315l1051 2q4 -16 6 -42.5t2 -55.5q0 -59 -24.5 -85t-61.5 -26h-596l90 -348h545l5 -40q3 -24 3 -52q0 -59 -23.5 -79.5t-58.5 -20.5h-422l98 -373h451q4 -16 7 -45t3 -58q0 -61 -24.5 -83.5t-61.5 -22.5h-442q-23 0 -44.5 3t-38.5 13.5t-31.5 31t-22.5 54.5 l-76 297h-455l-125 -340q-20 -45 -51 -58t-78 -13q-29 0 -65.5 6t-59.5 20zM469 596h332l-133 530z" />
<glyph unicode="&#xc7;" horiz-adv-x="1150" d="M59 659q0 143 49.5 268.5t136.5 217.5t205.5 144t258.5 52q104 0 199.5 -23.5t181.5 -57.5q0 -10 1 -19.5t1 -19.5q0 -78 -27 -114t-72 -36q-20 0 -45 8l-56 19q-32 10 -75 18t-100 8q-88 0 -165 -32.5t-133.5 -92t-89 -146.5t-32.5 -194q0 -111 32.5 -197.5t89 -147 t133.5 -91t165 -30.5q57 0 101 8t78 18t58.5 18.5t46.5 8.5q45 0 70 -38t25 -122v-29q-86 -35 -185.5 -58.5t-210.5 -23.5l-14 -41q53 -2 91 -18t61.5 -41t34 -54.5t10.5 -60.5q0 -98 -67.5 -149t-172.5 -51q-51 0 -104.5 15t-94.5 38q0 41 17.5 68.5t46.5 27.5t57.5 -13 t77.5 -13q41 0 69.5 20.5t28.5 58.5q0 29 -25.5 50.5t-90.5 21.5h-13q-29 0 -45 14.5t-16 38.5q0 12 6 29l27 72q-115 20 -211.5 78.5t-166 146.5t-108.5 201.5t-39 244.5z" />
<glyph unicode="&#xc8;" horiz-adv-x="1013" d="M125 106v1119q0 47 21.5 76.5t97.5 29.5h688q4 -16 7 -45t3 -57q0 -59 -25.5 -83t-62.5 -24h-500v-356h529l5 -42q3 -26 3 -54q0 -57 -23.5 -80t-58.5 -23h-455v-358h596l5 -42q3 -26 3 -54q0 -61 -24.5 -87t-61.5 -26h-628q-76 0 -97.5 29.5t-21.5 76.5zM330 1645 q0 39 21.5 70.5t62.5 43.5l328 -305q-45 -57 -113 -57q-51 0 -102 35l-131 92q-35 25 -51.5 55.5t-14.5 65.5z" />
<glyph unicode="&#xc9;" horiz-adv-x="1013" d="M125 106v1119q0 47 21.5 76.5t97.5 29.5h688q4 -16 7 -45t3 -57q0 -59 -25.5 -83t-62.5 -24h-500v-356h529l5 -42q3 -26 3 -54q0 -57 -23.5 -80t-58.5 -23h-455v-358h596l5 -42q3 -26 3 -54q0 -61 -24.5 -87t-61.5 -26h-628q-76 0 -97.5 29.5t-21.5 76.5zM334 1454 l327 305q41 -12 62.5 -44t21.5 -70q0 -35 -15.5 -66t-49.5 -55l-131 -92q-51 -35 -101 -35q-69 0 -114 57z" />
<glyph unicode="&#xca;" horiz-adv-x="1013" d="M125 106v1119q0 47 21.5 76.5t97.5 29.5h688q4 -16 7 -45t3 -57q0 -59 -25.5 -83t-62.5 -24h-500v-356h529l5 -42q3 -26 3 -54q0 -57 -23.5 -80t-58.5 -23h-455v-358h596l5 -42q3 -26 3 -54q0 -61 -24.5 -87t-61.5 -26h-628q-76 0 -97.5 29.5t-21.5 76.5zM200 1407 l205 317q25 10 53.5 17.5t57.5 7.5q59 0 87.5 -16.5t51.5 -47.5l178 -276q-20 -10 -47 -16.5t-49 -6.5q-41 0 -67.5 11.5t-43.5 39.5l-108 185l-117 -193q-29 -43 -102 -43q-27 0 -54 6.5t-45 14.5z" />
<glyph unicode="&#xcb;" horiz-adv-x="1013" d="M125 106v1119q0 47 21.5 76.5t97.5 29.5h688q4 -16 7 -45t3 -57q0 -59 -25.5 -83t-62.5 -24h-500v-356h529l5 -42q3 -26 3 -54q0 -57 -23.5 -80t-58.5 -23h-455v-358h596l5 -42q3 -26 3 -54q0 -61 -24.5 -87t-61.5 -26h-628q-76 0 -97.5 29.5t-21.5 76.5zM223 1551 q0 53 36 88.5t87 35.5t87 -35.5t36 -88.5q0 -49 -36 -85t-87 -36t-87 36t-36 85zM598 1551q0 53 36 88.5t87 35.5t87 -35.5t36 -88.5q0 -49 -36 -85t-87 -36t-87 36t-36 85z" />
<glyph unicode="&#xcc;" horiz-adv-x="516" d="M137 -2v1241q0 41 25.5 68.5t91.5 27.5q33 0 64.5 -3t48.5 -7v-1241q0 -41 -26 -68.5t-91 -27.5q-33 0 -65 3t-48 7zM-10 1643q0 39 21.5 70.5t62.5 43.5l328 -305q-45 -57 -113 -57q-51 0 -102 35l-131 92q-35 25 -51.5 55.5t-14.5 65.5z" />
<glyph unicode="&#xcd;" horiz-adv-x="516" d="M137 -2v1241q0 41 25.5 68.5t91.5 27.5q33 0 64.5 -3t48.5 -7v-1241q0 -41 -26 -68.5t-91 -27.5q-33 0 -65 3t-48 7zM121 1452l327 305q41 -12 62.5 -44t21.5 -70q0 -35 -15.5 -66t-49.5 -55l-131 -92q-51 -35 -101 -35q-69 0 -114 57z" />
<glyph unicode="&#xce;" horiz-adv-x="516" d="M137 -2v1241q0 41 25.5 68.5t91.5 27.5q33 0 64.5 -3t48.5 -7v-1241q0 -41 -26 -68.5t-91 -27.5q-33 0 -65 3t-48 7zM-62 1407l205 317q25 10 53.5 17.5t57.5 7.5q59 0 87.5 -16.5t51.5 -47.5l178 -276q-20 -10 -47 -16.5t-49 -6.5q-41 0 -67.5 11.5t-43.5 39.5l-108 185 l-117 -193q-29 -43 -102 -43q-27 0 -54 6.5t-45 14.5z" />
<glyph unicode="&#xcf;" horiz-adv-x="516" d="M137 -2v1241q0 41 25.5 68.5t91.5 27.5q33 0 64.5 -3t48.5 -7v-1241q0 -41 -26 -68.5t-91 -27.5q-33 0 -65 3t-48 7zM-54 1551q0 53 36 88.5t87 35.5t87 -35.5t36 -88.5q0 -49 -36 -85t-87 -36t-87 36t-36 85zM321 1551q0 53 36 88.5t87 35.5t87 -35.5t36 -88.5 q0 -49 -36 -85t-87 -36t-87 36t-36 85z" />
<glyph unicode="&#xd0;" horiz-adv-x="1298" d="M-39 668q0 53 22.5 75.5t57.5 22.5h84v459q0 47 21.5 76.5t97.5 29.5h282q166 0 299 -46t225.5 -132t142.5 -207t50 -270q0 -141 -49 -264t-143.5 -214.5t-228.5 -144.5t-302 -53h-276q-76 0 -97.5 29.5t-21.5 76.5v474h-154q-4 14 -7 38.5t-3 49.5zM356 201h181 q98 0 183 30.5t149.5 91t101.5 149.5t37 208t-42 205t-113 140t-165 79.5t-201 25.5h-131v-364h277q4 -14 6 -39t2 -49q0 -35 -12.5 -55.5t-31.5 -29.5t-44 -11t-47 -2h-150v-379z" />
<glyph unicode="&#xd1;" horiz-adv-x="1376" d="M143 -4v1319q23 10 57.5 15t63.5 5q82 0 118 -21.5t62 -62.5l596 -921l-12 915q0 37 23.5 63.5t84.5 26.5q29 0 59 -3t46 -7v-1319q-47 -18 -111 -18q-74 0 -108.5 21.5t-57.5 56.5l-616 960l12 -948q0 -39 -23.5 -64.5t-86.5 -25.5q-31 0 -61 2t-46 6zM379 1497 q25 104 70 164t131 60q43 0 78 -15.5t64 -34.5l57 -33q27 -15 51 -16q23 0 35 13.5t23 30t25.5 29.5t41.5 13t43 -9t35 -30q-35 -109 -76 -166t-125 -57q-39 0 -74 15.5t-65 33.5l-59 34q-28 15 -52 15q-23 0 -35 -13t-23.5 -29.5t-25.5 -30t-41 -13.5t-43.5 9.5t-34.5 29.5 z" />
<glyph unicode="&#xd2;" horiz-adv-x="1421" d="M481 1645q0 39 21.5 70.5t62.5 43.5l328 -305q-45 -57 -113 -57q-51 0 -102 35l-131 92q-35 25 -51.5 55.5t-14.5 65.5zM55 670q0 143 48.5 269t134.5 218t206.5 145.5t266.5 53.5q145 0 266 -53.5t207 -145.5t134 -217t48 -270t-48 -271.5t-134 -221.5t-207 -149.5 t-266 -54.5t-266 54.5t-207 149.5t-134.5 221.5t-48.5 271.5zM295 670q0 -106 31.5 -196.5t88 -156t132.5 -102.5t162 -37t161.5 38t133 103.5t90 155.5t32.5 193q0 102 -31.5 191t-88 153.5t-132 101.5t-163.5 37q-86 0 -162 -36t-132.5 -100.5t-89 -152.5t-32.5 -192z" />
<glyph unicode="&#xd3;" horiz-adv-x="1421" d="M463 1454l327 305q41 -12 62.5 -44t21.5 -70q0 -35 -15.5 -66t-49.5 -55l-131 -92q-51 -35 -101 -35q-69 0 -114 57zM55 670q0 143 48.5 269t134.5 218t206.5 145.5t266.5 53.5q145 0 266 -53.5t207 -145.5t134 -217t48 -270t-48 -271.5t-134 -221.5t-207 -149.5 t-266 -54.5t-266 54.5t-207 149.5t-134.5 221.5t-48.5 271.5zM295 670q0 -106 31.5 -196.5t88 -156t132.5 -102.5t162 -37t161.5 38t133 103.5t90 155.5t32.5 193q0 102 -31.5 191t-88 153.5t-132 101.5t-163.5 37q-86 0 -162 -36t-132.5 -100.5t-89 -152.5t-32.5 -192z" />
<glyph unicode="&#xd4;" horiz-adv-x="1421" d="M393 1407l205 317q25 10 53.5 17.5t57.5 7.5q59 0 87.5 -16.5t51.5 -47.5l178 -276q-20 -10 -47 -16.5t-49 -6.5q-41 0 -67.5 11.5t-43.5 39.5l-108 185l-117 -193q-29 -43 -102 -43q-27 0 -54 6.5t-45 14.5zM55 670q0 143 48.5 269t134.5 218t206.5 145.5t266.5 53.5 q145 0 266 -53.5t207 -145.5t134 -217t48 -270t-48 -271.5t-134 -221.5t-207 -149.5t-266 -54.5t-266 54.5t-207 149.5t-134.5 221.5t-48.5 271.5zM295 670q0 -106 31.5 -196.5t88 -156t132.5 -102.5t162 -37t161.5 38t133 103.5t90 155.5t32.5 193q0 102 -31.5 191 t-88 153.5t-132 101.5t-163.5 37q-86 0 -162 -36t-132.5 -100.5t-89 -152.5t-32.5 -192z" />
<glyph unicode="&#xd5;" horiz-adv-x="1421" d="M389 1491q25 104 70 164t131 60q43 0 78 -15.5t64 -34.5l57 -33q27 -15 51 -16q23 0 35 13.5t23 30t25.5 29.5t41.5 13t43 -9t35 -30q-35 -109 -76 -166t-125 -57q-39 0 -74 15.5t-65 33.5l-59 34q-28 15 -52 15q-23 0 -35 -13t-23.5 -29.5t-25.5 -30t-41 -13.5 t-43.5 9.5t-34.5 29.5zM55 670q0 143 48.5 269t134.5 218t206.5 145.5t266.5 53.5q145 0 266 -53.5t207 -145.5t134 -217t48 -270t-48 -271.5t-134 -221.5t-207 -149.5t-266 -54.5t-266 54.5t-207 149.5t-134.5 221.5t-48.5 271.5zM295 670q0 -106 31.5 -196.5t88 -156 t132.5 -102.5t162 -37t161.5 38t133 103.5t90 155.5t32.5 193q0 102 -31.5 191t-88 153.5t-132 101.5t-163.5 37q-86 0 -162 -36t-132.5 -100.5t-89 -152.5t-32.5 -192z" />
<glyph unicode="&#xd6;" horiz-adv-x="1421" d="M399 1551q0 53 36 88.5t87 35.5t87 -35.5t36 -88.5q0 -49 -36 -85t-87 -36t-87 36t-36 85zM774 1551q0 53 36 88.5t87 35.5t87 -35.5t36 -88.5q0 -49 -36 -85t-87 -36t-87 36t-36 85zM55 670q0 143 48.5 269t134.5 218t206.5 145.5t266.5 53.5q145 0 266 -53.5 t207 -145.5t134 -217t48 -270t-48 -271.5t-134 -221.5t-207 -149.5t-266 -54.5t-266 54.5t-207 149.5t-134.5 221.5t-48.5 271.5zM295 670q0 -106 31.5 -196.5t88 -156t132.5 -102.5t162 -37t161.5 38t133 103.5t90 155.5t32.5 193q0 102 -31.5 191t-88 153.5t-132 101.5 t-163.5 37q-86 0 -162 -36t-132.5 -100.5t-89 -152.5t-32.5 -192z" />
<glyph unicode="&#xd7;" d="M168 180l321 320l-280 280q-27 27 -27 56q0 20 11.5 38.5t29 35t35.5 30.5l33 25l332 -332l280 278q27 27 55 27q18 0 37 -11.5t35.5 -28.5t28.5 -37.5t16 -37.5l-321 -319l278 -279q27 -27 27 -55q0 -18 -12.5 -36.5t-30 -36t-35.5 -32t-33 -22.5l-327 328l-281 -279 q-27 -27 -55 -26q-18 0 -37 11t-34 28.5t-27.5 37t-18.5 37.5z" />
<glyph unicode="&#xd8;" horiz-adv-x="1435" d="M61 670q0 143 48.5 268t135.5 217t206.5 145.5t265.5 53.5q98 0 180 -23.5t154 -66.5l49 69q16 23 38.5 40.5t65.5 17.5q70 0 113 -21l-143 -201q94 -92 146 -219t52 -280q0 -145 -48 -271.5t-135 -219.5t-208 -147.5t-264 -54.5q-92 0 -175 24t-155 67l-57 -72 q-18 -23 -41 -37t-64 -14q-33 0 -58.5 5t-47.5 13l143 197q-98 98 -149.5 227t-51.5 283zM301 670q0 -98 27.5 -177t74.5 -139l517 733q-45 29 -96.5 45.5t-106.5 16.5q-86 0 -162 -36t-132 -100.5t-89 -151.5t-33 -191zM516 242q88 -61 201 -62q82 0 157.5 37t134 101.5 t92.5 154.5t34 195q0 86 -27 165.5t-80 139.5z" />
<glyph unicode="&#xd9;" horiz-adv-x="1331" d="M117 551v688q0 41 25.5 68.5t90.5 27.5q33 0 65 -3t48 -7v-780q0 -166 83 -265.5t236 -99.5q147 0 234.5 99.5t87.5 265.5v694q0 41 25.5 68.5t91.5 27.5q33 0 63.5 -3t46.5 -7v-774q0 -121 -36.5 -225.5t-106.5 -183.5t-173.5 -124t-234.5 -45q-133 0 -234 45t-171 124 t-105.5 183.5t-35.5 225.5zM473 1645q0 39 21.5 70.5t62.5 43.5l328 -305q-45 -57 -113 -57q-51 0 -102 35l-131 92q-35 25 -51.5 55.5t-14.5 65.5z" />
<glyph unicode="&#xda;" horiz-adv-x="1331" d="M117 551v688q0 41 25.5 68.5t90.5 27.5q33 0 65 -3t48 -7v-780q0 -166 83 -265.5t236 -99.5q147 0 234.5 99.5t87.5 265.5v694q0 41 25.5 68.5t91.5 27.5q33 0 63.5 -3t46.5 -7v-774q0 -121 -36.5 -225.5t-106.5 -183.5t-173.5 -124t-234.5 -45q-133 0 -234 45t-171 124 t-105.5 183.5t-35.5 225.5zM469 1454l327 305q41 -12 62.5 -44t21.5 -70q0 -35 -15.5 -66t-49.5 -55l-131 -92q-51 -35 -101 -35q-69 0 -114 57z" />
<glyph unicode="&#xdb;" horiz-adv-x="1337" d="M117 551v688q0 41 25.5 68.5t90.5 27.5q33 0 65 -3t48 -7v-780q0 -166 83 -265.5t236 -99.5q147 0 234.5 99.5t87.5 265.5v694q0 41 25.5 68.5t91.5 27.5q33 0 63.5 -3t46.5 -7v-774q0 -121 -36.5 -225.5t-106.5 -183.5t-173.5 -124t-234.5 -45q-133 0 -234 45t-171 124 t-105.5 183.5t-35.5 225.5zM354 1407l205 317q25 10 53.5 17.5t57.5 7.5q59 0 87.5 -16.5t51.5 -47.5l178 -276q-20 -10 -47 -16.5t-49 -6.5q-41 0 -67.5 11.5t-43.5 39.5l-108 185l-117 -193q-29 -43 -102 -43q-27 0 -54 6.5t-45 14.5z" />
<glyph unicode="&#xdc;" horiz-adv-x="1337" d="M117 551v688q0 41 25.5 68.5t90.5 27.5q33 0 65 -3t48 -7v-780q0 -166 83 -265.5t236 -99.5q147 0 234.5 99.5t87.5 265.5v694q0 41 25.5 68.5t91.5 27.5q33 0 63.5 -3t46.5 -7v-774q0 -121 -36.5 -225.5t-106.5 -183.5t-173.5 -124t-234.5 -45q-133 0 -234 45t-171 124 t-105.5 183.5t-35.5 225.5zM358 1551q0 53 36 88.5t87 35.5t87 -35.5t36 -88.5q0 -49 -36 -85t-87 -36t-87 36t-36 85zM733 1551q0 53 36 88.5t87 35.5t87 -35.5t36 -88.5q0 -49 -36 -85t-87 -36t-87 36t-36 85z" />
<glyph unicode="&#xdd;" horiz-adv-x="1181" d="M-2 1303q29 16 67.5 24t69.5 8q53 0 89 -13t61 -52l319 -514l318 512q23 39 53.5 53t79.5 14q29 0 67.5 -7t63.5 -23l-475 -740v-481q0 -41 -26 -68.5t-91 -27.5q-33 0 -64.5 3t-48.5 7v565zM451 1454l327 305q41 -12 62.5 -44t21.5 -70q0 -35 -15.5 -66t-49.5 -55 l-131 -92q-51 -35 -101 -35q-69 0 -114 57z" />
<glyph unicode="&#xde;" horiz-adv-x="1124" d="M135 -2v1241q0 41 25.5 68.5t91.5 27.5q33 0 64.5 -3t48.5 -7v-188h190q133 0 232.5 -36t166 -97.5t99 -143.5t32.5 -176q0 -100 -36.5 -184t-103 -144.5t-161 -94.5t-209.5 -34h-210v-143q0 -41 -26 -68.5t-91 -27.5q-33 0 -65 3t-48 7zM365 428h174q160 0 234.5 68.5 t74.5 185.5q0 119 -75 185.5t-216 66.5h-192v-506z" />
<glyph unicode="&#xdf;" horiz-adv-x="1273" d="M117 -2v1038q0 100 34.5 174t95 121t140.5 69.5t172 22.5q119 0 208 -30.5t148.5 -84t89 -127t29.5 -161.5q0 -47 -8 -93t-25 -75q-106 -2 -154 -35t-48 -80t31.5 -78.5t77.5 -57.5t101.5 -49.5t101.5 -58t78 -84t32 -122.5q0 -61 -25 -115.5t-76 -96.5t-129 -65.5 t-184 -23.5q-94 0 -179 16t-157 45q-2 14 -3 26.5t-1 24.5q0 51 19.5 83t64.5 32q25 0 50 -7l56 -16q31 -8 68 -15t86 -7q98 0 141 28.5t43 82.5q0 39 -30.5 66.5t-77.5 52t-101.5 50t-101.5 61.5t-78 87t-31 127q0 104 69 176t185 94q4 10 5 23v22q0 86 -68 143.5 t-191 57.5q-129 0 -182 -59.5t-53 -175.5v-922q0 -41 -23.5 -67.5t-89.5 -26.5q-31 0 -62.5 3t-47.5 7z" />
<glyph unicode="&#xe0;" horiz-adv-x="1052" d="M59 283q0 74 26 135t79 105t134 68.5t194 24.5q106 0 241 -24v51q0 100 -45 142t-162 42q-59 0 -104 -7t-81 -16l-63 -17q-28 -7 -53 -7q-43 0 -63.5 37t-20.5 90v20q0 9 2 19q68 23 168.5 42.5t223.5 19.5q119 0 197.5 -27t126.5 -79t67.5 -127t19.5 -173v-215 q0 -61 1 -110.5t6 -92.5t13.5 -85t22.5 -91q-18 -8 -46 -14t-64 -6q-41 0 -67 15t-40 41t-19 60.5t-8 73.5h-2q-25 -39 -56.5 -74.5t-74.5 -62.5t-97 -42t-124 -15q-80 0 -142.5 23.5t-104.5 64.5t-63.5 95.5t-21.5 115.5zM281 299q0 -66 47 -100.5t123 -34.5 q98 0 170.5 57.5t113.5 143.5v86q-104 18 -186 18q-135 0 -201.5 -44t-66.5 -126zM311 1348q0 39 21.5 70.5t62.5 43.5l328 -305q-45 -57 -113 -57q-51 0 -102 35l-131 92q-35 25 -51.5 55.5t-14.5 65.5z" />
<glyph unicode="&#xe1;" horiz-adv-x="1052" d="M59 283q0 74 26 135t79 105t134 68.5t194 24.5q106 0 241 -24v51q0 100 -45 142t-162 42q-59 0 -104 -7t-81 -16l-63 -17q-28 -7 -53 -7q-43 0 -63.5 37t-20.5 90v20q0 9 2 19q68 23 168.5 42.5t223.5 19.5q119 0 197.5 -27t126.5 -79t67.5 -127t19.5 -173v-215 q0 -61 1 -110.5t6 -92.5t13.5 -85t22.5 -91q-18 -8 -46 -14t-64 -6q-41 0 -67 15t-40 41t-19 60.5t-8 73.5h-2q-25 -39 -56.5 -74.5t-74.5 -62.5t-97 -42t-124 -15q-80 0 -142.5 23.5t-104.5 64.5t-63.5 95.5t-21.5 115.5zM281 299q0 -66 47 -100.5t123 -34.5 q98 0 170.5 57.5t113.5 143.5v86q-104 18 -186 18q-135 0 -201.5 -44t-66.5 -126zM328 1157l327 305q41 -12 62.5 -44t21.5 -70q0 -35 -15.5 -66t-49.5 -55l-131 -92q-51 -35 -101 -35q-69 0 -114 57z" />
<glyph unicode="&#xe2;" horiz-adv-x="1052" d="M59 283q0 74 26 135t79 105t134 68.5t194 24.5q106 0 241 -24v51q0 100 -45 142t-162 42q-59 0 -104 -7t-81 -16l-63 -17q-28 -7 -53 -7q-43 0 -63.5 37t-20.5 90v20q0 9 2 19q68 23 168.5 42.5t223.5 19.5q119 0 197.5 -27t126.5 -79t67.5 -127t19.5 -173v-215 q0 -61 1 -110.5t6 -92.5t13.5 -85t22.5 -91q-18 -8 -46 -14t-64 -6q-41 0 -67 15t-40 41t-19 60.5t-8 73.5h-2q-25 -39 -56.5 -74.5t-74.5 -62.5t-97 -42t-124 -15q-80 0 -142.5 23.5t-104.5 64.5t-63.5 95.5t-21.5 115.5zM281 299q0 -66 47 -100.5t123 -34.5 q98 0 170.5 57.5t113.5 143.5v86q-104 18 -186 18q-135 0 -201.5 -44t-66.5 -126zM209 1098l205 317q25 10 53.5 17.5t57.5 7.5q59 0 87.5 -16.5t51.5 -47.5l178 -276q-20 -10 -47 -16.5t-49 -6.5q-41 0 -67.5 11.5t-43.5 39.5l-108 185l-117 -193q-29 -43 -102 -43 q-27 0 -54 6.5t-45 14.5z" />
<glyph unicode="&#xe3;" horiz-adv-x="1052" d="M59 283q0 74 26 135t79 105t134 68.5t194 24.5q106 0 241 -24v51q0 100 -45 142t-162 42q-59 0 -104 -7t-81 -16l-63 -17q-28 -7 -53 -7q-43 0 -63.5 37t-20.5 90v20q0 9 2 19q68 23 168.5 42.5t223.5 19.5q119 0 197.5 -27t126.5 -79t67.5 -127t19.5 -173v-215 q0 -61 1 -110.5t6 -92.5t13.5 -85t22.5 -91q-18 -8 -46 -14t-64 -6q-41 0 -67 15t-40 41t-19 60.5t-8 73.5h-2q-25 -39 -56.5 -74.5t-74.5 -62.5t-97 -42t-124 -15q-80 0 -142.5 23.5t-104.5 64.5t-63.5 95.5t-21.5 115.5zM281 299q0 -66 47 -100.5t123 -34.5 q98 0 170.5 57.5t113.5 143.5v86q-104 18 -186 18q-135 0 -201.5 -44t-66.5 -126zM180 1206q25 104 70 164t131 60q43 0 78 -15.5t64 -34.5l57 -33q27 -15 51 -16q23 0 35 13.5t23 30t25.5 29.5t41.5 13t43 -9t35 -30q-35 -109 -76 -166t-125 -57q-39 0 -74 15.5t-65 33.5 l-59 34q-28 15 -52 15q-23 0 -35 -13t-23.5 -29.5t-25.5 -30t-41 -13.5t-43.5 9.5t-34.5 29.5z" />
<glyph unicode="&#xe4;" horiz-adv-x="1052" d="M59 283q0 74 26 135t79 105t134 68.5t194 24.5q106 0 241 -24v51q0 100 -45 142t-162 42q-59 0 -104 -7t-81 -16l-63 -17q-28 -7 -53 -7q-43 0 -63.5 37t-20.5 90v20q0 9 2 19q68 23 168.5 42.5t223.5 19.5q119 0 197.5 -27t126.5 -79t67.5 -127t19.5 -173v-215 q0 -61 1 -110.5t6 -92.5t13.5 -85t22.5 -91q-18 -8 -46 -14t-64 -6q-41 0 -67 15t-40 41t-19 60.5t-8 73.5h-2q-25 -39 -56.5 -74.5t-74.5 -62.5t-97 -42t-124 -15q-80 0 -142.5 23.5t-104.5 64.5t-63.5 95.5t-21.5 115.5zM281 299q0 -66 47 -100.5t123 -34.5 q98 0 170.5 57.5t113.5 143.5v86q-104 18 -186 18q-135 0 -201.5 -44t-66.5 -126zM215 1260q0 53 36 88.5t87 35.5t87 -35.5t36 -88.5q0 -49 -36 -85t-87 -36t-87 36t-36 85zM590 1260q0 53 36 88.5t87 35.5t87 -35.5t36 -88.5q0 -49 -36 -85t-87 -36t-87 36t-36 85z" />
<glyph unicode="&#xe5;" horiz-adv-x="1052" d="M59 283q0 74 26 135t79 105t134 68.5t194 24.5q106 0 241 -24v51q0 100 -45 142t-162 42q-59 0 -104 -7t-81 -16l-63 -17q-28 -7 -53 -7q-43 0 -63.5 37t-20.5 90v20q0 9 2 19q68 23 168.5 42.5t223.5 19.5q119 0 197.5 -27t126.5 -79t67.5 -127t19.5 -173v-215 q0 -61 1 -110.5t6 -92.5t13.5 -85t22.5 -91q-18 -8 -46 -14t-64 -6q-41 0 -67 15t-40 41t-19 60.5t-8 73.5h-2q-25 -39 -56.5 -74.5t-74.5 -62.5t-97 -42t-124 -15q-80 0 -142.5 23.5t-104.5 64.5t-63.5 95.5t-21.5 115.5zM281 299q0 -66 47 -100.5t123 -34.5 q98 0 170.5 57.5t113.5 143.5v86q-104 18 -186 18q-135 0 -201.5 -44t-66.5 -126zM307 1298q0 45 17.5 83t47 67t70.5 45t88 16q45 0 85 -16t69 -45t46.5 -67t17.5 -83q0 -92 -65 -151.5t-157 -59.5t-155.5 59.5t-63.5 151.5zM422 1298q0 -47 31.5 -77.5t74.5 -30.5 q41 0 73 30.5t32 77.5t-32 78t-73 31q-43 0 -74.5 -31t-31.5 -78z" />
<glyph unicode="&#xe6;" horiz-adv-x="1724" d="M59 268q0 70 26 129.5t82 102.5t148.5 66.5t225.5 23.5q43 0 89 -3t97 -7q0 10 1 18t1 16q0 57 -17.5 98.5t-48 67t-71.5 36.5t-86 11q-55 0 -96 -7t-75 -15t-60.5 -15.5t-51.5 -7.5q-43 0 -63.5 38t-20.5 93v16q0 7 2 17q61 23 150.5 42.5t200.5 19.5q283 0 364 -187 q53 82 139 134.5t209 52.5q113 0 200 -42t145.5 -111t88 -157t29.5 -180q0 -53 -10 -104h-721q16 -123 99 -183.5t212 -60.5q55 0 97 8t75 19l59 18q26 8 50 8q37 0 62.5 -32.5t25.5 -88.5q0 -10 -1 -21t-3 -24q-59 -29 -160.5 -54.5t-218.5 -25.5q-147 0 -250.5 54.5 t-159.5 136.5q-74 -86 -170 -137t-237 -51q-90 0 -158 24.5t-112 65.5t-65.5 93t-21.5 105zM281 285q0 -53 43 -93t118 -40q86 0 169 38.5t137 120.5q-8 20 -14.5 57.5t-6.5 65.5q-35 2 -66.5 3t-60.5 1q-90 0 -151.5 -9t-98.5 -28.5t-53 -48t-16 -67.5zM938 573h520 q-8 111 -74.5 186t-183.5 75t-184.5 -74t-77.5 -187z" />
<glyph unicode="&#xe7;" horiz-adv-x="933" d="M55 492q0 106 36 198t101.5 162t157.5 109.5t205 39.5q111 0 187.5 -22.5t138.5 -56.5q2 -10 2 -20v-17q0 -57 -24.5 -91t-63.5 -34q-18 0 -38 7l-43 16q-24 9 -56.5 17.5t-79.5 8.5q-61 0 -114.5 -20.5t-93.5 -61.5t-62.5 -100.5t-22.5 -134.5q0 -76 22.5 -135.5 t62.5 -99.5t93 -61.5t115 -21.5q49 0 83.5 8t61.5 19l47 18q20 8 39 8q41 0 64.5 -29.5t23.5 -88.5v-22q0 -11 -2 -21q-72 -39 -152.5 -60.5t-191.5 -21.5l-19 -50q53 -2 91.5 -18t62 -41t33.5 -54.5t10 -60.5q0 -98 -67.5 -149t-172.5 -51q-51 0 -104 15t-94 38 q0 41 17.5 68.5t45.5 27.5q29 0 57.5 -13t77.5 -13q41 0 70 20.5t29 58.5q0 29 -25.5 50.5t-91.5 21.5h-12q-29 0 -45.5 14.5t-16.5 38.5q0 12 6 29l31 82q-88 18 -157.5 63t-118.5 111t-76 148t-27 172z" />
<glyph unicode="&#xe8;" horiz-adv-x="1060" d="M55 496q0 111 37 204t101.5 161.5t152.5 107.5t191 39q115 0 202.5 -42t146 -112t88.5 -158t30 -180q0 -51 -11 -102h-710q14 -119 93 -181.5t208 -62.5q55 0 96 8t73.5 19.5t59.5 19.5t53 8q37 0 60.5 -32.5t23.5 -88.5q0 -10 -1 -22t-3 -25q-61 -29 -153.5 -54.5 t-208.5 -25.5q-125 0 -223.5 39t-166 109t-103.5 165t-36 206zM281 573h514q-10 111 -75 186t-183 75q-113 0 -179.5 -72t-76.5 -189zM330 1348q0 39 21.5 70.5t62.5 43.5l328 -305q-45 -57 -113 -57q-51 0 -102 35l-131 92q-35 25 -51.5 55.5t-14.5 65.5z" />
<glyph unicode="&#xe9;" horiz-adv-x="1060" d="M55 496q0 111 37 204t101.5 161.5t152.5 107.5t191 39q115 0 202.5 -42t146 -112t88.5 -158t30 -180q0 -51 -11 -102h-710q14 -119 93 -181.5t208 -62.5q55 0 96 8t73.5 19.5t59.5 19.5t53 8q37 0 60.5 -32.5t23.5 -88.5q0 -10 -1 -22t-3 -25q-61 -29 -153.5 -54.5 t-208.5 -25.5q-125 0 -223.5 39t-166 109t-103.5 165t-36 206zM281 573h514q-10 111 -75 186t-183 75q-113 0 -179.5 -72t-76.5 -189zM342 1157l327 305q41 -12 62.5 -44t21.5 -70q0 -35 -15.5 -66t-49.5 -55l-131 -92q-51 -35 -101 -35q-69 0 -114 57z" />
<glyph unicode="&#xea;" horiz-adv-x="1060" d="M55 496q0 111 37 204t101.5 161.5t152.5 107.5t191 39q115 0 202.5 -42t146 -112t88.5 -158t30 -180q0 -51 -11 -102h-710q14 -119 93 -181.5t208 -62.5q55 0 96 8t73.5 19.5t59.5 19.5t53 8q37 0 60.5 -32.5t23.5 -88.5q0 -10 -1 -22t-3 -25q-61 -29 -153.5 -54.5 t-208.5 -25.5q-125 0 -223.5 39t-166 109t-103.5 165t-36 206zM281 573h514q-10 111 -75 186t-183 75q-113 0 -179.5 -72t-76.5 -189zM211 1098l205 317q25 10 53.5 17.5t57.5 7.5q59 0 87.5 -16.5t51.5 -47.5l178 -276q-20 -10 -47 -16.5t-49 -6.5q-41 0 -67.5 11.5 t-43.5 39.5l-108 185l-117 -193q-29 -43 -102 -43q-27 0 -54 6.5t-45 14.5z" />
<glyph unicode="&#xeb;" horiz-adv-x="1060" d="M55 496q0 111 37 204t101.5 161.5t152.5 107.5t191 39q115 0 202.5 -42t146 -112t88.5 -158t30 -180q0 -51 -11 -102h-710q14 -119 93 -181.5t208 -62.5q55 0 96 8t73.5 19.5t59.5 19.5t53 8q37 0 60.5 -32.5t23.5 -88.5q0 -10 -1 -22t-3 -25q-61 -29 -153.5 -54.5 t-208.5 -25.5q-125 0 -223.5 39t-166 109t-103.5 165t-36 206zM281 573h514q-10 111 -75 186t-183 75q-113 0 -179.5 -72t-76.5 -189zM217 1260q0 53 36 88.5t87 35.5t87 -35.5t36 -88.5q0 -49 -36 -85t-87 -36t-87 36t-36 85zM592 1260q0 53 36 88.5t87 35.5t87 -35.5 t36 -88.5q0 -49 -36 -85t-87 -36t-87 36t-36 85z" />
<glyph unicode="&#xec;" horiz-adv-x="460" d="M117 -2v905q0 41 24.5 67.5t87.5 26.5q33 0 64 -3t47 -7v-905q0 -41 -24.5 -67.5t-90.5 -26.5q-31 0 -61.5 3t-46.5 7zM-13 1348q0 39 21.5 70.5t62.5 43.5l328 -305q-45 -57 -113 -57q-51 0 -102 35l-131 92q-35 25 -51.5 55.5t-14.5 65.5z" />
<glyph unicode="&#xed;" horiz-adv-x="460" d="M117 -2v905q0 41 24.5 67.5t87.5 26.5q33 0 64 -3t47 -7v-905q0 -41 -24.5 -67.5t-90.5 -26.5q-31 0 -61.5 3t-46.5 7zM97 1157l327 305q41 -12 62.5 -44t21.5 -70q0 -35 -15.5 -66t-49.5 -55l-131 -92q-51 -35 -101 -35q-69 0 -114 57z" />
<glyph unicode="&#xee;" horiz-adv-x="460" d="M117 -2v905q0 41 24.5 67.5t87.5 26.5q33 0 64 -3t47 -7v-905q0 -41 -24.5 -67.5t-90.5 -26.5q-31 0 -61.5 3t-46.5 7zM-58 1098l205 317q25 10 53.5 17.5t57.5 7.5q59 0 87.5 -16.5t51.5 -47.5l178 -276q-20 -10 -47 -16.5t-49 -6.5q-41 0 -67.5 11.5t-43.5 39.5 l-108 185l-117 -193q-29 -43 -102 -43q-27 0 -54 6.5t-45 14.5z" />
<glyph unicode="&#xef;" horiz-adv-x="460" d="M117 -2v905q0 41 24.5 67.5t87.5 26.5q33 0 64 -3t47 -7v-905q0 -41 -24.5 -67.5t-90.5 -26.5q-31 0 -61.5 3t-46.5 7zM-60 1260q0 53 36 88.5t87 35.5t87 -35.5t36 -88.5q0 -49 -36 -85t-87 -36t-87 36t-36 85zM315 1260q0 53 36 88.5t87 35.5t87 -35.5t36 -88.5 q0 -49 -36 -85t-87 -36t-87 36t-36 85z" />
<glyph unicode="&#xf0;" horiz-adv-x="1122" d="M55 465q0 102 36 188t99.5 147.5t146.5 96.5t179 35q98 0 166 -27.5t139 -83.5q-37 174 -190 283l-207 -113q-20 -10 -35 -10q-27 0 -47 34t-25 58l191 103q-23 10 -50.5 18t-52 20.5t-42 30t-17.5 45.5q0 49 45 107q162 -39 297 -121l158 86q20 8 31 8q27 0 48 -28.5 t25 -63.5l-151 -82q129 -111 198.5 -267.5t69.5 -355.5q0 -129 -36 -238.5t-103.5 -188t-161.5 -122.5t-211 -44q-115 0 -208 37.5t-157.5 104t-99.5 155t-35 188.5zM283 469q0 -74 22.5 -131t60 -96t87 -58.5t102.5 -19.5q76 0 131 30.5t90 83t51.5 118t16.5 136.5 q0 45 -6 89q-53 61 -121 99t-154 38q-53 0 -104 -17.5t-90 -52.5t-62.5 -90t-23.5 -129z" />
<glyph unicode="&#xf1;" horiz-adv-x="1116" d="M117 -2v983q23 6 46 11t52 5q63 0 91 -33.5t28 -91.5l2 -28q51 72 134 118t187 46q166 0 262.5 -108.5t96.5 -311.5v-506q0 -41 -23.5 -67.5t-89.5 -26.5q-31 0 -62.5 3t-47.5 7v565q0 131 -57.5 192.5t-162.5 61.5q-66 0 -132 -37t-101 -98v-600q0 -41 -23.5 -67.5 t-89.5 -26.5q-31 0 -62.5 3t-47.5 7zM217 1206q25 104 70 164t131 60q43 0 78 -15.5t64 -34.5l57 -33q27 -15 51 -16q23 0 35 13.5t23 30t25.5 29.5t41.5 13t43 -9t35 -30q-35 -109 -76 -166t-125 -57q-39 0 -74 15.5t-65 33.5l-59 34q-28 15 -52 15q-23 0 -35 -13 t-23.5 -29.5t-25.5 -30t-41 -13.5t-43.5 9.5t-34.5 29.5z" />
<glyph unicode="&#xf2;" horiz-adv-x="1122" d="M55 494q0 104 38 197t105.5 163t162 111t206.5 41q113 0 207 -41t160.5 -111t103.5 -163t37 -197t-35.5 -198.5t-102.5 -164.5t-161 -110.5t-209 -40.5t-209 39.5t-161.5 108.5t-104.5 163t-37 203zM283 494q0 -82 24.5 -143.5t64.5 -103.5t91 -62.5t104 -20.5 q51 0 101.5 20.5t90.5 61.5t64.5 102.5t24.5 145.5q0 76 -22.5 137t-60.5 103t-89 64.5t-109 22.5q-55 0 -106 -22.5t-91 -64.5t-63.5 -103t-23.5 -137zM391 1348q0 39 21.5 70.5t62.5 43.5l328 -305q-45 -57 -113 -57q-51 0 -102 35l-131 92q-35 25 -51.5 55.5t-14.5 65.5z " />
<glyph unicode="&#xf3;" horiz-adv-x="1122" d="M55 494q0 104 38 197t105.5 163t162 111t206.5 41q113 0 207 -41t160.5 -111t103.5 -163t37 -197t-35.5 -198.5t-102.5 -164.5t-161 -110.5t-209 -40.5t-209 39.5t-161.5 108.5t-104.5 163t-37 203zM283 494q0 -82 24.5 -143.5t64.5 -103.5t91 -62.5t104 -20.5 q51 0 101.5 20.5t90.5 61.5t64.5 102.5t24.5 145.5q0 76 -22.5 137t-60.5 103t-89 64.5t-109 22.5q-55 0 -106 -22.5t-91 -64.5t-63.5 -103t-23.5 -137zM320 1157l327 305q41 -12 62.5 -44t21.5 -70q0 -35 -15.5 -66t-49.5 -55l-131 -92q-51 -35 -101 -35q-69 0 -114 57z " />
<glyph unicode="&#xf4;" horiz-adv-x="1122" d="M55 494q0 104 38 197t105.5 163t162 111t206.5 41q113 0 207 -41t160.5 -111t103.5 -163t37 -197t-35.5 -198.5t-102.5 -164.5t-161 -110.5t-209 -40.5t-209 39.5t-161.5 108.5t-104.5 163t-37 203zM283 494q0 -82 24.5 -143.5t64.5 -103.5t91 -62.5t104 -20.5 q51 0 101.5 20.5t90.5 61.5t64.5 102.5t24.5 145.5q0 76 -22.5 137t-60.5 103t-89 64.5t-109 22.5q-55 0 -106 -22.5t-91 -64.5t-63.5 -103t-23.5 -137zM243 1098l205 317q25 10 53.5 17.5t57.5 7.5q59 0 87.5 -16.5t51.5 -47.5l178 -276q-20 -10 -47 -16.5t-49 -6.5 q-41 0 -67.5 11.5t-43.5 39.5l-108 185l-117 -193q-29 -43 -102 -43q-27 0 -54 6.5t-45 14.5z" />
<glyph unicode="&#xf5;" horiz-adv-x="1122" d="M55 494q0 104 38 197t105.5 163t162 111t206.5 41q113 0 207 -41t160.5 -111t103.5 -163t37 -197t-35.5 -198.5t-102.5 -164.5t-161 -110.5t-209 -40.5t-209 39.5t-161.5 108.5t-104.5 163t-37 203zM283 494q0 -82 24.5 -143.5t64.5 -103.5t91 -62.5t104 -20.5 q51 0 101.5 20.5t90.5 61.5t64.5 102.5t24.5 145.5q0 76 -22.5 137t-60.5 103t-89 64.5t-109 22.5q-55 0 -106 -22.5t-91 -64.5t-63.5 -103t-23.5 -137zM213 1183q25 104 70 164t131 60q43 0 78 -15.5t64 -34.5l57 -33q27 -15 51 -16q23 0 35 13.5t23 30t25.5 29.5t41.5 13 t43 -9t35 -30q-35 -109 -76 -166t-125 -57q-39 0 -74 15.5t-65 33.5l-59 34q-28 15 -52 15q-23 0 -35 -13t-23.5 -29.5t-25.5 -30t-41 -13.5t-43.5 9.5t-34.5 29.5z" />
<glyph unicode="&#xf6;" horiz-adv-x="1122" d="M55 494q0 104 38 197t105.5 163t162 111t206.5 41q113 0 207 -41t160.5 -111t103.5 -163t37 -197t-35.5 -198.5t-102.5 -164.5t-161 -110.5t-209 -40.5t-209 39.5t-161.5 108.5t-104.5 163t-37 203zM283 494q0 -82 24.5 -143.5t64.5 -103.5t91 -62.5t104 -20.5 q51 0 101.5 20.5t90.5 61.5t64.5 102.5t24.5 145.5q0 76 -22.5 137t-60.5 103t-89 64.5t-109 22.5q-55 0 -106 -22.5t-91 -64.5t-63.5 -103t-23.5 -137zM250 1260q0 53 36 88.5t87 35.5t87 -35.5t36 -88.5q0 -49 -36 -85t-87 -36t-87 36t-36 85zM625 1260q0 53 36 88.5 t87 35.5t87 -35.5t36 -88.5q0 -49 -36 -85t-87 -36t-87 36t-36 85z" />
<glyph unicode="&#xf7;" d="M113 530q0 57 23.5 76t60.5 19h921q8 -31 8 -90q0 -57 -23.5 -76t-60.5 -19h-921q-8 31 -8 90zM502 905q0 53 36.5 90t88.5 37q53 0 89 -37t36 -90q0 -49 -36 -86t-89 -37q-51 0 -88 37t-37 86zM504 162q0 53 37 90t86 37q53 0 90 -37t37 -90q0 -49 -37 -86t-90 -37 q-49 0 -86 37t-37 86z" />
<glyph unicode="&#xf8;" horiz-adv-x="1142" d="M66 494q0 104 36.5 197t104 163t161 111t205.5 41q66 0 125.5 -14.5t110.5 -41.5l41 58q20 29 42.5 44t61.5 15q27 0 46.5 -4t37.5 -12l-123 -172q78 -72 120 -170.5t42 -214.5q0 -104 -35.5 -198.5t-101.5 -164.5t-159 -110.5t-208 -40.5q-137 0 -243 57l-41 -55 q-23 -31 -43.5 -42.5t-55.5 -11.5q-23 0 -44 4.5t-40 10.5l117 168q-76 72 -116.5 169t-40.5 214zM281 494q0 -66 17 -117t46 -90l356 504q-29 14 -60.5 23t-66.5 9q-55 0 -107 -22.5t-94 -65.5t-66.5 -104t-24.5 -137zM440 201q61 -37 133 -37q51 0 103.5 21.5t93.5 62.5 t66.5 103.5t25.5 142.5q0 55 -16.5 111.5t-50.5 94.5z" />
<glyph unicode="&#xf9;" horiz-adv-x="1122" d="M100 399v504q0 41 25 67.5t88 26.5q33 0 63.5 -3t47.5 -7v-569q0 -129 60 -188.5t155 -59.5q68 0 131 37t106 108v588q0 41 24.5 67.5t88.5 26.5q33 0 64.5 -3t47.5 -7v-600q0 -61 1.5 -109.5t5.5 -91.5t10 -85t16 -91q-49 -23 -114 -22q-53 0 -78 18.5t-35 44t-11 56 t-5 55.5h-3q-53 -80 -131.5 -130t-195.5 -50q-74 0 -139.5 24.5t-114.5 75.5t-78 129.5t-29 187.5zM385 1342q0 39 21.5 70.5t62.5 43.5l328 -305q-45 -57 -113 -57q-51 0 -102 35l-131 92q-35 25 -51.5 55.5t-14.5 65.5z" />
<glyph unicode="&#xfa;" horiz-adv-x="1122" d="M100 399v504q0 41 25 67.5t88 26.5q33 0 63.5 -3t47.5 -7v-569q0 -129 60 -188.5t155 -59.5q68 0 131 37t106 108v588q0 41 24.5 67.5t88.5 26.5q33 0 64.5 -3t47.5 -7v-600q0 -61 1.5 -109.5t5.5 -91.5t10 -85t16 -91q-49 -23 -114 -22q-53 0 -78 18.5t-35 44t-11 56 t-5 55.5h-3q-53 -80 -131.5 -130t-195.5 -50q-74 0 -139.5 24.5t-114.5 75.5t-78 129.5t-29 187.5zM375 1157l327 305q41 -12 62.5 -44t21.5 -70q0 -35 -15.5 -66t-49.5 -55l-131 -92q-51 -35 -101 -35q-69 0 -114 57z" />
<glyph unicode="&#xfb;" horiz-adv-x="1122" d="M100 399v504q0 41 25 67.5t88 26.5q33 0 63.5 -3t47.5 -7v-569q0 -129 60 -188.5t155 -59.5q68 0 131 37t106 108v588q0 41 24.5 67.5t88.5 26.5q33 0 64.5 -3t47.5 -7v-600q0 -61 1.5 -109.5t5.5 -91.5t10 -85t16 -91q-49 -23 -114 -22q-53 0 -78 18.5t-35 44t-11 56 t-5 55.5h-3q-53 -80 -131.5 -130t-195.5 -50q-74 0 -139.5 24.5t-114.5 75.5t-78 129.5t-29 187.5zM237 1098l205 317q25 10 53.5 17.5t57.5 7.5q59 0 87.5 -16.5t51.5 -47.5l178 -276q-20 -10 -47 -16.5t-49 -6.5q-41 0 -67.5 11.5t-43.5 39.5l-108 185l-117 -193 q-29 -43 -102 -43q-27 0 -54 6.5t-45 14.5z" />
<glyph unicode="&#xfc;" horiz-adv-x="1122" d="M100 399v504q0 41 25 67.5t88 26.5q33 0 63.5 -3t47.5 -7v-569q0 -129 60 -188.5t155 -59.5q68 0 131 37t106 108v588q0 41 24.5 67.5t88.5 26.5q33 0 64.5 -3t47.5 -7v-600q0 -61 1.5 -109.5t5.5 -91.5t10 -85t16 -91q-49 -23 -114 -22q-53 0 -78 18.5t-35 44t-11 56 t-5 55.5h-3q-53 -80 -131.5 -130t-195.5 -50q-74 0 -139.5 24.5t-114.5 75.5t-78 129.5t-29 187.5zM243 1260q0 53 36 88.5t87 35.5t87 -35.5t36 -88.5q0 -49 -36 -85t-87 -36t-87 36t-36 85zM618 1260q0 53 36 88.5t87 35.5t87 -35.5t36 -88.5q0 -49 -36 -85t-87 -36 t-87 36t-36 85z" />
<glyph unicode="&#xfd;" horiz-adv-x="980" d="M10 971q23 10 55.5 18t67.5 8q53 0 82 -17t39 -50l242 -688l247 690q14 39 44 52t71 13q27 0 59.5 -7t53.5 -17l-500 -1280q-33 -88 -129 -88q-39 0 -66.5 6t-48.5 14l166 379zM332 1157l327 305q41 -12 62.5 -44t21.5 -70q0 -35 -15.5 -66t-49.5 -55l-131 -92 q-51 -35 -101 -35q-69 0 -114 57z" />
<glyph unicode="&#xfe;" horiz-adv-x="1157" d="M117 -385v1683q0 41 23.5 68t88.5 27q31 0 63 -3.5t48 -7.5v-514q45 53 124 96.5t195 43.5q80 0 159 -32t142.5 -95.5t102.5 -157.5t39 -219q0 -111 -33 -205t-92 -165t-141 -110.5t-181 -39.5q-106 0 -188 43t-127 114v-442q0 -41 -23.5 -67.5t-89.5 -26.5 q-31 0 -62.5 3t-47.5 7zM340 420q0 -53 19.5 -98.5t53 -78t81 -51t100.5 -18.5q117 0 197.5 83t80.5 243q0 147 -78.5 233t-203.5 86q-86 0 -150.5 -39t-99.5 -104v-256z" />
<glyph unicode="&#xff;" horiz-adv-x="980" d="M10 971q23 10 55.5 18t67.5 8q53 0 82 -17t39 -50l242 -688l247 690q14 39 44 52t71 13q27 0 59.5 -7t53.5 -17l-500 -1280q-33 -88 -129 -88q-39 0 -66.5 6t-48.5 14l166 379zM182 1260q0 53 36 88.5t87 35.5t87 -35.5t36 -88.5q0 -49 -36 -85t-87 -36t-87 36t-36 85z M557 1260q0 53 36 88.5t87 35.5t87 -35.5t36 -88.5q0 -49 -36 -85t-87 -36t-87 36t-36 85z" />
<glyph unicode="&#x131;" horiz-adv-x="460" d="M117 -2v905q0 41 24.5 67.5t87.5 26.5q33 0 64 -3t47 -7v-905q0 -41 -24.5 -67.5t-90.5 -26.5q-31 0 -61.5 3t-46.5 7z" />
<glyph unicode="&#x152;" horiz-adv-x="1800" d="M55 670q0 143 48.5 268t135.5 217t206.5 144.5t265.5 52.5q49 0 88 -3t73.5 -7.5t68.5 -7.5t71 -3h708q4 -16 6.5 -45t2.5 -57q0 -59 -25 -83t-62 -24h-499v-356h526q4 -16 6 -42t2 -54q0 -57 -23.5 -80t-58.5 -23h-452v-358h594q4 -16 6 -43t2 -55q0 -61 -24.5 -86 t-61.5 -25h-645q-59 0 -137 -10t-166 -10q-145 0 -265 53t-207 147t-135.5 219.5t-48.5 270.5zM295 670q0 -109 31.5 -198t89 -153.5t135.5 -100.5t168 -36q59 0 104 8.5t90 24.5v903q-41 12 -88 20.5t-106 8.5q-90 0 -168 -36t-134.5 -99.5t-89 -150.5t-32.5 -191z" />
<glyph unicode="&#x153;" horiz-adv-x="1847" d="M55 494q0 104 37 197t104.5 163t161 111t205.5 41q76 0 137.5 -17.5t108.5 -45.5t82 -63.5t59 -70.5q25 35 59.5 70.5t81 64.5t105.5 46.5t133 17.5q113 0 200 -42t145.5 -111t88 -157t29.5 -180q0 -23 -2 -52.5t-6 -51.5h-721q6 -63 32.5 -109.5t68.5 -77t94.5 -45 t111.5 -14.5q55 0 98 9t76 19.5t58.5 19.5t50.5 9q37 0 61.5 -33.5t24.5 -91.5q0 -10 -1 -21t-3 -22q-59 -29 -153.5 -54.5t-211.5 -25.5q-78 0 -141.5 17.5t-115.5 45.5t-92 63.5t-69 72.5q-29 -37 -63.5 -72.5t-80.5 -63.5t-105.5 -44t-139.5 -16q-115 0 -208 39.5 t-159.5 108.5t-103.5 163t-37 203zM283 494q0 -82 23.5 -143.5t63.5 -103.5t90 -62.5t103 -20.5q51 0 101.5 20.5t91.5 61.5t66.5 102.5t25.5 145.5q0 76 -22.5 137t-61.5 104t-91 65.5t-110 22.5q-55 0 -106 -22.5t-89 -65.5t-61.5 -104t-23.5 -137zM1063 573h520 q-8 111 -72.5 187t-181.5 76t-186.5 -73t-79.5 -190z" />
<glyph unicode="&#x160;" horiz-adv-x="1110" d="M72 92q0 68 24.5 110t79.5 42q27 0 64 -8l83 -19q46 -10 102 -18.5t124 -8.5q141 0 201.5 51.5t60.5 129.5q0 39 -14.5 66.5t-41 47t-64.5 33.5t-87 29l-170 47q-201 55 -279.5 153.5t-78.5 225.5q0 63 22.5 129.5t77.5 120t147.5 88.5t231.5 35q94 0 201.5 -18.5 t224.5 -59.5v-29q0 -70 -23.5 -108.5t-76.5 -38.5q-27 0 -58.5 7t-71.5 14t-91.5 14.5t-114.5 7.5q-72 0 -119 -13.5t-75.5 -36t-41 -50t-12.5 -56.5q0 -68 46 -102.5t165 -67.5l180 -51q358 -94 359 -373q0 -90 -30 -164t-93.5 -127t-159.5 -82.5t-232 -29.5 q-100 0 -217.5 20.5t-240.5 60.5q0 8 -1 14.5t-1 14.5zM260 1719q18 10 43 15t47 5q37 0 61.5 -9t41.5 -38l102 -172l109 180q12 20 37.5 28.5t58.5 10.5q25 0 50.5 -5t41.5 -13l-193 -297q-51 -23 -102 -23q-55 0 -84 15.5t-47 44.5z" />
<glyph unicode="&#x161;" horiz-adv-x="956" d="M61 102q0 53 22.5 86t63.5 33q25 0 59 -8t73.5 -19.5t89 -19.5t104.5 -8q61 0 99 9t58.5 24.5t28 35t7.5 41.5q0 45 -35 69t-123 48l-146 41q-166 47 -231 115.5t-65 171.5q0 55 22.5 106.5t70.5 90t123.5 62.5t184.5 24q178 0 375 -66q0 -10 1 -17.5t1 -15.5 q0 -59 -21.5 -93t-66.5 -34t-114 21.5t-175 21.5q-98 0 -138 -24.5t-40 -67.5q0 -18 5 -32.5t20.5 -27t43 -23.5t74.5 -23l154 -43q168 -47 236.5 -117t68.5 -176q0 -55 -19.5 -109.5t-66.5 -96.5t-128 -68.5t-204 -26.5q-98 0 -203.5 19.5t-203.5 53.5q-2 10 -3.5 21.5 t-1.5 21.5zM176 1397q18 10 43 15t47 5q37 0 61.5 -9t41.5 -38l102 -172l109 180q12 20 37.5 28.5t58.5 10.5q25 0 50.5 -5t41.5 -13l-193 -297q-51 -23 -102 -23q-55 0 -84 15.5t-47 44.5z" />
<glyph unicode="&#x178;" horiz-adv-x="1181" d="M-2 1303q29 16 67.5 24t69.5 8q53 0 89 -13t61 -52l319 -514l318 512q23 39 53.5 53t79.5 14q29 0 67.5 -7t63.5 -23l-475 -740v-481q0 -41 -26 -68.5t-91 -27.5q-33 0 -64.5 3t-48.5 7v565zM286 1610q0 53 36 88.5t87 35.5t87 -35.5t36 -88.5q0 -49 -36 -85t-87 -36 t-87 36t-36 85zM661 1610q0 53 36 88.5t87 35.5t87 -35.5t36 -88.5q0 -49 -36 -85t-87 -36t-87 36t-36 85z" />
<glyph unicode="&#x17d;" horiz-adv-x="1095" d="M63 98q0 37 12.5 72t41.5 76l631 876h-588q-39 0 -64.5 22.5t-25.5 86.5q0 31 2 57.5t6 42.5h928q4 -16 8 -46t4 -58q0 -41 -12.5 -78t-42.5 -80l-623 -860h682q4 -16 6 -43t2 -55q0 -63 -25.5 -87t-64.5 -24h-864q-4 16 -8.5 40.5t-4.5 57.5zM260 1719q18 10 43 15t47 5 q37 0 61.5 -9t41.5 -38l102 -172l109 180q12 20 37.5 28.5t58.5 10.5q25 0 50.5 -5t41.5 -13l-193 -297q-51 -23 -102 -23q-55 0 -84 15.5t-47 44.5z" />
<glyph unicode="&#x17e;" horiz-adv-x="923" d="M53 88q0 33 9.5 64.5t37.5 66.5l484 588h-439q-35 0 -57 20.5t-22 75.5q0 25 3 48.5t7 37.5h774q4 -14 7 -37.5t3 -48.5q0 -29 -9 -62.5t-36 -66.5l-487 -594h532q10 -31 10 -84q0 -55 -22.5 -75.5t-56.5 -20.5h-728q-4 14 -7 38.5t-3 49.5zM176 1397q18 10 43 15t47 5 q37 0 61.5 -9t41.5 -38l102 -172l109 180q12 20 37.5 28.5t58.5 10.5q25 0 50.5 -5t41.5 -13l-193 -297q-51 -23 -102 -23q-55 0 -84 15.5t-47 44.5z" />
<glyph unicode="&#x192;" horiz-adv-x="753" d="M-334 -217q0 63 31 95t74 32q35 0 69.5 -14.5t87.5 -14.5q63 0 99 31t49 106l121 773h-177q-4 14 -7 37.5t-3 45.5q0 49 20.5 73t53.5 24h137l19 112q29 174 131 257t262 83q33 0 80 -5t90 -13t73.5 -21.5t30.5 -27.5q0 -76 -33.5 -110t-78.5 -34q-33 0 -69 12.5 t-103 12.5q-66 0 -111 -43t-57 -135l-13 -90h289q8 -25 8 -72q0 -49 -20.5 -77.5t-50.5 -28.5h-250l-121 -771q-29 -184 -125 -257.5t-240 -73.5q-76 0 -147.5 18.5t-116.5 40.5q-2 10 -2 18v17z" />
<glyph unicode="&#x2c6;" horiz-adv-x="954" d="M184 1098l205 317q25 10 53.5 17.5t57.5 7.5q59 0 87.5 -16.5t51.5 -47.5l178 -276q-20 -10 -47 -16.5t-49 -6.5q-41 0 -67.5 11.5t-43.5 39.5l-108 185l-117 -193q-29 -43 -102 -43q-27 0 -54 6.5t-45 14.5z" />
<glyph unicode="&#x2c7;" horiz-adv-x="923" d="M176 1397q18 10 43 15t47 5q37 0 61.5 -9t41.5 -38l102 -172l109 180q12 20 37.5 28.5t58.5 10.5q25 0 50.5 -5t41.5 -13l-193 -297q-51 -23 -102 -23q-55 0 -84 15.5t-47 44.5z" />
<glyph unicode="&#x2dc;" horiz-adv-x="880" d="M98 1206q25 104 70 164t131 60q43 0 78 -15.5t64 -34.5l57 -33q27 -15 51 -16q23 0 35 13.5t23 30t25.5 29.5t41.5 13t43 -9t35 -30q-35 -109 -76 -166t-125 -57q-39 0 -74 15.5t-65 33.5l-59 34q-28 15 -52 15q-23 0 -35 -13t-23.5 -29.5t-25.5 -30t-41 -13.5t-43.5 9.5 t-34.5 29.5z" />
<glyph unicode="&#x2000;" horiz-adv-x="909" />
<glyph unicode="&#x2001;" horiz-adv-x="1818" />
<glyph unicode="&#x2002;" horiz-adv-x="909" />
<glyph unicode="&#x2003;" horiz-adv-x="1818" />
<glyph unicode="&#x2004;" horiz-adv-x="606" />
<glyph unicode="&#x2005;" horiz-adv-x="454" />
<glyph unicode="&#x2006;" horiz-adv-x="303" />
<glyph unicode="&#x2007;" horiz-adv-x="303" />
<glyph unicode="&#x2008;" horiz-adv-x="227" />
<glyph unicode="&#x2009;" horiz-adv-x="362" />
<glyph unicode="&#x200a;" horiz-adv-x="100" />
<glyph unicode="&#x2010;" horiz-adv-x="727" d="M55 520q0 59 25.5 82t62.5 23h521l5 -42q3 -26 3 -53q0 -59 -24.5 -82.5t-61.5 -23.5h-520q-2 16 -6.5 41.5t-4.5 54.5z" />
<glyph unicode="&#x2011;" horiz-adv-x="727" d="M55 520q0 59 25.5 82t62.5 23h521l5 -42q3 -26 3 -53q0 -59 -24.5 -82.5t-61.5 -23.5h-520q-2 16 -6.5 41.5t-4.5 54.5z" />
<glyph unicode="&#x2012;" horiz-adv-x="727" d="M55 520q0 59 25.5 82t62.5 23h521l5 -42q3 -26 3 -53q0 -59 -24.5 -82.5t-61.5 -23.5h-520q-2 16 -6.5 41.5t-4.5 54.5z" />
<glyph unicode="&#x2013;" horiz-adv-x="929" d="M55 520q0 59 25.5 82t62.5 23h721q10 -37 10 -95q0 -59 -24.5 -82.5t-61.5 -23.5h-722q-2 16 -6.5 41.5t-4.5 54.5z" />
<glyph unicode="&#x2014;" horiz-adv-x="1343" d="M55 520q0 59 25.5 82t62.5 23h1135q10 -37 10 -95q0 -59 -24.5 -82.5t-61.5 -23.5h-1136q-2 16 -6.5 41.5t-4.5 54.5z" />
<glyph unicode="&#x2018;" horiz-adv-x="374" d="M68 1020q0 35 12 80t20 63q47 113 113 163t141 50h15l-117 -370q-27 -82 -96 -82q-35 0 -61.5 24.5t-26.5 71.5z" />
<glyph unicode="&#x2019;" horiz-adv-x="374" d="M29 920l116 370q25 82 97 82q35 0 61.5 -24.5t26.5 -71.5q0 -35 -12.5 -80t-20.5 -63q-47 -113 -112.5 -163t-141.5 -50h-14z" />
<glyph unicode="&#x201a;" horiz-adv-x="421" d="M8 -233l117 370q25 82 96 82q41 0 64.5 -25.5t23.5 -70.5q0 -35 -12 -80t-21 -63q-47 -113 -112.5 -163t-140.5 -50h-15z" />
<glyph unicode="&#x201c;" horiz-adv-x="722" d="M80 1020q0 35 12 80t21 63q47 113 112.5 163t141.5 50h14l-117 -370q-27 -82 -96 -82q-35 0 -61.5 24.5t-26.5 71.5zM420 1020q0 35 12 80t21 63q47 113 112.5 163t141.5 50h14l-117 -370q-27 -82 -96 -82q-35 0 -61.5 24.5t-26.5 71.5z" />
<glyph unicode="&#x201d;" horiz-adv-x="714" d="M49 920l117 370q25 82 96 82q35 0 61.5 -24.5t26.5 -71.5q0 -35 -12 -80t-21 -63q-47 -113 -112.5 -163t-141.5 -50h-14zM389 920l117 370q25 82 96 82q35 0 61.5 -24.5t26.5 -71.5q0 -35 -12 -80t-21 -63q-47 -113 -112.5 -163t-141.5 -50h-14z" />
<glyph unicode="&#x201e;" horiz-adv-x="714" d="M2 -233l117 370q25 82 96 82q41 0 64.5 -25.5t23.5 -70.5q0 -35 -12 -80t-21 -63q-47 -113 -112.5 -163t-140.5 -50h-15zM338 -233l117 370q25 82 96 82q41 0 64.5 -25.5t23.5 -70.5q0 -35 -12 -80t-21 -63q-47 -113 -112.5 -163t-140.5 -50h-15z" />
<glyph unicode="&#x2020;" horiz-adv-x="1032" d="M66 815q0 53 20 74.5t61 21.5l275 -20l-23 319q-2 8 -2 25q0 45 26 75.5t91 30.5q31 0 58.5 -5t43.5 -11l-24 -434l336 22q4 -14 6 -41.5t2 -50.5q0 -53 -20.5 -75.5t-61.5 -22.5l-262 10l16 -254l-28 -749q-2 -18 -19.5 -36t-56.5 -18q-29 0 -68 13l-14 790v254 l-348 -12q-4 14 -6 42.5t-2 51.5z" />
<glyph unicode="&#x2021;" horiz-adv-x="1181" d="M215 313q0 53 21.5 75t58.5 22l272 -19l-10 170l16 187l-344 -13q-6 23 -10 47.5t-4 46.5q0 96 72 97h10l276 -21l-24 305q-2 8 -2 23q0 47 26.5 77.5t92.5 30.5q33 0 58.5 -5t41.5 -11l-25 -420l332 23q4 -16 8 -43t4 -49q0 -96 -69 -97h-10l-265 9l17 -187l-10 -170 l325 19q4 -14 8 -38t4 -53q0 -100 -81 -98l-265 8l-18 -499q0 -18 -11.5 -36t-45.5 -18q-27 0 -66 13l-20 542l-351 -12q-4 14 -8 39.5t-4 54.5z" />
<glyph unicode="&#x2022;" horiz-adv-x="864" d="M125 633q0 63 24.5 118.5t66.5 96.5t97.5 65.5t118.5 24.5t119.5 -24.5t97.5 -65.5t65.5 -96.5t24.5 -118.5t-24.5 -119.5t-65.5 -97.5t-97 -65.5t-120 -24.5q-63 0 -118.5 24.5t-97.5 65.5t-66.5 97.5t-24.5 119.5z" />
<glyph unicode="&#x2026;" horiz-adv-x="1456" d="M576 117q0 55 38.5 94t92.5 39q55 0 95 -39t40 -94q0 -53 -40 -92t-95 -39q-53 0 -92 39t-39 92zM1090 117q0 55 38.5 94t92.5 39q55 0 95 -39t40 -94q0 -53 -40 -92t-95 -39q-53 0 -92 39t-39 92zM68 115q0 55 38.5 94t92.5 39q55 0 95 -39t40 -94q0 -53 -40 -92 t-95 -39q-53 0 -92 39t-39 92z" />
<glyph unicode="&#x202f;" horiz-adv-x="362" />
<glyph unicode="&#x2030;" horiz-adv-x="2148" d="M31 987q0 92 24.5 161t66.5 115t98 68.5t118 22.5q61 0 117.5 -22.5t99.5 -68.5t67.5 -115t24.5 -161t-24.5 -160.5t-67.5 -114.5t-99.5 -68.5t-117.5 -22.5t-117.5 22.5t-98.5 68.5t-66.5 114.5t-24.5 160.5zM223 989q0 -111 31 -162t84 -51q51 0 84 51.5t33 161.5 q0 111 -33 159t-84 48q-53 0 -84 -48t-31 -159zM274 18l740 1274q10 18 30.5 32.5t51.5 14.5t49 -9t33 -19l-738 -1274q-14 -25 -36.5 -36t-49.5 -11q-23 0 -43.5 9t-36.5 19zM803 354q0 92 24.5 161t66.5 115t98.5 68.5t117.5 22.5t117.5 -22.5t99.5 -68.5t67.5 -115 t24.5 -161t-24.5 -160.5t-67.5 -114.5t-99.5 -68.5t-117.5 -22.5t-117.5 22.5t-98.5 68.5t-66.5 114.5t-24.5 160.5zM995 356q0 -111 31 -162t84 -51q51 0 84 51.5t33 161.5q0 111 -33 159t-84 48q-53 0 -84 -48t-31 -159zM1501 354q0 92 24.5 161t66.5 115t98.5 68.5 t117.5 22.5t117.5 -22.5t99.5 -68.5t68 -115t25 -161t-25 -160.5t-68 -114.5t-99 -68.5t-118 -22.5q-61 0 -117.5 22.5t-98.5 68.5t-66.5 114.5t-24.5 160.5zM1694 356q0 -111 30.5 -162t83.5 -51q51 0 84 51.5t33 161.5q0 111 -32.5 159t-84.5 48q-53 0 -83.5 -48 t-30.5 -159z" />
<glyph unicode="&#x2039;" horiz-adv-x="696" d="M59 397v158l482 326q12 -23 21 -52.5t9 -60.5q0 -47 -21.5 -83t-51.5 -54l-246 -150l246 -145q31 -18 52 -53t21 -82q0 -31 -9 -60.5t-21 -52.5z" />
<glyph unicode="&#x203a;" horiz-adv-x="696" d="M125 201q0 47 21.5 82.5t52.5 54.5l245 149l-245 146q-31 18 -52.5 53t-21.5 82q0 31 9 60.5t22 52.5l481 -310v-157l-481 -326q-12 23 -21.5 52.5t-9.5 60.5z" />
<glyph unicode="&#x205f;" horiz-adv-x="454" />
<glyph unicode="&#x20ac;" horiz-adv-x="1159" d="M80 543q0 43 17.5 59t43.5 16h90v87h-139q-2 12 -4 29.5t-2 35.5q0 43 17.5 59.5t43.5 16.5h99q20 131 68 226t117 157.5t157 93.5t186 31q51 0 92 -5.5t78 -14.5t72 -22l76 -30v-35q0 -78 -25 -107.5t-72 -29.5q-23 0 -41 6t-40.5 12.5t-53.5 12.5t-78 6 q-123 0 -198.5 -79t-100.5 -222h387q4 -12 6.5 -29.5t2.5 -36.5q0 -43 -17.5 -59t-44.5 -16h-352v-87h399q4 -12 6 -29.5t2 -35.5q0 -43 -17 -59.5t-44 -16.5h-326q25 -141 103 -217t194 -76q51 0 84 6.5t55.5 12.5t40 12t39.5 6q45 0 71 -30.5t26 -108.5q0 -31 -36 -51.5 t-87 -32.5t-106.5 -17.5t-94.5 -5.5q-215 0 -350 130.5t-178 371.5h-158q-4 12 -6 30t-2 36z" />
<glyph unicode="&#x2122;" horiz-adv-x="1302" d="M63 1276q0 35 12.5 45t35.5 10h444q0 -8 3 -19.5t3 -31.5q0 -53 -49 -53h-143v-500h-117v500h-182l-4 21q-3 12 -3 28zM590 733l59 588q12 6 35 10t39 4q45 0 67.5 -12t30.5 -45l99 -385l102 385q10 33 29.5 46t60.5 13q51 0 78 -10l57 -594q-10 -4 -23.5 -7t-33.5 -3 q-23 0 -38 7t-17 30l-37 459l-115 -408q-12 -39 -70 -39q-14 0 -30.5 1t-26.5 5l-119 439l-41 -457q-2 -23 -16 -30t-37 -7q-18 0 -30.5 3t-22.5 7z" />
<glyph unicode="&#xe000;" horiz-adv-x="995" d="M0 995h995v-995h-995v995z" />
</font>
</defs>
</svg>
