<?xml version="1.0" standalone="no"?>
<!DOCTYPE svg PUBLIC "-//W3C//DTD SVG 1.1//EN" "http://www.w3.org/Graphics/SVG/1.1/DTD/svg11.dtd" >
<svg xmlns="http://www.w3.org/2000/svg">
<metadata>
This is a custom SVG webfont generated by Font Squirrel.
Copyright   : Copyright c 2009 BSkyB Ltd
Designer    : Miles Newlyn
Foundry     : Miles Newlyn
</metadata>
<defs>
<font id="SkyTextRegular" horiz-adv-x="1232" >
<font-face units-per-em="2048" ascent="1638" descent="-410" />
<missing-glyph horiz-adv-x="409" />
<glyph unicode=" "  horiz-adv-x="409" />
<glyph unicode="&#x09;" horiz-adv-x="409" />
<glyph unicode="&#xa0;" horiz-adv-x="409" />
<glyph unicode="!" horiz-adv-x="522" d="M162 84q0 41 28.5 70.5t69.5 29.5t70.5 -29.5t29.5 -70.5t-29.5 -70.5t-70.5 -29.5t-69.5 29.5t-28.5 70.5zM176 1262q-4 74 90 73q47 0 78 -10l-31 -856q-2 -27 -14 -36t-33 -9q-25 0 -51 10z" />
<glyph unicode="&#x22;" horiz-adv-x="694" d="M123 1270q-4 66 80 65q18 0 36.5 -2t30.5 -6l-28 -467q-2 -18 -11.5 -28.5t-35.5 -10.5q-20 0 -41 4zM428 1270q-4 66 80 65q18 0 36.5 -2t30.5 -6l-28 -467q-2 -18 -11.5 -28.5t-35.5 -10.5q-20 0 -41 4z" />
<glyph unicode="#" d="M61 420q0 33 13.5 45t34.5 12h178l88 369h-207q-4 20 -4 49q0 35 14.5 47t30.5 12h188l84 355q6 20 21.5 25t38.5 5q39 0 61 -8l-88 -377h326l84 355q6 20 21.5 25t37.5 5q39 0 61 -8l-88 -377h205q4 -20 4 -51q0 -35 -13 -46t-32 -11h-186l-90 -369h219q2 -10 3 -23.5 t1 -29.5q0 -31 -14.5 -43t-30.5 -12h-203l-84 -344q-4 -20 -20.5 -26.5t-36.5 -6.5q-35 0 -60 10l87 367h-328l-80 -344q-6 -20 -22.5 -26.5t-36.5 -6.5q-37 0 -64 10l88 367h-194q-4 8 -5.5 21.5t-1.5 29.5zM401 477h328l88 369h-325z" />
<glyph unicode="$" d="M147 55q-2 51 12.5 82t53.5 31q20 0 52 -9l73 -21q41 -11 93 -21.5t116 -14.5v523l-51 14q-188 53 -264 145.5t-76 216.5q0 57 19.5 117t64.5 109t119.5 84t187.5 41v141q0 23 12 35t43 12q33 0 53 -10v-178q84 -4 169 -22.5t180 -53.5q6 -111 -70 -111 q-35 0 -102.5 24.5t-176.5 33.5v-482l78 -20q172 -49 253 -139t81 -220q0 -158 -100.5 -261t-311.5 -119v-142q0 -23 -13 -35t-48 -12q-16 0 -27.5 2t-19.5 4v178q-90 4 -189.5 20.5t-210.5 57.5zM293 1004q0 -86 55 -138.5t199 -93.5v453q-72 -6 -121 -27.5t-79 -53.5 t-42 -68.5t-12 -71.5zM655 104q141 14 204 85t63 163q0 102 -65.5 152.5t-176.5 81.5l-25 6v-488z" />
<glyph unicode="%" horiz-adv-x="1429" d="M61 997q0 180 77 268.5t196 88.5q117 0 195.5 -88t78.5 -269q0 -180 -78.5 -269t-195.5 -89q-119 0 -196 89t-77 269zM174 997q0 -133 44 -195.5t116 -62.5t117 62.5t45 195.5t-45 194.5t-117 61.5t-116 -61.5t-44 -194.5zM266 14l746 1282q10 16 26.5 28.5t42.5 12.5 q27 0 43.5 -10t26.5 -14l-743 -1282q-23 -41 -74 -41q-20 0 -37 7t-31 17zM821 350q0 180 77 268.5t196 88.5q117 0 195.5 -88.5t78.5 -268.5t-79 -269t-195 -89q-119 0 -196 89t-77 269zM934 350q0 -133 44 -195.5t116 -62.5t116.5 62.5t44.5 195.5t-45 194.5t-116 61.5 q-72 0 -116 -61.5t-44 -194.5z" />
<glyph unicode="&#x26;" horiz-adv-x="1308" d="M70 375q0 137 79.5 234.5t221.5 152.5q-55 59 -86 124.5t-31 149.5q0 59 23.5 116.5t71.5 101.5t118 72t162 28q102 0 185 -24.5t144 -59.5q4 -51 -15 -71.5t-46 -20.5q-23 0 -45 9l-52 20q-30 11 -70 20.5t-97 9.5q-123 0 -182.5 -62.5t-59.5 -154.5q0 -53 29 -109.5 t112 -140.5l369 -360l199 368q23 43 78 43q41 0 73 -14l-262 -481l314 -314q-18 -6 -39 -11t-54 -5q-41 0 -65.5 10t-44.5 31l-180 182q-31 -49 -72 -93t-93.5 -77t-114.5 -52.5t-138 -19.5q-102 0 -182 35t-135.5 90.5t-85 127t-29.5 145.5zM205 381q0 -53 19.5 -104.5 t58.5 -91.5t95 -64.5t128 -24.5q61 0 111.5 16.5t90.5 45t71.5 66.5t54.5 81l-381 377q-115 -43 -181.5 -115.5t-66.5 -185.5z" />
<glyph unicode="'" horiz-adv-x="389" d="M123 1270q-4 66 80 65q18 0 36.5 -2t30.5 -6l-28 -467q-2 -18 -11.5 -28.5t-35.5 -10.5q-20 0 -41 4z" />
<glyph unicode="(" horiz-adv-x="704" d="M82 473q0 143 37 274.5t103.5 245t160.5 205.5t211 156q23 -12 37 -30.5t14 -41.5q0 -18 -6 -31.5t-21 -21.5q-188 -117 -295.5 -306.5t-107.5 -449.5q0 -256 102.5 -443.5t300.5 -312.5q12 -8 19.5 -22t7.5 -33q0 -20 -14.5 -37.5t-36.5 -30.5q-242 139 -377 365.5 t-135 513.5z" />
<glyph unicode=")" horiz-adv-x="704" d="M53 1286q0 14 7.5 25.5t17.5 20.5t33 22q117 -63 211 -155.5t161.5 -206t104.5 -245t37 -274.5q0 -287 -136.5 -513t-377.5 -366q-23 12 -34 25.5t-14.5 24t-3.5 24.5t6.5 26.5t20.5 22.5q199 125 301 312.5t102 443.5q0 260 -106.5 449.5t-296.5 306.5 q-20 16 -26.5 29.5t-6.5 27.5z" />
<glyph unicode="*" horiz-adv-x="651" d="M4 1065q-14 43 10.5 74.5t85.5 11.5l189 -61l-17 266q18 12 40 14t38.5 -6t26.5 -25.5t6 -48.5l-16 -200l256 67q27 -23 26 -55q0 -20 -14 -35.5t-49 -19.5l-201 -27l184 -234q-20 -51 -67 -51q-39 0 -62 45l-114 191l-148 -234q-31 -4 -53.5 13.5t-22.5 46.5q0 31 29 59 l131 162z" />
<glyph unicode="+" d="M113 535q0 37 15 51t42 14h377v399q0 23 15.5 37.5t51.5 14.5q18 0 34 -2t26 -7v-442h440q2 -10 4 -26.5t2 -34.5q0 -37 -15 -51.5t-42 -14.5h-389v-426q0 -23 -15.5 -37t-52.5 -14q-18 0 -33.5 2t-25.5 6v469h-428q-2 10 -4 27t-2 35z" />
<glyph unicode="," horiz-adv-x="317" d="M10 -248l125 373q8 27 24.5 38t33.5 11q20 0 36.5 -15.5t16.5 -43.5q0 -35 -10.5 -73t-20.5 -67q-41 -106 -90 -162.5t-115 -60.5z" />
<glyph unicode="-" horiz-adv-x="694" d="M53 518q0 35 16.5 50.5t39.5 15.5h524q4 -10 5 -26.5t1 -33.5q0 -39 -15.5 -53t-37.5 -14h-525q-2 10 -5 27.5t-3 33.5z" />
<glyph unicode="." horiz-adv-x="358" d="M78 84q0 41 29.5 70.5t68.5 29.5q43 0 73 -29.5t30 -70.5q0 -39 -30 -68.5t-73 -29.5q-39 0 -68.5 29.5t-29.5 68.5z" />
<glyph unicode="/" horiz-adv-x="620" d="M51 -72l395 1397q10 23 29 31t43 8q23 0 38 -4t32 -10l-395 -1395q-8 -25 -28 -32t-44 -7q-23 0 -38 4z" />
<glyph unicode="0" horiz-adv-x="1245" d="M113 666q0 172 36.5 301t103 215t160 129t205.5 43q113 0 207.5 -43t163 -129t106.5 -215t38 -301t-38 -301t-106.5 -215.5t-163 -129.5t-207.5 -43t-206 43t-159.5 129.5t-103 215.5t-36.5 301zM258 666q0 -291 98.5 -428.5t261.5 -137.5q82 0 150 34t117 103.5 t75.5 176t26.5 252.5q0 145 -26.5 251.5t-75.5 176t-117 103.5t-150 34q-164 0 -262 -137t-98 -428z" />
<glyph unicode="1" horiz-adv-x="708" d="M39 1108q0 47 51 72l289 151h108v-1288q0 -25 -17 -40t-58 -15q-18 0 -37 2t-29 6v1171l-270 -141q-37 35 -37 82z" />
<glyph unicode="2" horiz-adv-x="1021" d="M39 59q0 23 9 51.5t32 49.5l452 413q51 47 95.5 92.5t77 91.5t51 94t18.5 101q0 129 -83 203t-228 74q-74 0 -129 -18.5t-96 -40t-71 -39t-50 -17.5q-29 0 -46.5 25.5t-21.5 68.5q31 25 74 50.5t96 47t114.5 35t129.5 13.5q106 0 190 -29t142.5 -82t90.5 -127t32 -162 q0 -70 -24 -131t-63.5 -117.5t-92 -108.5t-107.5 -101l-404 -363v-4h709q2 -10 4 -26.5t2 -34.5q0 -39 -16.5 -53.5t-40.5 -14.5h-840q-2 10 -4 25.5t-2 33.5z" />
<glyph unicode="3" horiz-adv-x="1093" d="M90 94q0 49 18.5 72.5t49.5 23.5q25 0 53.5 -13t70.5 -29.5t103 -30t152 -13.5q160 0 242.5 76t82.5 191q0 49 -18.5 94t-58.5 80t-103.5 55.5t-151.5 20.5h-198q-20 0 -35.5 14t-15.5 49q0 16 3 32l5 25h211q162 0 240.5 63.5t78.5 180.5q0 45 -14 87t-48 76t-88.5 54.5 t-133.5 20.5q-84 0 -140.5 -13.5t-95.5 -29t-65.5 -27.5t-51.5 -12q-31 0 -49 27.5t-20 74.5q74 39 177 74t251 35q111 0 189.5 -29t130.5 -77t77 -112.5t25 -136.5q0 -117 -67 -197.5t-173 -109.5q57 -10 109.5 -35.5t91.5 -66.5t61.5 -96.5t22.5 -124.5q0 -92 -35 -164 t-98.5 -122t-149.5 -77t-188 -27q-154 0 -258.5 34t-188.5 83z" />
<glyph unicode="4" horiz-adv-x="1136" d="M51 377q0 23 6 44t23 44l639 866h143v-887h219q2 -10 3 -26.5t1 -32.5q0 -35 -15 -49t-38 -14h-170v-279q0 -51 -71 -51q-16 0 -36 1t-30 5v321h-668q-2 10 -4 26t-2 32zM213 442h512v688z" />
<glyph unicode="5" horiz-adv-x="1071" d="M76 82q0 53 20.5 78.5t50.5 25.5q20 0 50 -13t72 -28.5t99.5 -29t133.5 -13.5q88 0 153.5 26t109.5 68t65.5 96t21.5 109q0 74 -27.5 130.5t-73.5 93.5t-107.5 55t-127.5 18q-78 0 -156.5 -25.5t-144.5 -78.5l-100 41l71 696h742q6 -23 6 -61q0 -37 -15.5 -51.5 t-39.5 -14.5h-576l-53 -467l2 -2q63 45 141 65.5t152 20.5q90 0 172 -29.5t144.5 -84t99 -131t36.5 -170.5q0 -80 -30.5 -157t-92 -137.5t-154.5 -97.5t-218 -37q-129 0 -234.5 31t-191.5 74z" />
<glyph unicode="6" horiz-adv-x="1163" d="M111 637q0 184 46 319.5t124.5 223.5t181 131t215.5 43q96 0 173 -19.5t144 -50.5q4 -59 -17.5 -83.5t-49.5 -24.5q-25 0 -45 7l-47 16q-27 9 -65 16.5t-95 7.5q-190 0 -301 -140.5t-121 -394.5q33 29 70.5 57.5t84 51t103.5 37t129 14.5q106 0 191.5 -34t144.5 -92 t92 -136t33 -164q0 -88 -33 -169t-95.5 -142.5t-152.5 -97.5t-203 -36q-109 0 -200.5 41t-160.5 123t-107.5 206t-38.5 290zM258 559q0 -102 27.5 -187t77 -145.5t116 -93.5t144.5 -33q74 0 135 23.5t106 66.5t69.5 102.5t24.5 131.5q0 74 -25.5 129t-71.5 94t-107.5 58.5 t-130.5 19.5q-68 0 -123.5 -14.5t-99.5 -38t-78.5 -53t-63.5 -60.5z" />
<glyph unicode="7" horiz-adv-x="987" d="M51 1270q0 18 1 34.5t3 26.5h895v-100l-600 -1204q-10 -25 -32.5 -32t-51.5 -7q-18 0 -41.5 4t-38.5 10l605 1196h-687q-53 0 -53 72z" />
<glyph unicode="8" horiz-adv-x="1163" d="M84 352q0 139 80 226.5t201 117.5q-43 14 -84 42t-75 66t-54.5 88t-20.5 109q0 74 29.5 137.5t86 111.5t140.5 76t195 28t195.5 -28t141 -76t85 -111.5t28.5 -137.5q0 -59 -20.5 -109t-53 -88t-75.5 -65.5t-86 -42.5q123 -31 202.5 -119t79.5 -223q0 -82 -33.5 -151.5 t-97 -119.5t-157 -79t-209.5 -29q-117 0 -210 29t-156.5 79t-97.5 118.5t-34 150.5zM229 358q0 -57 26 -104t73 -82t111.5 -54.5t142.5 -19.5q76 0 140 19.5t111.5 54.5t74 82t26.5 104q0 51 -21.5 100.5t-64.5 86.5t-109.5 59.5t-156.5 22.5q-92 0 -159 -22.5t-110 -59.5 t-63.5 -86.5t-20.5 -100.5zM274 995q0 -55 24 -100t64.5 -77t97 -50t122.5 -18t122 18t97 50t64.5 77t23.5 100q0 109 -82 172.5t-225 63.5q-141 0 -224.5 -63.5t-83.5 -172.5z" />
<glyph unicode="9" horiz-adv-x="1153" d="M61 920q0 94 35 172.5t98.5 137t149.5 91.5t191 33q236 0 370.5 -169t134.5 -503q0 -172 -41 -304t-116.5 -221t-182 -134.5t-237.5 -45.5q-39 0 -82 5.5t-86 14.5t-82 22.5t-70 27.5q-4 51 14.5 79t53.5 28q23 0 47 -8l54 -15q30 -8 66 -15t83 -7q195 0 311.5 129 t126.5 405q-76 -68 -168 -115t-221 -47q-106 0 -189 36t-140.5 96.5t-88.5 140.5t-31 166zM205 920q0 -135 84 -224.5t237 -89.5q117 0 207 44t160 122q0 100 -22.5 184t-66.5 145.5t-111.5 95.5t-157.5 34q-70 0 -130.5 -22.5t-104.5 -63.5t-69.5 -98t-25.5 -127z" />
<glyph unicode=":" horiz-adv-x="485" d="M133 809q0 41 30 70.5t68 29.5q41 0 71 -29.5t30 -70.5t-30 -70.5t-71 -29.5q-39 0 -68.5 29.5t-29.5 70.5zM135 84q0 41 30 70.5t68 29.5q41 0 71 -29.5t30 -70.5q0 -39 -30 -69.5t-71 -30.5q-39 0 -68.5 30.5t-29.5 69.5z" />
<glyph unicode=";" horiz-adv-x="485" d="M129 -248l125 373q8 27 25.5 38t33.5 11q23 0 38.5 -15.5t15.5 -43.5q0 -35 -11.5 -73t-21.5 -67q-41 -106 -90 -162.5t-115 -60.5zM199 809q0 41 29.5 70.5t68.5 29.5q41 0 70.5 -29.5t29.5 -70.5t-29.5 -70.5t-70.5 -29.5q-39 0 -68.5 29.5t-29.5 70.5z" />
<glyph unicode="&#x3c;" d="M170 475v111l801 458q4 -14 9 -35.5t5 -37.5q0 -55 -33 -74l-639 -365l639 -378q33 -18 33 -76q0 -16 -5 -39t-9 -37z" />
<glyph unicode="=" d="M160 322q0 37 15 51t42 14h834q2 -10 4 -26.5t2 -34.5q0 -37 -15.5 -51.5t-42.5 -14.5h-833q-2 10 -4 27t-2 35zM160 727q0 37 15 51.5t42 14.5h834q2 -10 4 -26.5t2 -35.5q0 -37 -15.5 -51t-42.5 -14h-833q-2 10 -4 26.5t-2 34.5z" />
<glyph unicode="&#x3e;" d="M248 80q0 55 33 74l639 370l-639 373q-33 18 -33 76q0 16 5 38.5t9 37.5l801 -467v-111l-801 -465q-4 14 -9 36t-5 38z" />
<glyph unicode="?" horiz-adv-x="907" d="M41 1233q31 23 75 44t96 38.5t110.5 28t117.5 10.5q94 0 169 -24.5t127 -70t79 -105.5t27 -132q0 -59 -18.5 -106.5t-45 -84t-58.5 -62.5t-58 -40q-63 -39 -107.5 -69.5t-72 -59.5t-42 -61.5t-18.5 -75.5q-2 -25 -17.5 -35t-42.5 -10t-51 12q-6 90 20.5 152.5t69.5 106.5 t95.5 77t98.5 66.5t76.5 75.5t30.5 104q0 96 -67.5 156.5t-194.5 60.5q-78 0 -131 -14.5t-91 -31t-64.5 -30.5t-51.5 -14q-27 0 -44 25.5t-17 68.5zM266 84q0 41 30 70.5t71 29.5t70.5 -29.5t29.5 -70.5q0 -39 -29.5 -69.5t-70.5 -30.5t-71 30.5t-30 69.5z" />
<glyph unicode="@" horiz-adv-x="1411" d="M61 567q0 143 52.5 266t142.5 214.5t214 142.5t269 51q150 0 264.5 -51t192.5 -134t118 -188.5t40 -214.5q0 -94 -24.5 -167.5t-65.5 -126t-94.5 -80t-110.5 -27.5q-70 0 -111 32.5t-53 80.5q-31 -47 -79 -83t-142 -36q-55 0 -104.5 20.5t-88.5 60.5t-61.5 96t-22.5 130 q0 68 22.5 124t61.5 96t89.5 62.5t105.5 22.5q68 0 118 -28.5t80 -75.5h3q2 43 12 68.5t51 25.5q10 0 21.5 -2t19.5 -4v-396q0 -59 25.5 -79.5t56.5 -20.5q35 0 68.5 18.5t61.5 56.5t44 96t16 136q0 98 -35.5 187.5t-103 156t-163 105.5t-214.5 39q-109 0 -210 -39 t-180 -113t-126 -180.5t-47 -241.5q0 -139 44 -247.5t119 -183.5t173 -113.5t207 -38.5q72 0 126 11t95 23.5t68.5 23.5t44.5 11q23 0 40 -16.5t13 -73.5q-84 -35 -182.5 -59.5t-202.5 -24.5q-145 0 -265 52.5t-208 144.5t-136.5 218t-48.5 273zM512 551q0 -86 47 -145.5 t139 -59.5q55 0 102.5 31t73.5 78v190q-18 43 -65 79t-111 36q-47 0 -81.5 -17.5t-57 -46t-35 -66.5t-12.5 -79z" />
<glyph unicode="A" horiz-adv-x="1179" d="M12 6l484 1321q51 12 96 12q61 0 85.5 -18t41.5 -66l448 -1249q-12 -8 -32.5 -12t-38.5 -4q-27 0 -50.5 10t-33.5 39l-135 375h-574l-133 -375q-10 -29 -33.5 -39t-50.5 -10q-18 0 -39 5t-35 11zM346 541h488l-240 673h-6z" />
<glyph unicode="B" horiz-adv-x="1169" d="M164 57v1217q0 25 11 41t52 16h332q252 0 367.5 -90t115.5 -254q0 -106 -64.5 -188t-170.5 -111q74 -16 128 -47t88 -73t50.5 -92t16.5 -101q0 -182 -123 -278.5t-379 -96.5h-361q-41 0 -52 16t-11 41zM303 125h266q193 0 284 60.5t91 195.5q0 41 -14.5 83t-53 76.5 t-109.5 56t-181 21.5h-283v-493zM303 739h283q86 0 145.5 20.5t96 53.5t54 76t17.5 88q0 113 -81 171t-259 58h-256v-467z" />
<glyph unicode="C" horiz-adv-x="1142" d="M68 655q0 143 47 268.5t131 217.5t202.5 144t264.5 52q104 0 202.5 -24.5t182.5 -59.5q1 -11 0 -21q0 -48 -16 -68q-19 -24 -48 -23q-16 0 -42.5 10t-65.5 22.5t-91.5 22.5t-119.5 10q-102 0 -194.5 -38t-161 -109.5t-108.5 -174t-40 -229.5q0 -133 40 -234.5t108.5 -172 t160.5 -106.5t195 -36q68 0 120 10.5t92 23t66.5 22.5t44.5 10q29 0 47 -24q15 -19 16 -66q0 -11 -1 -23q-84 -35 -183.5 -59.5t-203.5 -24.5q-145 0 -264 50.5t-203 141.5t-131 216t-47 272z" />
<glyph unicode="D" horiz-adv-x="1298" d="M164 57v1217q0 25 11 41t52 16h305q160 0 289 -46t220.5 -131t140.5 -206t49 -270q0 -141 -49 -264t-140.5 -215.5t-220.5 -145.5t-289 -53h-305q-41 0 -52 16t-11 41zM305 125h234q111 0 210 35t173.5 104.5t118.5 173t44 242.5q0 125 -44 223t-118.5 166t-174 102.5 t-211.5 34.5h-232v-1081z" />
<glyph unicode="E" horiz-adv-x="1028" d="M164 57v1217q0 25 11 41t52 16h697q4 -10 6 -26.5t2 -34.5q0 -37 -16.5 -50.5t-38.5 -13.5h-572v-479h563q8 -20 9 -59q0 -37 -14.5 -50.5t-37.5 -13.5h-520v-479h631q4 -10 6 -25.5t2 -31.5q0 -39 -15.5 -53.5t-37.5 -14.5h-664q-41 0 -52 16t-11 41z" />
<glyph unicode="F" horiz-adv-x="989" d="M164 -4v1278q0 25 11 41t52 16h729q4 -10 6.5 -27.5t2.5 -33.5q0 -41 -16.5 -52.5t-41.5 -11.5h-602v-485h596q4 -10 6 -26.5t2 -35.5q0 -37 -15 -52t-38 -15h-551v-549q0 -25 -17.5 -40t-58.5 -15q-18 0 -36.5 2t-28.5 6z" />
<glyph unicode="G" horiz-adv-x="1316" d="M68 670q0 141 48 265t135 216t209 145.5t269 53.5q57 0 108.5 -5.5t103.5 -16.5t106.5 -31.5t115.5 -51.5q1 -10 1 -19q0 -34 -12 -57q-15 -29 -56 -28q-18 0 -44 12t-67 27.5t-101.5 29t-152.5 13.5q-111 0 -206 -42t-164.5 -116t-108.5 -175.5t-39 -219.5 q0 -119 39 -222.5t108.5 -180.5t166 -121t210.5 -44q104 0 183 26t145 62v396h-336q-25 0 -40 14t-15 53q0 16 2 32.5t4 27.5h457q41 0 52 -16.5t11 -41.5v-540q-55 -33 -106.5 -58.5t-106.5 -43t-116.5 -27t-137.5 -9.5q-152 0 -274.5 55.5t-209.5 149.5t-134 220.5 t-47 267.5z" />
<glyph unicode="H" horiz-adv-x="1347" d="M164 -4v1284q0 25 17.5 40t58.5 15q18 0 36.5 -2t28.5 -6v-596h737v549q0 25 17.5 40t58.5 15q18 0 37 -2t29 -6v-1284q0 -25 -17.5 -40t-58.5 -15q-18 0 -36.5 2t-29.5 6v610h-737v-563q0 -25 -17.5 -40t-58.5 -15q-18 0 -36.5 2t-28.5 6z" />
<glyph unicode="I" horiz-adv-x="468" d="M164 -4v1284q0 25 17.5 40t58.5 15q18 0 36.5 -2t28.5 -6v-1284q0 -25 -17.5 -40t-58.5 -15q-18 0 -36.5 2t-28.5 6z" />
<glyph unicode="J" horiz-adv-x="864" d="M23 80q-1 11 -1 20q0 40 14 60q17 25 46 24q20 0 44 -11l53 -25q30 -13 68 -24t91 -11q102 0 166.5 58t64.5 181v928q0 25 17.5 40t58.5 15q18 0 36.5 -2t29.5 -6v-975q0 -182 -98.5 -274t-254.5 -92q-104 0 -183.5 24.5t-151.5 69.5z" />
<glyph unicode="K" horiz-adv-x="1085" d="M164 -4v1284q0 25 17.5 40t58.5 15q18 0 36.5 -2t28.5 -6v-633l572 606q12 14 30.5 24.5t48.5 10.5q57 0 105 -20l-600 -639l622 -664q-45 -23 -110 -22q-33 0 -51.5 10t-32.5 27l-584 620v-604q0 -25 -17.5 -40t-58.5 -15q-18 0 -36.5 2t-28.5 6z" />
<glyph unicode="L" horiz-adv-x="1003" d="M164 57v1223q0 25 17.5 40t58.5 15q18 0 36.5 -2t28.5 -6v-1202h672q6 -25 6 -57q0 -41 -16.5 -54.5t-46.5 -13.5h-693q-41 0 -52 16t-11 41z" />
<glyph unicode="M" horiz-adv-x="1540" d="M88 4l139 1315q18 8 50 12t55 4q61 0 89 -17.5t42 -62.5l135 -438l82 -264l90 -303q53 158 95 300l81 263l141 442q14 45 41 62.5t82 17.5q29 0 57.5 -4t47.5 -10l137 -1317q-12 -4 -29.5 -9t-40.5 -5q-29 0 -48 10t-23 39l-58 590l-29 281l-30 282l-43 -131l-45 -140 l-44 -140l-42 -128l-162 -495q-10 -33 -30.5 -47.5t-61.5 -14.5q-23 0 -39 4t-33 11l-176 538l-88 276l-86 271q-18 -193 -35 -344l-28 -268l-54 -545q-4 -29 -23.5 -39t-47.5 -10q-23 0 -39 5z" />
<glyph unicode="N" horiz-adv-x="1351" d="M164 -2v1323q39 14 82 14q55 0 80.5 -14t42.5 -43l688 -1092v1098q0 23 17.5 37t51.5 14q18 0 35 -2t27 -6v-1321q-16 -6 -37 -9t-41 -3q-51 0 -72.5 13t-38.5 40l-700 1110v-1114q0 -23 -17.5 -38t-54.5 -15q-18 0 -35.5 2t-27.5 6z" />
<glyph unicode="O" horiz-adv-x="1406" d="M68 670q0 143 47 268t131 217t201.5 145.5t257.5 53.5q137 0 253.5 -52.5t201.5 -144.5t132 -218t47 -269q0 -145 -47 -271.5t-132 -219.5t-201.5 -147.5t-253.5 -54.5q-139 0 -257 54.5t-202 147.5t-131 219.5t-47 271.5zM215 670q0 -123 39 -227.5t104.5 -180.5 t154.5 -118t189 -42t189.5 44t156 120t105.5 179.5t39 224.5q0 119 -39 221t-105.5 177t-155.5 118t-187 43q-100 0 -189.5 -42t-156 -117t-105.5 -177t-39 -223z" />
<glyph unicode="P" horiz-adv-x="1083" d="M164 -4v1278q0 25 11 41t52 16h316q119 0 210 -33.5t154.5 -92t96 -138.5t32.5 -172q0 -94 -33.5 -173t-97 -135.5t-153.5 -88t-203 -31.5h-244v-424q0 -25 -17.5 -40t-58.5 -15q-18 0 -36.5 2t-28.5 6zM305 592h225q176 0 268.5 80t92.5 223q0 145 -93 228t-263 83h-230 v-614z" />
<glyph unicode="Q" horiz-adv-x="1411" d="M68 670q0 143 47 268t131 217t201.5 145.5t257.5 53.5q137 0 253.5 -53.5t201.5 -145.5t132 -217t47 -268q0 -129 -36.5 -240t-100 -197t-150.5 -145t-188 -86v-4l469 -164q-2 -53 -29.5 -78.5t-66.5 -25.5q-33 0 -62 11l-47 17l-620 246q-213 86 -326.5 257t-113.5 409z M215 670q0 -123 39 -227.5t104.5 -179.5t154.5 -117t189 -42t189.5 43t156 120t105.5 179.5t39 223.5q0 119 -39 221t-105.5 177t-155.5 117t-187 42q-100 0 -189.5 -42t-156 -116t-105.5 -176t-39 -223z" />
<glyph unicode="R" horiz-adv-x="1105" d="M164 -4v1278q0 25 11 41t52 16h353q106 0 187 -29.5t135 -82t82 -122t28 -151.5q0 -162 -108.5 -266.5t-334.5 -120.5l494 -547q-20 -10 -46 -17t-56 -7q-59 0 -91 41l-464 528h-101v-514q0 -25 -17.5 -40t-58.5 -15q-18 0 -36.5 2t-28.5 6zM305 680h217q184 0 266 70.5 t82 193.5q0 117 -73.5 189.5t-221.5 72.5h-270v-526z" />
<glyph unicode="S" horiz-adv-x="1075" d="M82 55q-1 8 -1 15q0 40 19 64q23 28 62 28q25 0 57.5 -9.5t76.5 -20.5t101.5 -20.5t130.5 -9.5q86 0 148.5 20.5t101.5 54.5t57.5 80t18.5 95q0 102 -65.5 152.5t-176.5 81.5l-184 53q-94 27 -158.5 63.5t-104.5 82.5t-58.5 100.5t-18.5 115.5q0 59 21.5 122t72.5 113 t136 83t212 33q100 0 198.5 -17.5t207.5 -58.5q1 -8 1 -15q0 -40 -19 -64q-23 -28 -62 -28q-20 0 -49 9.5t-69 19.5t-93 19.5t-121 9.5q-84 0 -141 -20.5t-92 -53.5t-49.5 -73t-14.5 -76q0 -86 54.5 -138.5t195.5 -91.5l189 -53q172 -49 252.5 -139t80.5 -220 q0 -86 -29.5 -156.5t-89 -120.5t-151.5 -79t-217 -29q-94 0 -202.5 17.5t-227.5 60.5z" />
<glyph unicode="T" horiz-adv-x="1017" d="M2 1266q0 41 15.5 53t43.5 12h949q2 -10 4 -24.5t2 -34.5q0 -37 -16.5 -51.5t-45.5 -14.5h-374v-1163q0 -25 -17.5 -40t-58.5 -15q-18 0 -36.5 2t-29.5 6v1210h-428q-4 10 -6 26t-2 34z" />
<glyph unicode="U" horiz-adv-x="1323" d="M135 551v729q0 25 17.5 40t58.5 15q18 0 36.5 -2t28.5 -6v-786q0 -96 25 -177t73 -138.5t119.5 -89.5t165.5 -32q90 0 163 32t123 88.5t77 137t27 179.5v739q0 25 16 40t57 15q18 0 37 -2t29 -6v-778q0 -119 -34 -223.5t-100.5 -182t-166 -123t-228.5 -45.5 q-131 0 -229 45.5t-163.5 123t-98.5 182t-33 225.5z" />
<glyph unicode="V" horiz-adv-x="1177" d="M18 1323q12 8 34 12t40 4q27 0 52.5 -10t35.5 -39l174 -510l116 -331l118 -340h6l57 174l58 162l58 163l60 174l179 508q10 29 33.5 39t50.5 10q18 0 38.5 -5t34.5 -11l-461 -1276q-14 -41 -41.5 -54t-80.5 -13q-51 0 -91 16z" />
<glyph unicode="W" horiz-adv-x="1712" d="M39 1319q14 6 32.5 11t41.5 5q31 0 51 -12t26 -41l150 -674l51 -246l49 -245h4l61 242q30 118 70 257l201 705q43 12 80 12q53 0 72.5 -15t32.5 -56l186 -646q37 -129 68 -256l61 -243h4l26 124l27 134l28 133l25 121l142 655q12 51 74 51q23 0 40 -5t29 -9l-287 -1270 q-10 -41 -37.5 -53t-70.5 -12q-23 0 -47.5 4t-42.5 10l-234 811l-46 172l-48 195h-4q-23 -98 -48.5 -194.5l-47.5 -172.5l-219 -758q-10 -41 -33 -54t-66 -13q-20 0 -51 3t-49 11z" />
<glyph unicode="X" horiz-adv-x="1118" d="M23 8l450 668l-430 639q16 10 38.5 15t45.5 5q29 0 51.5 -9t38.5 -32l344 -520l338 510q35 51 96 51q43 0 76 -16l-430 -645l451 -664q-16 -10 -40 -15t-46 -5q-29 0 -51.5 9t-39.5 32l-362 540l-352 -530q-35 -51 -97 -51q-20 0 -42.5 5t-38.5 13z" />
<glyph unicode="Y" horiz-adv-x="1093" d="M-2 1315q16 10 38.5 15t45.5 5q29 0 51.5 -9t38.5 -32l379 -587l375 583q18 29 41.5 39t54.5 10q45 0 78 -16l-479 -739v-541q0 -25 -17.5 -40t-58.5 -15q-18 0 -37 2t-29 6v586z" />
<glyph unicode="Z" horiz-adv-x="1062" d="M78 1272q0 18 2 33.5t4 25.5h889q2 -10 5 -31.5t3 -39.5q0 -27 -7 -59t-30 -56l-715 -1020h752q4 -10 6 -24.5t2 -32.5q0 -39 -16.5 -53.5t-38.5 -14.5h-838q-4 12 -7 35.5t-3 44.5q0 33 9 60.5t32 60.5l702 1005h-694q-25 0 -41 13.5t-16 52.5z" />
<glyph unicode="[" horiz-adv-x="761" d="M131 -350v1794q0 25 11.5 41t52.5 16h378q6 -29 7 -55q0 -41 -15.5 -56.5t-40.5 -15.5h-258v-1657h307q2 -10 4.5 -24.5t2.5 -28.5q0 -41 -15.5 -56.5t-40.5 -15.5h-329q-41 0 -52.5 16.5t-11.5 41.5z" />
<glyph unicode="\" horiz-adv-x="714" d="M51 1350q16 6 31.5 10t38.5 4q27 0 45 -8t27 -31l395 -1397l-32 -8q-15 -4 -38 -4t-42 7t-30 32z" />
<glyph unicode="]" horiz-adv-x="761" d="M129 -352q0 41 15.5 56t39.5 15h258v1657h-307q-2 10 -4 24.5t-2 29.5q0 41 15.5 56t39.5 15h330q41 0 52.5 -16.5t11.5 -40.5v-1794q0 -25 -11.5 -41.5t-52.5 -16.5h-379q-6 27 -6 56z" />
<glyph unicode="^" d="M328 928l215 305q39 16 82 16q41 0 62.5 -11t37.5 -32l199 -276q-12 -6 -29.5 -10.5t-46.5 -4.5t-46.5 8.5t-33.5 30.5l-143 207l-150 -211q-27 -35 -74 -35q-18 0 -38.5 3.5t-34.5 9.5z" />
<glyph unicode="_" horiz-adv-x="956" d="M-18 -154h993v-102h-993v102z" />
<glyph unicode="`" horiz-adv-x="946" d="M348 1352q0 57 70 80l303 -289q-12 -14 -32.5 -23.5t-45.5 -9.5q-20 0 -42.5 7t-47.5 26l-141 112q-64 46 -64 97z" />
<glyph unicode="a" horiz-adv-x="1048" d="M76 279q0 141 99 227t321 86q125 0 290 -31v84q0 125 -57 179.5t-197 54.5q-74 0 -125 -8.5t-86.5 -18.5t-60 -18.5t-45.5 -8.5q-31 0 -47 28q-11 18 -11 48q0 15 3 33q51 16 152.5 38.5t224.5 22.5q113 0 186.5 -26.5t116.5 -76.5t60.5 -123t17.5 -165v-213 q0 -68 2 -119t9 -94t19.5 -84t30.5 -88q-14 -8 -29.5 -13t-38.5 -5q-29 0 -47 12t-26 31q-10 20 -19.5 58t-15.5 91h-4q-53 -84 -146.5 -141t-234.5 -57q-86 0 -150.5 23.5t-107.5 64.5t-63.5 95.5t-20.5 113.5zM211 285q0 -84 61.5 -136.5t167.5 -52.5q119 0 205 55.5 t141 159.5v154q-156 29 -262 29q-160 0 -236.5 -55.5t-76.5 -153.5z" />
<glyph unicode="b" horiz-adv-x="1140" d="M133 4q4 66 7 163t3 212v958q0 25 15.5 40.5t56.5 15.5q18 0 35.5 -2t28.5 -7v-544q45 59 132 107t210 48q88 0 169.5 -32.5t144 -95t100.5 -156t38 -213.5q0 -111 -32.5 -205t-93 -163t-144.5 -108.5t-189 -39.5q-113 0 -204 51t-138 133h-2v-44q0 -26 -2 -48 q-4 -37 -18 -57.5t-60 -20.5q-34 0 -57 8zM279 410q0 -66 24.5 -122.5t67.5 -98.5t100 -65.5t125 -23.5q70 0 130 26t106.5 75t73 122.5t26.5 170.5q0 92 -26.5 162.5t-73 119.5t-107.5 75t-133 26q-104 0 -188.5 -51.5t-124.5 -137.5v-278z" />
<glyph unicode="c" horiz-adv-x="919" d="M68 485q0 104 33.5 196.5t97 161t153.5 107.5t201 39q104 0 177 -21.5t132 -54.5q1 -9 1 -16q0 -35 -15 -57q-18 -27 -47 -27q-18 0 -38 9t-46.5 19.5t-64.5 19.5t-93 9q-72 0 -135.5 -25.5t-111.5 -74.5t-76.5 -120.5t-28.5 -164.5q0 -90 28.5 -160.5t76.5 -119.5 t111.5 -75t135.5 -26q57 0 99 9.5t72 20.5t50.5 20.5t36.5 9.5q33 0 49 -26q13 -20 13 -57v-20q-35 -18 -70 -32.5t-74 -24.5t-83 -15t-99 -5q-111 0 -201 38.5t-153.5 107.5t-97 160t-33.5 195z" />
<glyph unicode="d" horiz-adv-x="1136" d="M68 500q0 127 41 220t105.5 154.5t146 91t163.5 29.5q104 0 190.5 -41t145.5 -112v495q0 25 15.5 40.5t56.5 15.5q18 0 35.5 -2t27.5 -7v-1054q0 -100 3 -182t8 -148q-27 -10 -64 -10q-68 0 -68 71v93h-2q-66 -92 -155.5 -133t-194.5 -41q-90 0 -172 34.5t-145.5 100 t-100 163t-36.5 222.5zM207 500q0 -182 92 -292t250 -110q92 0 178 45t133 140v411q-47 92 -133 138.5t-180 46.5q-76 0 -138.5 -28t-107.5 -78t-69.5 -119.5t-24.5 -153.5z" />
<glyph unicode="e" horiz-adv-x="1042" d="M68 487q0 109 35.5 202t99 161t148.5 106.5t184 38.5q113 0 196.5 -44t138 -111.5t81 -149.5t26.5 -158q0 -66 -6 -90h-768q4 -84 33.5 -147.5t79 -107.5t114 -66.5t137.5 -22.5q61 0 107.5 10.5t82.5 22.5t62.5 22.5t48.5 10.5q29 0 47 -28q13 -19 13 -46q0 -12 -2 -27 q-55 -29 -148.5 -57.5t-206.5 -28.5q-119 0 -213 39t-158.5 109t-98 161.5t-33.5 200.5zM205 545h643q-4 70 -27.5 131t-63.5 107t-96.5 73t-125.5 27q-70 0 -128.5 -26t-101.5 -72t-68.5 -107t-31.5 -133z" />
<glyph unicode="f" horiz-adv-x="673" d="M45 907q0 35 14.5 48.5t36.5 13.5h88v110q0 86 23.5 149.5t66.5 104.5t101.5 61.5t126.5 20.5q72 0 144.5 -14.5t115.5 -30.5q1 -11 1 -21q0 -39 -13 -58q-16 -24 -50 -23q-29 0 -73.5 14t-122.5 14q-86 0 -134 -51t-48 -174v-102h352q6 -18 6 -51q0 -35 -14.5 -48.5 t-36.5 -13.5h-307v-813q0 -25 -15.5 -40t-56.5 -15q-18 0 -36.5 2t-29.5 6v860h-133q-2 10 -4 23.5t-2 27.5z" />
<glyph unicode="g" horiz-adv-x="1013" d="M55 -117q0 74 42 138.5t122 105.5q-16 16 -30.5 39.5t-14.5 58.5q0 39 23.5 75t66.5 48q-29 12 -60.5 36t-59 59.5t-46 85t-18.5 114.5q0 76 27.5 141.5t80 111.5t126 72.5t165.5 26.5q115 0 203 -41l141 27q74 14 140 25q10 -10 18 -26.5t8 -35.5q0 -29 -17.5 -45 t-51.5 -18l-48 -2q-12 0 -24 1q-37 1 -70 1l-2 -2q47 -45 76 -104.5t29 -137.5q0 -150 -105.5 -242t-296.5 -92q-39 0 -70.5 6t-48.5 4q-29 -4 -47 -19t-18 -44q0 -35 37 -53.5t100 -26.5l273 -37q150 -20 211 -83.5t61 -162.5q0 -68 -29.5 -126t-90 -100t-151 -66.5 t-210.5 -24.5q-102 0 -183.5 24.5t-138.5 67.5t-88 100.5t-31 120.5zM182 -100q4 -92 89 -154.5t243 -62.5q82 0 143.5 16t102.5 44t60.5 63.5t19.5 72.5q0 55 -35 86t-133 45l-250 35q-51 6 -82 16.5t-51 20.5q-51 -29 -81 -76q-26 -41 -26 -92v-14zM215 643 q0 -117 72.5 -176t191.5 -59q125 0 198 59t73 176t-74 180.5t-197 63.5q-121 0 -192.5 -63.5t-71.5 -180.5z" />
<glyph unicode="h" horiz-adv-x="1105" d="M137 -4v1341q0 25 15.5 40.5t56.5 15.5q18 0 36.5 -2t28.5 -7v-550q53 66 135.5 113.5t198.5 47.5q74 0 140.5 -24.5t116.5 -74.5t80 -129t30 -187v-537q0 -25 -15.5 -40t-56.5 -15q-18 0 -36.5 2t-28.5 6v569q0 158 -73 235t-196 77q-92 0 -174 -51.5t-121 -127.5v-655 q0 -25 -15 -40t-56 -15q-18 0 -37 2t-29 6z" />
<glyph unicode="i" horiz-adv-x="438" d="M131 1300q0 37 25.5 63t62.5 26t62.5 -26t25.5 -63q0 -35 -25.5 -61.5t-62.5 -26.5t-62.5 26.5t-25.5 61.5zM147 -4v928q0 25 15.5 40t56.5 15q18 0 36.5 -2t29.5 -6v-928q0 -25 -15.5 -40t-56.5 -15q-18 0 -37 2t-29 6z" />
<glyph unicode="j" horiz-adv-x="450" d="M-78 -332q0 33 37 51q61 31 100 56.5t61.5 58.5t31 77t8.5 109v904q0 25 15 40t56 15q18 0 37 -2t29 -6v-934q0 -92 -18.5 -162t-58.5 -122t-101.5 -91t-147.5 -70q-49 37 -49 76zM143 1300q0 37 27 63t61 26q37 0 64 -26t27 -63q0 -35 -27 -61.5t-64 -26.5 q-35 0 -61.5 26.5t-26.5 61.5z" />
<glyph unicode="k" horiz-adv-x="940" d="M137 -4v1341q0 25 15.5 40.5t56.5 15.5q18 0 36.5 -3.5t28.5 -7.5v-856l441 416q18 18 42.5 28.5t63.5 10.5q31 0 54.5 -5t39.5 -9l-491 -461l524 -494q-18 -6 -41.5 -11t-56.5 -5q-41 0 -65.5 10t-45.5 31l-465 448v-442q0 -25 -15 -40t-56 -15q-18 0 -37 2t-29 6z" />
<glyph unicode="l" horiz-adv-x="411" d="M137 -4v1341q0 25 15.5 40.5t56.5 15.5q18 0 36.5 -3.5t28.5 -7.5v-1339q0 -25 -15 -40t-56 -15q-18 0 -37 2t-29 6z" />
<glyph unicode="m" horiz-adv-x="1601" d="M137 -4v973q31 10 58 10q78 0 77 -90v-47h2q41 66 116 109.5t159 43.5q96 0 177 -49t114 -147q55 94 134 145t183 51q86 0 146.5 -28.5t97.5 -76.5t53 -112.5t16 -136.5v-598q0 -25 -15 -40t-56 -15q-18 0 -37 2t-29 6v639q0 117 -56 179.5t-149 62.5q-98 0 -160.5 -51.5 t-95.5 -120.5v-662q0 -25 -15 -40t-56 -15q-18 0 -37 2t-29 6v639q0 117 -57 179.5t-156 62.5q-86 0 -151.5 -51.5t-96.5 -118.5v-664q0 -25 -15 -40t-56 -15q-18 0 -37 2t-29 6z" />
<glyph unicode="n" horiz-adv-x="1105" d="M137 -4v973q31 10 58 10q78 0 77 -90v-58h4q53 72 136.5 118t195.5 46q178 0 272.5 -113.5t94.5 -299.5v-539q0 -25 -15.5 -40t-56.5 -15q-18 0 -36.5 2t-28.5 6v571q0 160 -73 235t-196 75q-41 0 -85 -12.5t-84 -36t-72.5 -56.5t-53.5 -74v-655q0 -25 -15 -40t-56 -15 q-18 0 -37 2t-29 6z" />
<glyph unicode="o" horiz-adv-x="1105" d="M68 487q0 102 34.5 194.5t99 162t154.5 110.5t201 41t199 -41t151.5 -110.5t97 -161.5t33.5 -195q0 -104 -33.5 -195t-96 -161t-151.5 -109.5t-200 -39.5t-201 38.5t-154.5 106.5t-99 159.5t-34.5 200.5zM203 487q0 -98 30.5 -170.5t81 -122t114 -73t128.5 -23.5 q61 0 122.5 23.5t111 72t81 122t31.5 171.5q0 92 -28.5 165t-75.5 123t-109.5 77t-132.5 27q-66 0 -129 -27t-113.5 -77t-81 -123t-30.5 -165z" />
<glyph unicode="p" horiz-adv-x="1134" d="M137 -385v1354q31 10 58 10q78 0 77 -90v-70h2q59 82 139.5 129t198.5 47q92 0 175 -36.5t145.5 -104.5t98.5 -162t36 -209q0 -131 -41 -226t-106.5 -156.5t-146.5 -91t-163 -29.5q-117 0 -202.5 47t-133.5 106v-471q0 -25 -15 -40t-56 -15q-18 0 -37 2t-29 6zM274 281 q39 -78 120 -131.5t192 -53.5q74 0 136 27t107 76t71 120.5t26 163.5q0 76 -20.5 146.5t-63.5 126t-106.5 88.5t-149.5 33q-92 0 -178 -50.5t-134 -144.5v-401z" />
<glyph unicode="q" horiz-adv-x="1134" d="M68 479q0 113 35.5 208t97 164t144.5 106.5t177 37.5q117 0 205 -54t131 -132h2v80q0 90 78 90q27 0 57 -10v-1307q0 -25 -15 -40t-56 -15q-18 0 -37 2t-29 6v516q-66 -78 -155 -113.5t-175 -35.5q-96 0 -180 37.5t-146.5 104t-98 158t-35.5 197.5zM207 479 q0 -80 22.5 -150.5t66.5 -121.5t106.5 -81t142.5 -30q96 0 182 46t133 139v274q0 66 -23.5 124t-65.5 102t-99.5 70t-124.5 26q-84 0 -147.5 -32t-106.5 -87.5t-64.5 -127t-21.5 -151.5z" />
<glyph unicode="r" horiz-adv-x="684" d="M137 -4v973q31 10 58 10q78 0 77 -90v-94h4q49 111 130 154.5t180 43.5q59 0 112 -16q3 -18 3 -33q0 -37 -17 -58q-22 -26 -56 -26h-10q-24 3 -48 3q-39 0 -76 -8q-61 -13 -110.5 -51t-79.5 -104.5t-30 -164.5v-492q0 -25 -15 -40t-56 -15q-18 0 -37 2t-29 6z" />
<glyph unicode="s" horiz-adv-x="935" d="M78 61q-4 18 -4 34q0 23 9 40q15 29 48 29q23 0 53.5 -10.5t72.5 -21.5t94 -21.5t116 -10.5q84 0 134 15.5t77 40t35 53.5t8 53q0 61 -44 93t-153 63l-172 47q-147 41 -210.5 106.5t-63.5 153.5q0 51 18.5 100t63.5 87t116.5 60.5t180.5 22.5q92 0 176 -16t176 -49 q2 -15 2 -28q0 -73 -59 -73q-18 0 -45 9l-63 18q-36 10 -82 18.5t-105 8.5q-133 0 -188.5 -43t-55.5 -103q0 -25 6 -46t25.5 -39.5t55.5 -35t95 -32.5l166 -45q84 -23 140.5 -49.5t91 -59.5t50 -73t15.5 -91q0 -47 -15.5 -96t-58.5 -90t-119.5 -67.5t-197.5 -26.5 q-102 0 -198.5 20t-190.5 55z" />
<glyph unicode="t" horiz-adv-x="784" d="M16 909q0 35 13.5 47.5t33.5 12.5h119v198q0 29 14.5 53.5t65.5 24.5q12 0 28.5 -2t26.5 -6v-268h371q6 -18 6 -51q0 -35 -13 -47.5t-34 -12.5h-330v-551q0 -92 45.5 -147.5t139.5 -55.5q37 0 66.5 8.5t53.5 18.5l42 19q18 8 34 8q29 0 44 -23q11 -16 11 -46 q0 -12 -1 -26q-53 -35 -118 -56t-147 -21q-145 0 -225 87t-80 226v559h-159q-7 18 -7 51z" />
<glyph unicode="u" horiz-adv-x="1112" d="M131 393v531q0 25 15.5 40t56.5 15q18 0 36.5 -2t28.5 -6v-574q0 -152 75 -224.5t185 -72.5q86 0 165 46.5t138 144.5v633q0 25 15.5 40t56.5 15q18 0 36.5 -2t29.5 -6v-518q0 -98 6 -208t41 -239q-12 -6 -32.5 -11t-41.5 -5q-55 0 -70 45q-4 12 -12 47t-14 82h-2 q-59 -84 -143.5 -133t-198.5 -49q-78 0 -144.5 24.5t-118 74.5t-80 128t-28.5 184z" />
<glyph unicode="v" horiz-adv-x="890" d="M0 965q10 6 31.5 10t40.5 4q29 0 51 -10.5t33 -38.5l178 -488l56 -161l54 -160h2l56 158l59 163l182 490q10 29 31 38t49 9q16 0 37 -4t31 -10l-356 -922q-10 -33 -32 -45t-63 -12q-39 0 -71 12z" />
<glyph unicode="w" horiz-adv-x="1372" d="M18 963q14 6 34 11t42 5q33 0 53.5 -12.5t28.5 -42.5l117 -492l37 -167l32 -148h5l19 76q11 43 24.5 86t24.5 85l20 72l161 529q39 12 74 12q51 0 68.5 -13.5t29.5 -54.5l140 -473q29 -96 49 -175l37 -146h4l31 143q16 76 41 174l124 498q12 49 72 49q23 0 39 -5l29 -9 l-238 -918q-10 -35 -39.5 -48t-64.5 -13q-20 0 -46 3t-40 7l-238 819l-225 -764q-10 -39 -39 -52t-68 -13q-18 0 -45.5 3t-42.5 9z" />
<glyph unicode="x" horiz-adv-x="933" d="M39 6l348 496l-324 461q16 6 40 11t44 5q59 0 82 -35l242 -356l248 354q23 37 80 37q18 0 40.5 -4t39.5 -10l-334 -469l348 -490q-16 -6 -40 -11t-44 -5q-59 0 -82 35l-268 385l-260 -385q-23 -35 -82 -35q-20 0 -41 5t-37 11z" />
<glyph unicode="y" horiz-adv-x="915" d="M8 963q16 6 33.5 11t38.5 5q33 0 55.5 -12.5t34.5 -44.5l299 -770h2l293 772q12 31 33.5 43t44.5 12q18 0 38.5 -5t37.5 -11l-519 -1303q-12 -31 -33.5 -43t-43.5 -12q-18 0 -39 5t-37 11l160 373z" />
<glyph unicode="z" horiz-adv-x="894" d="M59 57q0 23 5.5 44.5t23.5 43.5l574 713h-537q-23 0 -37 13.5t-14 48.5q0 16 2 30.5t4 22.5h741q2 -8 4 -23.5t2 -29.5q0 -18 -5 -42t-21 -42l-582 -721h612q4 -20 5 -52q0 -37 -13.5 -50t-36.5 -13h-720q-2 10 -4.5 25.5t-2.5 31.5z" />
<glyph unicode="{" horiz-adv-x="589" d="M94 424v96q33 8 62.5 18.5t52 26t36 39t13.5 58.5q0 43 -8 87t-17.5 88t-16.5 90t-7 95q0 109 50 188.5t169 143.5q49 -25 49 -66q0 -39 -26 -59q-74 -45 -97.5 -100.5t-23.5 -114.5q0 -86 19.5 -178.5t19.5 -190.5q0 -61 -33 -106t-92 -66q59 -18 91 -67.5t32 -106.5 q0 -49 -8 -101l-14 -103l-13 -96q-6 -46 -6 -85q2 -55 27.5 -103.5t97.5 -93.5q14 -10 20 -23t6 -34q0 -20 -14 -36.5t-37 -29.5q-63 37 -105 76t-67 79t-35 80t-10 75q0 57 7 109.5t16 99.5l18 90q8 43 8 80q0 72 -46 99.5t-118 41.5z" />
<glyph unicode="|" horiz-adv-x="546" d="M211 -385v1694q0 23 14.5 37t50.5 14q16 0 33 -3t27 -7v-1692q0 -23 -14.5 -37t-51.5 -14q-16 0 -32.5 2t-26.5 6z" />
<glyph unicode="}" horiz-adv-x="589" d="M115 -336q0 37 26 55q74 45 97.5 100.5t23.5 114.5q0 86 -20.5 178.5t-20.5 190.5q0 61 33 106.5t92 65.5q-59 18 -91 67.5t-32 106.5q0 49 7.5 101.5t15.5 102.5t14 96t6 85q-2 55 -27.5 103.5t-88.5 89.5q-35 25 -35 67q0 39 47 60q68 -37 109.5 -76t66 -79t35 -80 t10.5 -75q0 -57 -8 -109t-17.5 -99.5t-16.5 -90.5t-7 -79q0 -72 46 -99.5t118 -42.5v-96q-33 -8 -62.5 -18.5t-52.5 -25.5t-36 -38.5t-13 -58.5q0 -43 7 -87t16.5 -89t17.5 -90.5t8 -94.5q0 -109 -50 -188.5t-169 -143.5q-49 25 -49 70z" />
<glyph unicode="~" d="M229 356l154 293q12 8 33.5 14.5t50.5 6.5q57 0 92 -37l223 -201l115 225h107l-152 -292q-18 -8 -39.5 -13.5t-40.5 -5.5q-41 0 -61.5 13.5t-36.5 29.5l-217 197l-121 -230h-107z" />
<glyph unicode="&#xa1;" horiz-adv-x="522" d="M162 1247q0 41 29.5 71t70.5 30t69.5 -30t28.5 -71t-28.5 -70.5t-69.5 -29.5t-70.5 29.5t-29.5 70.5zM180 4l29 858q4 27 17.5 36t39.5 9q25 0 41 -10l41 -829q4 -74 -90 -74q-47 0 -78 10z" />
<glyph unicode="&#xa2;" d="M213 575q0 98 29.5 184.5t85 153t135.5 108.5t180 54v217q0 23 12.5 35t46.5 12q16 0 31 -4t25 -8v-250q80 -6 139 -22.5t111 -44.5q4 -47 -14.5 -73t-47.5 -26q-16 0 -33 7l-37 14q-22 8 -50.5 15t-67.5 11v-765q43 2 74.5 10t56 17t42 17.5t34.5 8.5q70 0 61 -99 q-61 -31 -122.5 -49t-145.5 -24v-234q0 -23 -13.5 -35t-48.5 -12q-16 0 -30.5 2t-22.5 4v277q-100 10 -180 52t-135.5 108.5t-85 153.5t-29.5 185zM352 575q0 -80 22.5 -144t61.5 -112.5t92.5 -79t114.5 -40.5v755q-61 -10 -114.5 -39.5t-92.5 -78t-61.5 -114t-22.5 -147.5z " />
<glyph unicode="&#xa3;" d="M141 623q0 35 15.5 49t38.5 14h137l-37 142q-20 77 -21 153q0 74 24 140.5t73 118.5t123.5 83t175.5 31q104 0 196 -32t156 -71q-4 -41 -20.5 -69.5t-47.5 -28.5q-18 0 -43.5 12.5t-60.5 25.5t-83 25.5t-112 12.5q-117 0 -179 -67.5t-62 -180.5q0 -49 6 -89t13 -75 t16.5 -66.5t15.5 -64.5h397q2 -10 4 -25.5t2 -31.5q0 -37 -14 -50.5t-37 -13.5h-344q-2 -115 -36 -219t-95 -217h680q2 -10 4 -26.5t2 -34.5q0 -68 -72 -68h-763q-4 10 -6.5 20.5t-2.5 45.5q0 43 26 90l56 106q31 59 55.5 133t24.5 170h-196q-4 10 -6.5 26t-2.5 32z" />
<glyph unicode="&#xa4;" d="M207 197l125 127q-29 45 -45.5 96t-16.5 108q0 111 62 201l-125 127l90 92l127 -129q41 31 92 48.5t109 17.5q57 0 109 -17.5t93 -48.5l129 127l88 -88l-129 -129q66 -84 66 -201q0 -115 -63 -202l126 -127l-88 -90l-129 127q-88 -63 -202 -64q-115 0 -203 64l-127 -127z M381 528q0 -51 19.5 -95t52 -76.5t77.5 -52t95 -19.5q51 0 95 19.5t77.5 52t53 76.5t19.5 95q0 49 -19.5 94.5t-53 78t-77.5 52t-95 19.5q-49 0 -94.5 -19.5t-78 -52t-52 -78t-19.5 -94.5z" />
<glyph unicode="&#xa5;" d="M61 1315q16 10 39 15t45 5q29 0 51.5 -9t39.5 -32l378 -587l373 581q35 51 96 51q45 0 78 -16l-469 -723h324q4 -10 5 -26.5t1 -32.5q0 -39 -15.5 -53.5t-37.5 -14.5h-287v-430q0 -25 -17.5 -40t-58.5 -15q-18 0 -36.5 2t-28.5 6v477h-334l-5 27q-3 16 -3 32 q0 37 16 52.5t39 15.5h274z" />
<glyph unicode="&#xa6;" horiz-adv-x="544" d="M209 330q0 23 14.5 37t50.5 14q16 0 33 -3t27 -7v-717q0 -23 -14.5 -37t-51.5 -14q-16 0 -32.5 2t-26.5 6v719zM209 590v719q0 23 14.5 37t50.5 14q16 0 33 -3t27 -7v-717q0 -23 -14.5 -37t-51.5 -14q-16 0 -32.5 2t-26.5 6z" />
<glyph unicode="&#xa7;" d="M215 1081q0 53 21.5 102.5t67.5 87.5t118 60.5t174 22.5q90 0 166 -16.5t168 -49.5q4 -47 -9.5 -73.5t-48.5 -26.5q-23 0 -47 8l-57 18q-33 10 -77 18.5t-103 8.5q-111 0 -174.5 -40t-63.5 -105q0 -25 7.5 -47.5t29 -42t58 -38t98.5 -34.5l139 -37q84 -23 140.5 -51.5 t91 -63t50 -76.5t15.5 -92q0 -63 -38 -124.5t-124 -102.5q90 -41 126 -90t36 -131q0 -47 -16.5 -97.5t-60.5 -91t-119.5 -66.5t-194.5 -26q-104 0 -188.5 17.5t-178.5 54.5q-10 43 6.5 71.5t48.5 28.5q23 0 50.5 -9t64.5 -19.5t85 -19.5t112 -9q82 0 132 15.5t77.5 40t36 53 t8.5 53.5q0 61 -43 93t-154 60l-119 35q-84 23 -141 51.5t-92 62.5t-50.5 75t-15.5 90q0 66 39 128t117 101q-168 67 -168 223zM352 631q0 -41 25.5 -70t70 -51.5t106.5 -39.5l136 -36q160 37 160 170q0 41 -25.5 72t-70.5 54.5t-106.5 43t-135.5 35.5q-80 -18 -120 -65 t-40 -113z" />
<glyph unicode="&#xa8;" horiz-adv-x="946" d="M229 1245q0 37 26 63.5t62 26.5q37 0 64 -26.5t27 -63.5t-27 -62.5t-64 -25.5t-62.5 25.5t-25.5 62.5zM575 1245q0 37 26 63.5t63 26.5q39 0 64.5 -26.5t25.5 -63.5t-26 -62.5t-64 -25.5q-37 0 -63 25.5t-26 62.5z" />
<glyph unicode="&#xa9;" horiz-adv-x="1472" d="M68 664q0 150 49 275.5t138 217.5t212 143.5t270 51.5t269 -51.5t211.5 -142.5t138.5 -217t49 -277q0 -152 -49 -278t-138.5 -218t-211 -143.5t-269.5 -51.5q-147 0 -271 51.5t-212 142.5t-137 218t-49 279zM168 664q0 -129 42 -238t117.5 -187.5t180 -123.5t229.5 -45 t229.5 44t179.5 123.5t117 188.5t42 238q0 127 -43 235.5t-119 187t-180.5 123.5t-227.5 45q-125 0 -229.5 -44t-179 -122.5t-116.5 -187t-42 -237.5zM377 666q0 80 26.5 149.5t75.5 121.5t118 83t153 31q78 0 133 -15.5t102 -42.5q4 -47 -16.5 -67.5t-48.5 -20.5 q-12 0 -24.5 6.5t-31 12.5t-45 12t-65.5 6q-53 0 -100.5 -18.5t-82 -54t-55 -87t-20.5 -116.5q0 -66 20.5 -118t55 -88t81.5 -55.5t101 -19.5q82 0 120.5 18.5t61.5 18.5q29 0 46 -18.5t13 -67.5q-57 -31 -119.5 -45.5t-123.5 -14.5q-84 0 -154 31t-119 84t-75.5 124 t-26.5 151z" />
<glyph unicode="&#xaa;" horiz-adv-x="880" d="M82 772q0 129 96 190.5t252 61.5q47 0 100.5 -6t108.5 -17v54q0 98 -44 141t-146 43t-161 -20.5t-89 -20.5q-27 0 -42.5 22.5t-9.5 69.5q18 6 49 15.5t72 16.5t87 13t96 6q90 0 149 -21.5t94 -61t49.5 -98t14.5 -130.5v-170q0 -53 1 -92t6 -74t14 -67.5t26 -69.5 q-14 -8 -29.5 -13t-34.5 -5q-27 0 -42 11t-24 31.5t-14.5 46t-7.5 54.5q-47 -66 -123.5 -106.5t-175.5 -40.5q-66 0 -117 19t-85.5 51t-52 75t-17.5 92zM201 776q0 -63 47 -103t139 -40q86 0 148.5 44t105.5 122v114q-55 10 -105.5 16.5t-93.5 6.5q-115 0 -178 -40t-63 -120 z" />
<glyph unicode="&#xab;" horiz-adv-x="1150" d="M63 485v113l467 309q6 -16 10.5 -38.5t4.5 -39.5q0 -59 -35 -79l-313 -205l313 -205q35 -23 35 -82q0 -18 -4 -41.5t-11 -40.5zM509 485v113l467 309q6 -16 10.5 -38.5t4.5 -39.5q0 -59 -35 -79l-313 -205l313 -205q35 -23 35 -82q0 -18 -4 -41.5t-11 -40.5z" />
<glyph unicode="&#xac;" d="M111 535q0 37 15 51t42 14h893q27 0 42 -14.5t15 -50.5v-488q0 -23 -15.5 -37t-51.5 -14q-18 0 -34 2t-26 6v469h-874q-2 10 -4 27t-2 35z" />
<glyph unicode="&#xad;" horiz-adv-x="694" d="M53 518q0 35 16.5 50.5t39.5 15.5h524q4 -10 5 -26.5t1 -33.5q0 -39 -15.5 -53t-37.5 -14h-525q-2 10 -5 27.5t-3 33.5z" />
<glyph unicode="&#xae;" horiz-adv-x="761" d="M51 1018q0 68 24.5 128t68.5 104t104.5 71t132.5 27q70 0 130 -27t104 -71t69 -104.5t25 -127.5q0 -72 -25 -132.5t-69 -104.5t-104 -68.5t-130 -24.5q-72 0 -132.5 24.5t-104.5 69.5t-68.5 104.5t-24.5 131.5zM123 1018q0 -66 22.5 -114t59.5 -82t83 -50t93 -16t93 16 t82 50t58.5 82t22.5 114q0 61 -22.5 110.5t-58.5 83t-82 51t-93 17.5t-93 -17.5t-83 -51t-59.5 -83t-22.5 -110.5zM266 848v315q0 12 6.5 20.5t24.5 8.5h96q55 0 90 -29.5t35 -81.5q0 -35 -22.5 -63.5t-71.5 -36.5l100 -125q-4 -4 -16 -8t-29 -4q-16 0 -27.5 7t-19.5 17 l-82 107h-14v-105q0 -27 -37 -26q-17 0 -33 4zM336 1036h49q33 0 47 13.5t14 31.5q0 47 -55 47h-55v-92z" />
<glyph unicode="&#xaf;" horiz-adv-x="946" d="M231 1278q0 35 15.5 48t40.5 13h504q2 -10 3 -24.5t1 -30.5q0 -63 -56 -63h-501q-2 10 -4.5 25.5t-2.5 31.5z" />
<glyph unicode="&#xb0;" horiz-adv-x="806" d="M82 1032q0 68 25.5 126.5t68.5 101.5t101.5 68.5t125.5 25.5q68 0 126.5 -25.5t101.5 -68.5t68.5 -101.5t25.5 -126.5t-25.5 -126t-68.5 -101t-101.5 -68.5t-126.5 -25.5t-126 25.5t-101 68.5t-68.5 101t-25.5 126zM188 1032q0 -45 16.5 -84t46.5 -68.5t68.5 -46 t83.5 -16.5t84 16.5t68 46t46 68.5t17 84t-17 84t-46 67.5t-67.5 46t-84.5 17.5q-45 0 -83.5 -17.5t-68.5 -46t-46.5 -67.5t-16.5 -84z" />
<glyph unicode="&#xb1;" horiz-adv-x="1134" d="M68 908q0 37 15 51t42 14h377v399q0 23 15.5 37.5t51.5 14.5q18 0 34 -2t26 -7v-442h440q2 -10 4 -26.5t2 -34.5q0 -37 -15 -51.5t-42 -14.5h-389v-426q0 -23 -15.5 -37t-52.5 -14q-18 0 -33.5 2t-25.5 6v469h-428q-2 10 -4 27t-2 35z" />
<glyph unicode="&#xb2;" horiz-adv-x="845" d="M123 508q0 12 5 35.5t32 48.5l248 217q53 47 88.5 83t57 66.5t31 58t9.5 60.5q0 78 -48 122t-136 44q-45 0 -80 -10t-63 -23l-49 -22q-22 -10 -40 -10q-23 0 -37 24.5t-18 52.5q41 33 118.5 66t170.5 33q141 0 220 -77t79 -198q0 -47 -13.5 -88t-41 -81t-69.5 -82 t-100 -89l-200 -166v-2h436q2 -10 3 -23t1 -30q0 -31 -14.5 -45t-30.5 -14h-553q-2 8 -4 21.5t-2 27.5z" />
<glyph unicode="&#xb3;" horiz-adv-x="915" d="M152 514q0 35 14 59.5t43 24.5q18 0 37.5 -8t48.5 -17.5t68.5 -17.5t101.5 -8q90 0 146.5 43t56.5 108q0 66 -49.5 111t-169.5 45h-132q-16 0 -27 15.5t-11 37.5q0 10 1 26.5t3 22.5h155q104 0 153.5 40t49.5 104q0 59 -42 101t-142 42q-47 0 -85 -8t-68 -17.5t-49 -16.5 t-32 -7q-35 0 -45 27.5t-12 60.5q49 25 124 47.5t173 22.5q74 0 129 -19.5t92 -51.5t55.5 -75t18.5 -90q0 -78 -42 -131t-108 -72q78 -16 129 -71.5t51 -141.5q0 -61 -25.5 -110t-69.5 -83t-104.5 -51.5t-127.5 -17.5q-92 0 -173 21.5t-136 54.5z" />
<glyph unicode="&#xb4;" horiz-adv-x="946" d="M319 1143l304 289q70 -23 69 -80q0 -51 -63 -97l-142 -112q-25 -18 -47 -25.5t-43 -7.5q-25 0 -45.5 9.5t-32.5 23.5z" />
<glyph unicode="&#xb5;" horiz-adv-x="1148" d="M137 -385v1315q0 25 15.5 40t56.5 15q18 0 36.5 -2t28.5 -6v-539q0 -88 22.5 -152.5t60.5 -105.5t88.5 -61.5t103.5 -20.5q84 0 156.5 47.5t132.5 145.5v639q0 25 15 40t56 15q18 0 37 -2t29 -6v-524q0 -98 6 -208t41 -239q-12 -6 -30.5 -11t-35.5 -5q-25 0 -42 9t-29 36 q-10 23 -15.5 53.5t-11.5 71.5h-2q-55 -84 -127 -133.5t-174 -49.5q-111 0 -176.5 42t-104.5 110v-467q0 -25 -15 -40t-56 -15q-18 0 -37 2t-29 6z" />
<glyph unicode="&#xb6;" horiz-adv-x="1144" d="M47 899q0 92 33 172t94.5 137.5t149.5 90t198 32.5h396q41 0 52 -16.5t11 -40.5v-1231q0 -20 -14.5 -33.5t-48.5 -13.5q-16 0 -31 2t-25 6v1215h-108v-1176q0 -20 -14.5 -33.5t-49.5 -13.5q-16 0 -30.5 2t-24.5 6v473h-113q-111 0 -198.5 32t-149 87t-94.5 133t-33 170z M172 899q0 -147 95 -227t272 -80h96v627h-96q-176 0 -271.5 -86.5t-95.5 -233.5z" />
<glyph unicode="&#xb7;" horiz-adv-x="405" d="M101 510q0 41 29.5 70.5t68.5 29.5q43 0 73 -29.5t30 -70.5q0 -39 -30 -68.5t-73 -29.5q-39 0 -68.5 29.5t-29.5 68.5z" />
<glyph unicode="&#xb8;" horiz-adv-x="946" d="M336 -375q0 23 12 44.5t35 21.5q27 0 56.5 -14.5t82.5 -14.5q47 0 82 24.5t35 71.5q0 33 -29.5 59.5t-103.5 26.5h-10q-35 0 -47.5 21.5t-2.5 46.5l29 88l88 2l-26 -80q55 -2 94 -17.5t61.5 -40t32.5 -52t10 -54.5q0 -90 -64.5 -136t-152.5 -46q-51 0 -99 15.5t-83 33.5z " />
<glyph unicode="&#xb9;" horiz-adv-x="720" d="M129 1153q-6 45 37 66l209 112h86v-846q0 -23 -12.5 -35t-47.5 -12q-16 0 -30.5 2t-24.5 4v744l-182 -94q-8 8 -20.5 22t-14.5 37z" />
<glyph unicode="&#xba;" horiz-adv-x="899" d="M74 934q0 84 28.5 158.5t79.5 130t124 88t161 32.5t159.5 -32.5t123 -88t78 -130t26.5 -156.5q0 -84 -26.5 -159t-77 -130t-122 -88t-161.5 -33q-88 0 -161 31t-124 86t-79.5 130t-28.5 161zM193 934q0 -74 24.5 -130t63 -94t88 -56.5t98.5 -18.5q47 0 95 18.5t86 55 t62.5 93t24.5 132.5q0 70 -22.5 126t-59.5 95t-86 59.5t-100 20.5t-100.5 -20.5t-88 -59.5t-62 -95t-23.5 -126z" />
<glyph unicode="&#xbb;" horiz-adv-x="1150" d="M143 258q0 59 35 80l314 205l-314 205q-35 23 -35 81q0 18 4.5 42t10.5 40l467 -309v-113l-467 -309q-6 16 -10.5 39t-4.5 39zM589 258q0 59 35 80l314 205l-314 205q-35 23 -35 81q0 18 4.5 42t10.5 40l467 -309v-113l-467 -309q-6 16 -10.5 39t-4.5 39z" />
<glyph unicode="&#xbc;" horiz-adv-x="1812" d="M61 1153q-6 45 37 66l209 112h86v-846q0 -23 -12 -35t-47 -12q-16 0 -30.5 2t-24.5 4v744l-183 -94q-8 8 -20.5 22t-14.5 37zM473 184l586 969q16 25 49 25q23 0 41 -9.5t29 -19.5l-586 -969q-16 -25 -49 -24q-23 0 -41.5 9t-28.5 19zM1006 244q0 23 5 42t21 42l416 561 h117v-592h141q4 -10 6 -23.5t2 -29.5q0 -53 -43 -54h-106v-145q0 -23 -12.5 -35t-47.5 -12q-16 0 -30.5 2t-24.5 4v186h-438q-2 10 -4 25t-2 29zM1139 297h311v418z" />
<glyph unicode="&#xbd;" horiz-adv-x="1853" d="M61 1153q-6 45 37 66l209 112h86v-846q0 -23 -12 -35t-47 -12q-16 0 -30.5 2t-24.5 4v744l-183 -94q-8 8 -20.5 22t-14.5 37zM455 184l585 969q16 25 50 25q23 0 41 -9.5t28 -19.5l-586 -969q-16 -25 -49 -24q-23 0 -41 9t-28 19zM1114 53q0 35 9.5 59.5t37.5 49.5 l203 168l92 74q43 34 75 67t49 67.5t17 79.5q0 68 -47 115t-125 47q-47 0 -83.5 -10t-66.5 -22.5l-52.5 -22.5t-40.5 -10q-23 0 -38.5 27.5t-19.5 56.5q20 14 52 31.5t72 32t85 23.5t94 9q66 0 120.5 -20.5t92 -57.5t58 -87t20.5 -107q0 -63 -22.5 -112.5t-62.5 -92.5 t-92 -84l-109 -86l-168 -131v-2h467q0 -10 1 -24.5t1 -31.5q0 -31 -14.5 -45t-30.5 -14h-566q-2 8 -5 24.5t-3 28.5z" />
<glyph unicode="&#xbe;" horiz-adv-x="2062" d="M100 514q0 35 13.5 59.5t42.5 24.5q18 0 38.5 -8t48 -17.5t67.5 -17.5t102 -8q90 0 147 42t57 107q0 66 -50 112t-171 46h-131q-16 0 -26.5 15.5t-10.5 37.5q0 10 1 26.5t3 22.5h154q104 0 154.5 39t50.5 111q0 53 -42 95t-140 42q-49 0 -87 -8t-68 -17.5t-49.5 -16.5 t-31.5 -7q-35 0 -46 27.5t-11 60.5q49 25 123.5 47.5t173.5 22.5q74 0 129 -19.5t92 -51.5t55.5 -75t18.5 -90q0 -78 -42 -131t-108 -72q76 -16 128 -73.5t52 -143.5q0 -61 -25.5 -108t-69.5 -81t-104.5 -51.5t-127.5 -17.5q-92 0 -173.5 21.5t-136.5 54.5zM719 184l586 969 q16 25 49 25q23 0 41 -9.5t28 -19.5l-585 -969q-16 -25 -50 -24q-23 0 -41 9t-28 19zM1253 244q0 23 5.5 42t21.5 42l416 561h116v-592h142q4 -10 6 -23.5t2 -29.5q0 -53 -43 -54h-107v-145q0 -23 -12 -35t-47 -12q-16 0 -30.5 2t-24.5 4v186h-438q-2 10 -4.5 25t-2.5 29z M1386 297h312v418z" />
<glyph unicode="&#xbf;" horiz-adv-x="907" d="M66 317q0 59 18 106.5t45 84.5t58.5 61.5t58.5 40.5q63 39 107 69t72 59.5t41 62.5t17 76q8 31 23.5 41t40.5 10t49 -19q6 -90 -20.5 -152.5t-69.5 -106.5t-96.5 -76.5t-98.5 -66.5t-75.5 -76t-30.5 -103q0 -96 67.5 -156.5t194.5 -60.5q78 0 131 13t90 31l64 30 q27 13 51 14q29 0 46 -24.5t17 -70.5q-31 -23 -76 -44t-97 -37.5t-110.5 -27.5t-115.5 -11q-96 0 -171 24.5t-126 69.5t-77.5 106t-26.5 133zM440 1255q0 39 30 69t71 30q39 0 68.5 -30t29.5 -69q0 -41 -29.5 -70.5t-68.5 -29.5q-41 0 -71 29.5t-30 70.5z" />
<glyph unicode="&#xc0;" horiz-adv-x="1179" d="M12 6l484 1321q51 12 96 12q61 0 85.5 -18t41.5 -66l448 -1249q-12 -8 -32.5 -12t-38.5 -4q-27 0 -50.5 10t-33.5 39l-135 375h-574l-133 -375q-10 -29 -33.5 -39t-50.5 -10q-18 0 -39 5t-35 11zM346 541h488l-240 673h-6zM319 1647q0 57 70 80l303 -289 q-12 -14 -32.5 -23.5t-45.5 -9.5q-20 0 -42.5 7t-47.5 26l-141 112q-64 46 -64 97z" />
<glyph unicode="&#xc1;" horiz-adv-x="1179" d="M12 6l484 1321q51 12 96 12q61 0 85.5 -18t41.5 -66l448 -1249q-12 -8 -32.5 -12t-38.5 -4q-27 0 -50.5 10t-33.5 39l-135 375h-574l-133 -375q-10 -29 -33.5 -39t-50.5 -10q-18 0 -39 5t-35 11zM346 541h488l-240 673h-6zM452 1438l304 289q70 -23 69 -80q0 -51 -63 -97 l-142 -112q-25 -18 -47 -25.5t-43 -7.5q-25 0 -45.5 9.5t-32.5 23.5z" />
<glyph unicode="&#xc2;" horiz-adv-x="1179" d="M12 6l484 1321q51 12 96 12q61 0 85.5 -18t41.5 -66l448 -1249q-12 -8 -32.5 -12t-38.5 -4q-27 0 -50.5 10t-33.5 39l-135 375h-574l-133 -375q-10 -29 -33.5 -39t-50.5 -10q-18 0 -39 5t-35 11zM346 541h488l-240 673h-6zM328 1423l186 258q25 41 74 41q55 0 80 -41 l188 -260q-12 -4 -32.5 -7t-37.5 -3q-43 0 -65 31l-129 184l-125 -182q-23 -33 -68 -33q-25 0 -43 4t-28 8z" />
<glyph unicode="&#xc3;" horiz-adv-x="1179" d="M12 6l484 1321q51 12 96 12q61 0 85.5 -18t41.5 -66l448 -1249q-12 -8 -32.5 -12t-38.5 -4q-27 0 -50.5 10t-33.5 39l-135 375h-574l-133 -375q-10 -29 -33.5 -39t-50.5 -10q-18 0 -39 5t-35 11zM346 541h488l-240 673h-6zM299 1463q23 90 66 138t114 48q37 0 69 -18.5 t59 -41.5l52 -42q24 -18 46 -19q18 0 30.5 17.5t22.5 37t24.5 37t36.5 17.5q33 0 64 -33q-31 -94 -71 -140t-114 -46q-35 0 -66.5 18.5t-59.5 39.5l-54 40q-25 18 -43 18q-23 0 -34 -16t-21 -35.5t-23.5 -36t-37.5 -16.5q-33 0 -60 33z" />
<glyph unicode="&#xc4;" horiz-adv-x="1179" d="M12 6l484 1321q51 12 96 12q61 0 85.5 -18t41.5 -66l448 -1249q-12 -8 -32.5 -12t-38.5 -4q-27 0 -50.5 10t-33.5 39l-135 375h-574l-133 -375q-10 -29 -33.5 -39t-50.5 -10q-18 0 -39 5t-35 11zM346 541h488l-240 673h-6zM327 1528q0 37 26 63.5t62 26.5q37 0 64 -26.5 t27 -63.5t-27 -62.5t-64 -25.5t-62.5 25.5t-25.5 62.5zM673 1528q0 37 26 63.5t63 26.5q39 0 64.5 -26.5t25.5 -63.5t-26 -62.5t-64 -25.5q-37 0 -63 25.5t-26 62.5z" />
<glyph unicode="&#xc5;" horiz-adv-x="1179" d="M12 6l484 1321q51 12 96 12q61 0 85.5 -18t41.5 -66l448 -1249q-12 -8 -32.5 -12t-38.5 -4q-27 0 -50.5 10t-33.5 39l-135 375h-574l-133 -375q-10 -29 -33.5 -39t-50.5 -10q-18 0 -39 5t-35 11zM346 541h488l-240 673h-6zM387 1602q0 43 16.5 78.5t44 62t65.5 42 t81 15.5t80 -15.5t64.5 -42t43 -62t15.5 -78.5q0 -90 -60.5 -145.5t-146.5 -55.5t-144.5 55.5t-58.5 145.5zM479 1602q0 -53 33 -87t80 -34t80 33.5t33 87.5q0 51 -33 84.5t-80 33.5t-80 -33.5t-33 -84.5z" />
<glyph unicode="&#xc6;" horiz-adv-x="1656" d="M-25 8l613 1323h968q2 -10 3.5 -26.5t1.5 -34.5q0 -37 -16.5 -51.5t-39.5 -14.5h-678l123 -452h568q4 -8 5 -24.5t1 -35.5q0 -37 -15.5 -50t-38.5 -13h-489l137 -502h451q2 -10 3 -26.5t1 -32.5q0 -39 -15.5 -53.5t-37.5 -14.5h-439q-31 0 -58.5 10t-37.5 51l-92 345 h-580l-159 -355q-16 -39 -41 -50t-56 -11q-20 0 -43 5t-39 13zM369 535h493l-184 663z" />
<glyph unicode="&#xc7;" horiz-adv-x="1142" d="M68 655q0 143 47 268.5t131 217.5t202.5 144t264.5 52q104 0 202.5 -24.5t182.5 -59.5q4 -66 -15.5 -89t-48.5 -23q-16 0 -42.5 10t-65.5 22.5t-91.5 22.5t-119.5 10q-102 0 -194.5 -38t-161 -109.5t-108.5 -174t-40 -229.5q0 -133 40 -234.5t108.5 -172t160.5 -106.5 t195 -36q68 0 120 10.5t92 23t66.5 22.5t44.5 10q29 0 50.5 -25.5t11.5 -87.5q-86 -39 -193.5 -62.5t-224.5 -19.5l-18 -55q55 -2 94 -17.5t61.5 -40t32.5 -52t10 -54.5q0 -90 -64.5 -136t-152.5 -46q-51 0 -99 15.5t-83 33.5q0 23 12 44.5t35 21.5q27 0 56.5 -14.5 t82.5 -14.5q47 0 82 24.5t35 71.5q0 33 -29.5 59.5t-103.5 26.5h-10q-35 0 -46.5 9.5t-11.5 25.5q0 12 8 35l23 72q-121 18 -218 75.5t-166 144.5t-106.5 201.5t-37.5 247.5z" />
<glyph unicode="&#xc8;" horiz-adv-x="1028" d="M164 57v1217q0 25 11 41t52 16h697q4 -10 6 -26.5t2 -34.5q0 -37 -16.5 -50.5t-38.5 -13.5h-572v-479h563q8 -20 9 -59q0 -37 -14.5 -50.5t-37.5 -13.5h-520v-479h631q4 -10 6 -25.5t2 -31.5q0 -39 -15.5 -53.5t-37.5 -14.5h-664q-41 0 -52 16t-11 41zM340 1647 q0 57 70 80l303 -289q-12 -14 -32.5 -23.5t-45.5 -9.5q-20 0 -42.5 7t-47.5 26l-141 112q-64 46 -64 97z" />
<glyph unicode="&#xc9;" horiz-adv-x="1028" d="M164 57v1217q0 25 11 41t52 16h697q4 -10 6 -26.5t2 -34.5q0 -37 -16.5 -50.5t-38.5 -13.5h-572v-479h563q8 -20 9 -59q0 -37 -14.5 -50.5t-37.5 -13.5h-520v-479h631q4 -10 6 -25.5t2 -31.5q0 -39 -15.5 -53.5t-37.5 -14.5h-664q-41 0 -52 16t-11 41zM393 1438l304 289 q70 -23 69 -80q0 -51 -63 -97l-142 -112q-25 -18 -47 -25.5t-43 -7.5q-25 0 -45.5 9.5t-32.5 23.5z" />
<glyph unicode="&#xca;" horiz-adv-x="1028" d="M164 57v1217q0 25 11 41t52 16h697q4 -10 6 -26.5t2 -34.5q0 -37 -16.5 -50.5t-38.5 -13.5h-572v-479h563q8 -20 9 -59q0 -37 -14.5 -50.5t-37.5 -13.5h-520v-479h631q4 -10 6 -25.5t2 -31.5q0 -39 -15.5 -53.5t-37.5 -14.5h-664q-41 0 -52 16t-11 41zM277 1423l186 258 q25 41 74 41q55 0 80 -41l188 -260q-12 -4 -32.5 -7t-37.5 -3q-43 0 -65 31l-129 184l-125 -182q-23 -33 -68 -33q-25 0 -43 4t-28 8z" />
<glyph unicode="&#xcb;" horiz-adv-x="1028" d="M164 57v1217q0 25 11 41t52 16h697q4 -10 6 -26.5t2 -34.5q0 -37 -16.5 -50.5t-38.5 -13.5h-572v-479h563q8 -20 9 -59q0 -37 -14.5 -50.5t-37.5 -13.5h-520v-479h631q4 -10 6 -25.5t2 -31.5q0 -39 -15.5 -53.5t-37.5 -14.5h-664q-41 0 -52 16t-11 41zM290 1532 q0 37 26 63.5t62 26.5q37 0 64 -26.5t27 -63.5t-27 -62.5t-64 -25.5t-62.5 25.5t-25.5 62.5zM636 1532q0 37 26 63.5t63 26.5q39 0 64.5 -26.5t25.5 -63.5t-26 -62.5t-64 -25.5q-37 0 -63 25.5t-26 62.5z" />
<glyph unicode="&#xcc;" horiz-adv-x="468" d="M164 -4v1284q0 25 17.5 40t58.5 15q18 0 36.5 -2t28.5 -6v-1284q0 -25 -17.5 -40t-58.5 -15q-18 0 -36.5 2t-28.5 6zM10 1645q0 57 70 80l303 -289q-12 -14 -32.5 -23.5t-45.5 -9.5q-20 0 -42.5 7t-47.5 26l-141 112q-64 46 -64 97z" />
<glyph unicode="&#xcd;" horiz-adv-x="468" d="M164 -4v1284q0 25 17.5 40t58.5 15q18 0 36.5 -2t28.5 -6v-1284q0 -25 -17.5 -40t-58.5 -15q-18 0 -36.5 2t-28.5 6zM104 1436l304 289q70 -23 69 -80q0 -51 -63 -97l-142 -112q-25 -18 -47 -25.5t-43 -7.5q-25 0 -45.5 9.5t-32.5 23.5z" />
<glyph unicode="&#xce;" horiz-adv-x="468" d="M164 -4v1284q0 25 17.5 40t58.5 15q18 0 36.5 -2t28.5 -6v-1284q0 -25 -17.5 -40t-58.5 -15q-18 0 -36.5 2t-28.5 6zM-24 1423l186 258q25 41 74 41q55 0 80 -41l188 -260q-12 -4 -32.5 -7t-37.5 -3q-43 0 -65 31l-129 184l-125 -182q-23 -33 -68 -33q-25 0 -43 4t-28 8z " />
<glyph unicode="&#xcf;" horiz-adv-x="468" d="M164 -4v1284q0 25 17.5 40t58.5 15q18 0 36.5 -2t28.5 -6v-1284q0 -25 -17.5 -40t-58.5 -15q-18 0 -36.5 2t-28.5 6zM-25 1534q0 37 26 63.5t62 26.5q37 0 64 -26.5t27 -63.5t-27 -62.5t-64 -25.5t-62.5 25.5t-25.5 62.5zM321 1534q0 37 26 63.5t63 26.5q39 0 64.5 -26.5 t25.5 -63.5t-26 -62.5t-64 -25.5q-37 0 -63 25.5t-26 62.5z" />
<glyph unicode="&#xd0;" horiz-adv-x="1318" d="M-2 674q0 35 15.5 49t37.5 14h133v537q0 25 11.5 41t52.5 16h305q160 0 289 -46t220 -132t140 -207t49 -270q0 -141 -49 -264t-140 -214.5t-220 -144.5t-289 -53h-305q-41 0 -52.5 16.5t-11.5 40.5v557h-178l-5 27q-3 17 -3 33zM326 125h233q111 0 210 35t174 105.5 t119 174t44 242.5q0 143 -51 243.5t-137.5 163t-199 90t-235.5 27.5h-157v-469h321l5 -26q3 -16 3 -33q0 -35 -15 -49.5t-38 -14.5h-276v-489z" />
<glyph unicode="&#xd1;" horiz-adv-x="1351" d="M164 -2v1323q39 14 82 14q55 0 80.5 -14t42.5 -43l688 -1092v1098q0 23 17.5 37t51.5 14q18 0 35 -2t27 -6v-1321q-16 -6 -37 -9t-41 -3q-51 0 -72.5 13t-38.5 40l-700 1110v-1114q0 -23 -17.5 -38t-54.5 -15q-18 0 -35.5 2t-27.5 6zM383 1467q23 90 66 138t114 48 q37 0 69 -18.5t59 -41.5l52 -42q24 -18 46 -19q18 0 30.5 17.5t22.5 37t24.5 37t36.5 17.5q33 0 64 -33q-31 -94 -71 -140t-114 -46q-35 0 -66.5 18.5t-59.5 39.5l-54 40q-25 18 -43 18q-23 0 -34 -16t-21 -35.5t-23.5 -36t-37.5 -16.5q-33 0 -60 33z" />
<glyph unicode="&#xd2;" horiz-adv-x="1406" d="M68 670q0 143 47 268t131 217t201.5 145.5t257.5 53.5q137 0 253.5 -52.5t201.5 -144.5t132 -218t47 -269q0 -145 -47 -271.5t-132 -219.5t-201.5 -147.5t-253.5 -54.5q-139 0 -257 54.5t-202 147.5t-131 219.5t-47 271.5zM215 670q0 -123 39 -227.5t104.5 -180.5 t154.5 -118t189 -42t189.5 44t156 120t105.5 179.5t39 224.5q0 119 -39 221t-105.5 177t-155.5 118t-187 43q-100 0 -189.5 -42t-156 -117t-105.5 -177t-39 -223zM489 1647q0 57 70 80l303 -289q-12 -14 -32.5 -23.5t-45.5 -9.5q-20 0 -42.5 7t-47.5 26l-141 112 q-64 46 -64 97z" />
<glyph unicode="&#xd3;" horiz-adv-x="1406" d="M68 670q0 143 47 268t131 217t201.5 145.5t257.5 53.5q137 0 253.5 -52.5t201.5 -144.5t132 -218t47 -269q0 -145 -47 -271.5t-132 -219.5t-201.5 -147.5t-253.5 -54.5q-139 0 -257 54.5t-202 147.5t-131 219.5t-47 271.5zM215 670q0 -123 39 -227.5t104.5 -180.5 t154.5 -118t189 -42t189.5 44t156 120t105.5 179.5t39 224.5q0 119 -39 221t-105.5 177t-155.5 118t-187 43q-100 0 -189.5 -42t-156 -117t-105.5 -177t-39 -223zM501 1438l304 289q70 -23 69 -80q0 -51 -63 -97l-142 -112q-25 -18 -47 -25.5t-43 -7.5q-25 0 -45.5 9.5 t-32.5 23.5z" />
<glyph unicode="&#xd4;" horiz-adv-x="1406" d="M68 670q0 143 47 268t131 217t201.5 145.5t257.5 53.5q137 0 253.5 -52.5t201.5 -144.5t132 -218t47 -269q0 -145 -47 -271.5t-132 -219.5t-201.5 -147.5t-253.5 -54.5q-139 0 -257 54.5t-202 147.5t-131 219.5t-47 271.5zM215 670q0 -123 39 -227.5t104.5 -180.5 t154.5 -118t189 -42t189.5 44t156 120t105.5 179.5t39 224.5q0 119 -39 221t-105.5 177t-155.5 118t-187 43q-100 0 -189.5 -42t-156 -117t-105.5 -177t-39 -223zM441 1423l186 258q25 41 74 41q55 0 80 -41l188 -260q-12 -4 -32.5 -7t-37.5 -3q-43 0 -65 31l-129 184 l-125 -182q-23 -33 -68 -33q-25 0 -43 4t-28 8z" />
<glyph unicode="&#xd5;" horiz-adv-x="1406" d="M68 670q0 143 47 268t131 217t201.5 145.5t257.5 53.5q137 0 253.5 -52.5t201.5 -144.5t132 -218t47 -269q0 -145 -47 -271.5t-132 -219.5t-201.5 -147.5t-253.5 -54.5q-139 0 -257 54.5t-202 147.5t-131 219.5t-47 271.5zM215 670q0 -123 39 -227.5t104.5 -180.5 t154.5 -118t189 -42t189.5 44t156 120t105.5 179.5t39 224.5q0 119 -39 221t-105.5 177t-155.5 118t-187 43q-100 0 -189.5 -42t-156 -117t-105.5 -177t-39 -223zM412 1467q23 90 66 138t114 48q37 0 69 -18.5t59 -41.5l52 -42q24 -18 46 -19q18 0 30.5 17.5t22.5 37 t24.5 37t36.5 17.5q33 0 64 -33q-31 -94 -71 -140t-114 -46q-35 0 -66.5 18.5t-59.5 39.5l-54 40q-25 18 -43 18q-23 0 -34 -16t-21 -35.5t-23.5 -36t-37.5 -16.5q-33 0 -60 33z" />
<glyph unicode="&#xd6;" horiz-adv-x="1406" d="M68 670q0 143 47 268t131 217t201.5 145.5t257.5 53.5q137 0 253.5 -52.5t201.5 -144.5t132 -218t47 -269q0 -145 -47 -271.5t-132 -219.5t-201.5 -147.5t-253.5 -54.5q-139 0 -257 54.5t-202 147.5t-131 219.5t-47 271.5zM215 670q0 -123 39 -227.5t104.5 -180.5 t154.5 -118t189 -42t189.5 44t156 120t105.5 179.5t39 224.5q0 119 -39 221t-105.5 177t-155.5 118t-187 43q-100 0 -189.5 -42t-156 -117t-105.5 -177t-39 -223zM440 1534q0 37 26 63.5t62 26.5q37 0 64 -26.5t27 -63.5t-27 -62.5t-64 -25.5t-62.5 25.5t-25.5 62.5z M786 1534q0 37 26 63.5t63 26.5q39 0 64.5 -26.5t25.5 -63.5t-26 -62.5t-64 -25.5q-37 0 -63 25.5t-26 62.5z" />
<glyph unicode="&#xd7;" d="M176 152l352 352l-319 317q-16 18 -16 37q0 20 28 47q12 12 24.5 21.5t22.5 13.5l350 -346l318 319q18 18 37 19q20 0 47 -31q12 -12 21.5 -24.5t13.5 -22.5l-346 -350l315 -320q18 -18 18 -34q0 -20 -30 -50q-12 -12 -24.5 -21t-22.5 -13l-347 348l-321 -322 q-16 -16 -33 -16q-25 0 -51 28q-14 12 -22.5 25t-14.5 23z" />
<glyph unicode="&#xd8;" horiz-adv-x="1423" d="M76 670q0 143 47 268t131 217t200.5 145.5t256.5 53.5q98 0 182 -27t156 -74l57 82q14 23 32.5 38.5t51.5 15.5q16 0 36.5 -4.5t37.5 -10.5l-127 -186q98 -94 154.5 -227.5t56.5 -290.5q0 -145 -47.5 -271.5t-132.5 -219.5t-201.5 -147.5t-255.5 -54.5q-96 0 -182.5 28 t-157.5 75l-54 -74q-16 -25 -37.5 -42t-58.5 -17q-16 0 -35.5 5t-31.5 11l129 184q-98 96 -152.5 230.5t-54.5 292.5zM223 670q0 -125 38 -228.5t106 -177.5l602 879q-55 41 -121 63.5t-137 22.5q-100 0 -188.5 -42t-155 -117t-105.5 -177t-39 -223zM446 188 q57 -41 124 -63.5t141 -22.5q98 0 187 43t155.5 120t106.5 180.5t40 224.5q0 111 -38 217t-111 180z" />
<glyph unicode="&#xd9;" horiz-adv-x="1323" d="M135 551v729q0 25 17.5 40t58.5 15q18 0 36.5 -2t28.5 -6v-786q0 -96 25 -177t73 -138.5t119.5 -89.5t165.5 -32q90 0 163 32t123 88.5t77 137t27 179.5v739q0 25 16 40t57 15q18 0 37 -2t29 -6v-778q0 -119 -34 -223.5t-100.5 -182t-166 -123t-228.5 -45.5 q-131 0 -229 45.5t-163.5 123t-98.5 182t-33 225.5zM459 1647q0 57 70 80l303 -289q-12 -14 -32.5 -23.5t-45.5 -9.5q-20 0 -42.5 7t-47.5 26l-141 112q-64 46 -64 97z" />
<glyph unicode="&#xda;" horiz-adv-x="1323" d="M135 551v729q0 25 17.5 40t58.5 15q18 0 36.5 -2t28.5 -6v-786q0 -96 25 -177t73 -138.5t119.5 -89.5t165.5 -32q90 0 163 32t123 88.5t77 137t27 179.5v739q0 25 16 40t57 15q18 0 37 -2t29 -6v-778q0 -119 -34 -223.5t-100.5 -182t-166 -123t-228.5 -45.5 q-131 0 -229 45.5t-163.5 123t-98.5 182t-33 225.5zM559 1438l304 289q70 -23 69 -80q0 -51 -63 -97l-142 -112q-25 -18 -47 -25.5t-43 -7.5q-25 0 -45.5 9.5t-32.5 23.5z" />
<glyph unicode="&#xdb;" horiz-adv-x="1323" d="M135 551v729q0 25 17.5 40t58.5 15q18 0 36.5 -2t28.5 -6v-786q0 -96 25 -177t73 -138.5t119.5 -89.5t165.5 -32q90 0 163 32t123 88.5t77 137t27 179.5v739q0 25 16 40t57 15q18 0 37 -2t29 -6v-778q0 -119 -34 -223.5t-100.5 -182t-166 -123t-228.5 -45.5 q-131 0 -229 45.5t-163.5 123t-98.5 182t-33 225.5zM428 1423l186 258q25 41 74 41q55 0 80 -41l188 -260q-12 -4 -32.5 -7t-37.5 -3q-43 0 -65 31l-129 184l-125 -182q-23 -33 -68 -33q-25 0 -43 4t-28 8z" />
<glyph unicode="&#xdc;" horiz-adv-x="1323" d="M135 551v729q0 25 17.5 40t58.5 15q18 0 36.5 -2t28.5 -6v-786q0 -96 25 -177t73 -138.5t119.5 -89.5t165.5 -32q90 0 163 32t123 88.5t77 137t27 179.5v739q0 25 16 40t57 15q18 0 37 -2t29 -6v-778q0 -119 -34 -223.5t-100.5 -182t-166 -123t-228.5 -45.5 q-131 0 -229 45.5t-163.5 123t-98.5 182t-33 225.5zM428 1532q0 37 26 63.5t62 26.5q37 0 64 -26.5t27 -63.5t-27 -62.5t-64 -25.5t-62.5 25.5t-25.5 62.5zM774 1532q0 37 26 63.5t63 26.5q39 0 64.5 -26.5t25.5 -63.5t-26 -62.5t-64 -25.5q-37 0 -63 25.5t-26 62.5z" />
<glyph unicode="&#xdd;" horiz-adv-x="1093" d="M-2 1315q16 10 38.5 15t45.5 5q29 0 51.5 -9t38.5 -32l379 -587l375 583q18 29 41.5 39t54.5 10q45 0 78 -16l-479 -739v-541q0 -25 -17.5 -40t-58.5 -15q-18 0 -37 2t-29 6v586zM454 1438l304 289q70 -23 69 -80q0 -51 -63 -97l-142 -112q-25 -18 -47 -25.5t-43 -7.5 q-25 0 -45.5 9.5t-32.5 23.5z" />
<glyph unicode="&#xde;" horiz-adv-x="1083" d="M164 -4v1284q0 25 17.5 40t58.5 15q16 0 35.5 -2t29.5 -6v-209h238q119 0 210 -33.5t154.5 -92t96 -138.5t32.5 -172q0 -94 -33.5 -173t-97 -135.5t-153.5 -88t-203 -31.5h-244v-211q0 -25 -17.5 -40t-58.5 -15q-18 0 -36.5 2t-28.5 6zM305 379h225q176 0 268.5 80 t92.5 223t-93 226t-263 83h-230v-612z" />
<glyph unicode="&#xdf;" horiz-adv-x="1214" d="M137 -4v1071q0 90 31 155.5t84 108.5t127 63.5t158 20.5q106 0 184 -29.5t129 -81t75.5 -117t24.5 -138.5q0 -39 -8 -85t-24 -75q-117 -4 -174.5 -44t-57.5 -104q0 -59 34 -97t85 -64.5t111.5 -49t111.5 -55.5t85 -81t34 -126q0 -57 -22.5 -108t-70.5 -90t-121 -61.5 t-173 -22.5q-84 0 -166 16t-156 49q-10 45 7.5 74t48.5 29q20 0 44 -9l54 -18q31 -10 72 -18.5t100 -8.5q129 0 187.5 46.5t58.5 117.5q0 51 -34 84t-85 57.5t-110.5 49t-111 59.5t-85 86t-33.5 133q0 102 72.5 172t195.5 88q4 16 6 31.5t2 32.5q0 100 -72.5 169.5 t-213.5 69.5q-268 0 -269 -245v-1008q0 -25 -15 -40t-56 -15q-18 0 -36 2t-28 6z" />
<glyph unicode="&#xe0;" horiz-adv-x="1048" d="M76 279q0 141 99 227t321 86q125 0 290 -31v84q0 125 -57 179.5t-197 54.5q-74 0 -125 -8.5t-86.5 -18.5t-60 -18.5t-45.5 -8.5q-31 0 -47 28q-11 18 -11 48q0 15 3 33q51 16 152.5 38.5t224.5 22.5q113 0 186.5 -26.5t116.5 -76.5t60.5 -123t17.5 -165v-213 q0 -68 2 -119t9 -94t19.5 -84t30.5 -88q-14 -8 -29.5 -13t-38.5 -5q-29 0 -47 12t-26 31q-10 20 -19.5 58t-15.5 91h-4q-53 -84 -146.5 -141t-234.5 -57q-86 0 -150.5 23.5t-107.5 64.5t-63.5 95.5t-20.5 113.5zM211 285q0 -84 61.5 -136.5t167.5 -52.5q119 0 205 55.5 t141 159.5v154q-156 29 -262 29q-160 0 -236.5 -55.5t-76.5 -153.5zM323 1352q0 57 70 80l303 -289q-12 -14 -32.5 -23.5t-45.5 -9.5q-20 0 -42.5 7t-47.5 26l-141 112q-64 46 -64 97z" />
<glyph unicode="&#xe1;" horiz-adv-x="1048" d="M76 279q0 141 99 227t321 86q125 0 290 -31v84q0 125 -57 179.5t-197 54.5q-74 0 -125 -8.5t-86.5 -18.5t-60 -18.5t-45.5 -8.5q-31 0 -47 28q-11 18 -11 48q0 15 3 33q51 16 152.5 38.5t224.5 22.5q113 0 186.5 -26.5t116.5 -76.5t60.5 -123t17.5 -165v-213 q0 -68 2 -119t9 -94t19.5 -84t30.5 -88q-14 -8 -29.5 -13t-38.5 -5q-29 0 -47 12t-26 31q-10 20 -19.5 58t-15.5 91h-4q-53 -84 -146.5 -141t-234.5 -57q-86 0 -150.5 23.5t-107.5 64.5t-63.5 95.5t-20.5 113.5zM211 285q0 -84 61.5 -136.5t167.5 -52.5q119 0 205 55.5 t141 159.5v154q-156 29 -262 29q-160 0 -236.5 -55.5t-76.5 -153.5zM362 1143l304 289q70 -23 69 -80q0 -51 -63 -97l-142 -112q-25 -18 -47 -25.5t-43 -7.5q-25 0 -45.5 9.5t-32.5 23.5z" />
<glyph unicode="&#xe2;" horiz-adv-x="1048" d="M76 279q0 141 99 227t321 86q125 0 290 -31v84q0 125 -57 179.5t-197 54.5q-74 0 -125 -8.5t-86.5 -18.5t-60 -18.5t-45.5 -8.5q-31 0 -47 28q-11 18 -11 48q0 15 3 33q51 16 152.5 38.5t224.5 22.5q113 0 186.5 -26.5t116.5 -76.5t60.5 -123t17.5 -165v-213 q0 -68 2 -119t9 -94t19.5 -84t30.5 -88q-14 -8 -29.5 -13t-38.5 -5q-29 0 -47 12t-26 31q-10 20 -19.5 58t-15.5 91h-4q-53 -84 -146.5 -141t-234.5 -57q-86 0 -150.5 23.5t-107.5 64.5t-63.5 95.5t-20.5 113.5zM211 285q0 -84 61.5 -136.5t167.5 -52.5q119 0 205 55.5 t141 159.5v154q-156 29 -262 29q-160 0 -236.5 -55.5t-76.5 -153.5zM263 1120l186 258q25 41 74 41q55 0 80 -41l188 -260q-12 -4 -32.5 -7t-37.5 -3q-43 0 -65 31l-129 184l-125 -182q-23 -33 -68 -33q-25 0 -43 4t-28 8z" />
<glyph unicode="&#xe3;" horiz-adv-x="1048" d="M76 279q0 141 99 227t321 86q125 0 290 -31v84q0 125 -57 179.5t-197 54.5q-74 0 -125 -8.5t-86.5 -18.5t-60 -18.5t-45.5 -8.5q-31 0 -47 28q-11 18 -11 48q0 15 3 33q51 16 152.5 38.5t224.5 22.5q113 0 186.5 -26.5t116.5 -76.5t60.5 -123t17.5 -165v-213 q0 -68 2 -119t9 -94t19.5 -84t30.5 -88q-14 -8 -29.5 -13t-38.5 -5q-29 0 -47 12t-26 31q-10 20 -19.5 58t-15.5 91h-4q-53 -84 -146.5 -141t-234.5 -57q-86 0 -150.5 23.5t-107.5 64.5t-63.5 95.5t-20.5 113.5zM211 285q0 -84 61.5 -136.5t167.5 -52.5q119 0 205 55.5 t141 159.5v154q-156 29 -262 29q-160 0 -236.5 -55.5t-76.5 -153.5zM233 1182q23 90 66 138t114 48q37 0 69 -18.5t59 -41.5l52 -42q24 -18 46 -19q18 0 30.5 17.5t22.5 37t24.5 37t36.5 17.5q33 0 64 -33q-31 -94 -71 -140t-114 -46q-35 0 -66.5 18.5t-59.5 39.5l-54 40 q-25 18 -43 18q-23 0 -34 -16t-21 -35.5t-23.5 -36t-37.5 -16.5q-33 0 -60 33z" />
<glyph unicode="&#xe4;" horiz-adv-x="1048" d="M76 279q0 141 99 227t321 86q125 0 290 -31v84q0 125 -57 179.5t-197 54.5q-74 0 -125 -8.5t-86.5 -18.5t-60 -18.5t-45.5 -8.5q-31 0 -47 28q-11 18 -11 48q0 15 3 33q51 16 152.5 38.5t224.5 22.5q113 0 186.5 -26.5t116.5 -76.5t60.5 -123t17.5 -165v-213 q0 -68 2 -119t9 -94t19.5 -84t30.5 -88q-14 -8 -29.5 -13t-38.5 -5q-29 0 -47 12t-26 31q-10 20 -19.5 58t-15.5 91h-4q-53 -84 -146.5 -141t-234.5 -57q-86 0 -150.5 23.5t-107.5 64.5t-63.5 95.5t-20.5 113.5zM211 285q0 -84 61.5 -136.5t167.5 -52.5q119 0 205 55.5 t141 159.5v154q-156 29 -262 29q-160 0 -236.5 -55.5t-76.5 -153.5zM262 1245q0 37 26 63.5t62 26.5q37 0 64 -26.5t27 -63.5t-27 -62.5t-64 -25.5t-62.5 25.5t-25.5 62.5zM608 1245q0 37 26 63.5t63 26.5q39 0 64.5 -26.5t25.5 -63.5t-26 -62.5t-64 -25.5q-37 0 -63 25.5 t-26 62.5z" />
<glyph unicode="&#xe5;" horiz-adv-x="1048" d="M76 279q0 141 99 227t321 86q125 0 290 -31v84q0 125 -57 179.5t-197 54.5q-74 0 -125 -8.5t-86.5 -18.5t-60 -18.5t-45.5 -8.5q-31 0 -47 28t-8 81q51 16 152.5 38.5t224.5 22.5q113 0 186.5 -26.5t116.5 -76.5t60.5 -123t17.5 -165v-213q0 -68 2 -119t9 -94t19.5 -84 t30.5 -88q-14 -8 -29.5 -13t-38.5 -5q-29 0 -47 12t-26 31q-10 20 -19.5 58t-15.5 91h-4q-53 -84 -146.5 -141t-234.5 -57q-86 0 -150.5 23.5t-107.5 64.5t-63.5 95.5t-20.5 113.5zM211 285q0 -84 61.5 -136.5t167.5 -52.5q119 0 205 55.5t141 159.5v154q-156 29 -262 29 q-160 0 -236.5 -55.5t-76.5 -153.5zM322 1280q0 43 16 79t45 62.5t66.5 42t80.5 15.5q86 0 144.5 -56.5t58.5 -142.5q0 -88 -60.5 -143.5t-146.5 -55.5t-145 55.5t-59 143.5zM414 1280q0 -53 33.5 -86t80.5 -33t80 34t33 85q0 53 -33 87t-80 34t-80.5 -34t-33.5 -87z" />
<glyph unicode="&#xe6;" horiz-adv-x="1728" d="M76 258q0 66 24.5 120t83 93t157.5 60.5t249 21.5q80 0 182 -6q6 86 -10.5 149.5t-51 103.5t-88 59.5t-116.5 19.5q-66 0 -112 -8.5t-80.5 -18.5t-59.5 -18.5t-45 -8.5q-29 0 -45.5 28t-9.5 81q47 16 135 38.5t207 22.5q147 0 233 -59t117 -164q47 92 140 157.5t233 65.5 q111 0 194.5 -42t139 -111.5t84 -156.5t28.5 -177v-33q0 -16 -4 -31h-764q2 -82 30.5 -146.5t76 -108.5t112 -67.5t137.5 -23.5q61 0 108.5 9.5t83.5 21.5l62 22q27 9 49 9q29 0 46.5 -25.5t9.5 -71.5q-57 -29 -150.5 -57.5t-204.5 -28.5q-156 0 -258 63.5t-151 152.5 q-61 -86 -165.5 -148.5t-262.5 -62.5q-90 0 -154.5 21.5t-106.5 59t-62.5 88t-20.5 107.5zM213 262q0 -78 57.5 -122t163.5 -44q238 0 359 203q-10 27 -16.5 71t-6.5 76q-96 6 -168 7q-115 0 -189.5 -12.5t-119.5 -37t-62.5 -60.5t-17.5 -81zM899 545h635q-4 70 -27.5 131 t-63.5 107t-96.5 73t-127.5 27q-70 0 -126.5 -26t-97.5 -72t-65.5 -107t-30.5 -133z" />
<glyph unicode="&#xe7;" horiz-adv-x="919" d="M68 485q0 104 33.5 196.5t97 161t153.5 107.5t201 39q104 0 177 -21.5t132 -54.5q4 -47 -14.5 -73.5t-46.5 -26.5q-18 0 -38 9t-46.5 19.5t-64.5 19.5t-93 9q-72 0 -135.5 -25.5t-111.5 -74.5t-76.5 -120.5t-28.5 -164.5q0 -90 28.5 -160.5t76.5 -119.5t111.5 -75 t135.5 -26q57 0 99 9.5t72 20.5t50.5 20.5t36.5 9.5q33 0 49.5 -25.5t12.5 -77.5q-35 -18 -70 -32.5t-74 -24.5t-83 -15t-99 -5h-23l-20 -62q55 -2 94 -17.5t61.5 -40t33 -52t10.5 -54.5q0 -90 -64.5 -136t-152.5 -46q-51 0 -99.5 15.5t-83.5 33.5q0 23 12.5 44.5t34.5 21.5 q27 0 56.5 -14.5t83.5 -14.5q47 0 81.5 24.5t34.5 71.5q0 33 -29.5 59.5t-103.5 26.5h-10q-35 0 -47 21.5t-2 46.5l26 82q-88 16 -158.5 61t-119.5 109.5t-74.5 146.5t-25.5 174z" />
<glyph unicode="&#xe8;" horiz-adv-x="1042" d="M68 487q0 109 35.5 202t99 161t148.5 106.5t184 38.5q113 0 196.5 -44t138 -111.5t81 -149.5t26.5 -158q0 -66 -6 -90h-768q4 -84 33.5 -147.5t79 -107.5t114 -66.5t137.5 -22.5q61 0 107.5 10.5t82.5 22.5t62.5 22.5t48.5 10.5q29 0 47 -28q13 -19 13 -46q0 -12 -2 -27 q-55 -29 -148.5 -57.5t-206.5 -28.5q-119 0 -213 39t-158.5 109t-98 161.5t-33.5 200.5zM205 545h643q-4 70 -27.5 131t-63.5 107t-96.5 73t-125.5 27q-70 0 -128.5 -26t-101.5 -72t-68.5 -107t-31.5 -133zM332 1352q0 57 70 80l303 -289q-12 -14 -32.5 -23.5t-45.5 -9.5 q-20 0 -42.5 7t-47.5 26l-141 112q-64 46 -64 97z" />
<glyph unicode="&#xe9;" horiz-adv-x="1042" d="M68 487q0 109 35.5 202t99 161t148.5 106.5t184 38.5q113 0 196.5 -44t138 -111.5t81 -149.5t26.5 -158q0 -66 -6 -90h-768q4 -84 33.5 -147.5t79 -107.5t114 -66.5t137.5 -22.5q61 0 107.5 10.5t82.5 22.5t62.5 22.5t48.5 10.5q29 0 47 -28q13 -19 13 -46q0 -12 -2 -27 q-55 -29 -148.5 -57.5t-206.5 -28.5q-119 0 -213 39t-158.5 109t-98 161.5t-33.5 200.5zM205 545h643q-4 70 -27.5 131t-63.5 107t-96.5 73t-125.5 27q-70 0 -128.5 -26t-101.5 -72t-68.5 -107t-31.5 -133zM380 1143l304 289q70 -23 69 -80q0 -51 -63 -97l-142 -112 q-25 -18 -47 -25.5t-43 -7.5q-25 0 -45.5 9.5t-32.5 23.5z" />
<glyph unicode="&#xea;" horiz-adv-x="1042" d="M68 487q0 109 35.5 202t99 161t148.5 106.5t184 38.5q113 0 196.5 -44t138 -111.5t81 -149.5t26.5 -158q0 -66 -6 -90h-768q4 -84 33.5 -147.5t79 -107.5t114 -66.5t137.5 -22.5q61 0 107.5 10.5t82.5 22.5t62.5 22.5t48.5 10.5q29 0 47 -28q13 -19 13 -46q0 -12 -2 -27 q-55 -29 -148.5 -57.5t-206.5 -28.5q-119 0 -213 39t-158.5 109t-98 161.5t-33.5 200.5zM205 545h643q-4 70 -27.5 131t-63.5 107t-96.5 73t-125.5 27q-70 0 -128.5 -26t-101.5 -72t-68.5 -107t-31.5 -133zM258 1120l186 258q25 41 74 41q55 0 80 -41l188 -260 q-12 -4 -32.5 -7t-37.5 -3q-43 0 -65 31l-129 184l-125 -182q-23 -33 -68 -33q-25 0 -43 4t-28 8z" />
<glyph unicode="&#xeb;" horiz-adv-x="1042" d="M68 487q0 109 35.5 202t99 161t148.5 106.5t184 38.5q113 0 196.5 -44t138 -111.5t81 -149.5t26.5 -158q0 -66 -6 -90h-768q4 -84 33.5 -147.5t79 -107.5t114 -66.5t137.5 -22.5q61 0 107.5 10.5t82.5 22.5t62.5 22.5t48.5 10.5q29 0 47 -28q13 -19 13 -46q0 -12 -2 -27 q-55 -29 -148.5 -57.5t-206.5 -28.5q-119 0 -213 39t-158.5 109t-98 161.5t-33.5 200.5zM205 545h643q-4 70 -27.5 131t-63.5 107t-96.5 73t-125.5 27q-70 0 -128.5 -26t-101.5 -72t-68.5 -107t-31.5 -133zM258 1245q0 37 26 63.5t62 26.5q37 0 64 -26.5t27 -63.5t-27 -62.5 t-64 -25.5t-62.5 25.5t-25.5 62.5zM604 1245q0 37 26 63.5t63 26.5q39 0 64.5 -26.5t25.5 -63.5t-26 -62.5t-64 -25.5q-37 0 -63 25.5t-26 62.5z" />
<glyph unicode="&#xec;" horiz-adv-x="438" d="M147 -4v928q0 25 15.5 40t56.5 15q18 0 36.5 -2t29.5 -6v-928q0 -25 -15.5 -40t-56.5 -15q-18 0 -37 2t-29 6zM-17 1352q0 57 70 80l303 -289q-12 -14 -32.5 -23.5t-45.5 -9.5q-20 0 -42.5 7t-47.5 26l-141 112q-64 46 -64 97z" />
<glyph unicode="&#xed;" horiz-adv-x="438" d="M147 -4v928q0 25 15.5 40t56.5 15q18 0 36.5 -2t29.5 -6v-928q0 -25 -15.5 -40t-56.5 -15q-18 0 -37 2t-29 6zM118 1143l304 289q70 -23 69 -80q0 -51 -63 -97l-142 -112q-25 -18 -47 -25.5t-43 -7.5q-25 0 -45.5 9.5t-32.5 23.5z" />
<glyph unicode="&#xee;" horiz-adv-x="438" d="M147 -4v928q0 25 15.5 40t56.5 15q18 0 36.5 -2t29.5 -6v-928q0 -25 -15.5 -40t-56.5 -15q-18 0 -37 2t-29 6zM-24 1120l186 258q25 41 74 41q55 0 80 -41l188 -260q-12 -4 -32.5 -7t-37.5 -3q-43 0 -65 31l-129 184l-125 -182q-23 -33 -68 -33q-25 0 -43 4t-28 8z" />
<glyph unicode="&#xef;" horiz-adv-x="438" d="M147 -4v928q0 25 15.5 40t56.5 15q18 0 36.5 -2t29.5 -6v-928q0 -25 -15.5 -40t-56.5 -15q-18 0 -37 2t-29 6zM-21 1245q0 37 26 63.5t62 26.5q37 0 64 -26.5t27 -63.5t-27 -62.5t-64 -25.5t-62.5 25.5t-25.5 62.5zM325 1245q0 37 26 63.5t63 26.5q39 0 64.5 -26.5 t25.5 -63.5t-26 -62.5t-64 -25.5q-37 0 -63 25.5t-26 62.5z" />
<glyph unicode="&#xf0;" horiz-adv-x="1200" d="M68 479q0 102 35.5 190.5t99 154t150.5 102.5t192 37q100 0 186 -34t158 -98q-27 111 -83 194t-144 142l-250 -129q-18 -10 -29 -10q-14 0 -29 33q-14 27 -14 53l215 111q-29 14 -60.5 25.5t-66.5 21.5q-41 10 -41 53q0 31 27 72q158 -41 268 -107l156 80q18 10 28 10 t17.5 -6t17.5 -28q6 -12 8 -26.5t2 -23.5l-135 -69q139 -113 205 -276t66 -369q0 -133 -36 -244t-100.5 -189.5t-156.5 -122.5t-205 -44q-109 0 -198 37.5t-151.5 104t-97 158t-34.5 197.5zM203 479q0 -96 30.5 -166.5t79.5 -119t110.5 -72t123.5 -23.5q100 0 169.5 42 t113.5 109.5t63.5 153.5t19.5 172q0 29 -2 55.5t-6 53.5q-63 78 -156.5 122t-189.5 44q-66 0 -129 -23.5t-114.5 -69.5t-82 -116t-30.5 -162z" />
<glyph unicode="&#xf1;" horiz-adv-x="1105" d="M137 -4v973q31 10 58 10q78 0 77 -90v-58h4q53 72 136.5 118t195.5 46q178 0 272.5 -113.5t94.5 -299.5v-539q0 -25 -15.5 -40t-56.5 -15q-18 0 -36.5 2t-28.5 6v571q0 160 -73 235t-196 75q-41 0 -85 -12.5t-84 -36t-72.5 -56.5t-53.5 -74v-655q0 -25 -15 -40t-56 -15 q-18 0 -37 2t-29 6zM262 1182q23 90 66 138t114 48q37 0 69 -18.5t59 -41.5l52 -42q24 -18 46 -19q18 0 30.5 17.5t22.5 37t24.5 37t36.5 17.5q33 0 64 -33q-31 -94 -71 -140t-114 -46q-35 0 -66.5 18.5t-59.5 39.5l-54 40q-25 18 -43 18q-23 0 -34 -16t-21 -35.5t-23.5 -36 t-37.5 -16.5q-33 0 -60 33z" />
<glyph unicode="&#xf2;" horiz-adv-x="1105" d="M68 487q0 102 34.5 194.5t99 162t154.5 110.5t201 41t199 -41t151.5 -110.5t97 -161.5t33.5 -195q0 -104 -33.5 -195t-96 -161t-151.5 -109.5t-200 -39.5t-201 38.5t-154.5 106.5t-99 159.5t-34.5 200.5zM203 487q0 -98 30.5 -170.5t81 -122t114 -73t128.5 -23.5 q61 0 122.5 23.5t111 72t81 122t31.5 171.5q0 92 -28.5 165t-75.5 123t-109.5 77t-132.5 27q-66 0 -129 -27t-113.5 -77t-81 -123t-30.5 -165zM354 1352q0 57 70 80l303 -289q-12 -14 -32.5 -23.5t-45.5 -9.5q-20 0 -42.5 7t-47.5 26l-141 112q-64 46 -64 97z" />
<glyph unicode="&#xf3;" horiz-adv-x="1105" d="M68 487q0 102 34.5 194.5t99 162t154.5 110.5t201 41t199 -41t151.5 -110.5t97 -161.5t33.5 -195q0 -104 -33.5 -195t-96 -161t-151.5 -109.5t-200 -39.5t-201 38.5t-154.5 106.5t-99 159.5t-34.5 200.5zM203 487q0 -98 30.5 -170.5t81 -122t114 -73t128.5 -23.5 q61 0 122.5 23.5t111 72t81 122t31.5 171.5q0 92 -28.5 165t-75.5 123t-109.5 77t-132.5 27q-66 0 -129 -27t-113.5 -77t-81 -123t-30.5 -165zM385 1143l304 289q70 -23 69 -80q0 -51 -63 -97l-142 -112q-25 -18 -47 -25.5t-43 -7.5q-25 0 -45.5 9.5t-32.5 23.5z" />
<glyph unicode="&#xf4;" horiz-adv-x="1105" d="M68 487q0 102 34.5 194.5t99 162t154.5 110.5t201 41t199 -41t151.5 -110.5t97 -161.5t33.5 -195q0 -104 -33.5 -195t-96 -161t-151.5 -109.5t-200 -39.5t-201 38.5t-154.5 106.5t-99 159.5t-34.5 200.5zM203 487q0 -98 30.5 -170.5t81 -122t114 -73t128.5 -23.5 q61 0 122.5 23.5t111 72t81 122t31.5 171.5q0 92 -28.5 165t-75.5 123t-109.5 77t-132.5 27q-66 0 -129 -27t-113.5 -77t-81 -123t-30.5 -165zM291 1120l186 258q25 41 74 41q55 0 80 -41l188 -260q-12 -4 -32.5 -7t-37.5 -3q-43 0 -65 31l-129 184l-125 -182 q-23 -33 -68 -33q-25 0 -43 4t-28 8z" />
<glyph unicode="&#xf5;" horiz-adv-x="1105" d="M68 487q0 102 34.5 194.5t99 162t154.5 110.5t201 41t199 -41t151.5 -110.5t97 -161.5t33.5 -195q0 -104 -33.5 -195t-96 -161t-151.5 -109.5t-200 -39.5t-201 38.5t-154.5 106.5t-99 159.5t-34.5 200.5zM203 487q0 -98 30.5 -170.5t81 -122t114 -73t128.5 -23.5 q61 0 122.5 23.5t111 72t81 122t31.5 171.5q0 92 -28.5 165t-75.5 123t-109.5 77t-132.5 27q-66 0 -129 -27t-113.5 -77t-81 -123t-30.5 -165zM260 1180q23 90 66 138t114 48q37 0 69 -18.5t59 -41.5l52 -42q24 -18 46 -19q18 0 30.5 17.5t22.5 37t24.5 37t36.5 17.5 q33 0 64 -33q-31 -94 -71 -140t-114 -46q-35 0 -66.5 18.5t-59.5 39.5l-54 40q-25 18 -43 18q-23 0 -34 -16t-21 -35.5t-23.5 -36t-37.5 -16.5q-33 0 -60 33z" />
<glyph unicode="&#xf6;" horiz-adv-x="1105" d="M68 487q0 102 34.5 194.5t99 162t154.5 110.5t201 41t199 -41t151.5 -110.5t97 -161.5t33.5 -195q0 -104 -33.5 -195t-96 -161t-151.5 -109.5t-200 -39.5t-201 38.5t-154.5 106.5t-99 159.5t-34.5 200.5zM203 487q0 -98 30.5 -170.5t81 -122t114 -73t128.5 -23.5 q61 0 122.5 23.5t111 72t81 122t31.5 171.5q0 92 -28.5 165t-75.5 123t-109.5 77t-132.5 27q-66 0 -129 -27t-113.5 -77t-81 -123t-30.5 -165zM290 1245q0 37 26 63.5t62 26.5q37 0 64 -26.5t27 -63.5t-27 -62.5t-64 -25.5t-62.5 25.5t-25.5 62.5zM636 1245q0 37 26 63.5 t63 26.5q39 0 64.5 -26.5t25.5 -63.5t-26 -62.5t-64 -25.5q-37 0 -63 25.5t-26 62.5z" />
<glyph unicode="&#xf7;" d="M113 535q0 37 15 51t42 14h944q2 -10 4 -26.5t2 -34.5q0 -37 -15 -51.5t-42 -14.5h-944q-2 10 -4 27t-2 35zM524 903q0 41 30 69.5t67 28.5q41 0 69.5 -28.5t28.5 -69.5q0 -37 -28.5 -66.5t-69.5 -29.5q-37 0 -67 29.5t-30 66.5zM526 170q0 41 29 69.5t68 28.5 q41 0 69.5 -28.5t28.5 -69.5q0 -39 -28.5 -68.5t-69.5 -29.5q-39 0 -68 29.5t-29 68.5z" />
<glyph unicode="&#xf8;" horiz-adv-x="1136" d="M82 487q0 102 36 194.5t100.5 162t154.5 110.5t198 41q70 0 130.5 -17t111.5 -46l51 74q18 29 36 39t50 10q16 0 35 -5.5t29 -11.5l-119 -166q78 -72 119 -171t41 -214q0 -104 -34 -195t-96.5 -161t-152.5 -109.5t-201 -39.5q-147 0 -258 67l-47 -67q-18 -29 -36.5 -39.5 t-55.5 -10.5q-12 0 -28.5 5.5t-26.5 11.5l114 162q-72 70 -111.5 164.5t-39.5 211.5zM219 487q0 -88 24.5 -154.5t65.5 -113.5l434 612q-37 23 -81 35.5t-91 12.5q-66 0 -129 -27t-112 -77t-80 -123t-31 -165zM385 152q43 -29 91 -41.5t95 -12.5q61 0 124 23.5t113 73 t81 122t31 170.5q0 76 -25 152t-76 125z" />
<glyph unicode="&#xf9;" horiz-adv-x="1112" d="M131 393v531q0 25 15.5 40t56.5 15q18 0 36.5 -2t28.5 -6v-574q0 -152 75 -224.5t185 -72.5q86 0 165 46.5t138 144.5v633q0 25 15.5 40t56.5 15q18 0 36.5 -2t29.5 -6v-518q0 -98 6 -208t41 -239q-12 -6 -32.5 -11t-41.5 -5q-55 0 -70 45q-4 12 -12 47t-14 82h-2 q-59 -84 -143.5 -133t-198.5 -49q-78 0 -144.5 24.5t-118 74.5t-80 128t-28.5 184zM385 1352q0 57 70 80l303 -289q-12 -14 -32.5 -23.5t-45.5 -9.5q-20 0 -42.5 7t-47.5 26l-141 112q-64 46 -64 97z" />
<glyph unicode="&#xfa;" horiz-adv-x="1112" d="M131 393v531q0 25 15.5 40t56.5 15q18 0 36.5 -2t28.5 -6v-574q0 -152 75 -224.5t185 -72.5q86 0 165 46.5t138 144.5v633q0 25 15.5 40t56.5 15q18 0 36.5 -2t29.5 -6v-518q0 -98 6 -208t41 -239q-12 -6 -32.5 -11t-41.5 -5q-55 0 -70 45q-4 12 -12 47t-14 82h-2 q-59 -84 -143.5 -133t-198.5 -49q-78 0 -144.5 24.5t-118 74.5t-80 128t-28.5 184zM413 1143l304 289q70 -23 69 -80q0 -51 -63 -97l-142 -112q-25 -18 -47 -25.5t-43 -7.5q-25 0 -45.5 9.5t-32.5 23.5z" />
<glyph unicode="&#xfb;" horiz-adv-x="1112" d="M131 393v531q0 25 15.5 40t56.5 15q18 0 36.5 -2t28.5 -6v-574q0 -152 75 -224.5t185 -72.5q86 0 165 46.5t138 144.5v633q0 25 15.5 40t56.5 15q18 0 36.5 -2t29.5 -6v-518q0 -98 6 -208t41 -239q-12 -6 -32.5 -11t-41.5 -5q-55 0 -70 45q-4 12 -12 47t-14 82h-2 q-59 -84 -143.5 -133t-198.5 -49q-78 0 -144.5 24.5t-118 74.5t-80 128t-28.5 184zM295 1120l186 258q25 41 74 41q55 0 80 -41l188 -260q-12 -4 -32.5 -7t-37.5 -3q-43 0 -65 31l-129 184l-125 -182q-23 -33 -68 -33q-25 0 -43 4t-28 8z" />
<glyph unicode="&#xfc;" horiz-adv-x="1112" d="M131 393v531q0 25 15.5 40t56.5 15q18 0 36.5 -2t28.5 -6v-574q0 -152 75 -224.5t185 -72.5q86 0 165 46.5t138 144.5v633q0 25 15.5 40t56.5 15q18 0 36.5 -2t29.5 -6v-518q0 -98 6 -208t41 -239q-12 -6 -32.5 -11t-41.5 -5q-55 0 -70 45q-4 12 -12 47t-14 82h-2 q-59 -84 -143.5 -133t-198.5 -49q-78 0 -144.5 24.5t-118 74.5t-80 128t-28.5 184zM295 1245q0 37 26 63.5t62 26.5q37 0 64 -26.5t27 -63.5t-27 -62.5t-64 -25.5t-62.5 25.5t-25.5 62.5zM641 1245q0 37 26 63.5t63 26.5q39 0 64.5 -26.5t25.5 -63.5t-26 -62.5t-64 -25.5 q-37 0 -63 25.5t-26 62.5z" />
<glyph unicode="&#xfd;" horiz-adv-x="915" d="M8 963q16 6 33.5 11t38.5 5q33 0 55.5 -12.5t34.5 -44.5l299 -770h2l293 772q12 31 33.5 43t44.5 12q18 0 38.5 -5t37.5 -11l-519 -1303q-12 -31 -33.5 -43t-43.5 -12q-18 0 -39 5t-37 11l160 373zM356 1143l304 289q70 -23 69 -80q0 -51 -63 -97l-142 -112 q-25 -18 -47 -25.5t-43 -7.5q-25 0 -45.5 9.5t-32.5 23.5z" />
<glyph unicode="&#xfe;" horiz-adv-x="1134" d="M137 -385v1722q0 25 15.5 40.5t56.5 15.5q18 0 36.5 -3.5t28.5 -7.5v-542q43 59 130.5 107t211.5 48q88 0 169 -32.5t143.5 -95t100.5 -156t38 -213.5q0 -111 -33 -205t-92 -163t-144 -108.5t-190 -39.5q-111 0 -200 48t-134 122v-490q0 -25 -15 -40t-56 -15q-18 0 -37 2 t-29 6zM274 408q0 -66 25 -122.5t67 -97.5t99 -64.5t125 -23.5q70 0 130 26t106 75t73 122.5t27 170.5q0 92 -27 162.5t-72 119.5t-107.5 75t-131.5 26q-104 0 -188.5 -51.5t-125.5 -137.5v-280z" />
<glyph unicode="&#xff;" horiz-adv-x="915" d="M8 963q16 6 33.5 11t38.5 5q33 0 55.5 -12.5t34.5 -44.5l299 -770h2l293 772q12 31 33.5 43t44.5 12q18 0 38.5 -5t37.5 -11l-519 -1303q-12 -31 -33.5 -43t-43.5 -12q-18 0 -39 5t-37 11l160 373zM206 1245q0 37 26 63.5t62 26.5q37 0 64 -26.5t27 -63.5t-27 -62.5 t-64 -25.5t-62.5 25.5t-25.5 62.5zM552 1245q0 37 26 63.5t63 26.5q39 0 64.5 -26.5t25.5 -63.5t-26 -62.5t-64 -25.5q-37 0 -63 25.5t-26 62.5z" />
<glyph unicode="&#x131;" horiz-adv-x="438" d="M147 -4v928q0 25 15.5 40t56.5 15q18 0 36.5 -2t29.5 -6v-928q0 -25 -15.5 -40t-56.5 -15q-18 0 -37 2t-29 6z" />
<glyph unicode="&#x152;" horiz-adv-x="1783" d="M68 670q0 143 47 268t131 216t201.5 143.5t257.5 52.5q45 0 82.5 -3.5l71.5 -6.5l67 -6q33 -3 67 -3h688q6 -23 7 -61q0 -37 -16.5 -51.5t-39.5 -14.5h-571v-477h565q4 -8 5 -24.5t1 -34.5q0 -37 -15 -50.5t-38 -13.5h-518v-477h633q4 -10 5 -26.5t1 -32.5 q0 -39 -15.5 -53.5t-37.5 -14.5h-650q-47 0 -131 -9t-161 -9q-139 0 -257 53t-202 146t-131 218.5t-47 270.5zM215 670q0 -123 39 -226.5t105.5 -178.5t155.5 -117t192 -42q63 0 111 7.5t102 23.5v1059q-96 29 -213 29q-102 0 -191.5 -42t-156 -116t-105.5 -175t-39 -222z " />
<glyph unicode="&#x153;" horiz-adv-x="1875" d="M68 487q0 102 34.5 194.5t99 162t154.5 110.5t201 41q82 0 148.5 -23.5t117.5 -58t87 -78.5t57 -83q20 39 57 83t89 78.5t115.5 58t137.5 23.5q111 0 193.5 -42t139 -111.5t85 -156.5t28.5 -177q0 -16 -1 -32.5t-3 -31.5h-774q4 -84 34 -147.5t79 -108.5t113.5 -67.5 t138.5 -22.5q61 0 108 9.5t83 21.5l64 22q28 9 50 9q29 0 45 -25.5t8 -71.5q-55 -29 -148 -57.5t-206 -28.5q-86 0 -155.5 21.5t-124 56.5t-93.5 79t-63 87q-25 -43 -61 -86t-86 -76.5t-115.5 -55t-147.5 -21.5q-111 0 -201 38.5t-154.5 106.5t-99 159.5t-34.5 200.5z M203 487q0 -98 30.5 -170.5t81 -122t114 -73t128.5 -23.5q61 0 122.5 23.5t111 72t81 122t31.5 171.5q0 92 -28.5 165t-75.5 123t-109.5 77t-132.5 27q-66 0 -129 -27t-113.5 -77t-81 -123t-30.5 -165zM1036 545h645q-6 70 -29.5 131t-63.5 107t-96 73t-126 27t-128 -26 t-101 -72t-69 -107t-32 -133z" />
<glyph unicode="&#x160;" horiz-adv-x="1075" d="M82 55q-1 8 -1 15q0 40 19 64q23 28 62 28q25 0 57.5 -9.5t76.5 -20.5t101.5 -20.5t130.5 -9.5q86 0 148.5 20.5t101.5 54.5t57.5 80t18.5 95q0 102 -65.5 152.5t-176.5 81.5l-184 53q-94 27 -158.5 63.5t-104.5 82.5t-58.5 100.5t-18.5 115.5q0 59 21.5 122t72.5 113 t136 83t212 33q100 0 198.5 -17.5t207.5 -58.5q1 -8 1 -15q0 -40 -19 -64q-23 -28 -62 -28q-20 0 -49 9.5t-69 19.5t-93 19.5t-121 9.5q-84 0 -141 -20.5t-92 -53.5t-49.5 -73t-14.5 -76q0 -86 54.5 -138.5t195.5 -91.5l189 -53q172 -49 252.5 -139t80.5 -220 q0 -86 -29.5 -156.5t-89 -120.5t-151.5 -79t-217 -29q-94 0 -202.5 17.5t-227.5 60.5zM313 1702q10 4 28.5 8t43.5 4t39 -7t26 -26l125 -182l127 184q23 31 70 31q16 0 36.5 -3t33.5 -7l-189 -260q-25 -41 -80 -41q-49 0 -73 41z" />
<glyph unicode="&#x161;" horiz-adv-x="935" d="M78 61q-4 18 -4 34q0 23 9 40q15 29 48 29q23 0 53.5 -10.5t72.5 -21.5t94 -21.5t116 -10.5q84 0 134 15.5t77 40t35 53.5t8 53q0 61 -44 93t-153 63l-172 47q-147 41 -210.5 106.5t-63.5 153.5q0 51 18.5 100t63.5 87t116.5 60.5t180.5 22.5q92 0 176 -16t176 -49 q2 -15 2 -28q0 -73 -59 -73q-18 0 -45 9l-63 18q-36 10 -82 18.5t-105 8.5q-133 0 -188.5 -43t-55.5 -103q0 -25 6 -46t25.5 -39.5t55.5 -35t95 -32.5l166 -45q84 -23 140.5 -49.5t91 -59.5t50 -73t15.5 -91q0 -47 -15.5 -96t-58.5 -90t-119.5 -67.5t-197.5 -26.5 q-102 0 -198.5 20t-190.5 55zM190 1366q10 4 28.5 8t43.5 4t39 -7t26 -26l125 -182l127 184q23 31 70 31q16 0 36.5 -3t33.5 -7l-189 -260q-25 -41 -80 -41q-49 0 -73 41z" />
<glyph unicode="&#x178;" horiz-adv-x="1093" d="M-2 1315q16 10 38.5 15t45.5 5q29 0 51.5 -9t38.5 -32l379 -587l375 583q18 29 41.5 39t54.5 10q45 0 78 -16l-479 -739v-541q0 -25 -17.5 -40t-58.5 -15q-18 0 -37 2t-29 6v586zM282 1595q0 37 26 63.5t62 26.5q37 0 64 -26.5t27 -63.5t-27 -62.5t-64 -25.5t-62.5 25.5 t-25.5 62.5zM628 1595q0 37 26 63.5t63 26.5q39 0 64.5 -26.5t25.5 -63.5t-26 -62.5t-64 -25.5q-37 0 -63 25.5t-26 62.5z" />
<glyph unicode="&#x17d;" horiz-adv-x="1062" d="M78 1272q0 18 2 33.5t4 25.5h889q2 -10 5 -31.5t3 -39.5q0 -27 -7 -59t-30 -56l-715 -1020h752q4 -10 6 -24.5t2 -32.5q0 -39 -16.5 -53.5t-38.5 -14.5h-838q-4 12 -7 35.5t-3 44.5q0 33 9 60.5t32 60.5l702 1005h-694q-25 0 -41 13.5t-16 52.5zM284 1704q10 4 28.5 8 t43.5 4t39 -7t26 -26l125 -182l127 184q23 31 70 31q16 0 36.5 -3t33.5 -7l-189 -260q-25 -41 -80 -41q-49 0 -73 41z" />
<glyph unicode="&#x17e;" horiz-adv-x="894" d="M59 57q0 23 5.5 44.5t23.5 43.5l574 713h-537q-23 0 -37 13.5t-14 48.5q0 16 2 30.5t4 22.5h741q2 -8 4 -23.5t2 -29.5q0 -18 -5 -42t-21 -42l-582 -721h612q4 -20 5 -52q0 -37 -13.5 -50t-36.5 -13h-720q-2 10 -4.5 25.5t-2.5 31.5zM182 1360q10 4 28.5 8t43.5 4t39 -7 t26 -26l125 -182l127 184q23 31 70 31q16 0 36.5 -3t33.5 -7l-189 -260q-25 -41 -80 -41q-49 0 -73 41z" />
<glyph unicode="&#x192;" horiz-adv-x="702" d="M-352 -252q2 47 19.5 73.5t45.5 26.5q14 0 30.5 -5t36 -12t44 -12t57.5 -5q80 0 127 35.5t64 134.5l139 872h-203v24q0 13 2 27q6 35 21.5 48.5t38.5 13.5h157l23 127q29 166 126 242.5t234 76.5q76 0 145.5 -15.5t110.5 -31.5q-6 -55 -25.5 -78.5t-52.5 -23.5 q-14 0 -31.5 5t-40 10t-52 10t-70.5 5q-86 0 -141.5 -58t-71.5 -169l-16 -100h301q6 -18 6 -51q0 -35 -13.5 -48.5t-33.5 -13.5h-277l-137 -856q-14 -92 -45 -151.5t-74 -95.5t-96 -49t-113 -13q-72 0 -136 20.5t-99 36.5z" />
<glyph unicode="&#x2c6;" horiz-adv-x="946" d="M238 1120l186 258q25 41 74 41q55 0 80 -41l188 -260q-12 -4 -32.5 -7t-37.5 -3q-43 0 -65 31l-129 184l-125 -182q-23 -33 -68 -33q-25 0 -43 4t-28 8z" />
<glyph unicode="&#x2dc;" horiz-adv-x="833" d="M133 1182q23 90 66 138t114 48q37 0 69 -18.5t59 -41.5l52 -42q24 -18 46 -19q18 0 30.5 17.5t22.5 37t24.5 37t36.5 17.5q33 0 64 -33q-31 -94 -71 -140t-114 -46q-35 0 -66.5 18.5t-59.5 39.5l-54 40q-25 18 -43 18q-23 0 -34 -16t-21 -35.5t-23.5 -36t-37.5 -16.5 q-33 0 -60 33z" />
<glyph unicode="&#x2000;" horiz-adv-x="899" />
<glyph unicode="&#x2001;" horiz-adv-x="1800" />
<glyph unicode="&#x2002;" horiz-adv-x="899" />
<glyph unicode="&#x2003;" horiz-adv-x="1800" />
<glyph unicode="&#x2004;" horiz-adv-x="600" />
<glyph unicode="&#x2005;" horiz-adv-x="448" />
<glyph unicode="&#x2006;" horiz-adv-x="299" />
<glyph unicode="&#x2007;" horiz-adv-x="299" />
<glyph unicode="&#x2008;" horiz-adv-x="223" />
<glyph unicode="&#x2009;" horiz-adv-x="358" />
<glyph unicode="&#x200a;" horiz-adv-x="98" />
<glyph unicode="&#x2010;" horiz-adv-x="694" d="M53 518q0 35 16.5 50.5t39.5 15.5h524q4 -10 5 -26.5t1 -33.5q0 -39 -15.5 -53t-37.5 -14h-525q-2 10 -5 27.5t-3 33.5z" />
<glyph unicode="&#x2011;" horiz-adv-x="694" d="M53 518q0 35 16.5 50.5t39.5 15.5h524q4 -10 5 -26.5t1 -33.5q0 -39 -15.5 -53t-37.5 -14h-525q-2 10 -5 27.5t-3 33.5z" />
<glyph unicode="&#x2012;" horiz-adv-x="694" d="M53 518q0 35 16.5 50.5t39.5 15.5h524q4 -10 5 -26.5t1 -33.5q0 -39 -15.5 -53t-37.5 -14h-525q-2 10 -5 27.5t-3 33.5z" />
<glyph unicode="&#x2013;" horiz-adv-x="886" d="M53 518q0 35 16.5 50.5t39.5 15.5h716q2 -10 4 -26.5t2 -33.5q0 -39 -15 -53t-38 -14h-717q-2 10 -5 27.5t-3 33.5z" />
<glyph unicode="&#x2014;" horiz-adv-x="1290" d="M53 518q0 35 16.5 50.5t39.5 15.5h1120q2 -10 4 -26.5t2 -33.5q0 -39 -15.5 -53t-37.5 -14h-1121q-2 10 -5 27.5t-3 33.5z" />
<glyph unicode="&#x2018;" horiz-adv-x="319" d="M76 1016q0 33 11 71.5t22 67.5q41 106 90 162.5t114 60.5l-125 -372q-8 -27 -25.5 -38.5t-33.5 -11.5q-23 0 -38 15.5t-15 44.5z" />
<glyph unicode="&#x2019;" horiz-adv-x="319" d="M33 944l125 373q8 27 24.5 38t32.5 11q20 0 36.5 -15.5t16.5 -43.5q0 -35 -10 -73t-20 -67q-41 -106 -90 -162.5t-115 -60.5z" />
<glyph unicode="&#x201a;" horiz-adv-x="380" d="M10 -248l125 373q8 27 24.5 38t33.5 11q20 0 36.5 -15.5t16.5 -43.5q0 -35 -10.5 -73t-20.5 -67q-41 -106 -90 -162.5t-115 -60.5z" />
<glyph unicode="&#x201c;" horiz-adv-x="612" d="M80 1016q0 33 11 71.5t22 67.5q41 106 90 162.5t114 60.5l-124 -372q-8 -27 -25.5 -38.5t-34.5 -11.5q-23 0 -38 15.5t-15 44.5zM371 1016q0 33 11 71.5t21 67.5q41 106 90.5 162.5t114.5 60.5l-125 -372q-8 -27 -25.5 -38.5t-33.5 -11.5q-23 0 -38 15.5t-15 44.5z" />
<glyph unicode="&#x201d;" horiz-adv-x="610" d="M39 944l125 373q8 27 24.5 38t32.5 11q20 0 36.5 -15.5t16.5 -43.5q0 -35 -10 -73t-20 -67q-41 -106 -90 -163.5t-115 -59.5zM328 944l125 373q8 27 25.5 38t33.5 11q23 0 38 -15.5t15 -43.5q0 -35 -10 -73t-20 -67q-41 -106 -91 -163.5t-116 -59.5z" />
<glyph unicode="&#x201e;" horiz-adv-x="610" d="M0 -248l125 373q8 27 25.5 38t33.5 11q23 0 38.5 -15.5t15.5 -43.5q0 -35 -10.5 -73t-20.5 -67q-41 -106 -91 -162.5t-116 -60.5zM291 -248l125 373q8 27 25.5 38t33.5 11q23 0 38 -15.5t15 -43.5q0 -35 -10 -73t-20 -67q-41 -106 -91 -162.5t-116 -60.5z" />
<glyph unicode="&#x2020;" horiz-adv-x="1024" d="M88 829q0 63 51 64l305 -19l-16 381q-2 31 13.5 55.5t62.5 24.5q16 0 34.5 -3t28.5 -7l-16 -451l344 19q4 -10 5 -27.5t1 -34.5q0 -66 -51 -65l-297 10l10 -268l-20 -797q-2 -18 -11.5 -28.5t-35.5 -10.5q-20 0 -41 4l-21 832l10 268l-350 -10q-4 10 -5 28.5t-1 34.5z " />
<glyph unicode="&#x2021;" horiz-adv-x="1257" d="M322 330q0 33 14 48t37 15l303 -16l-8 192l10 211l-350 -10q-2 10 -4 28.5t-2 35.5q0 33 14 49t37 14l305 -16l-16 374q-2 31 15 55.5t64 24.5q39 0 60 -10l-17 -444l346 18q2 -10 3.5 -27.5t1.5 -33.5q0 -33 -13.5 -50.5t-36.5 -15.5l-299 8l11 -209l-9 -194l342 16 q2 -10 3.5 -27.5t1.5 -33.5q0 -66 -52 -66l-295 6l-12 -561q0 -39 -47 -39q-20 0 -41 4l-12 598l-348 -8q-2 10 -4 29t-2 35z" />
<glyph unicode="&#x2022;" horiz-adv-x="757" d="M131 631q0 51 19.5 96t53.5 78t80 52.5t97 19.5t96 -19.5t79 -52.5t53.5 -78t19.5 -96t-19.5 -97.5t-53.5 -80t-79 -53t-96 -19.5t-97 19.5t-80 53t-53.5 80t-19.5 97.5z" />
<glyph unicode="&#x2026;" horiz-adv-x="1423" d="M584 84q0 41 29.5 70.5t68.5 29.5q43 0 73 -29.5t30 -70.5q0 -39 -30 -68.5t-73 -29.5q-39 0 -68.5 29.5t-29.5 68.5zM1100 84q0 41 29.5 70.5t68.5 29.5q43 0 73 -29.5t30 -70.5q0 -39 -30 -68.5t-73 -29.5q-39 0 -68.5 29.5t-29.5 68.5zM72 84q0 41 29.5 70.5 t68.5 29.5q43 0 73 -29.5t30 -70.5q0 -39 -30 -68.5t-73 -29.5q-39 0 -68.5 29.5t-29.5 68.5z" />
<glyph unicode="&#x202f;" horiz-adv-x="358" />
<glyph unicode="&#x2030;" horiz-adv-x="2078" d="M61 997q0 180 77 268.5t196 88.5q117 0 195.5 -88t78.5 -269q0 -180 -78.5 -269t-195.5 -89q-119 0 -196 89t-77 269zM174 997q0 -133 44 -195.5t116 -62.5t117 62.5t45 195.5t-45 194.5t-117 61.5t-116 -61.5t-44 -194.5zM266 14l746 1282q10 16 26.5 28.5t42.5 12.5 q27 0 43.5 -10t26.5 -14l-743 -1282q-23 -41 -74 -41q-20 0 -37 7t-31 17zM821 350q0 180 77 268.5t196 88.5q117 0 195.5 -88.5t78.5 -268.5t-79 -269t-195 -89q-119 0 -196 89t-77 269zM934 350q0 -133 44 -195.5t116 -62.5t116.5 62.5t44.5 195.5t-45 194.5t-116 61.5 q-72 0 -116 -61.5t-44 -194.5zM1470 350q0 180 77 268.5t196 88.5q117 0 195.5 -88.5t78.5 -268.5t-78.5 -269t-195.5 -89q-119 0 -196 89t-77 269zM1583 350q0 -133 44 -195.5t116 -62.5t117 62.5t45 195.5t-45 194.5t-117 61.5t-116 -61.5t-44 -194.5z" />
<glyph unicode="&#x2039;" horiz-adv-x="688" d="M63 485v113l467 309q6 -16 10.5 -38.5t4.5 -39.5q0 -59 -35 -79l-313 -205l313 -205q35 -23 35 -82q0 -18 -4 -41.5t-11 -40.5z" />
<glyph unicode="&#x203a;" horiz-adv-x="688" d="M143 258q0 59 35 80l314 205l-314 205q-35 23 -35 81q0 18 4.5 42t10.5 40l467 -309v-113l-467 -309q-6 16 -10.5 39t-4.5 39z" />
<glyph unicode="&#x205f;" horiz-adv-x="448" />
<glyph unicode="&#x20ac;" horiz-adv-x="1187" d="M96 553q0 29 14.5 42t34.5 13h91q-2 23 -2.5 54.5t2.5 56.5h-132q-8 20 -8 51q0 29 14.5 42t34.5 13h101q18 137 63 237.5t111.5 165t150.5 95.5t181 31q168 0 327 -72q4 -63 -15.5 -84.5t-49.5 -21.5q-18 0 -41 8t-53.5 17t-71.5 17.5t-98 8.5q-152 0 -247 -106.5 t-118 -295.5h467q2 -8 4 -22.5t2 -28.5q0 -33 -13.5 -44t-31.5 -11h-438q-2 -25 -2 -56.5t2 -54.5h477q2 -8 4 -22.5t2 -28.5q0 -33 -13.5 -44t-31.5 -11h-428q23 -188 119 -294t244 -106q61 0 105 8.5t74.5 17.5t52 17.5t38.5 8.5q29 0 47 -21.5t14 -83.5 q-76 -35 -149.5 -54.5t-177.5 -19.5q-217 0 -345 139.5t-163 387.5h-140q-8 20 -8 51z" />
<glyph unicode="&#x2122;" horiz-adv-x="1263" d="M76 1288q0 25 8 34t25 9h436q0 -4 2 -13t2 -26q0 -41 -35 -41h-162v-493q0 -35 -45 -35q-10 0 -21.5 2t-17.5 4v522h-188q-4 21 -4 37zM578 733l61 590q10 4 27.5 7t27.5 3q35 0 50.5 -9t23.5 -34l127 -426l129 426q8 25 23.5 34t44.5 9q16 0 30.5 -2t24.5 -6l63 -594 q-8 -2 -17 -4t-22 -2q-39 0 -41 27l-49 491l-139 -444q-10 -31 -51 -31q-10 0 -24.5 2t-20.5 6l-141 465l-48 -487q-2 -29 -41 -29q-12 0 -21 2t-17 6z" />
<glyph unicode="&#xe000;" horiz-adv-x="980" d="M0 980h980v-980h-980v980z" />
<glyph horiz-adv-x="894" d="M182 1360q10 4 28.5 8t43.5 4t39 -7t26 -26l125 -182l127 184q23 31 70 31q16 0 36.5 -3t33.5 -7l-189 -260q-25 -41 -80 -41q-49 0 -73 41z" />
</font>
</defs>
</svg>
